<svg width="602" height="88" viewBox="0 0 602 88" fill="none" xmlns="http://www.w3.org/2000/svg">
<g filter="url(#filter0_d_3002_70714)">
<rect x="12.5" y="12.5" width="577" height="63" rx="31.5" fill="white"/>
<rect x="12.5" y="12.5" width="577" height="63" rx="31.5" stroke="#E3E2E4"/>
<g clip-path="url(#clip0_3002_70714)">
<path fill-rule="evenodd" clip-rule="evenodd" d="M44.0119 36.3508C43.8422 34.8498 45.5262 33.8535 46.7602 34.7247L59.9822 44.0604C61.3649 45.0367 60.694 47.2118 59.0017 47.2397L52.3409 47.3496C52.2524 47.3511 52.1712 47.3993 52.1275 47.4764L49.0661 52.8798C48.2303 54.355 45.995 53.8985 45.8046 52.2137L44.0119 36.3508ZM45.895 35.9501C45.7187 35.8256 45.4782 35.9679 45.5024 36.1824L47.2951 52.0452C47.3223 52.2859 47.6416 52.3512 47.761 52.1404L50.8224 46.7369C51.128 46.1975 51.6963 45.8601 52.3162 45.8498L58.9769 45.7399C59.2187 45.7359 59.3145 45.4252 59.117 45.2857L45.895 35.9501Z" fill="#77757D"/>
</g>
<g clip-path="url(#clip1_3002_70714)">
<path fill-rule="evenodd" clip-rule="evenodd" d="M63.2099 33.5152C63.0635 33.3687 63.0635 33.1313 63.2099 32.9848L65.7099 30.4848C65.8564 30.3384 66.0938 30.3384 66.2403 30.4848L68.7403 32.9848C68.8867 33.1313 68.8867 33.3687 68.7403 33.5152C68.5938 33.6616 68.3564 33.6616 68.2099 33.5152L65.9751 31.2803L63.7403 33.5152C63.5938 33.6616 63.3564 33.6616 63.2099 33.5152Z" fill="#77757D" fill-opacity="0.6"/>
</g>
<g clip-path="url(#clip2_3002_70714)">
<path fill-rule="evenodd" clip-rule="evenodd" d="M102.25 38.5C102.25 36.7051 103.705 35.25 105.5 35.25C107.295 35.25 108.75 36.7051 108.75 38.5C108.75 40.2949 107.295 41.75 105.5 41.75C104.89 41.75 104.319 41.582 103.832 41.2896L97.2896 47.8316C97.582 48.3193 97.75 48.89 97.75 49.5C97.75 51.2949 96.2949 52.75 94.5 52.75C92.7051 52.75 91.25 51.2949 91.25 49.5C91.25 47.7051 92.7051 46.25 94.5 46.25C95.1415 46.25 95.7395 46.4358 96.2433 46.7566L102.757 40.2433C102.436 39.7395 102.25 39.1415 102.25 38.5ZM105.5 36.75C104.534 36.75 103.75 37.5335 103.75 38.5C103.75 39.4665 104.534 40.25 105.5 40.25C106.466 40.25 107.25 39.4665 107.25 38.5C107.25 37.5335 106.466 36.75 105.5 36.75ZM94.5 47.75C93.5335 47.75 92.75 48.5335 92.75 49.5C92.75 50.4665 93.5335 51.25 94.5 51.25C95.4665 51.25 96.25 50.4665 96.25 49.5C96.25 48.5335 95.4665 47.75 94.5 47.75Z" fill="#77757D"/>
</g>
<g clip-path="url(#clip3_3002_70714)">
<path fill-rule="evenodd" clip-rule="evenodd" d="M111.21 33.5152C111.063 33.3687 111.063 33.1313 111.21 32.9848L113.71 30.4848C113.856 30.3384 114.094 30.3384 114.24 30.4848L116.74 32.9848C116.887 33.1313 116.887 33.3687 116.74 33.5152C116.594 33.6616 116.356 33.6616 116.21 33.5152L113.975 31.2803L111.74 33.5152C111.594 33.6616 111.356 33.6616 111.21 33.5152Z" fill="#77757D" fill-opacity="0.6"/>
</g>
<g clip-path="url(#clip4_3002_70714)">
<path fill-rule="evenodd" clip-rule="evenodd" d="M141 52.75C140.586 52.75 140.25 52.4142 140.25 52V49.75H138C137.586 49.75 137.25 49.4142 137.25 49C137.25 48.5858 137.586 48.25 138 48.25H140.25L140.25 39.75H138C137.586 39.75 137.25 39.4142 137.25 39C137.25 38.5858 137.586 38.25 138 38.25H140.25V36C140.25 35.5858 140.586 35.25 141 35.25C141.414 35.25 141.75 35.5858 141.75 36V38.25H150.25V36C150.25 35.5858 150.586 35.25 151 35.25C151.414 35.25 151.75 35.5858 151.75 36V38.25H154C154.414 38.25 154.75 38.5858 154.75 39C154.75 39.4142 154.414 39.75 154 39.75H151.75L151.75 48.25H154C154.414 48.25 154.75 48.5858 154.75 49C154.75 49.4142 154.414 49.75 154 49.75H151.75V52C151.75 52.4142 151.414 52.75 151 52.75C150.586 52.75 150.25 52.4142 150.25 52V49.75H141.75V52C141.75 52.4142 141.414 52.75 141 52.75ZM150.25 48.25L150.25 39.75H141.75L141.75 48.25H150.25Z" fill="#77757D"/>
</g>
<g clip-path="url(#clip5_3002_70714)">
<path fill-rule="evenodd" clip-rule="evenodd" d="M149.21 27.5152C149.063 27.3687 149.063 27.1313 149.21 26.9848L151.71 24.4848C151.856 24.3384 152.094 24.3384 152.24 24.4848L154.74 26.9848C154.887 27.1313 154.887 27.3687 154.74 27.5152C154.594 27.6616 154.356 27.6616 154.21 27.5152L151.975 25.2803L149.74 27.5152C149.594 27.6616 149.356 27.6616 149.21 27.5152Z" fill="#77757D" fill-opacity="0.6"/>
</g>
<g clip-path="url(#clip6_3002_70714)">
<path fill-rule="evenodd" clip-rule="evenodd" d="M183.174 35.952C183.174 35.5256 183.52 35.1799 183.946 35.1799H185.086H198.763H199.902C200.329 35.1799 200.674 35.5256 200.674 35.952C200.674 36.3784 200.329 36.724 199.902 36.724H199.535V46.5773H199.902C200.329 46.5773 200.674 46.923 200.674 47.3494C200.674 47.7758 200.329 48.1215 199.902 48.1215H192.696V49.7829L196.638 52.0354C197.008 52.247 197.137 52.7186 196.926 53.0888C196.714 53.459 196.242 53.5876 195.872 53.3761L192.696 51.5613V53.0479C192.696 53.4743 192.351 53.82 191.924 53.82C191.498 53.82 191.152 53.4743 191.152 53.0479V51.6265L188.09 53.3761C187.72 53.5876 187.249 53.459 187.037 53.0888C186.826 52.7186 186.954 52.247 187.324 52.0354L191.152 49.848V48.1215H183.946C183.52 48.1215 183.174 47.7758 183.174 47.3494C183.174 46.923 183.52 46.5773 183.946 46.5773H184.314V36.724H183.946C183.52 36.724 183.174 36.3784 183.174 35.952ZM185.858 36.724H197.99V46.577H185.858V36.724ZM189.277 41.0807C189.277 40.6543 188.932 40.3086 188.505 40.3086C188.079 40.3086 187.733 40.6543 187.733 41.0807V43.3601C187.733 43.7865 188.079 44.1322 188.505 44.1322C188.932 44.1322 189.277 43.7865 189.277 43.3601V41.0807ZM191.924 38.5992C192.351 38.5992 192.696 38.9448 192.696 39.3712V43.3602C192.696 43.7866 192.351 44.1322 191.924 44.1322C191.498 44.1322 191.152 43.7866 191.152 43.3602V39.3712C191.152 38.9448 191.498 38.5992 191.924 38.5992ZM196.115 42.2207C196.115 41.7943 195.77 41.4486 195.343 41.4486C194.917 41.4486 194.571 41.7943 194.571 42.2207V43.3604C194.571 43.7868 194.917 44.1325 195.343 44.1325C195.77 44.1325 196.115 43.7868 196.115 43.3604V42.2207Z" fill="#77757D"/>
</g>
<line x1="222.5" y1="26.5" x2="222.5" y2="61.5" stroke="#E3E2E4" stroke-linecap="round"/>
<g clip-path="url(#clip7_3002_70714)">
<path fill-rule="evenodd" clip-rule="evenodd" d="M247 35.25C245.481 35.25 244.25 36.4812 244.25 38V50C244.25 51.5188 245.481 52.75 247 52.75H257C258.519 52.75 259.75 51.5188 259.75 50V38C259.75 36.4812 258.519 35.25 257 35.25H247ZM245.75 38C245.75 37.3096 246.31 36.75 247 36.75H257C257.69 36.75 258.25 37.3096 258.25 38V50C258.25 50.6904 257.69 51.25 257 51.25H247C246.31 51.25 245.75 50.6904 245.75 50V38ZM249 39.25C248.586 39.25 248.25 39.5858 248.25 40C248.25 40.4142 248.586 40.75 249 40.75H252.5C252.914 40.75 253.25 40.4142 253.25 40C253.25 39.5858 252.914 39.25 252.5 39.25H249ZM248.25 43.5C248.25 43.0858 248.586 42.75 249 42.75H255C255.414 42.75 255.75 43.0858 255.75 43.5C255.75 43.9142 255.414 44.25 255 44.25H249C248.586 44.25 248.25 43.9142 248.25 43.5ZM249 46.25C248.586 46.25 248.25 46.5858 248.25 47C248.25 47.4142 248.586 47.75 249 47.75H254C254.414 47.75 254.75 47.4142 254.75 47C254.75 46.5858 254.414 46.25 254 46.25H249Z" fill="#77757D"/>
</g>
<g clip-path="url(#clip8_3002_70714)">
<path fill-rule="evenodd" clip-rule="evenodd" d="M263.21 33.5152C263.063 33.3687 263.063 33.1313 263.21 32.9848L265.71 30.4848C265.856 30.3384 266.094 30.3384 266.24 30.4848L268.74 32.9848C268.887 33.1313 268.887 33.3687 268.74 33.5152C268.594 33.6616 268.356 33.6616 268.21 33.5152L265.975 31.2803L263.74 33.5152C263.594 33.6616 263.356 33.6616 263.21 33.5152Z" fill="#77757D" fill-opacity="0.6"/>
</g>
<line x1="284.5" y1="12.2429" x2="284.5" y2="75.7569" stroke="#E3E2E4"/>
<g clip-path="url(#clip9_3002_70714)">
<g filter="url(#filter1_d_3002_70714)">
<path d="M302 56.8966L306.283 55.469V124.538H302V56.8966Z" fill="#CF5C5C"/>
<path d="M302 56.8966L306.283 55.469V124.538H302V56.8966Z" fill="white" fill-opacity="0.1"/>
<path d="M306.283 54.9929H311.517V124.538H306.283V54.9929Z" fill="#CF5C5C"/>
<path d="M311.517 54.9929H316.752V124.538H311.517V54.9929Z" fill="#CF5C5C"/>
<path d="M311.517 54.9929H316.752V124.538H311.517V54.9929Z" fill="black" fill-opacity="0.1"/>
<path d="M316.752 48.9448L321.035 56.8965V124.538H316.752V48.9448Z" fill="#CF5C5C"/>
<path d="M316.752 48.9448L321.035 56.8965V124.538H316.752V48.9448Z" fill="black" fill-opacity="0.2"/>
<path d="M310.591 20.8808C310.823 19.9063 312.21 19.9062 312.442 20.8807L313.896 26.9741L316.276 36.9483L321.034 56.8965L317.987 56.0231C317.198 55.7969 316.351 55.9039 315.643 56.3189L312.023 58.4414C311.711 58.6245 311.324 58.6245 311.011 58.4414L307.022 56.1023C306.55 55.8256 305.985 55.7543 305.459 55.905L302 56.8965L306.758 36.9483L309.137 26.9741L310.591 20.8808Z" fill="#F1F1F1"/>
<path d="M310.591 20.8808C310.823 19.9063 312.21 19.9062 312.442 20.8807L313.896 26.9741L316.276 36.9483L321.034 56.8965L317.987 56.0231C317.198 55.7969 316.351 55.9039 315.643 56.3189L312.023 58.4414C311.711 58.6245 311.324 58.6245 311.011 58.4414L307.022 56.1023C306.55 55.8256 305.985 55.7543 305.459 55.905L302 56.8965L306.758 36.9483L309.137 26.9741L310.591 20.8808Z" fill="url(#paint0_linear_3002_70714)" fill-opacity="0.1"/>
<g filter="url(#filter2_b_3002_70714)">
<path d="M310.592 20.8808C310.824 19.9062 312.211 19.9062 312.443 20.8808L314.372 28.969H308.662L310.592 20.8808Z" fill="#CF5C5C"/>
</g>
</g>
<g filter="url(#filter3_d_3002_70714)">
<rect x="341.575" y="21.575" width="33.35" height="57.5" rx="5.175" fill="#F1F1F1" stroke="#DDDDDD" stroke-width="1.15"/>
<g filter="url(#filter4_f_3002_70714)">
<rect x="373.2" y="24.45" width="18.4" height="3.45" rx="1.725" transform="rotate(90 373.2 24.45)" fill="white"/>
</g>
<g filter="url(#filter5_f_3002_70714)">
<rect width="32.2" height="5.75" transform="matrix(1 0 0 -1 342.15 42.8501)" fill="#AFAFAF"/>
</g>
<path d="M352.5 35.375H353.075V35.95V79.65V80.2249H352.5H341H340.425V79.65V57.8V46.875V41.4125V40.0013C340.425 38.9591 341.167 38.0648 342.191 37.8728C342.582 37.7996 342.893 37.506 342.99 37.1209L343.001 37.0733C343.251 36.0752 344.148 35.375 345.177 35.375H346.75H352.5Z" fill="#173654"/>
<path d="M352.5 35.375H353.075V35.95V79.65V80.2249H352.5H341H340.425V79.65V57.8V46.875V41.4125V40.0013C340.425 38.9591 341.167 38.0648 342.191 37.8728C342.582 37.7996 342.893 37.506 342.99 37.1209L343.001 37.0733C343.251 36.0752 344.148 35.375 345.177 35.375H346.75H352.5Z" fill="url(#paint1_linear_3002_70714)" fill-opacity="0.2"/>
<path d="M352.5 35.375H353.075V35.95V79.65V80.2249H352.5H341H340.425V79.65V57.8V46.875V41.4125V40.0013C340.425 38.9591 341.167 38.0648 342.191 37.8728C342.582 37.7996 342.893 37.506 342.99 37.1209L343.001 37.0733C343.251 36.0752 344.148 35.375 345.177 35.375H346.75H352.5Z" stroke="#E0E0E0" stroke-width="1.15"/>
<path d="M364 35.375H363.425V35.95V79.65V80.2249H364H375.5H376.075V79.65V57.8V46.875V41.4125V40.0013C376.075 38.9591 375.333 38.0648 374.309 37.8728C373.918 37.7996 373.607 37.506 373.51 37.1209L373.499 37.0733C373.249 36.0752 372.352 35.375 371.323 35.375H369.75H364Z" fill="#1E96EB" stroke="#E0E0E0" stroke-width="1.15"/>
<rect x="0.575" y="-0.575" width="12.65" height="44.85" transform="matrix(-1 0 0 1 365.15 35.95)" fill="#EFFAFF"/>
<rect x="0.575" y="-0.575" width="12.65" height="44.85" transform="matrix(-1 0 0 1 365.15 35.95)" fill="url(#paint2_linear_3002_70714)" fill-opacity="0.2"/>
<rect x="0.575" y="-0.575" width="12.65" height="44.85" transform="matrix(-1 0 0 1 365.15 35.95)" stroke="#E0E0E0" stroke-width="1.15"/>
</g>
</g>
<g clip-path="url(#clip10_3002_70714)">
<g filter="url(#filter6_d_3002_70714)">
<path d="M425.817 20.3189C426.553 19.0431 428.395 19.0431 429.132 20.3189L456.755 68.1638C457.491 69.4396 456.571 71.0344 455.097 71.0344H399.851C398.378 71.0344 397.457 69.4396 398.194 68.1638L425.817 20.3189Z" fill="#FFDE6B"/>
<path d="M428.579 20.6379L456.202 68.4827C456.693 69.3333 456.08 70.3965 455.097 70.3965H399.851C398.869 70.3965 398.255 69.3333 398.746 68.4827L426.369 20.6379C426.86 19.7873 428.088 19.7873 428.579 20.6379Z" stroke="black" stroke-opacity="0.1" stroke-width="1.27586"/>
</g>
<g filter="url(#filter7_d_3002_70714)">
<circle cx="458.095" cy="49.0255" r="25.5172" fill="#FFDE6B"/>
<circle cx="458.095" cy="49.0255" r="24.8793" stroke="black" stroke-opacity="0.1" stroke-width="1.27586"/>
</g>
<g filter="url(#filter8_d_3002_70714)">
<rect x="402.914" y="35.6292" width="71.7672" height="57.4138" rx="2.39224" fill="#FFDE6B"/>
<rect x="403.711" y="36.4266" width="70.1724" height="55.819" rx="1.59483" stroke="black" stroke-opacity="0.1" stroke-width="1.59483"/>
</g>
</g>
<rect x="509" y="26" width="51" height="42" rx="4" stroke="#E3E2E4" stroke-dasharray="2 2"/>
<mask id="path-37-outside-1_3002_70714" maskUnits="userSpaceOnUse" x="520.5" y="37" width="28" height="20" fill="black">
<rect fill="white" x="520.5" y="37" width="28" height="20"/>
<path d="M533.04 46.688C533.68 46.688 534.136 46.752 534.408 46.88C534.696 46.992 534.84 47.208 534.84 47.528C534.84 47.96 534.144 48.4 532.752 48.848C532.784 50.064 532.8 51.232 532.8 52.352C532.8 53.456 532.712 54.288 532.536 54.848C532.36 55.392 532.08 55.664 531.696 55.664C531.312 55.664 531.008 55.472 530.784 55.088C530.576 54.688 530.4 54.04 530.256 53.144C530.128 52.248 529.992 51.064 529.848 49.592C528.216 49.96 527.04 50.256 526.32 50.48C525.072 53.936 524.24 55.664 523.824 55.664C523.488 55.664 523.04 55.44 522.48 54.992C521.936 54.544 521.664 54.08 521.664 53.6C521.664 53.328 521.976 52.48 522.6 51.056C522.328 50.88 522.088 50.632 521.88 50.312C521.688 49.976 521.592 49.656 521.592 49.352C521.592 48.824 522.384 48.32 523.968 47.84C524.096 47.52 524.224 47.16 524.352 46.76C524.496 46.344 524.84 45.384 525.384 43.88C525.944 42.376 526.384 41.12 526.704 40.112C526.848 39.632 527.344 39.184 528.192 38.768C529.056 38.352 529.728 38.144 530.208 38.144C530.768 38.144 531.264 38.92 531.696 40.472C532.144 42.024 532.456 44.096 532.632 46.688H533.04ZM527.496 47.096C527.976 47.032 528.672 46.952 529.584 46.856C529.536 46.392 529.456 45.6 529.344 44.48C529.248 43.36 529.176 42.552 529.128 42.056C528.856 42.952 528.312 44.632 527.496 47.096ZM546.741 48.896C547.029 49.152 547.173 49.384 547.173 49.592C547.173 49.8 547.077 50.232 546.885 50.888C546.693 51.544 546.565 52.056 546.501 52.424C546.437 52.776 546.381 53.056 546.333 53.264C546.301 53.472 546.277 53.64 546.261 53.768C546.245 53.88 546.213 54.024 546.165 54.2C546.133 54.376 546.101 54.52 546.069 54.632C546.053 54.728 546.021 54.848 545.973 54.992C545.941 55.12 545.901 55.224 545.853 55.304C545.805 55.368 545.749 55.44 545.685 55.52C545.589 55.648 545.429 55.712 545.205 55.712C544.981 55.712 544.701 55.488 544.365 55.04C544.045 54.592 543.805 54.048 543.645 53.408C542.141 54.944 540.877 55.712 539.853 55.712C539.165 55.712 538.421 55.336 537.621 54.584C536.821 53.816 536.421 53.056 536.421 52.304C536.421 51.536 536.765 50.448 537.453 49.04C538.141 47.632 539.077 46.328 540.261 45.128C541.461 43.928 542.645 43.328 543.813 43.328C544.485 43.328 545.261 43.72 546.141 44.504C547.021 45.288 547.461 46.008 547.461 46.664C547.461 47.304 547.221 48.048 546.741 48.896ZM539.757 52.688C540.397 52.688 541.245 52.256 542.301 51.392C543.373 50.512 544.037 49.408 544.293 48.08C544.309 47.888 544.445 47.776 544.701 47.744C544.653 46.832 544.501 46.376 544.245 46.376C543.605 46.376 542.885 46.792 542.085 47.624C541.301 48.456 540.653 49.344 540.141 50.288C539.645 51.232 539.397 51.928 539.397 52.376C539.397 52.504 539.413 52.592 539.445 52.64C539.493 52.672 539.597 52.688 539.757 52.688Z"/>
</mask>
<path d="M533.04 46.688C533.68 46.688 534.136 46.752 534.408 46.88C534.696 46.992 534.84 47.208 534.84 47.528C534.84 47.96 534.144 48.4 532.752 48.848C532.784 50.064 532.8 51.232 532.8 52.352C532.8 53.456 532.712 54.288 532.536 54.848C532.36 55.392 532.08 55.664 531.696 55.664C531.312 55.664 531.008 55.472 530.784 55.088C530.576 54.688 530.4 54.04 530.256 53.144C530.128 52.248 529.992 51.064 529.848 49.592C528.216 49.96 527.04 50.256 526.32 50.48C525.072 53.936 524.24 55.664 523.824 55.664C523.488 55.664 523.04 55.44 522.48 54.992C521.936 54.544 521.664 54.08 521.664 53.6C521.664 53.328 521.976 52.48 522.6 51.056C522.328 50.88 522.088 50.632 521.88 50.312C521.688 49.976 521.592 49.656 521.592 49.352C521.592 48.824 522.384 48.32 523.968 47.84C524.096 47.52 524.224 47.16 524.352 46.76C524.496 46.344 524.84 45.384 525.384 43.88C525.944 42.376 526.384 41.12 526.704 40.112C526.848 39.632 527.344 39.184 528.192 38.768C529.056 38.352 529.728 38.144 530.208 38.144C530.768 38.144 531.264 38.92 531.696 40.472C532.144 42.024 532.456 44.096 532.632 46.688H533.04ZM527.496 47.096C527.976 47.032 528.672 46.952 529.584 46.856C529.536 46.392 529.456 45.6 529.344 44.48C529.248 43.36 529.176 42.552 529.128 42.056C528.856 42.952 528.312 44.632 527.496 47.096ZM546.741 48.896C547.029 49.152 547.173 49.384 547.173 49.592C547.173 49.8 547.077 50.232 546.885 50.888C546.693 51.544 546.565 52.056 546.501 52.424C546.437 52.776 546.381 53.056 546.333 53.264C546.301 53.472 546.277 53.64 546.261 53.768C546.245 53.88 546.213 54.024 546.165 54.2C546.133 54.376 546.101 54.52 546.069 54.632C546.053 54.728 546.021 54.848 545.973 54.992C545.941 55.12 545.901 55.224 545.853 55.304C545.805 55.368 545.749 55.44 545.685 55.52C545.589 55.648 545.429 55.712 545.205 55.712C544.981 55.712 544.701 55.488 544.365 55.04C544.045 54.592 543.805 54.048 543.645 53.408C542.141 54.944 540.877 55.712 539.853 55.712C539.165 55.712 538.421 55.336 537.621 54.584C536.821 53.816 536.421 53.056 536.421 52.304C536.421 51.536 536.765 50.448 537.453 49.04C538.141 47.632 539.077 46.328 540.261 45.128C541.461 43.928 542.645 43.328 543.813 43.328C544.485 43.328 545.261 43.72 546.141 44.504C547.021 45.288 547.461 46.008 547.461 46.664C547.461 47.304 547.221 48.048 546.741 48.896ZM539.757 52.688C540.397 52.688 541.245 52.256 542.301 51.392C543.373 50.512 544.037 49.408 544.293 48.08C544.309 47.888 544.445 47.776 544.701 47.744C544.653 46.832 544.501 46.376 544.245 46.376C543.605 46.376 542.885 46.792 542.085 47.624C541.301 48.456 540.653 49.344 540.141 50.288C539.645 51.232 539.397 51.928 539.397 52.376C539.397 52.504 539.413 52.592 539.445 52.64C539.493 52.672 539.597 52.688 539.757 52.688Z" fill="#FFD338"/>
<path d="M534.408 46.88L534.195 47.3324L534.211 47.3398L534.227 47.346L534.408 46.88ZM532.752 48.848L532.599 48.372L532.243 48.4868L532.252 48.8612L532.752 48.848ZM532.536 54.848L533.012 55.0019L533.013 54.9979L532.536 54.848ZM530.784 55.088L530.341 55.3187L530.346 55.3294L530.352 55.3399L530.784 55.088ZM530.256 53.144L529.761 53.2147L529.763 53.2233L530.256 53.144ZM529.848 49.592L530.346 49.5433L530.291 48.9797L529.738 49.1042L529.848 49.592ZM526.32 50.48L526.172 50.0026L525.934 50.0764L525.85 50.3102L526.32 50.48ZM522.48 54.992L522.162 55.378L522.168 55.3824L522.48 54.992ZM522.6 51.056L523.058 51.2567L523.229 50.8672L522.872 50.6362L522.6 51.056ZM521.88 50.312L521.446 50.5601L521.453 50.5725L521.461 50.5845L521.88 50.312ZM523.968 47.84L524.113 48.3185L524.343 48.2488L524.432 48.0257L523.968 47.84ZM524.352 46.76L523.88 46.5964L523.876 46.6076L524.352 46.76ZM525.384 43.88L524.916 43.7055L524.914 43.7099L525.384 43.88ZM526.704 40.112L527.181 40.2633L527.183 40.2557L526.704 40.112ZM528.192 38.768L527.975 38.3175L527.972 38.3191L528.192 38.768ZM531.696 40.472L531.215 40.6061L531.216 40.6107L531.696 40.472ZM532.632 46.688L532.133 46.7219L532.165 47.188H532.632V46.688ZM527.496 47.096L527.022 46.9388L526.77 47.6972L527.562 47.5916L527.496 47.096ZM529.584 46.856L529.637 47.3533L530.133 47.301L530.082 46.8046L529.584 46.856ZM529.344 44.48L528.846 44.5227L528.847 44.5298L529.344 44.48ZM529.128 42.056L529.626 42.0078L528.65 41.9108L529.128 42.056ZM533.04 47.188C533.671 47.188 534.031 47.2549 534.195 47.3324L534.621 46.4276C534.242 46.2491 533.689 46.188 533.04 46.188V47.188ZM534.227 47.346C534.294 47.372 534.311 47.3961 534.316 47.4033C534.322 47.4119 534.34 47.4436 534.34 47.528H535.34C535.34 47.2924 535.287 47.0561 535.148 46.8486C535.009 46.6399 534.811 46.5 534.589 46.414L534.227 47.346ZM534.34 47.528C534.34 47.4636 534.38 47.5515 534.051 47.7594C533.756 47.9459 533.281 48.1526 532.599 48.372L532.905 49.324C533.616 49.0954 534.184 48.8581 534.585 48.6046C534.953 48.3725 535.34 48.0244 535.34 47.528H534.34ZM532.252 48.8612C532.284 50.0731 532.3 51.2367 532.3 52.352H533.3C533.3 51.2273 533.284 50.0549 533.252 48.8348L532.252 48.8612ZM532.3 52.352C532.3 53.4416 532.212 54.2121 532.059 54.6981L533.013 54.9979C533.212 54.3639 533.3 53.4704 533.3 52.352H532.3ZM532.06 54.6941C531.987 54.9219 531.906 55.0425 531.846 55.1014C531.797 55.1484 531.756 55.164 531.696 55.164V56.164C532.021 56.164 532.311 56.0436 532.543 55.8186C532.762 55.6055 532.91 55.3181 533.012 55.0019L532.06 54.6941ZM531.696 55.164C531.521 55.164 531.367 55.0953 531.216 54.8361L530.352 55.3399C530.649 55.8487 531.103 56.164 531.696 56.164V55.164ZM531.228 54.8573C531.059 54.5318 530.892 53.9501 530.75 53.0647L529.763 53.2233C529.908 54.1299 530.094 54.8442 530.341 55.3187L531.228 54.8573ZM530.751 53.0733C530.625 52.1877 530.49 51.0119 530.346 49.5433L529.351 49.6407C529.495 51.1161 529.632 52.3083 529.761 53.2147L530.751 53.0733ZM529.738 49.1042C528.105 49.4725 526.912 49.7722 526.172 50.0026L526.469 50.9574C527.168 50.7398 528.327 50.4475 529.958 50.0798L529.738 49.1042ZM525.85 50.3102C525.228 52.0338 524.714 53.3106 524.31 54.1511C524.106 54.574 523.939 54.8669 523.809 55.0473C523.743 55.1383 523.7 55.1821 523.68 55.1984C523.653 55.2213 523.706 55.164 523.824 55.164V56.164C524.046 56.164 524.217 56.0527 524.319 55.9676C524.43 55.8759 524.529 55.7577 524.62 55.6327C524.801 55.3811 524.998 55.026 525.211 54.5849C525.638 53.6974 526.165 52.3822 526.79 50.6498L525.85 50.3102ZM523.824 55.164C523.763 55.164 523.646 55.1417 523.46 55.0488C523.278 54.9577 523.056 54.8121 522.793 54.6016L522.168 55.3824C522.465 55.6199 522.747 55.8103 523.013 55.9432C523.275 56.0743 523.55 56.164 523.824 56.164V55.164ZM522.798 54.606C522.314 54.2073 522.164 53.8711 522.164 53.6H521.164C521.164 54.2889 521.559 54.8807 522.162 55.378L522.798 54.606ZM522.164 53.6C522.164 53.6046 522.167 53.5564 522.204 53.4222C522.238 53.3002 522.292 53.1381 522.367 52.9326C522.518 52.5225 522.748 51.965 523.058 51.2567L522.142 50.8553C521.829 51.571 521.59 52.1495 521.429 52.5874C521.349 52.8059 521.285 52.9958 521.241 53.1538C521.2 53.2996 521.164 53.4594 521.164 53.6H522.164ZM522.872 50.6362C522.668 50.5046 522.476 50.3109 522.299 50.0395L521.461 50.5845C521.701 50.9531 521.988 51.2554 522.329 51.4758L522.872 50.6362ZM522.314 50.0639C522.154 49.7832 522.092 49.5483 522.092 49.352H521.092C521.092 49.7637 521.222 50.1688 521.446 50.5601L522.314 50.0639ZM522.092 49.352C522.092 49.35 522.092 49.3443 522.097 49.3325C522.102 49.3196 522.113 49.297 522.137 49.2649C522.189 49.1979 522.286 49.1072 522.455 48.9998C522.794 48.784 523.337 48.5537 524.113 48.3185L523.823 47.3615C523.015 47.6063 522.371 47.868 521.918 48.1562C521.489 48.4293 521.092 48.8176 521.092 49.352H522.092ZM524.432 48.0257C524.566 47.6927 524.698 47.3213 524.828 46.9124L523.876 46.6076C523.751 46.9987 523.627 47.3473 523.504 47.6543L524.432 48.0257ZM524.825 46.9236C524.967 46.5115 525.31 45.5551 525.854 44.0501L524.914 43.7099C524.37 45.2129 524.025 46.1765 523.88 46.5964L524.825 46.9236ZM525.853 44.0545C526.414 42.5463 526.857 41.282 527.181 40.2633L526.228 39.9607C525.911 40.958 525.474 42.2057 524.916 43.7055L525.853 44.0545ZM527.183 40.2557C527.264 39.9873 527.589 39.6206 528.412 39.2169L527.972 38.3191C527.099 38.7474 526.433 39.2767 526.225 39.9683L527.183 40.2557ZM528.409 39.2185C529.26 38.8089 529.847 38.644 530.208 38.644V37.644C529.61 37.644 528.853 37.8951 527.975 38.3175L528.409 39.2185ZM530.208 38.644C530.229 38.644 530.362 38.656 530.579 38.9953C530.787 39.3215 531.003 39.8478 531.215 40.6061L532.178 40.3379C531.957 39.5442 531.709 38.9065 531.422 38.4567C531.142 38.02 530.747 37.644 530.208 37.644V38.644ZM531.216 40.6107C531.65 42.1143 531.959 44.1467 532.133 46.7219L533.131 46.6541C532.954 44.0453 532.639 41.9337 532.177 40.3333L531.216 40.6107ZM532.632 47.188H533.04V46.188H532.632V47.188ZM527.562 47.5916C528.035 47.5285 528.726 47.4491 529.637 47.3533L529.532 46.3587C528.619 46.4549 527.917 46.5355 527.43 46.6004L527.562 47.5916ZM530.082 46.8046C530.034 46.3415 529.954 45.5502 529.842 44.4302L528.847 44.5298C528.959 45.6498 529.039 46.4425 529.087 46.9074L530.082 46.8046ZM529.842 44.4373C529.746 43.3172 529.674 42.5068 529.626 42.0078L528.631 42.1042C528.678 42.5972 528.75 43.4028 528.846 44.5227L529.842 44.4373ZM528.65 41.9108C528.38 42.7999 527.838 44.4742 527.022 46.9388L527.971 47.2532C528.787 44.7898 529.333 43.1041 529.607 42.2012L528.65 41.9108ZM546.741 48.896L546.306 48.6497L546.107 49.0013L546.409 49.2697L546.741 48.896ZM546.885 50.888L546.406 50.7476L546.885 50.888ZM546.501 52.424L546.993 52.5134L546.994 52.5097L546.501 52.424ZM546.333 53.264L545.846 53.1516L545.842 53.1696L545.839 53.188L546.333 53.264ZM546.261 53.768L546.756 53.8387L546.758 53.83L546.261 53.768ZM546.165 54.2L545.683 54.0684L545.677 54.0893L545.673 54.1106L546.165 54.2ZM546.069 54.632L545.589 54.4946L545.581 54.5219L545.576 54.5498L546.069 54.632ZM545.973 54.992L545.499 54.8339L545.493 54.8521L545.488 54.8707L545.973 54.992ZM545.853 55.304L546.253 55.604L546.269 55.5834L546.282 55.5612L545.853 55.304ZM545.685 55.52L545.295 55.2077L545.29 55.2138L545.285 55.22L545.685 55.52ZM544.365 55.04L543.958 55.3307L543.965 55.34L544.365 55.04ZM543.645 53.408L544.13 53.2867L543.914 52.4194L543.288 53.0582L543.645 53.408ZM537.621 54.584L537.275 54.9447L537.279 54.9483L537.621 54.584ZM537.453 49.04L537.004 48.8205L537.453 49.04ZM540.261 45.128L539.908 44.7744L539.905 44.7768L540.261 45.128ZM546.141 44.504L546.474 44.1307L546.474 44.1307L546.141 44.504ZM542.301 51.392L542.618 51.779L542.619 51.7785L542.301 51.392ZM544.293 48.08L544.784 48.1746L544.789 48.1483L544.792 48.1215L544.293 48.08ZM544.701 47.744L544.763 48.2401L545.225 48.1824L545.201 47.7177L544.701 47.744ZM542.085 47.624L541.725 47.2774L541.722 47.2811L542.085 47.624ZM540.141 50.288L539.702 50.0496L539.699 50.0554L540.141 50.288ZM539.445 52.64L539.029 52.9173L539.085 53.0006L539.168 53.056L539.445 52.64ZM546.409 49.2697C546.531 49.3777 546.602 49.4636 546.641 49.5257C546.678 49.5867 546.673 49.6061 546.673 49.592H547.673C547.673 49.1584 547.385 48.799 547.074 48.5223L546.409 49.2697ZM546.673 49.592C546.673 49.6378 546.66 49.7526 546.613 49.9635C546.569 50.1647 546.5 50.4251 546.406 50.7476L547.365 51.0284C547.463 50.6949 547.538 50.4113 547.59 50.1805C547.639 49.9594 547.673 49.7542 547.673 49.592H546.673ZM546.406 50.7476C546.212 51.4094 546.078 51.9426 546.009 52.3383L546.994 52.5097C547.053 52.1694 547.175 51.6786 547.365 51.0284L546.406 50.7476ZM546.009 52.3346C545.946 52.6832 545.892 52.9546 545.846 53.1516L546.821 53.3764C546.871 53.1574 546.929 52.8688 546.993 52.5134L546.009 52.3346ZM545.839 53.188C545.807 53.3981 545.782 53.5713 545.765 53.706L546.758 53.83C546.773 53.7087 546.796 53.5459 546.828 53.34L545.839 53.188ZM545.766 53.6973C545.755 53.7802 545.728 53.9019 545.683 54.0684L546.648 54.3316C546.698 54.1461 546.736 53.9798 546.756 53.8387L545.766 53.6973ZM545.673 54.1106C545.643 54.278 545.614 54.4044 545.589 54.4946L546.55 54.7694C546.588 54.6356 546.624 54.474 546.657 54.2894L545.673 54.1106ZM545.576 54.5498C545.566 54.61 545.543 54.7026 545.499 54.8339L546.448 55.1501C546.5 54.9934 546.541 54.846 546.563 54.7142L545.576 54.5498ZM545.488 54.8707C545.464 54.969 545.439 55.0225 545.425 55.0468L546.282 55.5612C546.364 55.4255 546.419 55.271 546.458 55.1133L545.488 54.8707ZM545.453 55.004C545.409 55.0629 545.357 55.1307 545.295 55.2077L546.076 55.8323C546.142 55.7493 546.202 55.6731 546.253 55.604L545.453 55.004ZM545.285 55.22C545.29 55.2141 545.296 55.2084 545.301 55.204C545.307 55.1997 545.31 55.1988 545.308 55.1998C545.302 55.2022 545.272 55.212 545.205 55.212V56.212C545.52 56.212 545.861 56.1193 546.085 55.82L545.285 55.22ZM545.205 55.212C545.257 55.212 545.241 55.2344 545.14 55.1536C545.046 55.0783 544.921 54.9469 544.765 54.74L543.965 55.34C544.146 55.5811 544.329 55.7857 544.515 55.9344C544.694 56.0776 544.929 56.212 545.205 56.212V55.212ZM544.772 54.7494C544.495 54.3615 544.278 53.8777 544.13 53.2867L543.16 53.5293C543.333 54.2183 543.596 54.8225 543.959 55.3306L544.772 54.7494ZM543.288 53.0582C542.553 53.8086 541.894 54.3537 541.31 54.7087C540.723 55.0651 540.242 55.212 539.853 55.212V56.212C540.489 56.212 541.152 55.9749 541.829 55.5633C542.509 55.1503 543.233 54.5434 544.003 53.7578L543.288 53.0582ZM539.853 55.212C539.35 55.212 538.724 54.9341 537.964 54.2197L537.279 54.9483C538.119 55.7379 538.981 56.212 539.853 56.212V55.212ZM537.968 54.2233C537.219 53.5048 536.921 52.8665 536.921 52.304H535.921C535.921 53.2455 536.424 54.1272 537.275 54.9447L537.968 54.2233ZM536.921 52.304C536.921 51.6568 537.22 50.6559 537.903 49.2595L537.004 48.8205C536.311 50.2401 535.921 51.4152 535.921 52.304H536.921ZM537.903 49.2595C538.565 47.9037 539.468 46.6435 540.617 45.4792L539.905 44.7768C538.686 46.0125 537.718 47.3603 537.004 48.8205L537.903 49.2595ZM540.615 45.4816C541.764 44.3328 542.828 43.828 543.813 43.828V42.828C542.463 42.828 541.159 43.5232 539.908 44.7744L540.615 45.4816ZM543.813 43.828C544.299 43.828 544.958 44.119 545.809 44.8773L546.474 44.1307C545.565 43.321 544.672 42.828 543.813 42.828V43.828ZM545.809 44.8773C546.661 45.6368 546.961 46.2301 546.961 46.664H547.961C547.961 45.7859 547.382 44.9392 546.474 44.1307L545.809 44.8773ZM546.961 46.664C546.961 47.184 546.764 47.8408 546.306 48.6497L547.177 49.1423C547.679 48.2552 547.961 47.424 547.961 46.664H546.961ZM539.757 53.188C540.185 53.188 540.638 53.0453 541.1 52.8095C541.567 52.572 542.073 52.2248 542.618 51.779L541.985 51.005C541.474 51.4232 541.028 51.724 540.646 51.9185C540.261 52.1147 539.969 52.188 539.757 52.188V53.188ZM542.619 51.7785C543.778 50.8265 544.506 49.6203 544.784 48.1746L543.802 47.9854C543.569 49.1957 542.968 50.1975 541.984 51.0055L542.619 51.7785ZM544.792 48.1215C544.791 48.1285 544.788 48.1486 544.775 48.1746C544.762 48.2015 544.743 48.2232 544.725 48.238C544.709 48.2517 544.699 48.2544 544.704 48.2523C544.71 48.2501 544.729 48.2445 544.763 48.2401L544.639 47.2479C544.459 47.2705 544.257 47.328 544.09 47.466C543.907 47.6163 543.813 47.8219 543.795 48.0385L544.792 48.1215ZM545.201 47.7177C545.176 47.2494 545.124 46.8531 545.026 46.5599C544.977 46.4141 544.906 46.2567 544.791 46.1281C544.665 45.9877 544.479 45.876 544.245 45.876V46.876C544.139 46.876 544.069 46.8213 544.045 46.7949C544.032 46.7803 544.05 46.7939 544.077 46.8761C544.131 47.0389 544.179 47.3266 544.202 47.7703L545.201 47.7177ZM544.245 45.876C543.394 45.876 542.55 46.4197 541.725 47.2774L542.446 47.9706C543.221 47.1643 543.817 46.876 544.245 46.876V45.876ZM541.722 47.2811C540.91 48.1425 540.236 49.0653 539.702 50.0496L540.581 50.5264C541.071 49.6227 541.693 48.7695 542.449 47.9669L541.722 47.2811ZM539.699 50.0554C539.444 50.54 539.247 50.9726 539.112 51.3502C538.98 51.7218 538.897 52.0697 538.897 52.376H539.897C539.897 52.2343 539.939 52.0102 540.054 51.6858C540.168 51.3674 540.343 50.98 540.584 50.5206L539.699 50.0554ZM538.897 52.376C538.897 52.4583 538.902 52.5443 538.917 52.6274C538.932 52.7055 538.96 52.814 539.029 52.9173L539.861 52.3626C539.881 52.3925 539.891 52.4172 539.896 52.4301C539.901 52.4433 539.902 52.4503 539.901 52.4486C539.901 52.4471 539.9 52.4405 539.899 52.4276C539.898 52.4148 539.897 52.3978 539.897 52.376H538.897ZM539.168 53.056C539.284 53.1333 539.409 53.1588 539.483 53.1702C539.57 53.1835 539.664 53.188 539.757 53.188V52.188C539.725 52.188 539.699 52.1872 539.678 52.1859C539.657 52.1846 539.643 52.183 539.635 52.1818C539.627 52.1805 539.631 52.1805 539.642 52.1842C539.649 52.1862 539.659 52.1897 539.672 52.1956C539.685 52.2014 539.702 52.2104 539.723 52.224L539.168 53.056Z" fill="black" fill-opacity="0.3" mask="url(#path-37-outside-1_3002_70714)"/>
</g>
<defs>
<filter id="filter0_d_3002_70714" x="0" y="0" width="602" height="88" filterUnits="userSpaceOnUse" color-interpolation-filters="sRGB">
<feFlood flood-opacity="0" result="BackgroundImageFix"/>
<feColorMatrix in="SourceAlpha" type="matrix" values="0 0 0 0 0 0 0 0 0 0 0 0 0 0 0 0 0 0 127 0" result="hardAlpha"/>
<feOffset/>
<feGaussianBlur stdDeviation="6"/>
<feComposite in2="hardAlpha" operator="out"/>
<feColorMatrix type="matrix" values="0 0 0 0 0.258824 0 0 0 0 0.254902 0 0 0 0 0.286275 0 0 0 0.18 0"/>
<feBlend mode="normal" in2="BackgroundImageFix" result="effect1_dropShadow_3002_70714"/>
<feBlend mode="normal" in="SourceGraphic" in2="effect1_dropShadow_3002_70714" result="shape"/>
</filter>
<filter id="filter1_d_3002_70714" x="294" y="13" width="35.0347" height="123.538" filterUnits="userSpaceOnUse" color-interpolation-filters="sRGB">
<feFlood flood-opacity="0" result="BackgroundImageFix"/>
<feColorMatrix in="SourceAlpha" type="matrix" values="0 0 0 0 0 0 0 0 0 0 0 0 0 0 0 0 0 0 127 0" result="hardAlpha"/>
<feOffset dy="4"/>
<feGaussianBlur stdDeviation="4"/>
<feComposite in2="hardAlpha" operator="out"/>
<feColorMatrix type="matrix" values="0 0 0 0 0 0 0 0 0 0 0 0 0 0 0 0 0 0 0.22 0"/>
<feBlend mode="normal" in2="BackgroundImageFix" result="effect1_dropShadow_3002_70714"/>
<feBlend mode="normal" in="SourceGraphic" in2="effect1_dropShadow_3002_70714" result="shape"/>
</filter>
<filter id="filter2_b_3002_70714" x="306.759" y="18.2465" width="9.51735" height="12.626" filterUnits="userSpaceOnUse" color-interpolation-filters="sRGB">
<feFlood flood-opacity="0" result="BackgroundImageFix"/>
<feGaussianBlur in="BackgroundImageFix" stdDeviation="0.951724"/>
<feComposite in2="SourceAlpha" operator="in" result="effect1_backgroundBlur_3002_70714"/>
<feBlend mode="normal" in="SourceGraphic" in2="effect1_backgroundBlur_3002_70714" result="shape"/>
</filter>
<filter id="filter3_d_3002_70714" x="331" y="17" width="54" height="75.8" filterUnits="userSpaceOnUse" color-interpolation-filters="sRGB">
<feFlood flood-opacity="0" result="BackgroundImageFix"/>
<feColorMatrix in="SourceAlpha" type="matrix" values="0 0 0 0 0 0 0 0 0 0 0 0 0 0 0 0 0 0 127 0" result="hardAlpha"/>
<feOffset dy="4"/>
<feGaussianBlur stdDeviation="4"/>
<feColorMatrix type="matrix" values="0 0 0 0 0 0 0 0 0 0 0 0 0 0 0 0 0 0 0.06 0"/>
<feBlend mode="normal" in2="BackgroundImageFix" result="effect1_dropShadow_3002_70714"/>
<feBlend mode="normal" in="SourceGraphic" in2="effect1_dropShadow_3002_70714" result="shape"/>
</filter>
<filter id="filter4_f_3002_70714" x="367.45" y="22.15" width="8.04995" height="22.9999" filterUnits="userSpaceOnUse" color-interpolation-filters="sRGB">
<feFlood flood-opacity="0" result="BackgroundImageFix"/>
<feBlend mode="normal" in="SourceGraphic" in2="BackgroundImageFix" result="shape"/>
<feGaussianBlur stdDeviation="1.15" result="effect1_foregroundBlur_3002_70714"/>
</filter>
<filter id="filter5_f_3002_70714" x="337.55" y="32.5001" width="41.4" height="14.95" filterUnits="userSpaceOnUse" color-interpolation-filters="sRGB">
<feFlood flood-opacity="0" result="BackgroundImageFix"/>
<feBlend mode="normal" in="SourceGraphic" in2="BackgroundImageFix" result="shape"/>
<feGaussianBlur stdDeviation="2.3" result="effect1_foregroundBlur_3002_70714"/>
</filter>
<filter id="filter6_d_3002_70714" x="393.15" y="14.5776" width="68.6486" height="61.2413" filterUnits="userSpaceOnUse" color-interpolation-filters="sRGB">
<feFlood flood-opacity="0" result="BackgroundImageFix"/>
<feColorMatrix in="SourceAlpha" type="matrix" values="0 0 0 0 0 0 0 0 0 0 0 0 0 0 0 0 0 0 127 0" result="hardAlpha"/>
<feOffset/>
<feGaussianBlur stdDeviation="2.39224"/>
<feComposite in2="hardAlpha" operator="out"/>
<feColorMatrix type="matrix" values="0 0 0 0 0.258824 0 0 0 0 0.254902 0 0 0 0 0.286275 0 0 0 0.18 0"/>
<feBlend mode="normal" in2="BackgroundImageFix" result="effect1_dropShadow_3002_70714"/>
<feBlend mode="normal" in="SourceGraphic" in2="effect1_dropShadow_3002_70714" result="shape"/>
</filter>
<filter id="filter7_d_3002_70714" x="427.793" y="18.7238" width="60.6034" height="60.6034" filterUnits="userSpaceOnUse" color-interpolation-filters="sRGB">
<feFlood flood-opacity="0" result="BackgroundImageFix"/>
<feColorMatrix in="SourceAlpha" type="matrix" values="0 0 0 0 0 0 0 0 0 0 0 0 0 0 0 0 0 0 127 0" result="hardAlpha"/>
<feOffset/>
<feGaussianBlur stdDeviation="2.39224"/>
<feComposite in2="hardAlpha" operator="out"/>
<feColorMatrix type="matrix" values="0 0 0 0 0.258824 0 0 0 0 0.254902 0 0 0 0 0.286275 0 0 0 0.18 0"/>
<feBlend mode="normal" in2="BackgroundImageFix" result="effect1_dropShadow_3002_70714"/>
<feBlend mode="normal" in="SourceGraphic" in2="effect1_dropShadow_3002_70714" result="shape"/>
</filter>
<filter id="filter8_d_3002_70714" x="398.129" y="30.8447" width="81.3363" height="66.9828" filterUnits="userSpaceOnUse" color-interpolation-filters="sRGB">
<feFlood flood-opacity="0" result="BackgroundImageFix"/>
<feColorMatrix in="SourceAlpha" type="matrix" values="0 0 0 0 0 0 0 0 0 0 0 0 0 0 0 0 0 0 127 0" result="hardAlpha"/>
<feOffset/>
<feGaussianBlur stdDeviation="2.39224"/>
<feComposite in2="hardAlpha" operator="out"/>
<feColorMatrix type="matrix" values="0 0 0 0 0.258824 0 0 0 0 0.254902 0 0 0 0 0.286275 0 0 0 0.18 0"/>
<feBlend mode="normal" in2="BackgroundImageFix" result="effect1_dropShadow_3002_70714"/>
<feBlend mode="normal" in="SourceGraphic" in2="effect1_dropShadow_3002_70714" result="shape"/>
</filter>
<linearGradient id="paint0_linear_3002_70714" x1="316.195" y1="37.2552" x2="310.944" y2="38.5016" gradientUnits="userSpaceOnUse">
<stop/>
<stop offset="0.302413" stop-opacity="0"/>
<stop offset="0.557292" stop-opacity="0"/>
<stop offset="1" stop-opacity="0"/>
</linearGradient>
<linearGradient id="paint1_linear_3002_70714" x1="346.75" y1="35.95" x2="346.75" y2="79.65" gradientUnits="userSpaceOnUse">
<stop stop-opacity="0"/>
<stop offset="1"/>
</linearGradient>
<linearGradient id="paint2_linear_3002_70714" x1="5.75" y1="0" x2="5.75" y2="43.7" gradientUnits="userSpaceOnUse">
<stop stop-color="#FFF8F8" stop-opacity="0"/>
<stop offset="1"/>
</linearGradient>
<clipPath id="clip0_3002_70714">
<rect width="24" height="24" fill="white" transform="translate(40 32)"/>
</clipPath>
<clipPath id="clip1_3002_70714">
<rect width="12" height="12" fill="white" transform="translate(72 38) rotate(-180)"/>
</clipPath>
<clipPath id="clip2_3002_70714">
<rect width="24" height="24" fill="white" transform="translate(88 32)"/>
</clipPath>
<clipPath id="clip3_3002_70714">
<rect width="12" height="12" fill="white" transform="translate(120 38) rotate(-180)"/>
</clipPath>
<clipPath id="clip4_3002_70714">
<rect width="24" height="24" fill="white" transform="translate(134 32)"/>
</clipPath>
<clipPath id="clip5_3002_70714">
<rect width="12" height="12" fill="white" transform="translate(158 32) rotate(-180)"/>
</clipPath>
<clipPath id="clip6_3002_70714">
<rect width="24" height="24" fill="white" transform="translate(180 32)"/>
</clipPath>
<clipPath id="clip7_3002_70714">
<rect width="24" height="24" fill="white" transform="translate(240 32)"/>
</clipPath>
<clipPath id="clip8_3002_70714">
<rect width="12" height="12" fill="white" transform="translate(272 38) rotate(-180)"/>
</clipPath>
<clipPath id="clip9_3002_70714">
<rect width="89" height="62" fill="white" transform="translate(296 13)"/>
</clipPath>
<clipPath id="clip10_3002_70714">
<rect width="109" height="64" fill="white" transform="translate(385 12)"/>
</clipPath>
</defs>
</svg>
