<svg width="80" height="73" viewBox="0 0 80 73" fill="none" xmlns="http://www.w3.org/2000/svg">
<g clip-path="url(#clip0_1063_203002)">
<path d="M37.1459 56.6012L31.0423 37.5724L31.4723 37.4219L38.567 56.1045L37.1459 56.6012Z" fill="white"/>
<path d="M37.6833 56.2035L50.3162 40.7199L51.4556 41.7002L38.0295 56.5023L37.6833 56.2035Z" fill="white"/>
<path d="M31.3971 36.7576L50.9289 40.9843L50.843 41.4336L31.1176 38.2367L31.3971 36.7576Z" fill="white"/>
<path d="M31.081 33.2726L53.9001 42.3775L53.5948 43.188L30.4726 34.8808L31.081 33.2726Z" fill="white"/>
<path d="M31.6162 34.1627L35.9978 58.4265L34.2993 58.7038L30.7606 34.3024L31.6162 34.1627Z" fill="white"/>
<path d="M54.8567 42.9858L35.3377 58.3791L34.7895 57.7084L53.7688 41.655L54.8567 42.9858Z" fill="white"/>
<path d="M56.6412 44.4349L29.6728 31.3377L30.4468 29.8027L57.0303 43.6609L56.6412 44.4349Z" fill="white"/>
<path d="M31.1197 30.8625L33.2459 60.4903L31.5303 60.5892L30.2554 30.9119L31.1197 30.8625Z" fill="white"/>
<path d="M32.1259 59.7486L56.6283 43.1557L57.5721 44.5918L32.601 60.4732L32.1259 59.7486Z" fill="white"/>
<path d="M59.9392 46.4966L29.9395 27.6441L30.9908 26.021L60.4681 45.6775L59.9392 46.4966Z" fill="white"/>
<path d="M30.9521 26.8573L29.6256 62.264L27.6928 62.1651L29.9782 26.8079L30.9521 26.8573Z" fill="white"/>
<path d="M28.4367 61.7802L59.763 45.226L60.6444 46.948L28.8796 62.6488L28.4367 61.7802Z" fill="white"/>
<path d="M63.8842 49.6785L30.694 22.5167L31.9367 21.0332L64.5098 48.9325L63.8842 49.6785Z" fill="white"/>
<path d="M31.7969 21.8609L24.7818 64.6783L22.8748 64.343L30.8359 21.691L31.7969 21.8609Z" fill="white"/>
<path d="M23.7476 63.5582L64.2733 48.2466L64.9376 50.0654L24.083 64.4741L23.7476 63.5582Z" fill="white"/>
<path d="M67.9303 54.1696L32.229 16.6302L33.8028 15.1639L68.7236 53.43L67.9303 54.1696Z" fill="white"/>
<path d="M33.7856 16.3272L19.2351 65.661L17.1798 65.0311L32.7515 16.009L33.7856 16.3272Z" fill="white"/>
<path d="M18.087 64.8182L68.4958 52.6583L68.9773 54.7523L18.3299 65.8738L18.087 64.8182Z" fill="white"/>
<path d="M36.6428 8.77007L72.9267 58.3189L71.9743 59.0326L34.7487 10.1847L36.6428 8.77007Z" fill="white"/>
<path d="M10.285 66.052L35.054 9.85359L36.1483 10.3223L12.4585 66.9851L10.285 66.052Z" fill="white"/>
<path d="M73.0707 60.2366L12.0178 66.8862L11.8781 65.7038L72.7934 57.8889L73.0707 60.2366Z" fill="white"/>
<path d="M31.1907 39.9331L40.001 55.1931L48.8113 39.9331H31.1907ZM39.2571 50.4633L34.9164 42.943C34.5854 42.369 34.9981 41.653 35.6603 41.653H44.3438C45.0059 41.653 45.4187 42.369 45.0876 42.943L40.7448 50.4633C40.4137 51.0374 39.586 51.0374 39.2549 50.4633H39.2571Z" fill="white"/>
<path d="M36.6493 7.82648L6.11429 60.7141C4.62441 63.294 6.48622 66.5188 9.46599 66.5188H70.5361C73.5159 66.5188 75.3777 63.294 73.8878 60.7141L43.3506 7.82648C41.8607 5.2466 38.1371 5.2466 36.6472 7.82648H36.6493Z" stroke="white" stroke-width="2.57988" stroke-miterlimit="10"/>
</g>
<defs>
<clipPath id="clip0_1063_203002">
<rect width="71.4004" height="63.2071" fill="white" transform="translate(4.29987 4.60155)"/>
</clipPath>
</defs>
</svg>
