<svg width="97" height="81" viewBox="0 0 97 81" fill="none" xmlns="http://www.w3.org/2000/svg">
<g clip-path="url(#clip0_2967_5596)">
<path d="M43.4457 0.979259L7.17087 15.9903C5.15348 16.8264 5.17477 19.6906 7.20431 20.4948L43.6297 34.9403C46.8302 36.2096 50.3945 36.2096 53.595 34.9403L90.0203 20.4948C92.0498 19.6891 92.0726 16.8249 90.0537 15.9903L53.7804 0.980779C50.4711 -0.388775 46.7535 -0.388775 43.4442 0.980779" fill="#FFCC00"/>
<path d="M51.8447 42.8268V78.9131C51.8452 79.3095 51.9426 79.6998 52.1283 80.0499C52.3141 80.4001 52.5826 80.6996 52.9105 80.9223C53.2384 81.145 53.6158 81.2841 54.0098 81.3277C54.4037 81.3713 54.8024 81.3179 55.171 81.1722L95.7619 65.4163C96.2143 65.2365 96.6023 64.9251 96.8758 64.5223C97.1493 64.1196 97.2956 63.644 97.2959 63.1572V27.0724C97.2953 26.676 97.198 26.2858 97.0122 25.9356C96.8265 25.5854 96.558 25.286 96.2301 25.0633C95.9021 24.8406 95.5248 24.7014 95.1308 24.6578C94.7368 24.6142 94.3382 24.6676 93.9695 24.8133L53.3787 40.5692C52.9263 40.749 52.5382 41.0605 52.2648 41.4632C51.9913 41.866 51.845 42.34 51.8447 42.8268Z" fill="#31C2F2"/>
<path d="M42.3697 44.6895L29.1009 51.0974L3.67161 63.2822C2.06014 64.0606 0.00170898 62.887 0.00170898 61.0931V27.2248C0.00170898 26.5771 0.333125 26.0177 0.78008 25.5981C0.962776 25.4161 1.17002 25.2606 1.39578 25.1359C2.00389 24.7711 2.87043 24.6738 3.60776 24.9657L42.1691 40.2443C44.1454 41.0226 44.2974 43.7682 42.3713 44.691" fill="#ED3049"/>
<path d="M42.3698 44.6891L30.3232 50.5056L0.778564 25.5947C0.96126 25.4127 1.1685 25.2571 1.39427 25.1325C2.00237 24.7677 2.86892 24.6704 3.60624 24.9623L42.1676 40.2408C44.1439 41.0192 44.2959 43.7663 42.3698 44.6891Z" fill="#C62842"/>
</g>
<defs>
<clipPath id="clip0_2967_5596">
<rect width="97.2965" height="97.2965" fill="white" transform="translate(0 -8)"/>
</clipPath>
</defs>
</svg>
