<svg width="64" height="87" viewBox="0 0 64 87" fill="none" xmlns="http://www.w3.org/2000/svg">
<g clip-path="url(#clip0_9123_17553)">
<path d="M39.8657 0.354004H6.43681C3.29463 0.354004 0.540039 3.10514 0.540039 6.25424V80.9709C0.540039 84.1166 3.29117 86.8712 6.44027 86.8712H57.5629C60.7086 86.8712 63.4632 84.12 63.4632 80.9709V23.948L49.7006 14.1166L39.8657 0.354004Z" fill="#4285F4"/>
<path d="M16.2686 63.2737H47.7284V59.3425H16.272L16.2686 63.2737ZM16.2686 71.1395H39.8626V67.2083H16.2686V71.1395ZM16.2686 43.6108V47.542H47.7284V43.6108H16.2686ZM16.2686 55.4079H47.7284V51.4767H16.272L16.2686 55.4079Z" fill="#F1F1F1"/>
<path d="M39.8662 0.354248V18.0515C39.8662 21.1971 42.6173 23.9483 45.763 23.9483H63.4602L39.8662 0.354248Z" fill="#A1C2FA"/>
</g>
<defs>
<clipPath id="clip0_9123_17553">
<rect width="62.9197" height="86.5137" fill="white" transform="translate(0.540039 0.354004)"/>
</clipPath>
</defs>
</svg>
