<svg width="64" height="87" viewBox="0 0 64 87" fill="none" xmlns="http://www.w3.org/2000/svg">
<path d="M39.8145 0.362305L6.59697 0.362305C3.37197 0.362305 0.734863 3.01621 0.734863 6.23953L0.734863 80.4985C0.734863 83.7235 3.37197 86.3606 6.59697 86.3606H57.3958C60.6208 86.3606 63.2579 83.7235 63.2579 80.4985L63.2579 23.8225L49.5718 14.0501L39.8145 0.362305Z" fill="#0F9D58"/>
<path d="M16.3711 42.3779L16.3711 70.7243H47.6402V42.3779H16.3711ZM30.0421 66.8123H20.2696V61.9261H30.0421L30.0421 66.8123ZM30.0421 58.9867H20.2696V54.1005H30.0421V58.9867ZM30.0421 51.1778H20.2696V46.2916H30.0421V51.1778ZM43.7282 66.8123H33.9541V61.9261H43.7265V66.8123H43.7282ZM43.7282 58.9867H33.9541V54.1005H43.7265V58.9867H43.7282ZM43.7282 51.1778H33.9541V46.2916H43.7265V51.1778H43.7282Z" fill="#F1F1F1"/>
<path d="M41.5278 22.1089L63.2579 43.839V23.8222L41.5278 22.1089Z" fill="url(#paint0_linear_9123_17569)"/>
<path d="M39.8188 0.369141V17.9521C39.8188 21.1922 42.4392 23.8142 45.681 23.8142L63.2622 23.8142L39.8188 0.369141Z" fill="#87CEAC"/>
<path d="M6.59697 0.362031C3.37197 0.362031 0.734863 3.01594 0.734863 6.23926V6.72637C0.734863 3.50137 3.37197 0.864258 6.59697 0.864258L39.8145 0.864258V0.360352L6.59697 0.360352V0.362031Z" fill="white" fill-opacity="0.2"/>
<path d="M57.3974 85.8548H6.59697C3.37197 85.8548 0.734863 83.2177 0.734863 79.9927V80.4798C0.734863 83.7048 3.37197 86.3419 6.59697 86.3419H57.3958C60.6208 86.3419 63.2579 83.7048 63.2579 80.4798V79.9927C63.2579 83.2194 60.6208 85.8548 57.3974 85.8548Z" fill="#263238" fill-opacity="0.2"/>
<path d="M45.6766 23.8221C42.4364 23.8221 39.8145 21.2018 39.8145 17.96V18.4471C39.8145 21.6872 42.4348 24.3092 45.6766 24.3092L63.2579 24.3092V23.8221L45.6766 23.8221Z" fill="#263238" fill-opacity="0.1"/>
<path d="M39.8145 0.362305L6.59697 0.362305C3.37197 0.362305 0.734863 3.01621 0.734863 6.23953L0.734863 80.4985C0.734863 83.7235 3.37197 86.3606 6.59697 86.3606H57.3958C60.6208 86.3606 63.2579 83.7235 63.2579 80.4985L63.2579 23.8225L39.8145 0.362305Z" fill="url(#paint1_radial_9123_17569)"/>
<defs>
<linearGradient id="paint0_linear_9123_17569" x1="52.3926" y1="23.9719" x2="52.3926" y2="43.8387" gradientUnits="userSpaceOnUse">
<stop stop-color="#263238" stop-opacity="0.2"/>
<stop offset="1" stop-color="#263238" stop-opacity="0.02"/>
</linearGradient>
<radialGradient id="paint1_radial_9123_17569" cx="0" cy="0" r="1" gradientUnits="userSpaceOnUse" gradientTransform="translate(2.71549 2.70202) scale(100.836 100.836)">
<stop stop-color="white" stop-opacity="0.1"/>
<stop offset="1" stop-color="white" stop-opacity="0"/>
</radialGradient>
</defs>
</svg>
