<svg width="136" height="137" viewBox="0 0 136 137" fill="none" xmlns="http://www.w3.org/2000/svg">
<g clip-path="url(#clip0_9123_17593)">
<path d="M97.6548 35.1403L39.5946 35.1402L33.9687 35.1402L33.9687 78.8465L33.9657 98.8294C33.9683 99.8302 34.367 100.789 35.0747 101.497C35.7824 102.205 36.7415 102.604 37.7424 102.606L77.672 102.606L101.432 102.603L101.429 58.8998L101.432 58.2222L101.447 38.932C101.448 38.4336 101.352 37.9397 101.162 37.4788C100.972 37.018 100.693 36.5992 100.34 36.2468C99.9876 35.8943 99.5689 35.6151 99.108 35.4252C98.6471 35.2353 98.1532 35.1384 97.6548 35.1403ZM77.675 78.8465L57.7252 78.8465L57.7252 58.8968L77.6719 58.8998L77.675 78.8465Z" fill="#2684FF"/>
<path d="M57.7249 58.8966C51.4515 58.8973 45.4327 56.4154 40.9831 51.9929C36.5336 47.5705 34.015 41.5669 33.9774 35.2936L33.9684 78.9366L57.7249 78.9367L57.7249 58.8966Z" fill="url(#paint0_linear_9123_17593)"/>
<path d="M77.6713 58.8458L77.6743 78.8467C83.9731 78.8476 90.0137 81.3501 94.4676 85.804C98.9215 90.2579 101.424 96.2985 101.425 102.597L101.437 58.8368L77.6713 58.8458Z" fill="url(#paint1_linear_9123_17593)"/>
</g>
<defs>
<linearGradient id="paint0_linear_9123_17593" x1="45.8466" y1="50.5902" x2="45.8436" y2="78.4457" gradientUnits="userSpaceOnUse">
<stop offset="0.18" stop-color="#0052CC"/>
<stop offset="1" stop-color="#2684FF"/>
</linearGradient>
<linearGradient id="paint1_linear_9123_17593" x1="89.5496" y1="86.9151" x2="89.5526" y2="59.1138" gradientUnits="userSpaceOnUse">
<stop offset="0.18" stop-color="#0052CC"/>
<stop offset="1" stop-color="#2684FF"/>
</linearGradient>
<clipPath id="clip0_9123_17593">
<rect width="95.0162" height="96.4751" fill="white" transform="translate(0.297852 67.999) rotate(-45)"/>
</clipPath>
</defs>
</svg>
