<svg width="68" height="72" viewBox="0 0 68 72" fill="none" xmlns="http://www.w3.org/2000/svg">
<path d="M50.63 33.8967C50.2379 33.3955 49.8901 32.5848 49.6925 31.6384C49.3388 29.955 49.3771 28.7345 50.3588 28.5753C51.3406 28.4161 51.8123 29.4362 52.166 31.1196C52.4019 32.2516 52.3577 33.2923 52.0953 33.8967C51.6088 33.8348 51.1165 33.8348 50.63 33.8967ZM42.1983 35.2293C41.4966 34.9197 40.5827 34.5777 39.4801 34.6456C37.9205 34.7428 36.5673 35.4268 36.1782 35.3826C36.0131 35.359 35.9453 35.2883 35.9217 35.1939C35.8627 34.905 36.3049 34.4244 36.7766 34.0795C38.171 33.0581 39.9976 32.839 41.5939 33.5017C42.3516 33.823 43.0651 34.3979 43.413 34.9669C43.578 35.2411 43.6105 35.4533 43.5014 35.5654C43.3334 35.7423 42.9029 35.5388 42.1983 35.2293ZM40.7832 36.0371C42.0421 35.8867 42.9707 36.4764 43.1859 36.8242C43.2773 36.9746 43.239 37.0748 43.2095 37.1191C43.1122 37.2783 42.8911 37.2488 42.4342 37.1957C41.4414 37.0419 40.4258 37.1475 39.486 37.5023C39.486 37.5023 39.0202 37.691 38.8138 37.691L38.6635 37.632L38.5927 37.464C38.5927 37.2753 38.7637 37.007 39.0408 36.7653C39.3651 36.4852 39.8693 36.1845 40.7832 36.0371ZM47.7851 39.0029C47.163 38.6993 46.8387 38.0831 47.0628 37.6261C47.2868 37.1751 47.9708 37.0542 48.5899 37.3608C49.212 37.6645 49.5363 38.2806 49.3122 38.7376C49.0882 39.1887 48.4042 39.3095 47.7851 39.0029ZM51.7798 35.5064C52.284 35.5182 52.682 36.0872 52.6731 36.78C52.6613 37.4728 52.2397 38.0271 51.7356 38.0182C51.2315 38.0094 50.8335 37.4404 50.8453 36.7476C50.8541 36.0518 51.2757 35.4976 51.7798 35.5064ZM17.8642 48.0155C17.9084 48.0685 17.9851 48.1865 17.8966 48.381C17.7551 48.7142 17.1891 49.1711 16.3813 49.1417C15.5528 49.0739 14.6271 48.4695 14.5003 46.96C14.4384 46.2171 14.7185 45.312 14.8924 44.8373C15.2256 43.9205 14.9249 42.9623 14.1407 42.4464C13.69 42.1516 13.1406 42.048 12.6136 42.1587C12.0866 42.2693 11.6252 42.5849 11.3311 43.036C11.0923 43.4104 10.9449 43.8762 10.8682 44.1268L10.8181 44.2801C10.6412 44.7577 10.3611 44.8963 10.1695 44.8698C10.0811 44.858 9.95723 44.7961 9.87763 44.5809C9.65946 43.9853 9.83341 42.3049 10.9508 41.0725C11.6919 40.2774 12.7706 39.8879 13.8488 40.0259C14.972 40.1675 15.9066 40.8514 16.4786 41.9422C17.2392 43.3927 16.5611 44.9169 16.1543 45.825L16.0363 46.0962C15.7857 46.7006 15.771 47.2283 16.001 47.5821C16.197 47.8622 16.52 48.026 16.8618 48.0184C17.0211 48.0166 17.1796 47.9948 17.3335 47.9535C17.534 47.9064 17.7404 47.8592 17.8642 48.0155ZM64.5188 45.256C65.53 45.256 67.1191 46.4235 67.1191 49.2419C67.1191 52.0426 65.9605 55.2178 65.6863 55.9254C61.4999 65.9668 51.5174 71.5565 39.6246 71.2027C28.5395 70.8725 19.0847 65.0116 14.9485 55.4596C12.4455 55.4625 9.86584 54.357 7.90531 52.6175C5.83865 50.7838 4.56504 48.4135 4.31445 45.937C4.1123 44.1485 4.33451 42.3375 4.96304 40.651L2.63695 38.6816C-7.99412 29.6838 25.2641 -7.35099 35.9069 1.94751C37.1172 3.13209 38.326 4.31823 39.5332 5.50594L41.5084 4.66571C50.8394 0.791828 58.4102 2.66391 58.4191 8.84031C58.425 12.0509 56.3819 15.795 53.1095 19.1913C54.2976 20.2939 55.2469 22.0156 55.7923 23.988C56.2492 25.4414 56.3318 26.9214 56.3701 27.8648C56.4291 29.1738 56.491 32.2251 56.4969 32.2782L57.8088 32.6437C60.3148 33.3454 62.0984 34.2829 62.9681 35.2028C63.8408 36.1167 64.2712 37.0041 64.4304 38.0448C64.5748 38.8821 64.5572 40.365 63.4516 42.0248L64.0117 43.5284C64.2889 44.4128 64.4893 45.1469 64.5188 45.256ZM15.8653 52.7738C19.751 52.1105 20.7681 47.8828 20.1284 43.7318C19.4061 39.0413 16.2398 37.3903 14.0905 37.2724C13.5502 37.2449 13.0085 37.2845 12.4779 37.3903C8.6453 38.1627 6.4784 41.4293 6.90588 45.6746C7.29209 49.519 11.1719 52.7561 14.7627 52.8534C15.132 52.8625 15.5012 52.8359 15.8653 52.7738ZM11.8558 34.849C14.8954 26.6767 19.9662 19.1471 26.6821 13.9672C31.6675 9.80141 37.042 6.81492 37.042 6.81492C37.042 6.81492 34.1469 3.45402 33.2742 3.20637C27.8938 1.74998 16.284 9.77487 8.86346 20.3765C5.86223 24.666 1.56676 32.2634 3.62163 36.1698C3.87517 36.6533 5.30798 37.8974 6.07745 38.5401C7.36285 36.668 9.46783 35.3118 11.8558 34.849ZM49.554 51.1877C49.554 51.1877 45.2349 53.2013 38.3716 51.0757C38.5603 52.6883 40.1287 53.4106 40.8775 53.7025C41.8209 54.071 42.8528 54.239 42.8528 54.239C51.3612 55.7072 59.3124 50.8339 61.1019 49.6075C61.2375 49.5161 61.326 49.6045 61.2198 49.7667L61.0429 50.0173C58.8525 52.8504 52.962 56.1258 45.2968 56.1258C41.9566 56.1258 38.6133 54.9466 37.3869 53.1335C35.4853 50.3209 37.2926 46.2171 40.4648 46.6446L41.8534 46.8008C45.8186 47.243 51.5528 46.6858 56.2846 44.4865C60.6125 42.4759 62.2458 40.2618 61.9982 38.4693C61.9303 37.9858 61.7181 37.4787 61.2523 37.0041C60.474 36.2405 59.2416 35.6479 57.1632 35.0612C56.4762 34.8696 56.0075 34.7458 55.5063 34.5777C54.613 34.2829 54.1737 34.0471 54.0735 32.3666C54.0293 31.6296 53.9025 29.0706 53.8553 28.0092C53.7728 26.1519 53.5517 23.6165 51.9803 22.5699C51.5798 22.3066 51.1149 22.1577 50.6359 22.1395C50.1672 22.1159 49.9343 22.2014 49.8399 22.2161C48.9437 22.3665 48.413 22.847 47.7526 23.3983C45.7921 25.0345 44.1382 25.3028 42.2985 25.2232C41.1959 25.1761 40.0314 25.0051 38.6959 24.9255L37.9146 24.8812C34.8338 24.722 31.526 27.3872 30.9776 31.1756C30.2111 36.4469 34.0231 39.171 35.1227 40.7689C35.2613 40.9605 35.4234 41.2288 35.4234 41.4853C35.4234 41.7889 35.2259 42.0336 35.0343 42.24C31.8886 45.48 30.8833 50.6246 32.0655 54.9142C32.2121 55.4409 32.3994 55.9554 32.6256 56.4531C35.4057 62.9597 44.0321 65.9904 52.4579 63.2339C53.5603 62.8723 54.6303 62.4186 55.6567 61.8777C57.5018 60.9659 59.1637 59.7227 60.5595 58.2102C62.7942 55.8694 64.1238 53.3251 64.6397 50.1912C64.8932 48.5137 64.5218 47.8651 64.0176 47.5526C63.4811 47.2224 62.8413 47.3374 62.8413 47.3374C62.8413 47.3374 62.5465 45.3326 61.721 43.5107C59.2623 45.4506 56.1018 46.8156 53.6961 47.5084C50.2089 48.4918 46.5817 48.8844 42.9648 48.6699C40.6358 48.4813 39.0968 47.8002 38.519 49.6841C43.8345 51.6358 49.4596 50.8015 49.4596 50.8015C49.5121 50.7957 49.5646 50.8112 49.6056 50.8444C49.6466 50.8776 49.6726 50.9259 49.6778 50.9784C49.6845 51.0672 49.6351 51.1508 49.554 51.1877ZM25.55 20.3322C25.4587 20.4413 25.5943 20.5917 25.7122 20.5062C27.9882 18.8464 31.1103 17.3045 35.1994 16.305C39.7808 15.1847 44.1913 15.6565 46.8859 16.2756C47.0215 16.305 47.104 16.0721 46.9861 16.0043C45.2054 15.002 42.4725 14.3239 40.5355 14.3091C40.4914 14.308 40.4516 14.2824 40.4323 14.2427C40.4131 14.2029 40.4177 14.1558 40.4442 14.1205C40.792 13.6635 41.2018 13.2537 41.6558 12.9029C41.7531 12.8292 41.6942 12.6759 41.5762 12.6847C38.8138 12.8528 35.6681 14.1765 33.858 15.4118C33.8179 15.438 33.7659 15.4374 33.7265 15.4102C33.687 15.3831 33.6679 15.3347 33.6781 15.2879C33.8167 14.6099 34.2619 13.7107 34.4948 13.292C34.5478 13.1947 34.4417 13.0857 34.3415 13.1358C31.4346 14.6246 28.1887 17.2779 25.55 20.3322Z" fill="black"/>
</svg>
