<svg width="84" height="84" viewBox="0 0 84 84" fill="none" xmlns="http://www.w3.org/2000/svg">
<g clip-path="url(#clip0_9123_17550)">
<path d="M18.6532 0.962891H65.3471C75.198 0.962891 83.1957 8.9606 83.1957 18.8114V65.5053C83.1957 75.3562 75.198 83.3539 65.3471 83.3539H18.6532C8.80239 83.3539 0.804688 75.3562 0.804688 65.5053V18.8114C0.804688 8.9606 8.80239 0.962891 18.6532 0.962891Z" fill="#FFD02F"/>
<path d="M58.0571 11.2537H49.0109L56.5453 24.4938L39.9647 11.2537H30.9185L39.2088 27.4441L21.8724 11.2537H12.8262L21.8724 31.8575L12.8262 73.0652H21.8724L39.2088 28.9071L30.9185 73.0652H39.9647L56.5453 25.9811L49.0109 73.0652H58.0571L74.6377 21.5434L58.0571 11.2537Z" fill="#050038"/>
</g>
<defs>
<clipPath id="clip0_9123_17550">
<rect width="82.391" height="82.391" fill="white" transform="translate(0.804688 0.963135)"/>
</clipPath>
</defs>
</svg>
