<svg width="78" height="83" viewBox="0 0 78 83" fill="none" xmlns="http://www.w3.org/2000/svg">
<g clip-path="url(#clip0_9123_17547)">
<path d="M28.0145 3.5377C15.4741 4.46619 4.81334 5.32008 4.3121 5.42007C2.90674 5.67084 1.62827 6.62473 1.0271 7.88017L0.500488 8.98484L0.551246 35.3127L0.625797 61.6405L1.42841 63.2721C1.88047 64.1752 4.94023 68.3923 8.27599 72.7332C14.873 81.2912 15.3488 81.7689 17.8566 82.0197C18.5846 82.0943 24.0522 81.8435 29.9719 81.4928C35.9169 81.1166 45.4468 80.5389 51.1666 80.2135C75.5955 78.7295 74.3408 78.8549 75.7446 77.6502C77.5005 76.1948 77.3752 78.5787 77.4498 46.58C77.5005 19.449 77.4751 17.6682 77.0738 16.8397C76.598 15.9112 75.7446 15.2589 64.608 7.42783C57.1592 2.20766 56.6326 1.93149 53.2952 1.8807C51.9168 1.8315 40.5296 2.58381 28.0145 3.5377ZM56.2059 6.97549C57.2591 7.45164 64.9601 12.8226 66.0879 13.8527C66.3892 14.1542 66.4892 14.405 66.3385 14.5558C65.9879 14.8573 18.3309 17.6936 16.9525 17.492C16.3259 17.392 15.398 17.0159 14.8714 16.6635C12.6888 15.1827 7.27193 10.7402 7.27193 10.4149C7.27193 9.56098 7.09587 9.56098 28.3413 8.03095C32.4051 7.75479 39.0766 7.25324 43.1405 6.92629C51.9422 6.22318 54.5769 6.24857 56.2059 6.97549ZM71.3556 20.7044C71.7062 21.0552 72.0075 21.7329 72.1075 22.3852C72.182 22.9884 72.2328 34.2318 72.182 47.3323C72.1075 69.8192 72.0821 71.2254 71.6554 71.8777C71.4048 72.2793 70.9035 72.7062 70.526 72.8316C69.4744 73.2586 19.5364 76.0948 18.5085 75.7933C18.0327 75.6679 17.3791 75.2663 17.0286 74.9156L16.4258 74.2632L16.3513 50.0193C16.3005 33.0034 16.3513 25.4739 16.5527 24.7961C16.7034 24.2946 17.0793 23.6915 17.4061 23.4915C17.8582 23.1899 20.818 22.9392 31.0013 22.3376C38.1503 21.9361 49.2108 21.2584 55.5572 20.8822C70.6529 19.9521 70.6038 19.9521 71.3556 20.7044Z" fill="black"/>
<path d="M57.9363 29.012C55.2271 29.1881 52.8193 29.4389 52.5433 29.5897C51.7153 30.0166 51.214 30.7198 51.1141 31.5229C51.0395 32.3514 51.2902 32.4514 53.9978 32.7783L55.1763 32.9291V43.6456C55.1763 50.0197 55.0764 54.2367 54.9511 54.1114C54.8258 53.9606 51.2648 48.5404 47.0249 42.0648C42.7866 35.5654 39.2748 30.2182 39.224 30.169C39.1733 30.1182 36.4149 30.269 33.1045 30.496C29.0407 30.7721 26.8089 31.0229 26.3568 31.2737C25.6288 31.6498 24.8262 32.9799 24.8262 33.8592C24.8262 34.3861 25.7795 34.6623 27.786 34.6623H28.8392V65.4818L27.1341 66.0087C25.8048 66.4103 25.3528 66.661 25.1275 67.1626C24.7262 68.0165 24.7516 68.7942 25.1529 68.7942C25.3036 68.7942 28.1381 68.618 31.3978 68.418C37.844 68.0419 38.5705 67.8657 39.2478 66.5357C39.4493 66.1341 39.6237 65.7072 39.6237 65.5818C39.6237 65.4818 38.7466 65.1802 37.6918 64.9295C36.6132 64.6787 35.5345 64.4279 35.3093 64.3771C34.8826 64.2517 34.8572 63.474 34.8572 52.6813V41.1109L42.4821 53.0829C50.4828 65.631 51.4869 67.0626 52.7162 67.6895C54.2468 68.4926 58.1346 67.9403 60.0904 66.661L60.6931 66.2849L60.7439 49.1689L60.8184 32.0276L62.1476 31.7768C63.7275 31.4752 64.4555 30.7483 64.4555 29.4929C64.4555 28.6898 64.4048 28.639 63.6529 28.6644C63.204 28.685 60.6201 28.8358 57.9363 29.012Z" fill="black"/>
</g>
<defs>
<clipPath id="clip0_9123_17547">
<rect width="77" height="82" fill="white" transform="translate(0.5 0.963135)"/>
</clipPath>
</defs>
</svg>
