<svg width="72" height="72" viewBox="0 0 72 72" fill="none" xmlns="http://www.w3.org/2000/svg">
<g clip-path="url(#clip0_9123_17558)">
<path d="M64.3615 0.867676L7.63828 0.867676C3.83641 0.867676 0.754395 3.94969 0.754395 7.75156L0.754395 64.4747C0.754395 68.2766 3.83641 71.3586 7.63828 71.3586H64.3615C68.1633 71.3586 71.2453 68.2766 71.2453 64.4747V7.75156C71.2453 3.94969 68.1633 0.867676 64.3615 0.867676Z" fill="url(#paint0_linear_9123_17558)"/>
<path d="M58.7775 10.0315H43.8863C42.0614 10.0315 40.582 11.5109 40.582 13.3358V37.567C40.582 39.3919 42.0614 40.8713 43.8863 40.8713H58.7775C60.6024 40.8713 62.0818 39.3919 62.0818 37.567V13.3358C62.0818 11.5109 60.6024 10.0315 58.7775 10.0315Z" fill="white"/>
<path d="M28.1134 10.032H13.2222C11.3973 10.032 9.91797 11.5114 9.91797 13.3362L9.91797 55.1902C9.91797 57.0151 11.3973 58.4945 13.2222 58.4945H28.1134C29.9383 58.4945 31.4177 57.0151 31.4177 55.1902V13.3362C31.4177 11.5114 29.9383 10.032 28.1134 10.032Z" fill="white"/>
</g>
<defs>
<linearGradient id="paint0_linear_9123_17558" x1="3525.3" y1="0.867676" x2="3525.3" y2="7049.96" gradientUnits="userSpaceOnUse">
<stop stop-color="#0091E6"/>
<stop offset="1" stop-color="#0079BF"/>
</linearGradient>
<clipPath id="clip0_9123_17558">
<rect width="70.4909" height="70.4909" fill="white" transform="translate(0.754395 0.867676)"/>
</clipPath>
</defs>
</svg>
