<svg width="78" height="79" viewBox="0 0 78 79" fill="none" xmlns="http://www.w3.org/2000/svg">
<g clip-path="url(#clip0_9123_17562)">
<path d="M39 78.3589C60.5391 78.3589 78 60.898 78 39.3589C78 17.8198 60.5391 0.358887 39 0.358887C17.4609 0.358887 0 17.8198 0 39.3589C0 60.898 17.4609 78.3589 39 78.3589Z" fill="#4A8CFF"/>
<path d="M13.9771 27.1487V45.4763C13.9867 47.4642 14.7851 49.3669 16.1969 50.7663C17.6087 52.1658 19.5184 52.9474 21.5063 52.9395H48.2218C48.5829 52.9413 48.93 52.7997 49.1869 52.5459C49.4438 52.2921 49.5896 51.9467 49.5922 51.5856V33.2579C49.5826 31.27 48.7841 29.3673 47.3723 27.9679C45.9605 26.5685 44.0509 25.7868 42.063 25.7947H15.3558C15.1762 25.7928 14.9981 25.8263 14.8316 25.8933C14.665 25.9604 14.5133 26.0596 14.3853 26.1854C14.2572 26.3112 14.1552 26.461 14.0851 26.6263C14.0151 26.7916 13.9783 26.9691 13.9771 27.1487ZM51.2929 34.2981L62.3225 26.2405C63.2802 25.4463 64.0232 25.6461 64.0232 27.0826V51.6516C64.0232 53.2863 63.1151 53.0881 62.3225 52.4921L51.2929 44.4526V34.2981Z" fill="white"/>
</g>
<defs>
<clipPath id="clip0_9123_17562">
<rect width="78" height="78" fill="white" transform="translate(0 0.358887)"/>
</clipPath>
</defs>
</svg>
