<svg width="1549" height="955" viewBox="0 0 1549 955" fill="none" xmlns="http://www.w3.org/2000/svg">
<g filter="url(#filter0_d_237_567)">
<path d="M117 379H298V528H117V379Z" fill="white"/>
<mask id="path-2-outside-1_237_567" maskUnits="userSpaceOnUse" x="-0.138184" y="-0.611328" width="1501" height="903" fill="black">
<rect fill="white" x="-0.138184" y="-0.611328" width="1501" height="903"/>
<path fill-rule="evenodd" clip-rule="evenodd" d="M1244.68 73.1355C1250.83 61.4627 1265.3 56.9956 1277 63.158L1354.07 103.733C1365.78 109.895 1370.28 124.353 1364.14 136.026L1315.58 228.254C1309.44 239.927 1294.97 244.394 1283.26 238.231L1206.19 197.657C1194.49 191.494 1189.98 177.036 1196.13 165.363L1244.68 73.1355ZM1270.93 74.6865C1265.61 71.8854 1259.04 73.9159 1256.24 79.2217L1207.69 171.449C1204.89 176.755 1206.94 183.327 1212.26 186.128L1289.33 226.703C1294.65 229.504 1301.23 227.473 1304.02 222.168L1352.58 129.94C1355.37 124.634 1353.32 118.062 1348 115.261L1270.93 74.6865ZM1267.42 104.737C1269.09 101.553 1273.04 100.335 1276.23 102.015L1303.21 116.217C1306.4 117.897 1307.63 121.84 1305.95 125.024C1304.28 128.207 1300.33 129.426 1297.14 127.745L1270.16 113.544C1266.97 111.863 1265.74 107.92 1267.42 104.737ZM1262.07 128.915C1258.88 127.235 1254.93 128.453 1253.26 131.636C1251.58 134.82 1252.81 138.763 1256 140.444L1302.24 164.788C1305.43 166.469 1309.38 165.251 1311.06 162.067C1312.73 158.884 1311.5 154.941 1308.31 153.26L1262.07 128.915ZM1239.09 158.536C1240.77 155.353 1244.72 154.134 1247.91 155.815L1286.44 176.102C1289.63 177.783 1290.86 181.726 1289.19 184.91C1287.51 188.093 1283.57 189.311 1280.37 187.631L1241.84 167.343C1238.65 165.663 1237.42 161.72 1239.09 158.536ZM687.508 136.421C681.984 145.003 684.464 156.439 693.047 161.962C701.63 167.485 713.065 165.005 718.588 156.422C724.111 147.84 721.631 136.405 713.049 130.881C704.466 125.358 693.031 127.838 687.508 136.421ZM685.017 174.439C669.544 164.481 665.072 143.865 675.03 128.391C684.581 113.55 703.936 108.83 719.155 117.255C723.672 110.252 728.112 103.593 734.308 97.6807C741.18 91.124 749.879 85.7605 762.738 80.9866L762.975 80.8988L763.217 80.8273C782.835 75.0258 805.189 80.1888 822.222 91.0996L831.102 77.3008C833.32 73.8553 837.91 72.8596 841.356 75.077L880.558 100.305C884.003 102.522 884.999 107.113 882.782 110.558L857.554 149.76C855.336 153.206 850.746 154.201 847.3 151.984L808.098 126.756C804.653 124.539 803.657 119.948 805.874 116.503L814.193 103.577C799.985 94.4848 782.187 90.7868 767.66 94.9871C756.385 99.1992 749.614 103.585 744.551 108.415C739.312 113.415 735.561 119.179 730.461 127.105L729.985 126.798C736.43 135.651 738.183 147.295 734.383 157.764L766.858 178.663C777.719 168.018 794.864 165.888 808.193 174.466C823.667 184.424 828.138 205.041 818.18 220.514C808.222 235.988 787.606 240.459 772.132 230.501C758.803 221.923 753.638 205.436 758.828 191.14L726.354 170.242C715.492 180.888 698.347 183.017 685.017 174.439ZM774.622 192.483C769.099 201.066 771.579 212.501 780.162 218.024C788.745 223.547 800.18 221.067 805.703 212.485C811.226 203.902 808.746 192.467 800.163 186.944C791.581 181.42 780.146 183.9 774.622 192.483ZM849.091 135.492L822.366 118.294L839.565 91.5689L866.29 108.767L849.091 135.492ZM137.646 141.5C141.642 141.488 144.946 144.612 145.158 148.603C145.249 150.312 145.25 152.168 145.147 154.147C145.541 164.203 148.572 176.474 156.099 185.575C164.044 195.182 178.108 202.584 203.588 198.065C204.601 197.859 205.628 197.662 206.667 197.474C210.708 196.744 214.585 199.4 215.364 203.432C216.143 207.464 213.535 211.372 209.512 212.201C208.47 212.415 207.44 212.613 206.421 212.796C179.387 218.325 164.567 230.703 156.582 244.685C149.924 256.344 147.624 269.813 147.804 282.804C148.204 286.327 148.441 290.019 148.499 293.886C148.56 297.89 145.464 301.236 141.467 301.485C137.471 301.735 133.983 298.8 133.545 294.82C133.155 291.272 132.897 287.581 132.82 283.796C130.297 262.991 121.222 250.629 111.026 243.302C98.8583 234.558 84.1793 232.346 74.546 233.049C70.7449 233.326 67.3401 230.709 66.631 226.964C65.922 223.219 68.1341 219.538 71.7736 218.407C116.971 204.356 129.008 171.592 130.136 154.01C130.08 152.135 130.097 150.34 130.177 148.649C130.364 144.656 133.649 141.512 137.646 141.5ZM137.211 183.683C130.645 197.18 119.421 211.115 101.335 221.769C107.56 223.844 113.867 226.872 119.78 231.121C126.6 236.022 132.735 242.434 137.568 250.612C139.111 246.062 141.082 241.58 143.556 237.247C149.244 227.286 157.419 218.414 168.642 211.388C158.488 208.118 150.538 202.388 144.539 195.134C141.574 191.549 139.158 187.677 137.211 183.683ZM900.684 185.259C893.87 186.854 889.062 192.87 889.069 199.867C889.103 237.171 888.727 353.34 883.038 418.5C878.856 466.404 870.048 544.661 866.068 579.415C865.011 588.639 872.494 596.566 881.766 596.091L937.806 593.216C945.781 592.807 952.038 586.221 952.038 578.236V398.973C952.038 382.515 974.709 378.068 980.926 393.307L1060.98 589.518C1062.89 594.189 1067.01 597.589 1071.96 598.567L1089.66 602.065C1098.76 603.863 1107.3 597.121 1107.62 587.855C1108.89 551.366 1112.24 466.06 1117.54 406.623C1123.01 345.27 1135.38 257.567 1140.55 221.965C1141.8 213.35 1135.51 205.458 1126.83 204.78L1095.04 202.297C1086.78 201.651 1079.56 207.824 1078.92 216.083L1068.27 352.381C1067.08 367.567 1046.64 371.521 1039.88 357.872L954.043 184.657C950.95 178.414 943.966 175.123 937.183 176.712L900.684 185.259ZM505.749 246.482C508.849 258.8 501.376 271.3 489.058 274.4L377.206 302.551C365.371 305.529 357.923 317.233 360.236 329.216L365.256 355.215C367.741 368.086 380.464 376.28 393.209 373.219L473.661 353.902C486.013 350.936 498.43 358.544 501.396 370.896L505.365 387.426C508.331 399.777 500.722 412.195 488.371 415.16L403.155 435.622C391.194 438.494 383.61 450.269 385.942 462.347L413.707 606.144C416.182 618.966 407.499 631.274 394.59 633.242L365.07 637.742C351.597 639.795 339.271 629.774 338.382 616.174C335.82 576.985 329.851 500.726 319.461 447.191C309.212 394.388 286.658 322.452 274.539 285.462C270.293 272.5 278.014 258.607 291.296 255.504L473.969 212.835C486.189 209.98 498.442 217.448 501.505 229.618L505.749 246.482ZM196.748 469.225C194.839 474.109 198.762 479.296 203.979 478.772L218.889 477.275C222.427 476.92 224.893 473.599 224.21 470.11L215.554 425.881C215.331 424.74 213.748 424.612 213.343 425.702C207.728 440.823 202.068 455.613 196.748 469.225ZM230.658 539.41C234.301 539.044 237.611 541.548 238.25 545.154L256.352 647.334C258.376 658.754 269.274 666.372 280.694 664.349L304.912 660.058C314.852 658.297 322.12 649.724 322.065 639.63C321.885 606.784 320.476 534.615 312.038 486.5C300.914 423.072 270.473 336.524 258.191 303.007C255.069 294.485 246.971 288.926 237.895 288.889L209.211 288.774C198.724 288.732 189.673 296.095 186.925 306.217C179.821 332.379 167.467 368.265 154.283 403.773C138.069 447.44 121.57 487.986 114.639 503.965C112.998 507.749 111.415 511.447 109.865 515.068L109.86 515.079C98.645 541.278 89.1683 563.416 72.0379 584.5L64.4357 596.83C57.5422 608.011 60.9174 622.656 72.0093 629.692L84.9332 637.89C96.1261 644.99 110.955 641.672 118.055 630.479L122.073 624.146C125.487 618.227 128.689 612.732 131.723 607.525C143.947 586.547 153.454 570.231 163.167 549.645C164.225 547.404 166.374 545.865 168.84 545.617L230.658 539.41ZM727.554 324.261C739.126 323.487 747.88 313.479 747.106 301.906L745.975 284.983C745.052 271.192 733.113 260.766 719.323 261.71L538.499 274.086C523.6 275.106 512.857 288.882 514.992 303.663C517.963 324.232 521.299 352.441 521.139 374.535C520.902 407.047 518.275 438.035 515.038 460.5C512.511 478.038 495.34 602.587 487.93 656.369C486.156 669.251 496.398 680.626 509.395 680.217L572.449 678.23C584.03 677.865 593.127 668.19 592.778 656.609L588.326 508.663C587.969 496.823 597.471 487.031 609.316 487.031H690.476C702.074 487.031 711.476 477.629 711.476 466.031V445.031C711.476 433.433 702.074 424.031 690.476 424.031H611.243C598.028 424.031 588.082 411.954 589.492 398.814C590.267 391.602 590.783 383.954 590.538 377.5C590.319 371.744 589.456 365.197 588.384 358.959C586.14 345.895 595.257 333.107 608.483 332.223L727.554 324.261ZM829.314 315.951C841.445 316.647 850.714 327.045 850.017 339.176L848.069 373.124C847.372 385.255 836.974 394.524 824.844 393.827L798.179 392.297C786.049 391.601 776.78 381.203 777.476 369.072L779.425 335.124C780.121 322.993 790.519 313.724 802.649 314.421L829.314 315.951ZM825.491 410C837.038 410 846.186 419.75 845.45 431.274L827.964 705.28C827.261 716.288 817.778 724.649 806.768 723.968L751.503 720.544C736.496 719.615 727.489 702.89 734.152 689.411C746.227 664.985 761.793 628.586 767.45 593.751C774.772 548.67 776.04 467.712 776.218 430.155C776.27 419.047 785.267 410 796.375 410H825.491ZM1150.23 307.037C1150.1 295.55 1158.69 285.797 1170.11 284.582L1378.34 262.444C1390.42 261.16 1401.26 269.913 1402.54 281.995L1404.55 300.889C1405.83 312.971 1397.08 323.807 1385 325.091L1236.37 340.893C1224.77 342.126 1216.15 352.195 1216.72 363.844L1219.19 414.366C1219.81 426.995 1230.91 436.506 1243.49 435.169L1362.67 422.498C1374.75 421.213 1385.59 429.966 1386.87 442.048L1388.88 460.942C1390.17 473.024 1381.41 483.86 1369.33 485.145L1247.22 498.127C1234.64 499.464 1225.78 511.111 1227.84 523.592L1239.57 594.514C1241.5 606.217 1252.37 614.279 1264.13 612.739L1412.49 593.321C1424.43 591.758 1435.41 600.091 1437.12 612.017L1439.85 631.104C1441.57 643.124 1433.23 654.266 1421.21 655.997L1143.56 695.984C1129.27 698.041 1116.93 686.039 1118.64 671.714C1123.31 632.816 1132.19 560.848 1141.04 500.592C1150.48 436.284 1150.69 346.716 1150.23 307.037ZM1007.1 626.764L1007.09 626.766L1007.09 626.775L1007.08 626.777L1007.08 626.778C1006.61 627.213 1006.14 627.65 1005.67 628.089C1005.46 628.287 1005.24 628.485 1005.03 628.684C1004.66 629.027 1004.29 629.371 1003.91 629.716C999.296 633.974 994.675 638.267 990.042 642.571L990.041 642.572L990.04 642.573L990.039 642.575L990.031 642.581C987.187 645.224 984.337 647.872 981.482 650.517C986.451 654.914 991.042 659.709 995.334 664.191L995.336 664.193C997.297 666.242 999.196 668.225 1001.04 670.075C1005.16 674.211 1009.29 678.194 1013.49 682.236L1013.5 682.247C1016.02 684.672 1018.55 687.119 1021.13 689.634C1026.31 694.704 1031.08 700.208 1035.62 705.445L1035.63 705.451L1035.68 705.503L1035.71 705.541C1036.86 706.873 1038 708.188 1039.13 709.474C1038.07 705.993 1037 702.488 1035.91 698.948C1032.85 689.007 1029.75 679.023 1026.65 669.03C1022.93 657.067 1019.22 645.09 1015.56 633.158C1015.34 632.441 1015.11 631.72 1014.89 630.994L1014.89 630.992L1014.89 630.984L1014.88 630.967C1013.99 628.058 1013.07 625.085 1012.19 622.066C1010.51 623.593 1008.82 625.161 1007.1 626.762L1007.1 626.764ZM963.297 646.077C964.304 644.664 965.711 643.705 967.254 643.245C971.383 639.432 975.504 635.604 979.634 631.766L979.653 631.749L979.705 631.701L979.706 631.7L979.707 631.699L979.708 631.698L979.709 631.697C984.367 627.369 989.037 623.03 993.744 618.689C994.713 617.796 995.697 616.881 996.694 615.952L996.696 615.951C1000.42 612.483 1004.35 608.827 1008.48 605.4C1008.48 605.32 1008.48 605.24 1008.49 605.16C1008.58 601.019 1012 597.734 1016.15 597.822C1020.29 597.911 1023.57 601.34 1023.48 605.482C1023.48 605.832 1023.55 606.285 1023.94 607.939C1025.39 614.128 1027.27 620.232 1029.23 626.603L1029.24 626.619L1029.48 627.417L1029.73 628.213L1029.9 628.757C1033.57 640.721 1037.26 652.617 1040.96 664.526C1044.05 674.503 1047.15 684.49 1050.25 694.533C1053.73 705.845 1057.27 717.602 1060.8 729.331L1060.8 729.345L1061.6 731.999L1062.33 734.406C1062.86 735.369 1063.16 736.407 1063.24 737.45C1065.76 745.805 1068.27 754.09 1070.74 762.133C1071.03 763.092 1071.32 764.039 1071.61 764.976L1071.62 765.005L1071.62 765.016C1072.91 769.267 1074.14 773.299 1075.59 777.253C1076.19 778.881 1076.86 780.538 1077.58 782.326L1077.64 782.476L1077.64 782.477C1078.32 784.187 1079.06 786.015 1079.75 787.871C1081.16 791.684 1082.52 795.965 1083.1 800.54C1083.64 804.849 1083.11 809.247 1082.71 812.503L1082.71 812.513C1082.69 812.735 1082.66 812.951 1082.63 813.162C1082.59 813.531 1082.55 813.883 1082.51 814.215C1082.11 817.944 1081.28 821.84 1080.06 825.447C1079.15 828.157 1077.62 829.857 1076.61 830.879C1076.43 831.061 1076.3 831.187 1076.2 831.28L1076.15 831.334L1076.1 831.38L1076.07 831.41L1076.01 831.471C1075.9 831.57 1075.84 831.633 1075.67 831.813C1075.52 831.972 1075.5 832.008 1075.52 831.981C1075.47 832.047 1075.43 832.116 1075.38 832.186L1075.2 832.467C1074.16 834.078 1072.67 836.389 1070.68 838.142C1067.98 840.518 1064.82 841.631 1061.16 841.937C1057.69 842.227 1054.58 840.111 1053.47 836.981L1053.43 836.97L1053.38 836.952C1053.26 836.907 1052.88 836.813 1051.74 836.714C1051.6 836.702 1051.44 836.689 1051.25 836.674L1051.23 836.673C1050.28 836.6 1048.75 836.482 1047.38 836.219C1045.61 835.879 1043.79 835.544 1041.94 835.202L1041.92 835.2L1041.92 835.199L1041.91 835.198C1035.65 834.044 1029.01 832.819 1022.64 831.129C1016.97 829.627 1011.28 827.874 1005.8 826.184C1004.44 825.764 1003.09 825.348 1001.76 824.941C998.675 823.998 995.47 823.057 992.218 822.102L992.21 822.099C986.509 820.425 980.662 818.708 975.041 816.859C971.723 815.767 968.439 814.536 965.321 813.368C964.78 813.166 964.245 812.965 963.715 812.767C960.056 811.402 956.596 810.147 953.125 809.132C950.838 808.463 948.324 807.784 945.721 807.081C941.473 805.934 936.99 804.723 932.878 803.39C927.191 801.548 921.593 799.523 916.122 797.534L915.162 797.185L915.159 797.184L915.138 797.176L915.133 797.174C911.651 795.908 908.221 794.66 904.797 793.464C901.925 793.44 899.067 793.39 896.228 793.324C893.189 793.253 890.615 791.385 889.498 788.76C889.432 788.631 889.369 788.501 889.31 788.368C882.312 786.163 875.302 784.051 868.24 781.924C862.218 780.11 856.158 778.284 850.037 776.38C846.082 775.15 843.873 770.946 845.103 766.991C845.15 766.839 845.202 766.69 845.258 766.544C845.522 765.725 845.933 764.938 846.495 764.221C850.586 759.003 855.544 754.402 859.908 750.352L859.929 750.333C860.193 750.088 860.454 749.846 860.713 749.605C861.048 749.294 861.378 748.986 861.704 748.682L861.715 748.671C866.552 744.15 871.573 739.458 876.925 735.048L877.162 734.853C880.496 732.106 882.649 730.333 884.629 727.747C885.69 726.362 886.752 724.968 887.819 723.57C896.339 712.399 905.118 700.889 915.259 690.355C922.636 682.692 930.894 675.583 938.823 668.757C942.367 665.707 945.846 662.712 949.151 659.75C951.305 657.82 953.45 655.883 955.588 653.94C955.695 653.652 955.8 653.363 955.905 653.075C956.879 650.395 959.221 648.608 961.855 648.216L962.416 647.701C962.637 647.138 962.93 646.592 963.297 646.077ZM948.935 792.408C948.203 792.211 947.478 792.017 946.757 791.822C946.022 791.623 945.291 791.423 944.56 791.221C945.707 791.055 946.854 790.878 947.999 790.688C962.802 788.245 977.196 783.595 990.695 777.606C1000.63 773.197 1010.03 769.396 1020.09 766.636C1022.92 765.862 1025.78 765.089 1028.65 764.312L1028.65 764.312L1028.66 764.311L1028.66 764.31L1028.66 764.31L1028.66 764.309L1028.67 764.308L1028.67 764.307L1028.67 764.307L1028.68 764.306L1028.68 764.305C1034.3 762.786 1039.97 761.252 1045.58 759.657C1045.99 759.539 1046.53 759.451 1047.44 759.374C1047.5 759.369 1047.57 759.364 1047.64 759.358C1047.79 759.347 1047.97 759.334 1048.17 759.32H1048.17C1048.97 759.263 1050.1 759.182 1051.02 759.071C1052.01 758.951 1053 758.755 1053.95 758.526L1054.44 760.146L1054.82 761.372C1055.34 763.086 1055.87 764.807 1056.4 766.538C1056.54 766.998 1056.68 767.463 1056.83 767.931L1057.09 768.807L1057.18 769.098L1057.23 769.239L1057.23 769.241L1057.23 769.243L1057.23 769.251L1057.23 769.253L1057.23 769.255L1057.23 769.256C1058.53 773.519 1059.9 778.039 1061.51 782.426C1062.2 784.3 1062.95 786.163 1063.66 787.921L1063.69 787.994C1064.4 789.76 1065.07 791.425 1065.69 793.091C1066.94 796.478 1067.85 799.515 1068.22 802.419C1068.51 804.729 1068.25 806.937 1067.88 810.128C1067.79 810.893 1067.7 811.716 1067.6 812.609C1067.32 815.19 1066.75 817.88 1065.96 820.307L1065.94 820.33C1065.85 820.422 1065.77 820.505 1065.64 820.63L1065.5 820.767C1065.39 820.876 1065.26 821.006 1065.11 821.152C1065.01 821.253 1064.91 821.361 1064.8 821.475C1064.26 822.046 1063.59 822.807 1062.95 823.786L1062.7 824.169C1062.39 824.651 1062.13 825.044 1061.91 825.385C1061.05 824.248 1059.87 823.341 1058.43 822.827C1056.35 822.084 1054.32 821.881 1053.03 821.77C1052.76 821.746 1052.51 821.726 1052.29 821.708L1051.92 821.678C1051.11 821.613 1050.68 821.578 1050.2 821.488C1048.19 821.1 1046.2 820.734 1044.25 820.374C1038.11 819.24 1032.25 818.158 1026.48 816.63C1021.13 815.212 1015.81 813.573 1010.36 811.892C1009.7 811.688 1009.04 811.484 1008.37 811.279C1007.63 811.052 1006.89 810.824 1006.15 810.596C1002.73 809.552 999.402 808.576 996.119 807.612L996.106 807.609L996.067 807.597L996.053 807.593C990.549 805.979 985.173 804.401 979.729 802.61C976.73 801.623 973.773 800.516 970.651 799.347L970.64 799.343L970.637 799.341C970.219 799.185 969.798 799.027 969.374 798.868L968.96 798.714C965.275 797.338 961.372 795.915 957.334 794.735C954.347 793.861 951.595 793.122 948.935 792.408ZM1048.62 740.914C1048.94 741.984 1049.27 743.055 1049.59 744.127C1049.47 744.147 1049.35 744.164 1049.22 744.179C1049.12 744.192 1049.02 744.203 1048.92 744.214C1048.75 744.232 1048.59 744.247 1048.43 744.26C1048.18 744.28 1047.94 744.297 1047.66 744.316L1047.66 744.317C1047.26 744.343 1046.8 744.375 1046.18 744.427C1044.91 744.535 1043.26 744.721 1041.47 745.229C1035.95 746.8 1030.44 748.289 1024.88 749.792L1024.88 749.793L1024.88 749.793L1024.88 749.794L1024.88 749.794L1024.88 749.794L1024.88 749.795L1024.87 749.795L1024.87 749.795L1024.87 749.796L1024.87 749.796C1021.97 750.579 1019.06 751.366 1016.13 752.17C1006.98 754.677 998.473 757.926 990.087 761.508C990.131 761.235 990.174 760.966 990.217 760.699L990.291 760.237L990.311 760.114L990.311 760.113C991.019 755.691 991.623 751.926 992.962 748.081C994.664 743.197 996.385 738.716 998.151 734.12L998.152 734.115C999.563 730.44 1001 726.692 1002.48 722.605C1004.5 717.045 1006.14 711.45 1007.68 706.051L1007.9 705.277L1008.26 704.016L1008.3 703.898L1008.33 703.78L1008.33 703.777C1008.76 702.283 1009.18 700.807 1009.6 699.344C1009.95 699.683 1010.29 700.022 1010.64 700.36C1015.34 704.955 1019.58 709.848 1024.07 715.018C1025.32 716.464 1026.6 717.933 1027.91 719.422C1031.61 723.644 1035.63 727.885 1039.9 731.787C1043.21 734.811 1046.37 737.897 1048.62 740.914ZM975.995 754.681C975.505 754.103 975.017 753.524 974.528 752.946C973.806 752.091 973.085 751.236 972.362 750.38L972.129 750.104L972.062 750.024L972.054 750.015C969.9 747.463 967.738 744.901 965.535 742.308C966.501 741.876 967.436 741.486 968.375 741.142C971.115 740.137 974.14 739.499 977.703 738.747L977.706 738.746L978.446 738.59C979.01 738.47 979.635 738.393 980.535 738.305C979.933 739.941 979.35 741.56 978.798 743.146C977.501 746.868 976.658 750.894 975.995 754.681ZM948.171 747.798C949.152 748.171 950.085 748.299 950.919 748.288C954.033 751.925 957.21 755.687 960.406 759.472L960.407 759.473L960.408 759.474L960.41 759.477C963.35 762.958 966.306 766.458 969.246 769.901C961.478 772.524 953.549 774.57 945.557 775.889C933.099 777.945 920.321 778.514 907.359 778.478C907.179 778.416 907 778.355 906.82 778.294C910.09 770.033 913.731 761.951 917.82 754.127C922.476 745.22 927.488 736.632 932.662 728.041C933.372 729.035 934.176 730.134 935.02 731.162C937.314 733.957 939.82 736.49 942.089 738.763L942.544 739.219L942.545 739.22L942.947 739.622L943.373 740.048C943.351 740.268 943.336 740.523 943.336 740.798L943.336 740.821C943.334 741.068 943.323 742.632 944.215 744.309C944.782 745.375 945.98 746.964 948.171 747.798ZM946.615 721.646C947.312 722.496 948.048 723.329 948.823 724.168C949.948 720.836 951.022 717.453 952.113 713.999L952.347 713.258L952.349 713.254C953.334 710.135 954.338 706.957 955.397 703.766C952.481 704.619 949.547 705.507 946.591 706.401L946.166 706.529C946.057 706.562 945.947 706.593 945.838 706.621C945.773 706.637 945.709 706.653 945.645 706.667C944.114 709.209 942.583 711.728 941.057 714.232C942.108 715.472 943.013 716.716 943.776 717.785L943.898 717.956L944.095 718.233L944.377 718.63L944.397 718.659L944.399 718.662L944.403 718.667C945.231 719.834 945.889 720.762 946.615 721.646ZM968.09 713.24C967.609 714.744 967.13 716.26 966.647 717.789L966.625 717.859L966.624 717.861L966.416 718.519C965.547 721.269 964.662 724.062 963.734 726.87C967.39 725.584 971.237 724.777 974.422 724.108L974.725 724.045C974.934 724.001 975.14 723.957 975.342 723.914C976.826 723.601 978.279 723.45 979.391 723.346C977.676 721.563 975.897 719.858 974.051 718.24C973.311 717.592 972.651 717.06 971.882 716.441C971.648 716.253 971.404 716.056 971.145 715.846C970.854 715.61 970.544 715.357 970.208 715.078C969.54 714.526 968.822 713.915 968.09 713.24ZM990.008 712.747C991.154 709.224 992.203 705.628 993.26 701.929C993.47 701.195 993.68 700.455 993.892 699.711L993.893 699.71C994.188 698.671 994.486 697.624 994.788 696.571C993.561 696.704 992.289 696.807 990.985 696.856C985.667 697.054 980.358 697.762 975.026 698.802C975.688 699.475 976.325 700.161 976.919 700.849C977.631 701.674 978.54 702.504 979.771 703.522C980.098 703.793 980.497 704.115 980.932 704.466L980.938 704.471C981.882 705.234 982.997 706.136 983.936 706.958C986.048 708.809 988.07 710.743 990.008 712.747ZM991.557 681.804C991.176 681.424 990.795 681.044 990.416 680.664C988.108 678.348 985.92 676.066 983.789 673.843L983.785 673.839L983.765 673.818L983.762 673.816L983.756 673.809C979.246 669.104 974.99 664.666 970.396 660.735L969.753 661.324L969.356 661.687L968.784 662.21L968.328 662.626C964.897 671.353 960.851 679.73 956.476 687.853C967.315 684.846 978.766 682.301 990.426 681.866C990.695 681.856 990.965 681.842 991.237 681.826C991.305 681.821 991.373 681.817 991.441 681.812L991.557 681.804ZM938.925 688.545C934.496 692.473 930.197 696.466 926.065 700.758C916.562 710.629 908.326 721.424 899.74 732.675L899.69 732.741C898.646 734.109 897.596 735.485 896.539 736.866C893.484 740.855 890.107 743.63 887.068 746.127L887.031 746.158L886.651 746.47L886.463 746.625C881.528 750.691 876.841 755.066 871.947 759.64C871.315 760.231 870.69 760.812 870.074 761.385L870.07 761.389C868.562 762.79 867.104 764.146 865.706 765.49C867.876 766.147 870.054 766.803 872.236 767.461L872.245 767.464L872.248 767.465L872.25 767.465L872.253 767.466L872.266 767.47L872.325 767.488L872.347 767.494C879.053 769.516 885.806 771.551 892.525 773.657C896.053 764.661 900.021 755.8 904.527 747.179C911.338 734.147 918.999 721.587 926.526 709.248L926.528 709.244L926.529 709.242L926.53 709.241L926.532 709.237C929.315 704.674 932.08 700.141 934.777 695.625C936.186 693.267 937.57 690.908 938.925 688.545ZM233.899 210.732C233.756 208.072 231.554 205.992 228.891 206C226.228 206.008 224.038 208.102 223.912 210.763C223.885 211.335 223.877 211.942 223.894 212.577C223.542 217.345 220.147 226.861 206.533 231.039C204.102 231.785 202.618 234.238 203.085 236.738C203.553 239.238 205.823 240.989 208.359 240.806C211.081 240.61 215.287 241.248 218.702 243.671C221.404 245.588 224.015 248.897 224.781 254.881C224.811 256.149 224.9 257.379 225.031 258.554C225.326 261.206 227.652 263.158 230.316 262.99C232.979 262.822 235.04 260.591 235 257.923C234.98 256.634 234.902 255.397 234.77 254.21C234.732 250.374 235.435 246.547 237.306 243.313C239.5 239.521 243.681 235.878 251.95 234.203C252.296 234.142 252.644 234.076 252.996 234.004C255.679 233.459 257.425 230.857 256.912 228.168C256.399 225.478 253.818 223.702 251.123 224.182C250.773 224.245 250.427 224.31 250.085 224.378C242.442 225.71 238.802 223.472 236.893 221.194C234.911 218.828 234.031 215.501 233.901 212.676C233.934 211.989 233.932 211.338 233.899 210.732ZM222.252 234.106C224.995 231.957 227.156 229.575 228.834 227.131C228.962 227.294 229.093 227.455 229.227 227.616C230.589 229.241 232.195 230.638 234.049 231.755C231.831 233.69 230.044 235.896 228.65 238.306C228.534 238.506 228.422 238.707 228.312 238.908C227.143 237.614 225.857 236.486 224.488 235.515C223.756 234.995 223.009 234.527 222.252 234.106Z"/>
</mask>
<path fill-rule="evenodd" clip-rule="evenodd" d="M1244.68 73.1355C1250.83 61.4627 1265.3 56.9956 1277 63.158L1354.07 103.733C1365.78 109.895 1370.28 124.353 1364.14 136.026L1315.58 228.254C1309.44 239.927 1294.97 244.394 1283.26 238.231L1206.19 197.657C1194.49 191.494 1189.98 177.036 1196.13 165.363L1244.68 73.1355ZM1270.93 74.6865C1265.61 71.8854 1259.04 73.9159 1256.24 79.2217L1207.69 171.449C1204.89 176.755 1206.94 183.327 1212.26 186.128L1289.33 226.703C1294.65 229.504 1301.23 227.473 1304.02 222.168L1352.58 129.94C1355.37 124.634 1353.32 118.062 1348 115.261L1270.93 74.6865ZM1267.42 104.737C1269.09 101.553 1273.04 100.335 1276.23 102.015L1303.21 116.217C1306.4 117.897 1307.63 121.84 1305.95 125.024C1304.28 128.207 1300.33 129.426 1297.14 127.745L1270.16 113.544C1266.97 111.863 1265.74 107.92 1267.42 104.737ZM1262.07 128.915C1258.88 127.235 1254.93 128.453 1253.26 131.636C1251.58 134.82 1252.81 138.763 1256 140.444L1302.24 164.788C1305.43 166.469 1309.38 165.251 1311.06 162.067C1312.73 158.884 1311.5 154.941 1308.31 153.26L1262.07 128.915ZM1239.09 158.536C1240.77 155.353 1244.72 154.134 1247.91 155.815L1286.44 176.102C1289.63 177.783 1290.86 181.726 1289.19 184.91C1287.51 188.093 1283.57 189.311 1280.37 187.631L1241.84 167.343C1238.65 165.663 1237.42 161.72 1239.09 158.536ZM687.508 136.421C681.984 145.003 684.464 156.439 693.047 161.962C701.63 167.485 713.065 165.005 718.588 156.422C724.111 147.84 721.631 136.405 713.049 130.881C704.466 125.358 693.031 127.838 687.508 136.421ZM685.017 174.439C669.544 164.481 665.072 143.865 675.03 128.391C684.581 113.55 703.936 108.83 719.155 117.255C723.672 110.252 728.112 103.593 734.308 97.6807C741.18 91.124 749.879 85.7605 762.738 80.9866L762.975 80.8988L763.217 80.8273C782.835 75.0258 805.189 80.1888 822.222 91.0996L831.102 77.3008C833.32 73.8553 837.91 72.8596 841.356 75.077L880.558 100.305C884.003 102.522 884.999 107.113 882.782 110.558L857.554 149.76C855.336 153.206 850.746 154.201 847.3 151.984L808.098 126.756C804.653 124.539 803.657 119.948 805.874 116.503L814.193 103.577C799.985 94.4848 782.187 90.7868 767.66 94.9871C756.385 99.1992 749.614 103.585 744.551 108.415C739.312 113.415 735.561 119.179 730.461 127.105L729.985 126.798C736.43 135.651 738.183 147.295 734.383 157.764L766.858 178.663C777.719 168.018 794.864 165.888 808.193 174.466C823.667 184.424 828.138 205.041 818.18 220.514C808.222 235.988 787.606 240.459 772.132 230.501C758.803 221.923 753.638 205.436 758.828 191.14L726.354 170.242C715.492 180.888 698.347 183.017 685.017 174.439ZM774.622 192.483C769.099 201.066 771.579 212.501 780.162 218.024C788.745 223.547 800.18 221.067 805.703 212.485C811.226 203.902 808.746 192.467 800.163 186.944C791.581 181.42 780.146 183.9 774.622 192.483ZM849.091 135.492L822.366 118.294L839.565 91.5689L866.29 108.767L849.091 135.492ZM137.646 141.5C141.642 141.488 144.946 144.612 145.158 148.603C145.249 150.312 145.25 152.168 145.147 154.147C145.541 164.203 148.572 176.474 156.099 185.575C164.044 195.182 178.108 202.584 203.588 198.065C204.601 197.859 205.628 197.662 206.667 197.474C210.708 196.744 214.585 199.4 215.364 203.432C216.143 207.464 213.535 211.372 209.512 212.201C208.47 212.415 207.44 212.613 206.421 212.796C179.387 218.325 164.567 230.703 156.582 244.685C149.924 256.344 147.624 269.813 147.804 282.804C148.204 286.327 148.441 290.019 148.499 293.886C148.56 297.89 145.464 301.236 141.467 301.485C137.471 301.735 133.983 298.8 133.545 294.82C133.155 291.272 132.897 287.581 132.82 283.796C130.297 262.991 121.222 250.629 111.026 243.302C98.8583 234.558 84.1793 232.346 74.546 233.049C70.7449 233.326 67.3401 230.709 66.631 226.964C65.922 223.219 68.1341 219.538 71.7736 218.407C116.971 204.356 129.008 171.592 130.136 154.01C130.08 152.135 130.097 150.34 130.177 148.649C130.364 144.656 133.649 141.512 137.646 141.5ZM137.211 183.683C130.645 197.18 119.421 211.115 101.335 221.769C107.56 223.844 113.867 226.872 119.78 231.121C126.6 236.022 132.735 242.434 137.568 250.612C139.111 246.062 141.082 241.58 143.556 237.247C149.244 227.286 157.419 218.414 168.642 211.388C158.488 208.118 150.538 202.388 144.539 195.134C141.574 191.549 139.158 187.677 137.211 183.683ZM900.684 185.259C893.87 186.854 889.062 192.87 889.069 199.867C889.103 237.171 888.727 353.34 883.038 418.5C878.856 466.404 870.048 544.661 866.068 579.415C865.011 588.639 872.494 596.566 881.766 596.091L937.806 593.216C945.781 592.807 952.038 586.221 952.038 578.236V398.973C952.038 382.515 974.709 378.068 980.926 393.307L1060.98 589.518C1062.89 594.189 1067.01 597.589 1071.96 598.567L1089.66 602.065C1098.76 603.863 1107.3 597.121 1107.62 587.855C1108.89 551.366 1112.24 466.06 1117.54 406.623C1123.01 345.27 1135.38 257.567 1140.55 221.965C1141.8 213.35 1135.51 205.458 1126.83 204.78L1095.04 202.297C1086.78 201.651 1079.56 207.824 1078.92 216.083L1068.27 352.381C1067.08 367.567 1046.64 371.521 1039.88 357.872L954.043 184.657C950.95 178.414 943.966 175.123 937.183 176.712L900.684 185.259ZM505.749 246.482C508.849 258.8 501.376 271.3 489.058 274.4L377.206 302.551C365.371 305.529 357.923 317.233 360.236 329.216L365.256 355.215C367.741 368.086 380.464 376.28 393.209 373.219L473.661 353.902C486.013 350.936 498.43 358.544 501.396 370.896L505.365 387.426C508.331 399.777 500.722 412.195 488.371 415.16L403.155 435.622C391.194 438.494 383.61 450.269 385.942 462.347L413.707 606.144C416.182 618.966 407.499 631.274 394.59 633.242L365.07 637.742C351.597 639.795 339.271 629.774 338.382 616.174C335.82 576.985 329.851 500.726 319.461 447.191C309.212 394.388 286.658 322.452 274.539 285.462C270.293 272.5 278.014 258.607 291.296 255.504L473.969 212.835C486.189 209.98 498.442 217.448 501.505 229.618L505.749 246.482ZM196.748 469.225C194.839 474.109 198.762 479.296 203.979 478.772L218.889 477.275C222.427 476.92 224.893 473.599 224.21 470.11L215.554 425.881C215.331 424.74 213.748 424.612 213.343 425.702C207.728 440.823 202.068 455.613 196.748 469.225ZM230.658 539.41C234.301 539.044 237.611 541.548 238.25 545.154L256.352 647.334C258.376 658.754 269.274 666.372 280.694 664.349L304.912 660.058C314.852 658.297 322.12 649.724 322.065 639.63C321.885 606.784 320.476 534.615 312.038 486.5C300.914 423.072 270.473 336.524 258.191 303.007C255.069 294.485 246.971 288.926 237.895 288.889L209.211 288.774C198.724 288.732 189.673 296.095 186.925 306.217C179.821 332.379 167.467 368.265 154.283 403.773C138.069 447.44 121.57 487.986 114.639 503.965C112.998 507.749 111.415 511.447 109.865 515.068L109.86 515.079C98.645 541.278 89.1683 563.416 72.0379 584.5L64.4357 596.83C57.5422 608.011 60.9174 622.656 72.0093 629.692L84.9332 637.89C96.1261 644.99 110.955 641.672 118.055 630.479L122.073 624.146C125.487 618.227 128.689 612.732 131.723 607.525C143.947 586.547 153.454 570.231 163.167 549.645C164.225 547.404 166.374 545.865 168.84 545.617L230.658 539.41ZM727.554 324.261C739.126 323.487 747.88 313.479 747.106 301.906L745.975 284.983C745.052 271.192 733.113 260.766 719.323 261.71L538.499 274.086C523.6 275.106 512.857 288.882 514.992 303.663C517.963 324.232 521.299 352.441 521.139 374.535C520.902 407.047 518.275 438.035 515.038 460.5C512.511 478.038 495.34 602.587 487.93 656.369C486.156 669.251 496.398 680.626 509.395 680.217L572.449 678.23C584.03 677.865 593.127 668.19 592.778 656.609L588.326 508.663C587.969 496.823 597.471 487.031 609.316 487.031H690.476C702.074 487.031 711.476 477.629 711.476 466.031V445.031C711.476 433.433 702.074 424.031 690.476 424.031H611.243C598.028 424.031 588.082 411.954 589.492 398.814C590.267 391.602 590.783 383.954 590.538 377.5C590.319 371.744 589.456 365.197 588.384 358.959C586.14 345.895 595.257 333.107 608.483 332.223L727.554 324.261ZM829.314 315.951C841.445 316.647 850.714 327.045 850.017 339.176L848.069 373.124C847.372 385.255 836.974 394.524 824.844 393.827L798.179 392.297C786.049 391.601 776.78 381.203 777.476 369.072L779.425 335.124C780.121 322.993 790.519 313.724 802.649 314.421L829.314 315.951ZM825.491 410C837.038 410 846.186 419.75 845.45 431.274L827.964 705.28C827.261 716.288 817.778 724.649 806.768 723.968L751.503 720.544C736.496 719.615 727.489 702.89 734.152 689.411C746.227 664.985 761.793 628.586 767.45 593.751C774.772 548.67 776.04 467.712 776.218 430.155C776.27 419.047 785.267 410 796.375 410H825.491ZM1150.23 307.037C1150.1 295.55 1158.69 285.797 1170.11 284.582L1378.34 262.444C1390.42 261.16 1401.26 269.913 1402.54 281.995L1404.55 300.889C1405.83 312.971 1397.08 323.807 1385 325.091L1236.37 340.893C1224.77 342.126 1216.15 352.195 1216.72 363.844L1219.19 414.366C1219.81 426.995 1230.91 436.506 1243.49 435.169L1362.67 422.498C1374.75 421.213 1385.59 429.966 1386.87 442.048L1388.88 460.942C1390.17 473.024 1381.41 483.86 1369.33 485.145L1247.22 498.127C1234.64 499.464 1225.78 511.111 1227.84 523.592L1239.57 594.514C1241.5 606.217 1252.37 614.279 1264.13 612.739L1412.49 593.321C1424.43 591.758 1435.41 600.091 1437.12 612.017L1439.85 631.104C1441.57 643.124 1433.23 654.266 1421.21 655.997L1143.56 695.984C1129.27 698.041 1116.93 686.039 1118.64 671.714C1123.31 632.816 1132.19 560.848 1141.04 500.592C1150.48 436.284 1150.69 346.716 1150.23 307.037ZM1007.1 626.764L1007.09 626.766L1007.09 626.775L1007.08 626.777L1007.08 626.778C1006.61 627.213 1006.14 627.65 1005.67 628.089C1005.46 628.287 1005.24 628.485 1005.03 628.684C1004.66 629.027 1004.29 629.371 1003.91 629.716C999.296 633.974 994.675 638.267 990.042 642.571L990.041 642.572L990.04 642.573L990.039 642.575L990.031 642.581C987.187 645.224 984.337 647.872 981.482 650.517C986.451 654.914 991.042 659.709 995.334 664.191L995.336 664.193C997.297 666.242 999.196 668.225 1001.04 670.075C1005.16 674.211 1009.29 678.194 1013.49 682.236L1013.5 682.247C1016.02 684.672 1018.55 687.119 1021.13 689.634C1026.31 694.704 1031.08 700.208 1035.62 705.445L1035.63 705.451L1035.68 705.503L1035.71 705.541C1036.86 706.873 1038 708.188 1039.13 709.474C1038.07 705.993 1037 702.488 1035.91 698.948C1032.85 689.007 1029.75 679.023 1026.65 669.03C1022.93 657.067 1019.22 645.09 1015.56 633.158C1015.34 632.441 1015.11 631.72 1014.89 630.994L1014.89 630.992L1014.89 630.984L1014.88 630.967C1013.99 628.058 1013.07 625.085 1012.19 622.066C1010.51 623.593 1008.82 625.161 1007.1 626.762L1007.1 626.764ZM963.297 646.077C964.304 644.664 965.711 643.705 967.254 643.245C971.383 639.432 975.504 635.604 979.634 631.766L979.653 631.749L979.705 631.701L979.706 631.7L979.707 631.699L979.708 631.698L979.709 631.697C984.367 627.369 989.037 623.03 993.744 618.689C994.713 617.796 995.697 616.881 996.694 615.952L996.696 615.951C1000.42 612.483 1004.35 608.827 1008.48 605.4C1008.48 605.32 1008.48 605.24 1008.49 605.16C1008.58 601.019 1012 597.734 1016.15 597.822C1020.29 597.911 1023.57 601.34 1023.48 605.482C1023.48 605.832 1023.55 606.285 1023.94 607.939C1025.39 614.128 1027.27 620.232 1029.23 626.603L1029.24 626.619L1029.48 627.417L1029.73 628.213L1029.9 628.757C1033.57 640.721 1037.26 652.617 1040.96 664.526C1044.05 674.503 1047.15 684.49 1050.25 694.533C1053.73 705.845 1057.27 717.602 1060.8 729.331L1060.8 729.345L1061.6 731.999L1062.33 734.406C1062.86 735.369 1063.16 736.407 1063.24 737.45C1065.76 745.805 1068.27 754.09 1070.74 762.133C1071.03 763.092 1071.32 764.039 1071.61 764.976L1071.62 765.005L1071.62 765.016C1072.91 769.267 1074.14 773.299 1075.59 777.253C1076.19 778.881 1076.86 780.538 1077.58 782.326L1077.64 782.476L1077.64 782.477C1078.32 784.187 1079.06 786.015 1079.75 787.871C1081.16 791.684 1082.52 795.965 1083.1 800.54C1083.64 804.849 1083.11 809.247 1082.71 812.503L1082.71 812.513C1082.69 812.735 1082.66 812.951 1082.63 813.162C1082.59 813.531 1082.55 813.883 1082.51 814.215C1082.11 817.944 1081.28 821.84 1080.06 825.447C1079.15 828.157 1077.62 829.857 1076.61 830.879C1076.43 831.061 1076.3 831.187 1076.2 831.28L1076.15 831.334L1076.1 831.38L1076.07 831.41L1076.01 831.471C1075.9 831.57 1075.84 831.633 1075.67 831.813C1075.52 831.972 1075.5 832.008 1075.52 831.981C1075.47 832.047 1075.43 832.116 1075.38 832.186L1075.2 832.467C1074.16 834.078 1072.67 836.389 1070.68 838.142C1067.98 840.518 1064.82 841.631 1061.16 841.937C1057.69 842.227 1054.58 840.111 1053.47 836.981L1053.43 836.97L1053.38 836.952C1053.26 836.907 1052.88 836.813 1051.74 836.714C1051.6 836.702 1051.44 836.689 1051.25 836.674L1051.23 836.673C1050.28 836.6 1048.75 836.482 1047.38 836.219C1045.61 835.879 1043.79 835.544 1041.94 835.202L1041.92 835.2L1041.92 835.199L1041.91 835.198C1035.65 834.044 1029.01 832.819 1022.64 831.129C1016.97 829.627 1011.28 827.874 1005.8 826.184C1004.44 825.764 1003.09 825.348 1001.76 824.941C998.675 823.998 995.47 823.057 992.218 822.102L992.21 822.099C986.509 820.425 980.662 818.708 975.041 816.859C971.723 815.767 968.439 814.536 965.321 813.368C964.78 813.166 964.245 812.965 963.715 812.767C960.056 811.402 956.596 810.147 953.125 809.132C950.838 808.463 948.324 807.784 945.721 807.081C941.473 805.934 936.99 804.723 932.878 803.39C927.191 801.548 921.593 799.523 916.122 797.534L915.162 797.185L915.159 797.184L915.138 797.176L915.133 797.174C911.651 795.908 908.221 794.66 904.797 793.464C901.925 793.44 899.067 793.39 896.228 793.324C893.189 793.253 890.615 791.385 889.498 788.76C889.432 788.631 889.369 788.501 889.31 788.368C882.312 786.163 875.302 784.051 868.24 781.924C862.218 780.11 856.158 778.284 850.037 776.38C846.082 775.15 843.873 770.946 845.103 766.991C845.15 766.839 845.202 766.69 845.258 766.544C845.522 765.725 845.933 764.938 846.495 764.221C850.586 759.003 855.544 754.402 859.908 750.352L859.929 750.333C860.193 750.088 860.454 749.846 860.713 749.605C861.048 749.294 861.378 748.986 861.704 748.682L861.715 748.671C866.552 744.15 871.573 739.458 876.925 735.048L877.162 734.853C880.496 732.106 882.649 730.333 884.629 727.747C885.69 726.362 886.752 724.968 887.819 723.57C896.339 712.399 905.118 700.889 915.259 690.355C922.636 682.692 930.894 675.583 938.823 668.757C942.367 665.707 945.846 662.712 949.151 659.75C951.305 657.82 953.45 655.883 955.588 653.94C955.695 653.652 955.8 653.363 955.905 653.075C956.879 650.395 959.221 648.608 961.855 648.216L962.416 647.701C962.637 647.138 962.93 646.592 963.297 646.077ZM948.935 792.408C948.203 792.211 947.478 792.017 946.757 791.822C946.022 791.623 945.291 791.423 944.56 791.221C945.707 791.055 946.854 790.878 947.999 790.688C962.802 788.245 977.196 783.595 990.695 777.606C1000.63 773.197 1010.03 769.396 1020.09 766.636C1022.92 765.862 1025.78 765.089 1028.65 764.312L1028.65 764.312L1028.66 764.311L1028.66 764.31L1028.66 764.31L1028.66 764.309L1028.67 764.308L1028.67 764.307L1028.67 764.307L1028.68 764.306L1028.68 764.305C1034.3 762.786 1039.97 761.252 1045.58 759.657C1045.99 759.539 1046.53 759.451 1047.44 759.374C1047.5 759.369 1047.57 759.364 1047.64 759.358C1047.79 759.347 1047.97 759.334 1048.17 759.32H1048.17C1048.97 759.263 1050.1 759.182 1051.02 759.071C1052.01 758.951 1053 758.755 1053.95 758.526L1054.44 760.146L1054.82 761.372C1055.34 763.086 1055.87 764.807 1056.4 766.538C1056.54 766.998 1056.68 767.463 1056.83 767.931L1057.09 768.807L1057.18 769.098L1057.23 769.239L1057.23 769.241L1057.23 769.243L1057.23 769.251L1057.23 769.253L1057.23 769.255L1057.23 769.256C1058.53 773.519 1059.9 778.039 1061.51 782.426C1062.2 784.3 1062.95 786.163 1063.66 787.921L1063.69 787.994C1064.4 789.76 1065.07 791.425 1065.69 793.091C1066.94 796.478 1067.85 799.515 1068.22 802.419C1068.51 804.729 1068.25 806.937 1067.88 810.128C1067.79 810.893 1067.7 811.716 1067.6 812.609C1067.32 815.19 1066.75 817.88 1065.96 820.307L1065.94 820.33C1065.85 820.422 1065.77 820.505 1065.64 820.63L1065.5 820.767C1065.39 820.876 1065.26 821.006 1065.11 821.152C1065.01 821.253 1064.91 821.361 1064.8 821.475C1064.26 822.046 1063.59 822.807 1062.95 823.786L1062.7 824.169C1062.39 824.651 1062.13 825.044 1061.91 825.385C1061.05 824.248 1059.87 823.341 1058.43 822.827C1056.35 822.084 1054.32 821.881 1053.03 821.77C1052.76 821.746 1052.51 821.726 1052.29 821.708L1051.92 821.678C1051.11 821.613 1050.68 821.578 1050.2 821.488C1048.19 821.1 1046.2 820.734 1044.25 820.374C1038.11 819.24 1032.25 818.158 1026.48 816.63C1021.13 815.212 1015.81 813.573 1010.36 811.892C1009.7 811.688 1009.04 811.484 1008.37 811.279C1007.63 811.052 1006.89 810.824 1006.15 810.596C1002.73 809.552 999.402 808.576 996.119 807.612L996.106 807.609L996.067 807.597L996.053 807.593C990.549 805.979 985.173 804.401 979.729 802.61C976.73 801.623 973.773 800.516 970.651 799.347L970.64 799.343L970.637 799.341C970.219 799.185 969.798 799.027 969.374 798.868L968.96 798.714C965.275 797.338 961.372 795.915 957.334 794.735C954.347 793.861 951.595 793.122 948.935 792.408ZM1048.62 740.914C1048.94 741.984 1049.27 743.055 1049.59 744.127C1049.47 744.147 1049.35 744.164 1049.22 744.179C1049.12 744.192 1049.02 744.203 1048.92 744.214C1048.75 744.232 1048.59 744.247 1048.43 744.26C1048.18 744.28 1047.94 744.297 1047.66 744.316L1047.66 744.317C1047.26 744.343 1046.8 744.375 1046.18 744.427C1044.91 744.535 1043.26 744.721 1041.47 745.229C1035.95 746.8 1030.44 748.289 1024.88 749.792L1024.88 749.793L1024.88 749.793L1024.88 749.794L1024.88 749.794L1024.88 749.794L1024.88 749.795L1024.87 749.795L1024.87 749.795L1024.87 749.796L1024.87 749.796C1021.97 750.579 1019.06 751.366 1016.13 752.17C1006.98 754.677 998.473 757.926 990.087 761.508C990.131 761.235 990.174 760.966 990.217 760.699L990.291 760.237L990.311 760.114L990.311 760.113C991.019 755.691 991.623 751.926 992.962 748.081C994.664 743.197 996.385 738.716 998.151 734.12L998.152 734.115C999.563 730.44 1001 726.692 1002.48 722.605C1004.5 717.045 1006.14 711.45 1007.68 706.051L1007.9 705.277L1008.26 704.016L1008.3 703.898L1008.33 703.78L1008.33 703.777C1008.76 702.283 1009.18 700.807 1009.6 699.344C1009.95 699.683 1010.29 700.022 1010.64 700.36C1015.34 704.955 1019.58 709.848 1024.07 715.018C1025.32 716.464 1026.6 717.933 1027.91 719.422C1031.61 723.644 1035.63 727.885 1039.9 731.787C1043.21 734.811 1046.37 737.897 1048.62 740.914ZM975.995 754.681C975.505 754.103 975.017 753.524 974.528 752.946C973.806 752.091 973.085 751.236 972.362 750.38L972.129 750.104L972.062 750.024L972.054 750.015C969.9 747.463 967.738 744.901 965.535 742.308C966.501 741.876 967.436 741.486 968.375 741.142C971.115 740.137 974.14 739.499 977.703 738.747L977.706 738.746L978.446 738.59C979.01 738.47 979.635 738.393 980.535 738.305C979.933 739.941 979.35 741.56 978.798 743.146C977.501 746.868 976.658 750.894 975.995 754.681ZM948.171 747.798C949.152 748.171 950.085 748.299 950.919 748.288C954.033 751.925 957.21 755.687 960.406 759.472L960.407 759.473L960.408 759.474L960.41 759.477C963.35 762.958 966.306 766.458 969.246 769.901C961.478 772.524 953.549 774.57 945.557 775.889C933.099 777.945 920.321 778.514 907.359 778.478C907.179 778.416 907 778.355 906.82 778.294C910.09 770.033 913.731 761.951 917.82 754.127C922.476 745.22 927.488 736.632 932.662 728.041C933.372 729.035 934.176 730.134 935.02 731.162C937.314 733.957 939.82 736.49 942.089 738.763L942.544 739.219L942.545 739.22L942.947 739.622L943.373 740.048C943.351 740.268 943.336 740.523 943.336 740.798L943.336 740.821C943.334 741.068 943.323 742.632 944.215 744.309C944.782 745.375 945.98 746.964 948.171 747.798ZM946.615 721.646C947.312 722.496 948.048 723.329 948.823 724.168C949.948 720.836 951.022 717.453 952.113 713.999L952.347 713.258L952.349 713.254C953.334 710.135 954.338 706.957 955.397 703.766C952.481 704.619 949.547 705.507 946.591 706.401L946.166 706.529C946.057 706.562 945.947 706.593 945.838 706.621C945.773 706.637 945.709 706.653 945.645 706.667C944.114 709.209 942.583 711.728 941.057 714.232C942.108 715.472 943.013 716.716 943.776 717.785L943.898 717.956L944.095 718.233L944.377 718.63L944.397 718.659L944.399 718.662L944.403 718.667C945.231 719.834 945.889 720.762 946.615 721.646ZM968.09 713.24C967.609 714.744 967.13 716.26 966.647 717.789L966.625 717.859L966.624 717.861L966.416 718.519C965.547 721.269 964.662 724.062 963.734 726.87C967.39 725.584 971.237 724.777 974.422 724.108L974.725 724.045C974.934 724.001 975.14 723.957 975.342 723.914C976.826 723.601 978.279 723.45 979.391 723.346C977.676 721.563 975.897 719.858 974.051 718.24C973.311 717.592 972.651 717.06 971.882 716.441C971.648 716.253 971.404 716.056 971.145 715.846C970.854 715.61 970.544 715.357 970.208 715.078C969.54 714.526 968.822 713.915 968.09 713.24ZM990.008 712.747C991.154 709.224 992.203 705.628 993.26 701.929C993.47 701.195 993.68 700.455 993.892 699.711L993.893 699.71C994.188 698.671 994.486 697.624 994.788 696.571C993.561 696.704 992.289 696.807 990.985 696.856C985.667 697.054 980.358 697.762 975.026 698.802C975.688 699.475 976.325 700.161 976.919 700.849C977.631 701.674 978.54 702.504 979.771 703.522C980.098 703.793 980.497 704.115 980.932 704.466L980.938 704.471C981.882 705.234 982.997 706.136 983.936 706.958C986.048 708.809 988.07 710.743 990.008 712.747ZM991.557 681.804C991.176 681.424 990.795 681.044 990.416 680.664C988.108 678.348 985.92 676.066 983.789 673.843L983.785 673.839L983.765 673.818L983.762 673.816L983.756 673.809C979.246 669.104 974.99 664.666 970.396 660.735L969.753 661.324L969.356 661.687L968.784 662.21L968.328 662.626C964.897 671.353 960.851 679.73 956.476 687.853C967.315 684.846 978.766 682.301 990.426 681.866C990.695 681.856 990.965 681.842 991.237 681.826C991.305 681.821 991.373 681.817 991.441 681.812L991.557 681.804ZM938.925 688.545C934.496 692.473 930.197 696.466 926.065 700.758C916.562 710.629 908.326 721.424 899.74 732.675L899.69 732.741C898.646 734.109 897.596 735.485 896.539 736.866C893.484 740.855 890.107 743.63 887.068 746.127L887.031 746.158L886.651 746.47L886.463 746.625C881.528 750.691 876.841 755.066 871.947 759.64C871.315 760.231 870.69 760.812 870.074 761.385L870.07 761.389C868.562 762.79 867.104 764.146 865.706 765.49C867.876 766.147 870.054 766.803 872.236 767.461L872.245 767.464L872.248 767.465L872.25 767.465L872.253 767.466L872.266 767.47L872.325 767.488L872.347 767.494C879.053 769.516 885.806 771.551 892.525 773.657C896.053 764.661 900.021 755.8 904.527 747.179C911.338 734.147 918.999 721.587 926.526 709.248L926.528 709.244L926.529 709.242L926.53 709.241L926.532 709.237C929.315 704.674 932.08 700.141 934.777 695.625C936.186 693.267 937.57 690.908 938.925 688.545ZM233.899 210.732C233.756 208.072 231.554 205.992 228.891 206C226.228 206.008 224.038 208.102 223.912 210.763C223.885 211.335 223.877 211.942 223.894 212.577C223.542 217.345 220.147 226.861 206.533 231.039C204.102 231.785 202.618 234.238 203.085 236.738C203.553 239.238 205.823 240.989 208.359 240.806C211.081 240.61 215.287 241.248 218.702 243.671C221.404 245.588 224.015 248.897 224.781 254.881C224.811 256.149 224.9 257.379 225.031 258.554C225.326 261.206 227.652 263.158 230.316 262.99C232.979 262.822 235.04 260.591 235 257.923C234.98 256.634 234.902 255.397 234.77 254.21C234.732 250.374 235.435 246.547 237.306 243.313C239.5 239.521 243.681 235.878 251.95 234.203C252.296 234.142 252.644 234.076 252.996 234.004C255.679 233.459 257.425 230.857 256.912 228.168C256.399 225.478 253.818 223.702 251.123 224.182C250.773 224.245 250.427 224.31 250.085 224.378C242.442 225.71 238.802 223.472 236.893 221.194C234.911 218.828 234.031 215.501 233.901 212.676C233.934 211.989 233.932 211.338 233.899 210.732ZM222.252 234.106C224.995 231.957 227.156 229.575 228.834 227.131C228.962 227.294 229.093 227.455 229.227 227.616C230.589 229.241 232.195 230.638 234.049 231.755C231.831 233.69 230.044 235.896 228.65 238.306C228.534 238.506 228.422 238.707 228.312 238.908C227.143 237.614 225.857 236.486 224.488 235.515C223.756 234.995 223.009 234.527 222.252 234.106Z" fill="black"/>
<path fill-rule="evenodd" clip-rule="evenodd" d="M1244.68 73.1355C1250.83 61.4627 1265.3 56.9956 1277 63.158L1354.07 103.733C1365.78 109.895 1370.28 124.353 1364.14 136.026L1315.58 228.254C1309.44 239.927 1294.97 244.394 1283.26 238.231L1206.19 197.657C1194.49 191.494 1189.98 177.036 1196.13 165.363L1244.68 73.1355ZM1270.93 74.6865C1265.61 71.8854 1259.04 73.9159 1256.24 79.2217L1207.69 171.449C1204.89 176.755 1206.94 183.327 1212.26 186.128L1289.33 226.703C1294.65 229.504 1301.23 227.473 1304.02 222.168L1352.58 129.94C1355.37 124.634 1353.32 118.062 1348 115.261L1270.93 74.6865ZM1267.42 104.737C1269.09 101.553 1273.04 100.335 1276.23 102.015L1303.21 116.217C1306.4 117.897 1307.63 121.84 1305.95 125.024C1304.28 128.207 1300.33 129.426 1297.14 127.745L1270.16 113.544C1266.97 111.863 1265.74 107.92 1267.42 104.737ZM1262.07 128.915C1258.88 127.235 1254.93 128.453 1253.26 131.636C1251.58 134.82 1252.81 138.763 1256 140.444L1302.24 164.788C1305.43 166.469 1309.38 165.251 1311.06 162.067C1312.73 158.884 1311.5 154.941 1308.31 153.26L1262.07 128.915ZM1239.09 158.536C1240.77 155.353 1244.72 154.134 1247.91 155.815L1286.44 176.102C1289.63 177.783 1290.86 181.726 1289.19 184.91C1287.51 188.093 1283.57 189.311 1280.37 187.631L1241.84 167.343C1238.65 165.663 1237.42 161.72 1239.09 158.536ZM687.508 136.421C681.984 145.003 684.464 156.439 693.047 161.962C701.63 167.485 713.065 165.005 718.588 156.422C724.111 147.84 721.631 136.405 713.049 130.881C704.466 125.358 693.031 127.838 687.508 136.421ZM685.017 174.439C669.544 164.481 665.072 143.865 675.03 128.391C684.581 113.55 703.936 108.83 719.155 117.255C723.672 110.252 728.112 103.593 734.308 97.6807C741.18 91.124 749.879 85.7605 762.738 80.9866L762.975 80.8988L763.217 80.8273C782.835 75.0258 805.189 80.1888 822.222 91.0996L831.102 77.3008C833.32 73.8553 837.91 72.8596 841.356 75.077L880.558 100.305C884.003 102.522 884.999 107.113 882.782 110.558L857.554 149.76C855.336 153.206 850.746 154.201 847.3 151.984L808.098 126.756C804.653 124.539 803.657 119.948 805.874 116.503L814.193 103.577C799.985 94.4848 782.187 90.7868 767.66 94.9871C756.385 99.1992 749.614 103.585 744.551 108.415C739.312 113.415 735.561 119.179 730.461 127.105L729.985 126.798C736.43 135.651 738.183 147.295 734.383 157.764L766.858 178.663C777.719 168.018 794.864 165.888 808.193 174.466C823.667 184.424 828.138 205.041 818.18 220.514C808.222 235.988 787.606 240.459 772.132 230.501C758.803 221.923 753.638 205.436 758.828 191.14L726.354 170.242C715.492 180.888 698.347 183.017 685.017 174.439ZM774.622 192.483C769.099 201.066 771.579 212.501 780.162 218.024C788.745 223.547 800.18 221.067 805.703 212.485C811.226 203.902 808.746 192.467 800.163 186.944C791.581 181.42 780.146 183.9 774.622 192.483ZM849.091 135.492L822.366 118.294L839.565 91.5689L866.29 108.767L849.091 135.492ZM137.646 141.5C141.642 141.488 144.946 144.612 145.158 148.603C145.249 150.312 145.25 152.168 145.147 154.147C145.541 164.203 148.572 176.474 156.099 185.575C164.044 195.182 178.108 202.584 203.588 198.065C204.601 197.859 205.628 197.662 206.667 197.474C210.708 196.744 214.585 199.4 215.364 203.432C216.143 207.464 213.535 211.372 209.512 212.201C208.47 212.415 207.44 212.613 206.421 212.796C179.387 218.325 164.567 230.703 156.582 244.685C149.924 256.344 147.624 269.813 147.804 282.804C148.204 286.327 148.441 290.019 148.499 293.886C148.56 297.89 145.464 301.236 141.467 301.485C137.471 301.735 133.983 298.8 133.545 294.82C133.155 291.272 132.897 287.581 132.82 283.796C130.297 262.991 121.222 250.629 111.026 243.302C98.8583 234.558 84.1793 232.346 74.546 233.049C70.7449 233.326 67.3401 230.709 66.631 226.964C65.922 223.219 68.1341 219.538 71.7736 218.407C116.971 204.356 129.008 171.592 130.136 154.01C130.08 152.135 130.097 150.34 130.177 148.649C130.364 144.656 133.649 141.512 137.646 141.5ZM137.211 183.683C130.645 197.18 119.421 211.115 101.335 221.769C107.56 223.844 113.867 226.872 119.78 231.121C126.6 236.022 132.735 242.434 137.568 250.612C139.111 246.062 141.082 241.58 143.556 237.247C149.244 227.286 157.419 218.414 168.642 211.388C158.488 208.118 150.538 202.388 144.539 195.134C141.574 191.549 139.158 187.677 137.211 183.683ZM900.684 185.259C893.87 186.854 889.062 192.87 889.069 199.867C889.103 237.171 888.727 353.34 883.038 418.5C878.856 466.404 870.048 544.661 866.068 579.415C865.011 588.639 872.494 596.566 881.766 596.091L937.806 593.216C945.781 592.807 952.038 586.221 952.038 578.236V398.973C952.038 382.515 974.709 378.068 980.926 393.307L1060.98 589.518C1062.89 594.189 1067.01 597.589 1071.96 598.567L1089.66 602.065C1098.76 603.863 1107.3 597.121 1107.62 587.855C1108.89 551.366 1112.24 466.06 1117.54 406.623C1123.01 345.27 1135.38 257.567 1140.55 221.965C1141.8 213.35 1135.51 205.458 1126.83 204.78L1095.04 202.297C1086.78 201.651 1079.56 207.824 1078.92 216.083L1068.27 352.381C1067.08 367.567 1046.64 371.521 1039.88 357.872L954.043 184.657C950.95 178.414 943.966 175.123 937.183 176.712L900.684 185.259ZM505.749 246.482C508.849 258.8 501.376 271.3 489.058 274.4L377.206 302.551C365.371 305.529 357.923 317.233 360.236 329.216L365.256 355.215C367.741 368.086 380.464 376.28 393.209 373.219L473.661 353.902C486.013 350.936 498.43 358.544 501.396 370.896L505.365 387.426C508.331 399.777 500.722 412.195 488.371 415.16L403.155 435.622C391.194 438.494 383.61 450.269 385.942 462.347L413.707 606.144C416.182 618.966 407.499 631.274 394.59 633.242L365.07 637.742C351.597 639.795 339.271 629.774 338.382 616.174C335.82 576.985 329.851 500.726 319.461 447.191C309.212 394.388 286.658 322.452 274.539 285.462C270.293 272.5 278.014 258.607 291.296 255.504L473.969 212.835C486.189 209.98 498.442 217.448 501.505 229.618L505.749 246.482ZM196.748 469.225C194.839 474.109 198.762 479.296 203.979 478.772L218.889 477.275C222.427 476.92 224.893 473.599 224.21 470.11L215.554 425.881C215.331 424.74 213.748 424.612 213.343 425.702C207.728 440.823 202.068 455.613 196.748 469.225ZM230.658 539.41C234.301 539.044 237.611 541.548 238.25 545.154L256.352 647.334C258.376 658.754 269.274 666.372 280.694 664.349L304.912 660.058C314.852 658.297 322.12 649.724 322.065 639.63C321.885 606.784 320.476 534.615 312.038 486.5C300.914 423.072 270.473 336.524 258.191 303.007C255.069 294.485 246.971 288.926 237.895 288.889L209.211 288.774C198.724 288.732 189.673 296.095 186.925 306.217C179.821 332.379 167.467 368.265 154.283 403.773C138.069 447.44 121.57 487.986 114.639 503.965C112.998 507.749 111.415 511.447 109.865 515.068L109.86 515.079C98.645 541.278 89.1683 563.416 72.0379 584.5L64.4357 596.83C57.5422 608.011 60.9174 622.656 72.0093 629.692L84.9332 637.89C96.1261 644.99 110.955 641.672 118.055 630.479L122.073 624.146C125.487 618.227 128.689 612.732 131.723 607.525C143.947 586.547 153.454 570.231 163.167 549.645C164.225 547.404 166.374 545.865 168.84 545.617L230.658 539.41ZM727.554 324.261C739.126 323.487 747.88 313.479 747.106 301.906L745.975 284.983C745.052 271.192 733.113 260.766 719.323 261.71L538.499 274.086C523.6 275.106 512.857 288.882 514.992 303.663C517.963 324.232 521.299 352.441 521.139 374.535C520.902 407.047 518.275 438.035 515.038 460.5C512.511 478.038 495.34 602.587 487.93 656.369C486.156 669.251 496.398 680.626 509.395 680.217L572.449 678.23C584.03 677.865 593.127 668.19 592.778 656.609L588.326 508.663C587.969 496.823 597.471 487.031 609.316 487.031H690.476C702.074 487.031 711.476 477.629 711.476 466.031V445.031C711.476 433.433 702.074 424.031 690.476 424.031H611.243C598.028 424.031 588.082 411.954 589.492 398.814C590.267 391.602 590.783 383.954 590.538 377.5C590.319 371.744 589.456 365.197 588.384 358.959C586.14 345.895 595.257 333.107 608.483 332.223L727.554 324.261ZM829.314 315.951C841.445 316.647 850.714 327.045 850.017 339.176L848.069 373.124C847.372 385.255 836.974 394.524 824.844 393.827L798.179 392.297C786.049 391.601 776.78 381.203 777.476 369.072L779.425 335.124C780.121 322.993 790.519 313.724 802.649 314.421L829.314 315.951ZM825.491 410C837.038 410 846.186 419.75 845.45 431.274L827.964 705.28C827.261 716.288 817.778 724.649 806.768 723.968L751.503 720.544C736.496 719.615 727.489 702.89 734.152 689.411C746.227 664.985 761.793 628.586 767.45 593.751C774.772 548.67 776.04 467.712 776.218 430.155C776.27 419.047 785.267 410 796.375 410H825.491ZM1150.23 307.037C1150.1 295.55 1158.69 285.797 1170.11 284.582L1378.34 262.444C1390.42 261.16 1401.26 269.913 1402.54 281.995L1404.55 300.889C1405.83 312.971 1397.08 323.807 1385 325.091L1236.37 340.893C1224.77 342.126 1216.15 352.195 1216.72 363.844L1219.19 414.366C1219.81 426.995 1230.91 436.506 1243.49 435.169L1362.67 422.498C1374.75 421.213 1385.59 429.966 1386.87 442.048L1388.88 460.942C1390.17 473.024 1381.41 483.86 1369.33 485.145L1247.22 498.127C1234.64 499.464 1225.78 511.111 1227.84 523.592L1239.57 594.514C1241.5 606.217 1252.37 614.279 1264.13 612.739L1412.49 593.321C1424.43 591.758 1435.41 600.091 1437.12 612.017L1439.85 631.104C1441.57 643.124 1433.23 654.266 1421.21 655.997L1143.56 695.984C1129.27 698.041 1116.93 686.039 1118.64 671.714C1123.31 632.816 1132.19 560.848 1141.04 500.592C1150.48 436.284 1150.69 346.716 1150.23 307.037ZM1007.1 626.764L1007.09 626.766L1007.09 626.775L1007.08 626.777L1007.08 626.778C1006.61 627.213 1006.14 627.65 1005.67 628.089C1005.46 628.287 1005.24 628.485 1005.03 628.684C1004.66 629.027 1004.29 629.371 1003.91 629.716C999.296 633.974 994.675 638.267 990.042 642.571L990.041 642.572L990.04 642.573L990.039 642.575L990.031 642.581C987.187 645.224 984.337 647.872 981.482 650.517C986.451 654.914 991.042 659.709 995.334 664.191L995.336 664.193C997.297 666.242 999.196 668.225 1001.04 670.075C1005.16 674.211 1009.29 678.194 1013.49 682.236L1013.5 682.247C1016.02 684.672 1018.55 687.119 1021.13 689.634C1026.31 694.704 1031.08 700.208 1035.62 705.445L1035.63 705.451L1035.68 705.503L1035.71 705.541C1036.86 706.873 1038 708.188 1039.13 709.474C1038.07 705.993 1037 702.488 1035.91 698.948C1032.85 689.007 1029.75 679.023 1026.65 669.03C1022.93 657.067 1019.22 645.09 1015.56 633.158C1015.34 632.441 1015.11 631.72 1014.89 630.994L1014.89 630.992L1014.89 630.984L1014.88 630.967C1013.99 628.058 1013.07 625.085 1012.19 622.066C1010.51 623.593 1008.82 625.161 1007.1 626.762L1007.1 626.764ZM963.297 646.077C964.304 644.664 965.711 643.705 967.254 643.245C971.383 639.432 975.504 635.604 979.634 631.766L979.653 631.749L979.705 631.701L979.706 631.7L979.707 631.699L979.708 631.698L979.709 631.697C984.367 627.369 989.037 623.03 993.744 618.689C994.713 617.796 995.697 616.881 996.694 615.952L996.696 615.951C1000.42 612.483 1004.35 608.827 1008.48 605.4C1008.48 605.32 1008.48 605.24 1008.49 605.16C1008.58 601.019 1012 597.734 1016.15 597.822C1020.29 597.911 1023.57 601.34 1023.48 605.482C1023.48 605.832 1023.55 606.285 1023.94 607.939C1025.39 614.128 1027.27 620.232 1029.23 626.603L1029.24 626.619L1029.48 627.417L1029.73 628.213L1029.9 628.757C1033.57 640.721 1037.26 652.617 1040.96 664.526C1044.05 674.503 1047.15 684.49 1050.25 694.533C1053.73 705.845 1057.27 717.602 1060.8 729.331L1060.8 729.345L1061.6 731.999L1062.33 734.406C1062.86 735.369 1063.16 736.407 1063.24 737.45C1065.76 745.805 1068.27 754.09 1070.74 762.133C1071.03 763.092 1071.32 764.039 1071.61 764.976L1071.62 765.005L1071.62 765.016C1072.91 769.267 1074.14 773.299 1075.59 777.253C1076.19 778.881 1076.86 780.538 1077.58 782.326L1077.64 782.476L1077.64 782.477C1078.32 784.187 1079.06 786.015 1079.75 787.871C1081.16 791.684 1082.52 795.965 1083.1 800.54C1083.64 804.849 1083.11 809.247 1082.71 812.503L1082.71 812.513C1082.69 812.735 1082.66 812.951 1082.63 813.162C1082.59 813.531 1082.55 813.883 1082.51 814.215C1082.11 817.944 1081.28 821.84 1080.06 825.447C1079.15 828.157 1077.62 829.857 1076.61 830.879C1076.43 831.061 1076.3 831.187 1076.2 831.28L1076.15 831.334L1076.1 831.38L1076.07 831.41L1076.01 831.471C1075.9 831.57 1075.84 831.633 1075.67 831.813C1075.52 831.972 1075.5 832.008 1075.52 831.981C1075.47 832.047 1075.43 832.116 1075.38 832.186L1075.2 832.467C1074.16 834.078 1072.67 836.389 1070.68 838.142C1067.98 840.518 1064.82 841.631 1061.16 841.937C1057.69 842.227 1054.58 840.111 1053.47 836.981L1053.43 836.97L1053.38 836.952C1053.26 836.907 1052.88 836.813 1051.74 836.714C1051.6 836.702 1051.44 836.689 1051.25 836.674L1051.23 836.673C1050.28 836.6 1048.75 836.482 1047.38 836.219C1045.61 835.879 1043.79 835.544 1041.94 835.202L1041.92 835.2L1041.92 835.199L1041.91 835.198C1035.65 834.044 1029.01 832.819 1022.64 831.129C1016.97 829.627 1011.28 827.874 1005.8 826.184C1004.44 825.764 1003.09 825.348 1001.76 824.941C998.675 823.998 995.47 823.057 992.218 822.102L992.21 822.099C986.509 820.425 980.662 818.708 975.041 816.859C971.723 815.767 968.439 814.536 965.321 813.368C964.78 813.166 964.245 812.965 963.715 812.767C960.056 811.402 956.596 810.147 953.125 809.132C950.838 808.463 948.324 807.784 945.721 807.081C941.473 805.934 936.99 804.723 932.878 803.39C927.191 801.548 921.593 799.523 916.122 797.534L915.162 797.185L915.159 797.184L915.138 797.176L915.133 797.174C911.651 795.908 908.221 794.66 904.797 793.464C901.925 793.44 899.067 793.39 896.228 793.324C893.189 793.253 890.615 791.385 889.498 788.76C889.432 788.631 889.369 788.501 889.31 788.368C882.312 786.163 875.302 784.051 868.24 781.924C862.218 780.11 856.158 778.284 850.037 776.38C846.082 775.15 843.873 770.946 845.103 766.991C845.15 766.839 845.202 766.69 845.258 766.544C845.522 765.725 845.933 764.938 846.495 764.221C850.586 759.003 855.544 754.402 859.908 750.352L859.929 750.333C860.193 750.088 860.454 749.846 860.713 749.605C861.048 749.294 861.378 748.986 861.704 748.682L861.715 748.671C866.552 744.15 871.573 739.458 876.925 735.048L877.162 734.853C880.496 732.106 882.649 730.333 884.629 727.747C885.69 726.362 886.752 724.968 887.819 723.57C896.339 712.399 905.118 700.889 915.259 690.355C922.636 682.692 930.894 675.583 938.823 668.757C942.367 665.707 945.846 662.712 949.151 659.75C951.305 657.82 953.45 655.883 955.588 653.94C955.695 653.652 955.8 653.363 955.905 653.075C956.879 650.395 959.221 648.608 961.855 648.216L962.416 647.701C962.637 647.138 962.93 646.592 963.297 646.077ZM948.935 792.408C948.203 792.211 947.478 792.017 946.757 791.822C946.022 791.623 945.291 791.423 944.56 791.221C945.707 791.055 946.854 790.878 947.999 790.688C962.802 788.245 977.196 783.595 990.695 777.606C1000.63 773.197 1010.03 769.396 1020.09 766.636C1022.92 765.862 1025.78 765.089 1028.65 764.312L1028.65 764.312L1028.66 764.311L1028.66 764.31L1028.66 764.31L1028.66 764.309L1028.67 764.308L1028.67 764.307L1028.67 764.307L1028.68 764.306L1028.68 764.305C1034.3 762.786 1039.97 761.252 1045.58 759.657C1045.99 759.539 1046.53 759.451 1047.44 759.374C1047.5 759.369 1047.57 759.364 1047.64 759.358C1047.79 759.347 1047.97 759.334 1048.17 759.32H1048.17C1048.97 759.263 1050.1 759.182 1051.02 759.071C1052.01 758.951 1053 758.755 1053.95 758.526L1054.44 760.146L1054.82 761.372C1055.34 763.086 1055.87 764.807 1056.4 766.538C1056.54 766.998 1056.68 767.463 1056.83 767.931L1057.09 768.807L1057.18 769.098L1057.23 769.239L1057.23 769.241L1057.23 769.243L1057.23 769.251L1057.23 769.253L1057.23 769.255L1057.23 769.256C1058.53 773.519 1059.9 778.039 1061.51 782.426C1062.2 784.3 1062.95 786.163 1063.66 787.921L1063.69 787.994C1064.4 789.76 1065.07 791.425 1065.69 793.091C1066.94 796.478 1067.85 799.515 1068.22 802.419C1068.51 804.729 1068.25 806.937 1067.88 810.128C1067.79 810.893 1067.7 811.716 1067.6 812.609C1067.32 815.19 1066.75 817.88 1065.96 820.307L1065.94 820.33C1065.85 820.422 1065.77 820.505 1065.64 820.63L1065.5 820.767C1065.39 820.876 1065.26 821.006 1065.11 821.152C1065.01 821.253 1064.91 821.361 1064.8 821.475C1064.26 822.046 1063.59 822.807 1062.95 823.786L1062.7 824.169C1062.39 824.651 1062.13 825.044 1061.91 825.385C1061.05 824.248 1059.87 823.341 1058.43 822.827C1056.35 822.084 1054.32 821.881 1053.03 821.77C1052.76 821.746 1052.51 821.726 1052.29 821.708L1051.92 821.678C1051.11 821.613 1050.68 821.578 1050.2 821.488C1048.19 821.1 1046.2 820.734 1044.25 820.374C1038.11 819.24 1032.25 818.158 1026.48 816.63C1021.13 815.212 1015.81 813.573 1010.36 811.892C1009.7 811.688 1009.04 811.484 1008.37 811.279C1007.63 811.052 1006.89 810.824 1006.15 810.596C1002.73 809.552 999.402 808.576 996.119 807.612L996.106 807.609L996.067 807.597L996.053 807.593C990.549 805.979 985.173 804.401 979.729 802.61C976.73 801.623 973.773 800.516 970.651 799.347L970.64 799.343L970.637 799.341C970.219 799.185 969.798 799.027 969.374 798.868L968.96 798.714C965.275 797.338 961.372 795.915 957.334 794.735C954.347 793.861 951.595 793.122 948.935 792.408ZM1048.62 740.914C1048.94 741.984 1049.27 743.055 1049.59 744.127C1049.47 744.147 1049.35 744.164 1049.22 744.179C1049.12 744.192 1049.02 744.203 1048.92 744.214C1048.75 744.232 1048.59 744.247 1048.43 744.26C1048.18 744.28 1047.94 744.297 1047.66 744.316L1047.66 744.317C1047.26 744.343 1046.8 744.375 1046.18 744.427C1044.91 744.535 1043.26 744.721 1041.47 745.229C1035.95 746.8 1030.44 748.289 1024.88 749.792L1024.88 749.793L1024.88 749.793L1024.88 749.794L1024.88 749.794L1024.88 749.794L1024.88 749.795L1024.87 749.795L1024.87 749.795L1024.87 749.796L1024.87 749.796C1021.97 750.579 1019.06 751.366 1016.13 752.17C1006.98 754.677 998.473 757.926 990.087 761.508C990.131 761.235 990.174 760.966 990.217 760.699L990.291 760.237L990.311 760.114L990.311 760.113C991.019 755.691 991.623 751.926 992.962 748.081C994.664 743.197 996.385 738.716 998.151 734.12L998.152 734.115C999.563 730.44 1001 726.692 1002.48 722.605C1004.5 717.045 1006.14 711.45 1007.68 706.051L1007.9 705.277L1008.26 704.016L1008.3 703.898L1008.33 703.78L1008.33 703.777C1008.76 702.283 1009.18 700.807 1009.6 699.344C1009.95 699.683 1010.29 700.022 1010.64 700.36C1015.34 704.955 1019.58 709.848 1024.07 715.018C1025.32 716.464 1026.6 717.933 1027.91 719.422C1031.61 723.644 1035.63 727.885 1039.9 731.787C1043.21 734.811 1046.37 737.897 1048.62 740.914ZM975.995 754.681C975.505 754.103 975.017 753.524 974.528 752.946C973.806 752.091 973.085 751.236 972.362 750.38L972.129 750.104L972.062 750.024L972.054 750.015C969.9 747.463 967.738 744.901 965.535 742.308C966.501 741.876 967.436 741.486 968.375 741.142C971.115 740.137 974.14 739.499 977.703 738.747L977.706 738.746L978.446 738.59C979.01 738.47 979.635 738.393 980.535 738.305C979.933 739.941 979.35 741.56 978.798 743.146C977.501 746.868 976.658 750.894 975.995 754.681ZM948.171 747.798C949.152 748.171 950.085 748.299 950.919 748.288C954.033 751.925 957.21 755.687 960.406 759.472L960.407 759.473L960.408 759.474L960.41 759.477C963.35 762.958 966.306 766.458 969.246 769.901C961.478 772.524 953.549 774.57 945.557 775.889C933.099 777.945 920.321 778.514 907.359 778.478C907.179 778.416 907 778.355 906.82 778.294C910.09 770.033 913.731 761.951 917.82 754.127C922.476 745.22 927.488 736.632 932.662 728.041C933.372 729.035 934.176 730.134 935.02 731.162C937.314 733.957 939.82 736.49 942.089 738.763L942.544 739.219L942.545 739.22L942.947 739.622L943.373 740.048C943.351 740.268 943.336 740.523 943.336 740.798L943.336 740.821C943.334 741.068 943.323 742.632 944.215 744.309C944.782 745.375 945.98 746.964 948.171 747.798ZM946.615 721.646C947.312 722.496 948.048 723.329 948.823 724.168C949.948 720.836 951.022 717.453 952.113 713.999L952.347 713.258L952.349 713.254C953.334 710.135 954.338 706.957 955.397 703.766C952.481 704.619 949.547 705.507 946.591 706.401L946.166 706.529C946.057 706.562 945.947 706.593 945.838 706.621C945.773 706.637 945.709 706.653 945.645 706.667C944.114 709.209 942.583 711.728 941.057 714.232C942.108 715.472 943.013 716.716 943.776 717.785L943.898 717.956L944.095 718.233L944.377 718.63L944.397 718.659L944.399 718.662L944.403 718.667C945.231 719.834 945.889 720.762 946.615 721.646ZM968.09 713.24C967.609 714.744 967.13 716.26 966.647 717.789L966.625 717.859L966.624 717.861L966.416 718.519C965.547 721.269 964.662 724.062 963.734 726.87C967.39 725.584 971.237 724.777 974.422 724.108L974.725 724.045C974.934 724.001 975.14 723.957 975.342 723.914C976.826 723.601 978.279 723.45 979.391 723.346C977.676 721.563 975.897 719.858 974.051 718.24C973.311 717.592 972.651 717.06 971.882 716.441C971.648 716.253 971.404 716.056 971.145 715.846C970.854 715.61 970.544 715.357 970.208 715.078C969.54 714.526 968.822 713.915 968.09 713.24ZM990.008 712.747C991.154 709.224 992.203 705.628 993.26 701.929C993.47 701.195 993.68 700.455 993.892 699.711L993.893 699.71C994.188 698.671 994.486 697.624 994.788 696.571C993.561 696.704 992.289 696.807 990.985 696.856C985.667 697.054 980.358 697.762 975.026 698.802C975.688 699.475 976.325 700.161 976.919 700.849C977.631 701.674 978.54 702.504 979.771 703.522C980.098 703.793 980.497 704.115 980.932 704.466L980.938 704.471C981.882 705.234 982.997 706.136 983.936 706.958C986.048 708.809 988.07 710.743 990.008 712.747ZM991.557 681.804C991.176 681.424 990.795 681.044 990.416 680.664C988.108 678.348 985.92 676.066 983.789 673.843L983.785 673.839L983.765 673.818L983.762 673.816L983.756 673.809C979.246 669.104 974.99 664.666 970.396 660.735L969.753 661.324L969.356 661.687L968.784 662.21L968.328 662.626C964.897 671.353 960.851 679.73 956.476 687.853C967.315 684.846 978.766 682.301 990.426 681.866C990.695 681.856 990.965 681.842 991.237 681.826C991.305 681.821 991.373 681.817 991.441 681.812L991.557 681.804ZM938.925 688.545C934.496 692.473 930.197 696.466 926.065 700.758C916.562 710.629 908.326 721.424 899.74 732.675L899.69 732.741C898.646 734.109 897.596 735.485 896.539 736.866C893.484 740.855 890.107 743.63 887.068 746.127L887.031 746.158L886.651 746.47L886.463 746.625C881.528 750.691 876.841 755.066 871.947 759.64C871.315 760.231 870.69 760.812 870.074 761.385L870.07 761.389C868.562 762.79 867.104 764.146 865.706 765.49C867.876 766.147 870.054 766.803 872.236 767.461L872.245 767.464L872.248 767.465L872.25 767.465L872.253 767.466L872.266 767.47L872.325 767.488L872.347 767.494C879.053 769.516 885.806 771.551 892.525 773.657C896.053 764.661 900.021 755.8 904.527 747.179C911.338 734.147 918.999 721.587 926.526 709.248L926.528 709.244L926.529 709.242L926.53 709.241L926.532 709.237C929.315 704.674 932.08 700.141 934.777 695.625C936.186 693.267 937.57 690.908 938.925 688.545ZM233.899 210.732C233.756 208.072 231.554 205.992 228.891 206C226.228 206.008 224.038 208.102 223.912 210.763C223.885 211.335 223.877 211.942 223.894 212.577C223.542 217.345 220.147 226.861 206.533 231.039C204.102 231.785 202.618 234.238 203.085 236.738C203.553 239.238 205.823 240.989 208.359 240.806C211.081 240.61 215.287 241.248 218.702 243.671C221.404 245.588 224.015 248.897 224.781 254.881C224.811 256.149 224.9 257.379 225.031 258.554C225.326 261.206 227.652 263.158 230.316 262.99C232.979 262.822 235.04 260.591 235 257.923C234.98 256.634 234.902 255.397 234.77 254.21C234.732 250.374 235.435 246.547 237.306 243.313C239.5 239.521 243.681 235.878 251.95 234.203C252.296 234.142 252.644 234.076 252.996 234.004C255.679 233.459 257.425 230.857 256.912 228.168C256.399 225.478 253.818 223.702 251.123 224.182C250.773 224.245 250.427 224.31 250.085 224.378C242.442 225.71 238.802 223.472 236.893 221.194C234.911 218.828 234.031 215.501 233.901 212.676C233.934 211.989 233.932 211.338 233.899 210.732ZM222.252 234.106C224.995 231.957 227.156 229.575 228.834 227.131C228.962 227.294 229.093 227.455 229.227 227.616C230.589 229.241 232.195 230.638 234.049 231.755C231.831 233.69 230.044 235.896 228.65 238.306C228.534 238.506 228.422 238.707 228.312 238.908C227.143 237.614 225.857 236.486 224.488 235.515C223.756 234.995 223.009 234.527 222.252 234.106Z" stroke="white" stroke-width="120" stroke-linecap="round" stroke-linejoin="round" mask="url(#path-2-outside-1_237_567)"/>
</g>
<defs>
<filter id="filter0_d_237_567" x="0.854004" y="0.38208" width="1547.23" height="954.585" filterUnits="userSpaceOnUse" color-interpolation-filters="sRGB">
<feFlood flood-opacity="0" result="BackgroundImageFix"/>
<feColorMatrix in="SourceAlpha" type="matrix" values="0 0 0 0 0 0 0 0 0 0 0 0 0 0 0 0 0 0 127 0" result="hardAlpha"/>
<feOffset dx="48" dy="53"/>
<feComposite in2="hardAlpha" operator="out"/>
<feColorMatrix type="matrix" values="0 0 0 0 0 0 0 0 0 0 0 0 0 0 0 0 0 0 1 0"/>
<feBlend mode="normal" in2="BackgroundImageFix" result="effect1_dropShadow_237_567"/>
<feBlend mode="normal" in="SourceGraphic" in2="effect1_dropShadow_237_567" result="shape"/>
</filter>
</defs>
</svg>
