<svg width="347" height="545" viewBox="0 0 347 545" fill="none" xmlns="http://www.w3.org/2000/svg">
<path fill-rule="evenodd" clip-rule="evenodd" d="M-60 0.5C-60 0.223858 -60.2239 0 -60.5 0C-60.7761 0 -61 0.223858 -61 0.5V31L-92.5 31C-92.7761 31 -93 31.2239 -93 31.5C-93 31.7761 -92.7761 32 -92.5 32L-61 32V68H-92.5C-92.7761 68 -93 68.2239 -93 68.5C-93 68.7761 -92.7761 69 -92.5 69H-61V105H-92.5C-92.7761 105 -93 105.224 -93 105.5C-93 105.776 -92.7761 106 -92.5 106H-61V142H-92.5C-92.7761 142 -93 142.224 -93 142.5C-93 142.776 -92.7761 143 -92.5 143H-61V179H-92.5C-92.7761 179 -93 179.224 -93 179.5C-93 179.776 -92.7761 180 -92.5 180H-61V216H-92.5C-92.7761 216 -93 216.224 -93 216.5C-93 216.776 -92.7761 217 -92.5 217H-61V253H-92.5C-92.7761 253 -93 253.224 -93 253.5C-93 253.776 -92.7761 254 -92.5 254H-61V290H-92.5C-92.7761 290 -93 290.224 -93 290.5C-93 290.776 -92.7761 291 -92.5 291H-61V327H-92.5C-92.7761 327 -93 327.224 -93 327.5C-93 327.776 -92.7761 328 -92.5 328H-61V364H-92.5C-92.7761 364 -93 364.224 -93 364.5C-93 364.776 -92.7761 365 -92.5 365H-61V401H-92.5C-92.7761 401 -93 401.224 -93 401.5C-93 401.776 -92.7761 402 -92.5 402H-61L-61 438H-92.5C-92.7761 438 -93 438.224 -93 438.5C-93 438.776 -92.7761 439 -92.5 439H-61V475H-92.5C-92.7761 475 -93 475.224 -93 475.5C-93 475.776 -92.7761 476 -92.5 476H-61L-61 512H-92.5C-92.7761 512 -93 512.224 -93 512.5C-93 512.776 -92.7761 513 -92.5 513H-61V549H-92.5C-92.7761 549 -93 549.224 -93 549.5C-93 549.776 -92.7761 550 -92.5 550H-61L-61 586H-92.5C-92.7761 586 -93 586.224 -93 586.5C-93 586.776 -92.7761 587 -92.5 587H-61V616.5C-61 616.776 -60.7761 617 -60.5 617C-60.2238 617 -60 616.776 -60 616.5V587H-25V616.5C-25 616.776 -24.7761 617 -24.5 617C-24.2238 617 -24 616.776 -24 616.5V587H11V616.5C11 616.776 11.2239 617 11.5 617C11.7762 617 12 616.776 12 616.5V587H47V616.5C47 616.776 47.2239 617 47.5 617C47.7762 617 48 616.776 48 616.5V587H83V616.5C83 616.776 83.2239 617 83.5 617C83.7762 617 84 616.776 84 616.5V587H119V616.5C119 616.776 119.224 617 119.5 617C119.776 617 120 616.776 120 616.5V587H155V616.5C155 616.776 155.224 617 155.5 617C155.776 617 156 616.776 156 616.5V587H191V616.5C191 616.776 191.224 617 191.5 617C191.776 617 192 616.776 192 616.5V587H227V616.5C227 616.776 227.224 617 227.5 617C227.776 617 228 616.776 228 616.5V587H263V616.5C263 616.776 263.224 617 263.5 617C263.776 617 264 616.776 264 616.5V587H299V616.5C299 616.776 299.224 617 299.5 617C299.776 617 300 616.776 300 616.5V587H335V616.5C335 616.776 335.224 617 335.5 617C335.776 617 336 616.776 336 616.5V587H371V616.5C371 616.776 371.224 617 371.5 617C371.776 617 372 616.776 372 616.5V587H407V616.5C407 616.776 407.224 617 407.5 617C407.776 617 408 616.776 408 616.5V587H439.5C439.776 587 440 586.776 440 586.5C440 586.224 439.776 586 439.5 586H408L408 550H439.5C439.776 550 440 549.776 440 549.5C440 549.224 439.776 549 439.5 549H408V513H439.5C439.776 513 440 512.776 440 512.5C440 512.224 439.776 512 439.5 512H408V476H439.5C439.776 476 440 475.776 440 475.5C440 475.224 439.776 475 439.5 475H408V439H439.5C439.776 439 440 438.776 440 438.5C440 438.224 439.776 438 439.5 438H408V402H439.5C439.776 402 440 401.776 440 401.5C440 401.224 439.776 401 439.5 401H408V365H439.5C439.776 365 440 364.776 440 364.5C440 364.224 439.776 364 439.5 364H408V328H439.5C439.776 328 440 327.776 440 327.5C440 327.224 439.776 327 439.5 327H408V291H439.5C439.776 291 440 290.776 440 290.5C440 290.224 439.776 290 439.5 290H408V254H439.5C439.776 254 440 253.776 440 253.5C440 253.224 439.776 253 439.5 253H408V217H439.5C439.776 217 440 216.776 440 216.5C440 216.224 439.776 216 439.5 216H408V180H439.5C439.776 180 440 179.776 440 179.5C440 179.224 439.776 179 439.5 179H408V143H439.5C439.776 143 440 142.776 440 142.5C440 142.224 439.776 142 439.5 142H408V106H439.5C439.776 106 440 105.776 440 105.5C440 105.224 439.776 105 439.5 105H408V69H439.5C439.776 69 440 68.7761 440 68.5C440 68.2238 439.776 68 439.5 68H408V32L439.5 32C439.776 32 440 31.7761 440 31.5C440 31.2238 439.776 31 439.5 31L408 31V0.5C408 0.223858 407.776 0 407.5 0C407.224 0 407 0.223858 407 0.5V31L372 31V0.5C372 0.223858 371.776 0 371.5 0C371.224 0 371 0.223858 371 0.5V31L336 31V0.5C336 0.223858 335.776 0 335.5 0C335.224 0 335 0.223858 335 0.5V31L300 31V0.5C300 0.223858 299.776 0 299.5 0C299.224 0 299 0.223858 299 0.5V31L264 31V0.5C264 0.223858 263.776 0 263.5 0C263.224 0 263 0.223858 263 0.5V31L228 31V0.5C228 0.223858 227.776 0 227.5 0C227.224 0 227 0.223858 227 0.5V31L192 31V0.5C192 0.223858 191.776 0 191.5 0C191.224 0 191 0.223858 191 0.5V31L156 31V0.5C156 0.223858 155.776 0 155.5 0C155.224 0 155 0.223858 155 0.5V31L120 31V0.5C120 0.223858 119.776 0 119.5 0C119.224 0 119 0.223858 119 0.5V31L84 31V0.5C84 0.223858 83.7761 0 83.5 0C83.2239 0 83 0.223858 83 0.5V31L48 31V0.5C48 0.223858 47.7761 0 47.5 0C47.2239 0 47 0.223858 47 0.5V31L12 31V0.5C12 0.223858 11.7761 0 11.5 0C11.2239 0 11 0.223858 11 0.5V31L-24 31V0.5C-24 0.223858 -24.2239 0 -24.5 0C-24.7761 0 -25 0.223858 -25 0.5V31L-60 31V0.5ZM407 586L407 550H372L372 586H407ZM371 586L371 550H336L336 586H371ZM335 586L335 550H300L300 586H335ZM299 586L299 550H264L264 586H299ZM263 586L263 550H228L228 586H263ZM227 586L227 550H192L192 586H227ZM191 586L191 550H156L156 586H191ZM155 586L155 550H120L120 586H155ZM119 586L119 550H84L84 586H119ZM83 586L83 550H48L48 586H83ZM47 586L47 550H12L12 586H47ZM11 586L11 550H-24L-24 586H11ZM-25 586L-25 550H-60L-60 586H-25ZM-25 549H-60V513H-25V549ZM11 549H-24V513H11V549ZM47 549H12V513H47V549ZM83 549H48V513H83V549ZM119 549H84V513H119V549ZM155 549H120V513H155V549ZM191 549H156V513H191V549ZM227 549H192V513H227V549ZM263 549H228V513H263V549ZM299 549H264V513H299V549ZM335 549H300V513H335V549ZM371 549H336V513H371V549ZM407 549H372V513H407V549ZM407 512V476H372V512H407ZM371 512V476H336V512H371ZM335 512V476H300V512H335ZM299 512V476H264V512H299ZM263 512V476H228V512H263ZM227 512V476H192V512H227ZM191 512V476L156 476L156 512L191 512ZM155 512L155 476H120L120 512H155ZM119 512L119 476H84L84 512H119ZM83 512L83 476H48L48 512H83ZM47 512L47 476H12L12 512H47ZM11 512L11 476H-24L-24 512H11ZM-25 512L-25 476H-60L-60 512H-25ZM-25 475H-60V439H-25V475ZM11 475H-24V439H11V475ZM47 475H12V439H47V475ZM83 475H48V439H83V475ZM119 475H84V439H119V475ZM155 475H120V439H155V475ZM191 475L156 475V439L191 439V475ZM227 475H192V439H227V475ZM263 475H228V439H263V475ZM299 475H264V439H299V475ZM335 475H300V439H335V475ZM371 475H336V439H371V475ZM407 475H372V439H407V475ZM407 438V402H372V438H407ZM371 438V402H336V438H371ZM335 438V402H300V438H335ZM299 438V402H264V438H299ZM263 438V402H228V438H263ZM227 438V402H192V438H227ZM191 438V402L156 402V438L191 438ZM155 438V402H120V438H155ZM119 438V402H84V438H119ZM83 438V402H48V438H83ZM47 438V402H12L12 438H47ZM11 438L11 402H-24L-24 438H11ZM-25 438L-25 402H-60L-60 438H-25ZM-25 401H-60V365H-25V401ZM11 401H-24V365H11V401ZM47 401H12V365H47V401ZM83 401H48V365H83V401ZM119 401H84V365H119V401ZM155 401H120V365H155V401ZM191 401L156 401V365L191 365V401ZM227 401H192V365H227V401ZM263 401H228V365H263V401ZM299 401H264V365H299V401ZM335 401H300V365H335V401ZM371 401H336V365H371V401ZM407 401H372V365H407V401ZM407 364V328H372V364H407ZM371 364V328H336V364H371ZM335 364V328H300V364H335ZM299 364V328H264V364H299ZM263 364V328H228V364H263ZM227 364V328H192V364H227ZM191 364V328L156 328V364L191 364ZM155 364V328H120V364H155ZM119 364V328H84V364H119ZM83 364V328H48V364H83ZM47 364V328H12V364H47ZM11 364V328H-24V364H11ZM-25 364V328H-60V364H-25ZM-25 327H-60V291H-25V327ZM11 327H-24V291H11V327ZM47 327H12V291H47V327ZM83 327H48V291H83V327ZM119 327H84V291H119V327ZM155 327H120V291H155V327ZM191 327L156 327V291L191 291V327ZM227 327H192V291H227V327ZM263 327H228V291H263V327ZM299 327H264V291H299V327ZM335 327H300V291H335V327ZM371 327H336V291H371V327ZM407 327H372V291H407V327ZM407 290V254H372V290H407ZM371 290V254H336V290H371ZM335 290V254L300 254V290H335ZM299 290V254H264V290H299ZM263 290V254H228V290H263ZM227 290V254H192V290H227ZM191 290V254H156V290L191 290ZM155 290V254H120V290H155ZM119 290V254H84V290H119ZM83 290V254H48V290H83ZM47 290V254L12 254V290H47ZM11 290V254H-24V290H11ZM-25 290V254H-60V290H-25ZM-25 253H-60V217H-25V253ZM11 253H-24V217H11V253ZM47 253L12 253V217L47 217V253ZM83 253H48V217H83V253ZM119 253H84V217H119V253ZM155 253H120V217H155V253ZM191 253H156V217H191V253ZM227 253H192V217H227V253ZM263 253H228V217H263V253ZM299 253H264V217H299V253ZM335 253L300 253V217L335 217V253ZM371 253H336V217H371V253ZM407 253H372V217H407V253ZM407 216V180H372V216H407ZM371 216V180H336V216H371ZM335 216V180L300 180V216L335 216ZM299 216V180H264V216H299ZM263 216V180H228V216H263ZM227 216V180H192V216H227ZM191 216V180H156V216H191ZM155 216V180H120V216H155ZM119 216V180H84V216H119ZM83 216V180H48V216H83ZM47 216V180L12 180V216L47 216ZM11 216V180H-24V216H11ZM-25 216V180H-60V216H-25ZM-25 179H-60V143H-25V179ZM11 179H-24V143H11V179ZM47 179L12 179V143L47 143V179ZM83 179H48V143H83V179ZM119 179H84V143H119V179ZM155 179H120V143H155V179ZM191 179H156V143H191V179ZM227 179H192V143H227V179ZM263 179H228V143H263V179ZM299 179H264V143H299V179ZM335 179L300 179V143L335 143V179ZM371 179H336V143H371V179ZM407 179H372V143H407V179ZM407 142V106L372 106V142H407ZM371 142V106H336V142H371ZM335 142V106H300V142L335 142ZM299 142V106H264V142H299ZM263 142V106L228 106V142H263ZM227 142V106H192V142H227ZM191 142V106H156V142H191ZM155 142V106H120V142H155ZM119 142V106L84 106V142H119ZM83 142V106H48V142H83ZM47 142V106H12V142L47 142ZM11 142V106H-24V142H11ZM-25 142V106L-60 106V142H-25ZM-25 105L-60 105V69L-25 69V105ZM11 105H-24V69H11V105ZM47 105H12V69H47V105ZM83 105H48V69H83V105ZM119 105L84 105V69L119 69V105ZM155 105H120V69H155V105ZM191 105H156V69H191V105ZM227 105H192V69H227V105ZM263 105L228 105V69L263 69V105ZM299 105H264V69H299V105ZM335 105H300V69H335V105ZM371 105H336V69H371V105ZM407 105L372 105V69L407 69V105ZM407 68V32L372 32V68L407 68ZM371 68V32L336 32V68H371ZM335 68V32L300 32V68H335ZM299 68V32L264 32V68H299ZM263 68V32L228 32V68L263 68ZM227 68V32L192 32V68H227ZM191 68V32L156 32V68H191ZM155 68V32L120 32V68H155ZM119 68V32L84 32V68L119 68ZM83 68V32L48 32V68H83ZM47 68V32L12 32V68H47ZM11 68V32L-24 32V68H11ZM-25 68V32L-60 32V68L-25 68Z" fill="url(#paint0_radial_12616_4900)"/>
<defs>
<radialGradient id="paint0_radial_12616_4900" cx="0" cy="0" r="1" gradientUnits="userSpaceOnUse" gradientTransform="translate(180.5 184.5) rotate(72.5922) scale(158.772 137.156)">
<stop stop-color="#EBEBEB"/>
<stop offset="1" stop-color="#EBEBEB" stop-opacity="0"/>
</radialGradient>
</defs>
</svg>
