<svg width="174" height="161" viewBox="0 0 174 161" fill="none" xmlns="http://www.w3.org/2000/svg">
<path d="M20 40C20 28.9543 28.9543 20 40 20H133.338C144.384 20 153.338 28.9543 153.338 40V141C153.338 152.046 144.384 161 133.338 161H40C28.9543 161 20 152.046 20 141V40Z" fill="white" fill-opacity="0.04"/>
<path d="M70.4376 72.3865L112.851 89.9452L111.847 92.5906L68.4458 77.6412L70.4376 72.3865Z" fill="white" fill-opacity="0.4"/>
<path d="M71.6096 75.0764L80.3839 120.286L74.8342 121.189L68.8147 75.53L71.6096 75.0764Z" fill="white" fill-opacity="0.4"/>
<path d="M115.184 92.5788L78.3485 120.86L76.5535 118.668L111.626 88.2273L115.184 92.5788Z" fill="white" fill-opacity="0.4"/>
<path d="M123.586 98.7129L67.2218 64.013L70.4986 58.959L125.232 96.1678L123.586 98.7129Z" fill="white" fill-opacity="0.5"/>
<path d="M70.3742 61.5645L68.4949 127.705L62.4794 127.4L67.3464 61.408L70.3742 61.5645Z" fill="white" fill-opacity="0.5"/>
<path d="M64.7962 126.203L123.04 94.7585L125.778 100.118L66.1775 128.9L64.7962 126.203Z" fill="white" fill-opacity="0.5"/>
<path d="M138.399 112.944L71.273 43.2548L75.9753 38.8792L140.764 110.736L138.399 112.944Z" fill="white" fill-opacity="0.2"/>
<path d="M75.6418 42.0463L49.0379 134.34L42.894 132.457L72.5497 41.0989L75.6418 42.0463Z" fill="white" fill-opacity="0.2"/>
<path d="M45.6049 131.823L139.624 108.536L141.07 114.794L46.3318 134.974L45.6049 131.823Z" fill="white" fill-opacity="0.2"/>
<g filter="url(#filter0_d_1873_262830)">
<path d="M72.0606 89.1422L84.8265 111.249C85.6457 112.67 87.6977 112.67 88.5169 111.249L101.283 89.1422C102.102 87.7211 101.078 85.9468 99.4395 85.9468H73.9078C72.2694 85.9468 71.2414 87.7211 72.0646 89.1422H72.0606ZM85.5453 103.678L78.9756 92.3055C78.4737 91.4384 79.1001 90.3545 80.104 90.3545H93.2433C94.2432 90.3545 94.8697 91.4384 94.3717 92.3055L87.8021 103.678C87.3001 104.545 86.0513 104.545 85.5493 103.678H85.5453Z" fill="white"/>
</g>
<g filter="url(#filter1_d_1873_262830)">
<path d="M84.5889 28.4096C78.204 39.4571 32.5979 118.379 27.3976 127.483C26.8033 128.912 27.8996 130.715 29.4577 130.743C29.8753 130.783 33.0638 130.763 33.6741 130.767C63.4785 130.779 112.807 130.759 142.692 130.767C143.158 130.767 143.848 130.771 143.88 130.743C144.069 130.759 144.218 130.683 144.386 130.675C145.684 130.285 146.467 128.76 145.94 127.487C145.816 127.307 145.868 127.283 145.531 126.729C130.396 100.499 108.462 62.5595 93.2909 36.2777C92.3593 34.7362 89.6688 29.9511 88.7492 28.4136C87.8457 26.844 85.4885 26.824 84.5849 28.4136L84.5889 28.4096ZM78.3285 24.7967C81.1073 19.8952 87.7894 18.4782 92.3392 21.8181C93.4275 22.625 94.327 23.6607 95.0136 24.7967L96.5276 27.4181L99.5554 32.6608C113.076 56.0724 134.488 93.1447 148.009 116.556L151.036 121.799C151.546 122.71 152.016 123.401 152.635 124.742C153.125 125.994 153.378 127.347 153.333 128.7C153.217 132.782 150.289 136.528 146.35 137.623C145.073 137.985 143.559 138.001 142.692 137.985C112.747 137.949 63.5267 138.013 33.6741 137.985C31.6221 137.913 29.2448 138.218 26.988 137.619C21.5588 136.106 18.539 129.936 20.7075 124.733C26.0443 115.115 71.791 36.2054 78.3285 24.7967Z" fill="white"/>
</g>
<path d="M80.6777 29.132C73.6864 45.37 67.6789 64.2253 73.5739 81.6555C74.4293 84.0561 75.4934 86.3603 76.8106 88.5481L72.9997 90.7761C71.5701 88.3715 70.3694 85.7461 69.4418 83.0806C64.0246 67.1758 68.0604 49.9985 73.8631 34.8645C74.8389 32.3676 75.8789 29.9028 76.9632 27.4661L80.6736 29.128L80.6777 29.132Z" fill="white"/>
<path d="M32.2164 133.786C49.781 131.719 69.1205 127.496 81.2719 113.67C82.9224 111.731 84.3881 109.656 85.6249 107.42L89.4599 109.604C88.0906 112.044 86.416 114.397 84.5728 116.532C73.5016 129.174 56.6076 134.272 40.5931 136.813C37.9428 137.214 35.2884 137.547 32.634 137.828L32.2204 133.786H32.2164Z" fill="white"/>
<path d="M147.113 123.413C136.54 109.238 123.212 94.6099 105.162 91.0011C102.656 90.5434 100.126 90.3106 97.5719 90.3588L97.5478 85.947C100.347 85.9109 103.218 86.1839 105.993 86.7138C122.477 89.9774 135.343 102.057 145.551 114.649C147.226 116.741 148.84 118.877 150.41 121.032L147.113 123.413Z" fill="white"/>
<defs>
<filter id="filter0_d_1873_262830" x="53.8635" y="68.0357" width="65.6186" height="62.1904" filterUnits="userSpaceOnUse" color-interpolation-filters="sRGB">
<feFlood flood-opacity="0" result="BackgroundImageFix"/>
<feColorMatrix in="SourceAlpha" type="matrix" values="0 0 0 0 0 0 0 0 0 0 0 0 0 0 0 0 0 0 127 0" result="hardAlpha"/>
<feOffset/>
<feGaussianBlur stdDeviation="8.95556"/>
<feComposite in2="hardAlpha" operator="out"/>
<feColorMatrix type="matrix" values="0 0 0 0 0 0 0 0 0 0 0 0 0 0 0 0 0 0 1 0"/>
<feBlend mode="normal" in2="BackgroundImageFix" result="effect1_dropShadow_1873_262830"/>
<feBlend mode="normal" in="SourceGraphic" in2="effect1_dropShadow_1873_262830" result="shape"/>
</filter>
<filter id="filter1_d_1873_262830" x="0.0987606" y="0.0987606" width="173.141" height="157.802" filterUnits="userSpaceOnUse" color-interpolation-filters="sRGB">
<feFlood flood-opacity="0" result="BackgroundImageFix"/>
<feColorMatrix in="SourceAlpha" type="matrix" values="0 0 0 0 0 0 0 0 0 0 0 0 0 0 0 0 0 0 127 0" result="hardAlpha"/>
<feOffset/>
<feGaussianBlur stdDeviation="9.95062"/>
<feComposite in2="hardAlpha" operator="out"/>
<feColorMatrix type="matrix" values="0 0 0 0 1 0 0 0 0 1 0 0 0 0 1 0 0 0 0.6 0"/>
<feBlend mode="normal" in2="BackgroundImageFix" result="effect1_dropShadow_1873_262830"/>
<feBlend mode="normal" in="SourceGraphic" in2="effect1_dropShadow_1873_262830" result="shape"/>
</filter>
</defs>
</svg>
