<svg width="20" height="20" viewBox="0 0 20 20" fill="none" xmlns="http://www.w3.org/2000/svg">
<path fill-rule="evenodd" clip-rule="evenodd" d="M10.7442 1.91046C10.147 1.4623 9.27004 1.65244 8.90533 2.31013C8.61369 2.83046 7.72754 4.39717 6.6572 6.28952L6.65652 6.29072L6.65627 6.29117C4.57771 9.96604 1.80514 14.8679 1.34286 15.7197C1.05826 16.4178 1.45459 17.2457 2.16714 17.4488C2.37686 17.5056 2.5945 17.5017 2.7993 17.498C2.88374 17.4964 2.96604 17.495 3.04466 17.4978C4.91437 17.4996 7.36295 17.4986 9.83923 17.4975C12.552 17.4964 15.2981 17.4953 17.3527 17.4978C17.4665 17.4999 17.6652 17.4978 17.8328 17.4493C18.3499 17.3023 18.7341 16.7997 18.7493 16.2519C18.7551 16.0704 18.7219 15.8889 18.6576 15.7208C18.599 15.5908 18.5505 15.5063 18.5029 15.4233C18.4846 15.3915 18.4664 15.3599 18.4479 15.326L18.0505 14.6225C17.16 13.0461 16.0087 11.008 14.8583 8.97164L14.6649 8.62934C13.5883 6.7235 12.5254 4.84193 11.6913 3.36534L11.0952 2.31013C11.005 2.15769 10.887 2.01872 10.7442 1.91046ZM8.80159 4.4321C9.24178 3.65326 9.57219 3.06872 9.72698 2.79491L9.72645 2.79545C9.84504 2.58215 10.1544 2.58484 10.273 2.79545C10.33 2.89296 10.439 3.08781 10.551 3.28805L10.5511 3.28821L10.5513 3.28864C10.6761 3.51187 10.8046 3.74168 10.8691 3.85066C11.7669 5.44085 12.8452 7.34909 13.9408 9.28791C14.4519 10.1924 14.9668 11.1035 15.4688 11.992L8.80159 4.4321ZM7.35509 6.99176C5.30686 10.6166 2.66107 15.3008 2.2209 16.0887C2.1429 16.2805 2.28678 16.5223 2.49127 16.5261C2.53178 16.5301 2.77085 16.5296 2.92523 16.5293C2.97975 16.5292 3.02376 16.5292 3.04466 16.5293C3.44679 16.5295 3.87599 16.5296 4.32673 16.5297L7.35509 6.99176ZM10.6944 16.5294L10.7691 16.5294C13.1723 16.5291 15.5362 16.5288 17.3527 16.5293L17.3734 16.5293C17.4324 16.5294 17.5049 16.5294 17.5087 16.5261C17.5231 16.5273 17.5358 16.5244 17.5482 16.5215C17.5571 16.5194 17.5659 16.5174 17.5751 16.5169C17.7453 16.4647 17.8481 16.26 17.7791 16.0892C17.7724 16.0793 17.7696 16.0729 17.7655 16.0636C17.7597 16.0503 17.7514 16.0312 17.7253 15.9874C17.451 15.5014 17.1597 14.9855 16.8561 14.4478L7.29577 16.5298C8.39989 16.5297 9.55097 16.5296 10.6944 16.5294ZM15.6375 12.915C15.4538 12.7515 15.2651 12.595 15.071 12.4474L8.61442 15.6352C8.59862 15.6465 8.58277 15.6579 8.56688 15.6691L16.3705 13.6931L15.6375 12.915ZM10.0449 14.3077L14.3274 11.9439C14.0792 11.7963 13.8228 11.6642 13.5578 11.5503L10.0449 14.3077ZM10.693 13.113L12.7658 11.2738C12.6543 11.2437 12.5414 11.2169 12.4271 11.1935C12.2262 11.156 12.024 11.1297 11.8207 11.1164L10.693 13.113ZM9.66025 13.737L8.53349 11.7421L9.05577 14.4933C9.13646 14.4102 9.21512 14.3242 9.2916 14.2352C9.42398 14.0762 9.5473 13.9104 9.66025 13.737ZM8.51943 10.5154C8.42894 10.3286 8.35003 10.1365 8.28137 9.93947C8.24435 9.82756 8.2109 9.7152 8.18087 9.60246L10.7733 10.5154H8.51943ZM8.01996 6.99283L13.8544 11.0479C13.8684 11.0542 13.8825 11.0607 13.8965 11.0671L8.38559 5.21788L8.26498 5.64566C8.15536 6.09119 8.07052 6.54145 8.01996 6.99283ZM8.42298 15.0585L7.81447 10.3395C7.80205 10.307 7.78992 10.2744 7.77809 10.2418L7.62955 15.586C7.90562 15.4288 8.17104 15.2538 8.42298 15.0585ZM6.8322 15.9812L7.34151 8.92101L5.19841 16.5221L5.2012 16.5214L5.27529 16.5026C5.80805 16.3661 6.33173 16.1963 6.8322 15.9812ZM12.0314 10.4572L7.96735 7.89922C7.96706 8.18652 7.98323 8.4733 8.01831 8.75864L12.0314 10.4572ZM8.99034 11.3686L9.85258 12.8946H9.85311C9.91899 13.0109 10.0829 13.0109 10.1488 12.8946L11.011 11.3686C11.0764 11.2522 10.9941 11.1068 10.8629 11.1068H9.13844C9.00668 11.1068 8.92446 11.2522 8.99034 11.3686Z" fill="#1E96EB"/>
</svg>
