<svg width="20" height="20" viewBox="0 0 20 20" fill="none" xmlns="http://www.w3.org/2000/svg">
<path fill-rule="evenodd" clip-rule="evenodd" d="M16.0656 3.93526C15.5412 3.41188 14.6904 3.41188 14.166 3.93526L13.4287 4.67112L15.3266 6.56524L16.0656 5.82764C16.5893 5.30494 16.5893 4.45797 16.0656 3.93526ZM14.4418 7.44826L12.544 5.55414L3.54175 14.5386V16.4594H5.41286L14.4418 7.44826ZM13.283 3.05051C14.2954 2.04013 15.9363 2.04013 16.9486 3.05051C17.9617 4.06157 17.9617 5.70133 16.9486 6.7124L6.11289 17.5268C5.99572 17.6438 5.83693 17.7094 5.67139 17.7094H2.91675C2.57157 17.7094 2.29175 17.4296 2.29175 17.0844V14.2794C2.29175 14.1134 2.35777 13.9543 2.47524 13.837L13.283 3.05051Z" fill="#1E96EB"/>
</svg>
