<svg width="14" height="14" viewBox="0 0 14 14" fill="none" xmlns="http://www.w3.org/2000/svg">
<path fill-rule="evenodd" clip-rule="evenodd" d="M1.95831 0.5C1.06085 0.5 0.333313 1.22754 0.333313 2.125V11.0625C0.333313 12.4087 1.42462 13.5 2.77081 13.5C4.117 13.5 5.2083 12.4087 5.2083 11.0625V2.125C5.2083 1.22754 4.48077 0.5 3.58331 0.5H1.95831ZM2.77081 11.875C3.21954 11.875 3.58331 11.5112 3.58331 11.0625C3.58331 10.6138 3.21954 10.25 2.77081 10.25C2.32208 10.25 1.95831 10.6138 1.95831 11.0625C1.95831 11.5112 2.32208 11.875 2.77081 11.875Z" fill="#1E96EB"/>
<path d="M6.8333 10.4471L10.8141 6.46625C11.4487 5.83165 11.4487 4.80275 10.8141 4.16815L9.66508 3.0191C9.03048 2.3845 8.00159 2.3845 7.36699 3.0191L6.8333 3.55279V10.4471Z" fill="#1E96EB"/>
<path d="M11.7083 13.5H6.07853L10.9535 8.625H11.7083C12.6058 8.625 13.3333 9.35254 13.3333 10.25V11.875C13.3333 12.7725 12.6058 13.5 11.7083 13.5Z" fill="#1E96EB"/>
</svg>
