<svg width="20" height="20" viewBox="0 0 20 20" fill="none" xmlns="http://www.w3.org/2000/svg">
<path fill-rule="evenodd" clip-rule="evenodd" d="M4.99992 2.70923C3.73427 2.70923 2.70825 3.73524 2.70825 5.0009V15.0009C2.70825 16.2665 3.73427 17.2926 4.99992 17.2926H14.9999C16.2656 17.2926 17.2916 16.2665 17.2916 15.0009V5.0009C17.2916 3.73524 16.2656 2.70923 14.9999 2.70923H4.99992ZM3.95825 5.0009C3.95825 4.4256 4.42462 3.95923 4.99992 3.95923H14.9999C15.5752 3.95923 16.0416 4.4256 16.0416 5.0009V15.0009C16.0416 15.5762 15.5752 16.0426 14.9999 16.0426H4.99992C4.42462 16.0426 3.95825 15.5762 3.95825 15.0009V5.0009ZM13.7752 7.94284C14.0193 7.69876 14.0193 7.30303 13.7752 7.05895C13.5311 6.81488 13.1354 6.81488 12.8913 7.05895L8.74992 11.2003L7.52519 9.97562C7.28112 9.73154 6.88539 9.73154 6.64131 9.97562C6.39723 10.2197 6.39723 10.6154 6.64131 10.8595L8.30798 12.5262C8.55205 12.7702 8.94778 12.7702 9.19186 12.5262L13.7752 7.94284Z" fill="#1E96EB"/>
</svg>
