<svg width="15" height="14" viewBox="0 0 15 14" fill="none" xmlns="http://www.w3.org/2000/svg">
<path fill-rule="evenodd" clip-rule="evenodd" d="M2.66669 0C1.56212 0 0.666687 0.89543 0.666687 2V12C0.666687 13.1046 1.56212 14 2.66669 14H12.6667C13.7713 14 14.6667 13.1046 14.6667 12V2C14.6667 0.895431 13.7713 0 12.6667 0H2.66669ZM11.7196 4.5067C11.9995 4.20132 11.9788 3.72689 11.6734 3.44705C11.368 3.16721 10.8936 3.18791 10.6137 3.4933L6.57011 7.90599L4.70576 5.97856C4.41778 5.68084 3.94298 5.67294 3.64525 5.96092C3.34753 6.2489 3.33963 6.72371 3.62761 7.02144L6.04579 9.52143C6.18954 9.67004 6.38825 9.75272 6.59499 9.74993C6.80172 9.74714 6.99813 9.65913 7.13782 9.5067L11.7196 4.5067Z" fill="#1E96EB"/>
</svg>
