<svg width="20" height="20" viewBox="0 0 20 20" fill="none" xmlns="http://www.w3.org/2000/svg">
<path fill-rule="evenodd" clip-rule="evenodd" d="M2.70825 3.33423C2.70825 2.98905 2.98807 2.70923 3.33325 2.70923H16.6666C17.0118 2.70923 17.2916 2.98905 17.2916 3.33423V5.55645C17.2916 5.90163 17.0118 6.18145 16.6666 6.18145C16.3214 6.18145 16.0416 5.90163 16.0416 5.55645V3.95923H10.6249V16.0426H13.3333C13.6784 16.0426 13.9583 16.3224 13.9583 16.6676C13.9583 17.0127 13.6784 17.2926 13.3333 17.2926H6.66659C6.32141 17.2926 6.04159 17.0127 6.04159 16.6676C6.04159 16.3224 6.32141 16.0426 6.66659 16.0426H9.37492V3.95923H3.95825V5.55645C3.95825 5.90163 3.67843 6.18145 3.33325 6.18145C2.98807 6.18145 2.70825 5.90163 2.70825 5.55645V3.33423Z" fill="#1E96EB"/>
</svg>
