<svg width="21" height="20" viewBox="0 0 21 20" fill="none" xmlns="http://www.w3.org/2000/svg">
<path d="M9.90131 4.57585C9.86725 4.27519 9.61304 4.04792 9.31046 4.04761C9.00787 4.0473 8.7532 4.27405 8.71853 4.57465C8.49309 6.52928 7.90868 7.90372 6.9659 8.84651C6.02311 9.7893 4.64866 10.3737 2.69403 10.5991C2.39344 10.6338 2.16668 10.8885 2.16699 11.1911C2.1673 11.4937 2.39457 11.7479 2.69524 11.7819C4.61757 11.9997 6.02122 12.5838 6.98639 13.5315C7.94793 14.4757 8.54454 15.8498 8.71695 17.7908C8.74425 18.0981 9.00193 18.3337 9.31052 18.3333C9.61911 18.333 9.87626 18.0969 9.90287 17.7894C10.0681 15.8804 10.6642 14.4774 11.6305 13.5111C12.5968 12.5448 13.9998 11.9487 15.9088 11.7835C16.2162 11.7569 16.4524 11.4997 16.4527 11.1911C16.4531 10.8825 16.2175 10.6249 15.9101 10.5976C13.9692 10.4252 12.5951 9.82855 11.6509 8.86701C10.7032 7.90184 10.119 6.49818 9.90131 4.57585Z" fill="white"/>
<path d="M16.2859 1.87208C16.2726 1.75516 16.1738 1.66678 16.0561 1.66666C15.9384 1.66654 15.8394 1.75472 15.8259 1.87162C15.7383 2.63175 15.511 3.16626 15.1443 3.5329C14.7777 3.89954 14.2432 4.1268 13.4831 4.21448C13.3662 4.22796 13.278 4.327 13.2781 4.44467C13.2782 4.56234 13.3666 4.6612 13.4835 4.67445C14.2311 4.75912 14.777 4.9863 15.1523 5.35485C15.5262 5.72203 15.7583 6.25642 15.8253 7.01121C15.8359 7.13075 15.9361 7.22235 16.0561 7.22221C16.1761 7.22208 16.2762 7.13025 16.2865 7.01069C16.3508 6.26831 16.5826 5.72268 16.9583 5.3469C17.3341 4.97111 17.8798 4.73932 18.6221 4.67505C18.7417 4.6647 18.8335 4.5647 18.8337 4.4447C18.8338 4.32469 18.7422 4.22448 18.6227 4.21386C17.8679 4.14681 17.3335 3.9148 16.9663 3.54087C16.5977 3.16552 16.3706 2.61966 16.2859 1.87208Z" fill="white"/>
</svg>
