<svg width="24" height="25" viewBox="0 0 24 25" fill="none" xmlns="http://www.w3.org/2000/svg">
<path fill-rule="evenodd" clip-rule="evenodd" d="M13.0032 7.15945C12.723 7.46453 12.7432 7.93897 13.0483 8.21915L17.0745 11.9168L5 11.9168C4.58579 11.9168 4.25 12.2525 4.25 12.6668C4.25 13.081 4.58579 13.4168 5 13.4168L17.0745 13.4168L13.0483 17.1144C12.7432 17.3945 12.723 17.869 13.0032 18.1741C13.2833 18.4791 13.7578 18.4993 14.0629 18.2191L19.5073 13.2192C19.662 13.0771 19.75 12.8767 19.75 12.6668C19.75 12.4568 19.662 12.2564 19.5073 12.1144L14.0629 7.11435C13.7578 6.83418 13.2833 6.85437 13.0032 7.15945Z" fill="white"/>
</svg>
