<svg width="189" height="37" viewBox="0 0 189 37" fill="none" xmlns="http://www.w3.org/2000/svg">
<g clip-path="url(#clip0_702_13747)">
<path d="M35.9188 9.72019L24.0278 0.311768L0 5.0844V26.8991L11.8952 36.3118L35.9188 31.5391V9.72019ZM21.65 3.75808V10.0633L25.286 9.34124V5.38545L30.5394 9.54124L13.0064 13.0233L5.37942 6.98966L21.65 3.75808ZM3.63599 9.6865L10.6307 15.2191V21.8233L14.2667 21.1012V15.7476L32.2807 12.1686V26.9391L25.286 21.4065V14.8023L21.65 15.5244V20.8781L3.63599 24.457V9.6865ZM14.2688 32.8655V26.5602L10.6328 27.2823V31.2381L5.37942 27.0823L22.9124 23.6002L30.5394 29.6339L14.2688 32.8655Z" fill="white"/>
<path d="M53.5106 20.1348C54.481 19.299 54.9725 18.1201 54.9725 16.6296V14.8927C54.9725 13.1096 54.5146 11.8085 53.6135 11.0232C52.7229 10.2506 51.3281 9.85693 49.4629 9.85693H43.468V31.7432H49.8284C51.7356 31.7432 53.1346 31.3496 53.9832 30.5727C54.8402 29.7896 55.275 28.4696 55.275 26.6485V23.9075C55.275 22.2043 54.6827 20.9348 53.5106 20.1327V20.1348ZM46.6755 21.7243H50.1329C50.7295 21.7243 51.1937 21.8927 51.5466 22.238C51.8974 22.5811 52.0696 23.038 52.0696 23.6359V26.9559C52.0696 27.6443 51.9142 28.1454 51.6075 28.4443C51.2987 28.7454 50.7925 28.8969 50.1014 28.8969H46.6755V21.7243ZM51.765 16.9348C51.765 17.5306 51.5844 17.9917 51.2147 18.3454C50.8408 18.7032 50.3871 18.8759 49.8284 18.8759H46.6755V12.7075H49.8284C50.5194 12.7075 51.0194 12.8548 51.3197 13.1454C51.6159 13.4338 51.7671 13.9306 51.7671 14.619V16.9348H51.765Z" fill="white"/>
<path d="M65.6641 28.7539C65.5675 28.6697 65.5171 28.5054 65.5171 28.2654V9.85913H57.9027V12.7076H62.3705V28.417C62.3705 29.5497 62.6604 30.396 63.2338 30.937C63.801 31.4718 64.4752 31.7454 65.2356 31.7454H70.6234V28.897H66.3006C65.8889 28.897 65.7271 28.8065 65.6641 28.7539Z" fill="white"/>
<path d="M79.6431 15.9517H78.6411C76.8137 15.9517 75.4357 16.3664 74.5451 17.1832C73.6482 18.0064 73.1924 19.3285 73.1924 21.1074V26.5896C73.1924 28.3706 73.6482 29.6906 74.5451 30.5138C75.4357 31.3306 76.8137 31.7453 78.6411 31.7453H79.6431C81.4705 31.7453 82.8484 31.3306 83.7391 30.5138C84.636 29.6906 85.0918 28.3706 85.0918 26.5896V21.1074C85.0918 19.3285 84.636 18.0085 83.7391 17.1832C82.8484 16.3664 81.4705 15.9517 79.6431 15.9517ZM76.3389 20.499C76.3389 19.9496 76.4965 19.539 76.8221 19.2464C77.1519 18.9496 77.6623 18.8001 78.3365 18.8001H79.9476C80.6219 18.8001 81.1323 18.9496 81.4621 19.2464C81.7877 19.539 81.9452 19.9496 81.9452 20.499V27.2001C81.9452 27.7496 81.7877 28.1601 81.4621 28.4527C81.1323 28.7496 80.624 28.899 79.9476 28.899H78.3365C77.6602 28.899 77.1519 28.7496 76.8221 28.4527C76.4965 28.1601 76.3389 27.7517 76.3389 27.2001V20.499Z" fill="white"/>
<path d="M90.5594 17.1831C89.6625 18.0063 89.2067 19.3284 89.2067 21.1074V26.5895C89.2067 28.3895 89.6562 29.7158 90.5447 30.5284C91.4248 31.3347 92.8069 31.7453 94.6554 31.7453H98.8564V28.8968H94.3508C93.6745 28.8968 93.1661 28.7474 92.8364 28.4505C92.5108 28.1579 92.3532 27.7495 92.3532 27.1979V20.4968C92.3532 19.9453 92.5108 19.5368 92.8364 19.2442C93.1661 18.9474 93.6766 18.7979 94.3508 18.7979H98.8564V15.9495H94.6554C92.828 15.9495 91.45 16.3642 90.5594 17.181V17.1831Z" fill="white"/>
<path d="M114.883 15.9518H110.88L106.517 20.9097V9.85913H103.37V31.7454H106.517V25.0507L106.983 24.5097L111.334 31.7454H115.19L109.319 22.2633L114.883 15.9518Z" fill="white"/>
<path d="M124.409 18.9665H123.498C122.922 18.9665 122.472 18.7897 122.118 18.4276C121.763 18.0633 121.59 17.6149 121.59 17.057V14.7412C121.59 14.1876 121.79 13.7244 122.202 13.3307C122.617 12.9328 123.151 12.7391 123.832 12.7391H128.764V9.85913H124.136C122.309 9.85913 120.88 10.3202 119.889 11.2276C118.891 12.1433 118.385 13.5202 118.385 15.3202V16.4781C118.385 18.2318 118.851 19.596 119.773 20.5307C120.695 21.4654 121.958 21.9391 123.529 21.9391H124.441C124.987 21.9391 125.378 22.0907 125.638 22.4023C125.911 22.7286 126.043 23.1539 126.043 23.6991V26.8676C126.043 27.4212 125.844 27.8844 125.432 28.2781C125.016 28.676 124.483 28.8697 123.802 28.8697H118.902V31.7497H123.5C125.327 31.7497 126.755 31.2886 127.747 30.3812C128.745 29.4676 129.251 28.0907 129.251 26.2886V24.2781C129.251 22.5265 128.82 21.1897 127.972 20.3054C127.119 19.4191 125.922 18.9707 124.411 18.9707L124.409 18.9665Z" fill="white"/>
<path d="M141.239 27.5811C141.201 27.9201 141.054 28.219 140.787 28.4969C140.529 28.7643 140.111 28.899 139.546 28.899H137.905C137.369 28.899 136.962 28.7517 136.659 28.4485C136.357 28.1453 136.21 27.7369 136.21 27.2001V15.9517H133.063V26.5896C133.063 28.3685 133.496 29.6864 134.351 30.5096C135.202 31.3306 136.5 31.7453 138.208 31.7453H139.241C140.048 31.7453 140.77 31.5832 141.392 31.2611V31.7453H144.385V15.9517H141.239V27.5811Z" fill="white"/>
<path d="M155.325 9.85913H151.875V13.1644H155.325V9.85913Z" fill="white"/>
<path d="M155.173 15.9517H147.559V18.8001H152.027V31.7453H159.671V28.8969H155.173V15.9517Z" fill="white"/>
<path d="M169.306 12.2969H166.159V15.9516H163.271V18.8H166.159V27.8085C166.159 28.9663 166.457 29.9179 167.043 30.6379C167.644 31.3748 168.514 31.7474 169.631 31.7474H173.742V28.899H170.391C169.995 28.899 169.707 28.8274 169.537 28.6885C169.383 28.5621 169.306 28.3179 169.306 27.9621V18.8021H173.742V15.9537H169.306V12.299V12.2969Z" fill="white"/>
<path d="M189 25.1958V20.9537C189 19.3453 188.601 18.0968 187.815 17.2442C187.023 16.3853 185.856 15.9495 184.341 15.9495H182.913C181.1 15.9495 179.777 16.3558 178.976 17.16C178.176 17.9621 177.769 19.2905 177.769 21.1053V26.5874C177.769 28.3874 178.218 29.7137 179.107 30.5263C179.987 31.3326 181.369 31.7431 183.217 31.7431H188.027V28.8947H182.913C182.236 28.8947 181.728 28.7453 181.398 28.4484C181.073 28.1558 180.915 27.7474 180.915 27.1958V25.1937H189V25.1958ZM182.61 18.8H184.373C184.826 18.8 185.188 18.9431 185.48 19.2358C185.772 19.5284 185.914 19.8926 185.914 20.3474V22.3495H180.915V20.4989C180.915 19.9221 181.039 19.4884 181.285 19.2084C181.522 18.9389 181.965 18.8021 182.608 18.8021L182.61 18.8Z" fill="white"/>
</g>
<defs>
<clipPath id="clip0_702_13747">
<rect width="189" height="36" fill="white" transform="translate(0 0.311768)"/>
</clipPath>
</defs>
</svg>
