<svg width="236" height="236" viewBox="0 0 236 236" fill="none" xmlns="http://www.w3.org/2000/svg">
<path d="M137.897 45.8716L134.674 40.9077L139.638 37.6841L142.861 42.648L137.897 45.8716Z" />
<path d="M152.513 51.5406L150.392 46.015L155.918 43.8939L158.039 49.4195L152.513 51.5406Z" />
<path d="M165.631 60.1245L164.705 54.2787L170.551 53.3528L171.477 59.1986L165.631 60.1245Z" />
<path d="M176.678 71.2483L176.988 65.3377L182.898 65.6474L182.589 71.558L176.678 71.2483Z" />
<path d="M185.17 84.4257L186.702 78.7086L192.419 80.2405L190.887 85.9576L185.17 84.4257Z" />
<path d="M190.738 99.0808L193.425 93.8072L198.698 96.4942L196.011 101.768L190.738 99.0808Z" />
<path d="M193.136 114.573L196.861 109.973L201.461 113.698L197.736 118.298L193.136 114.573Z" />
<path d="M192.261 130.226L196.861 126.501L200.586 131.101L195.986 134.825L192.261 130.226Z" />
<path d="M188.151 145.354L193.425 142.667L196.112 147.941L190.838 150.628L188.151 145.354Z" />
<path d="M180.985 159.298L186.702 157.766L188.234 163.483L182.517 165.015L180.985 159.298Z" />
<path d="M171.077 171.446L176.988 171.137L177.297 177.047L171.387 177.357L171.077 171.446Z" />
<path d="M158.86 181.27L164.706 182.196L163.78 188.041L157.934 187.116L158.86 181.27Z" />
<path d="M144.867 188.338L150.392 190.459L148.271 195.985L142.746 193.864L144.867 188.338Z" />
<path d="M129.71 192.343L134.674 195.567L131.45 200.53L126.487 197.307L129.71 192.343Z" />
<path d="M114.052 193.109L118.237 197.294L114.052 201.479L109.867 197.294L114.052 193.109Z" />
<path d="M98.5766 190.603L101.8 195.567L96.8364 198.79L93.6128 193.826L98.5766 190.603Z" />
<path d="M83.9605 184.934L86.0816 190.459L80.556 192.58L78.4349 187.055L83.9605 184.934Z" />
<path d="M70.8427 176.35L71.7686 182.196L65.9227 183.121L64.9968 177.276L70.8427 176.35Z" />
<path d="M59.7959 165.226L59.4862 171.137L53.5756 170.827L53.8853 164.916L59.7959 165.226Z" />
<path d="M51.3035 152.049L49.7716 157.766L44.0546 156.234L45.5864 150.517L51.3035 152.049Z" />
<path d="M45.7363 137.393L43.0493 142.667L37.7757 139.98L40.4627 134.706L45.7363 137.393Z" />
<path d="M43.3378 121.901L39.6131 126.501L35.0133 122.776L38.7381 118.176L43.3378 121.901Z" />
<path d="M44.2129 106.249L39.6132 109.973L35.8884 105.374L40.4881 101.649L44.2129 106.249Z" />
<path d="M48.3231 91.1201L43.0494 93.8071L40.3624 88.5335L45.636 85.8465L48.3231 91.1201Z" />
<path d="M55.4886 77.1767L49.7716 78.7086L48.2397 72.9916L53.9568 71.4597L55.4886 77.1767Z" />
<path d="M65.3968 65.0279L59.4862 65.3376L59.1764 59.427L65.087 59.1173L65.3968 65.0279Z" />
<path d="M77.6143 55.2045L71.7684 54.2786L72.6943 48.4328L78.5402 49.3587L77.6143 55.2045Z" />
<path d="M91.6072 48.136L86.0816 46.0149L88.2027 40.4893L93.7283 42.6104L91.6072 48.136Z" />
<path d="M106.764 44.1312L101.8 40.9077L105.024 35.9438L109.987 39.1674L106.764 44.1312Z" />
<path d="M122.422 43.3653L118.237 39.1801L122.422 34.9949L126.607 39.1801L122.422 43.3653Z" />
</svg>
