<svg width="679" height="135" viewBox="0 0 679 135" fill="none" xmlns="http://www.w3.org/2000/svg">
<path d="M133.315 36.1681L89.9365 1.84863L2.2876 19.2583V98.828L45.678 133.155L133.311 115.75V36.172L133.315 36.1681ZM81.2678 14.4208V37.0223L94.532 34.389V20.3565L113.692 35.5108L49.7315 48.2128L21.9109 26.2096L81.2639 14.4208H81.2678ZM15.5557 36.0421L41.0746 56.2229V79.9186L54.3388 77.2853V58.1477L120.051 45.0953V98.9658L94.532 78.7811V55.0893L81.2678 57.7226V76.8602L15.5557 89.9126V36.0421ZM54.3388 120.587V97.9857L41.0746 100.619V114.651L21.9148 99.4972L85.8751 86.7951L113.696 108.798L54.3428 120.587H54.3388Z" fill="white"/>
<path d="M201.038 64.5124C205.115 61.0919 207.177 56.2307 207.177 50.043V42.8871C207.177 35.5934 205.316 30.2717 201.639 27.0755C198.006 23.9147 192.287 22.3167 184.644 22.3167H160.107V112.179H186.148C193.964 112.179 199.687 110.573 203.159 107.401C206.655 104.209 208.43 98.8082 208.43 91.3531V80.0524C208.43 72.9988 205.944 67.7794 201.038 64.5124ZM172.974 70.8654H187.405C189.919 70.8654 191.863 71.5739 193.359 73.0342C194.848 74.4867 195.567 76.4114 195.567 78.9227V92.6088C195.567 95.5019 194.907 97.6077 193.611 98.8712C192.303 100.143 190.174 100.792 187.279 100.792H172.974V70.8654ZM194.314 51.2987C194.314 53.8021 193.552 55.7465 191.989 57.2423C190.41 58.7498 188.501 59.482 186.152 59.482H172.974V33.7001H186.152C189.047 33.7001 191.156 34.3259 192.421 35.5579C193.678 36.786 194.318 38.8722 194.318 41.7574V51.2987H194.314Z" fill="white"/>
<path d="M243.616 100.154C243.176 99.7687 242.952 99.0484 242.952 98.0092V22.3127H211.918V33.6961H230.336V98.6311C230.336 103.244 231.514 106.696 233.839 108.889C236.149 111.066 238.883 112.172 241.966 112.172H263.997V100.788H246.349C244.684 100.788 243.942 100.442 243.612 100.151L243.616 100.154Z" fill="white"/>
<path d="M311.995 52.456C308.358 49.1181 302.717 47.4255 295.231 47.4255H291.095C283.609 47.4255 277.968 49.1181 274.331 52.456C270.67 55.8175 268.812 61.2139 268.812 68.4998V91.1013C268.812 98.3871 270.67 103.788 274.331 107.145C277.964 110.483 283.605 112.176 291.095 112.176H295.231C302.717 112.176 308.358 110.483 311.995 107.145C315.655 103.784 317.513 98.3871 317.513 91.1013V68.4998C317.513 61.2179 315.655 55.8175 311.995 52.456ZM281.429 65.9885C281.429 63.6662 282.1 61.9343 283.483 60.6944C284.877 59.4427 287.018 58.8089 289.846 58.8089H296.488C299.312 58.8089 301.453 59.4427 302.851 60.6904C304.233 61.9303 304.905 63.6622 304.905 65.9846V93.6086C304.905 95.931 304.233 97.6629 302.851 98.9028C301.456 100.151 299.316 100.788 296.488 100.788H289.846C287.018 100.788 284.877 100.154 283.483 98.9028C282.1 97.6668 281.429 95.9349 281.429 93.6086V65.9846V65.9885Z" fill="white"/>
<path d="M331.339 52.456C327.678 55.8175 325.821 61.2139 325.821 68.4998V91.1013C325.821 98.4737 327.655 103.89 331.276 107.208C334.87 110.503 340.53 112.176 348.103 112.176H365.248V100.792H346.85C344.022 100.792 341.881 100.158 340.487 98.9067C339.104 97.6668 338.433 95.9388 338.433 93.6126V65.9885C338.433 63.6662 339.104 61.9343 340.487 60.6944C341.881 59.4427 344.022 58.8089 346.85 58.8089H365.248V47.4255H348.103C340.617 47.4255 334.976 49.1181 331.339 52.456Z" fill="white"/>
<path d="M421.176 47.4255H405.146L386.902 68.1573V22.3127H374.286V112.176H386.902V84.6892L389.031 82.2213L407.04 112.176H422.515L398.414 73.2507L421.176 47.4255Z" fill="white"/>
<path d="M451.687 59.8559H447.928C445.509 59.8559 443.608 59.112 442.115 57.5769C440.619 56.0418 439.888 54.1524 439.888 51.7986V42.2573C439.888 39.9192 440.732 37.9747 442.465 36.3137C444.212 34.6369 446.451 33.826 449.303 33.826H469.456V22.3167H450.556C443.069 22.3167 437.221 24.1981 433.167 27.9099C429.09 31.6454 427.021 37.278 427.021 44.6465V49.4172C427.021 56.6007 428.929 62.1782 432.692 65.9924C436.459 69.8105 441.624 71.7471 448.05 71.7471H451.809C454.114 71.7471 455.772 72.3926 456.884 73.7191C458.019 75.081 458.596 76.9153 458.596 79.1786V92.2388C458.596 94.5769 457.752 96.5213 456.019 98.1824C454.272 99.8592 452.033 100.67 449.181 100.67H429.153V112.179H447.928C455.415 112.179 461.267 110.298 465.317 106.586C469.394 102.851 471.464 97.222 471.464 89.8495V81.5639C471.464 74.3883 469.708 68.9209 466.24 65.3114C462.763 61.6941 457.866 59.8638 451.687 59.8638V59.8559Z" fill="white"/>
<path d="M512.148 95.1949C511.991 96.6395 511.366 97.9109 510.231 99.0799C509.135 100.214 507.368 100.788 504.983 100.788H498.216C495.957 100.788 494.241 100.162 492.956 98.8792C491.676 97.596 491.051 95.8719 491.051 93.6126V47.4255H478.435V91.1013C478.435 98.3793 480.203 103.772 483.687 107.129C487.159 110.479 492.465 112.176 499.465 112.176H503.726C507.14 112.176 510.172 111.467 512.768 110.062V112.176H524.756V47.4255H512.14V95.1949H512.148Z" fill="white"/>
<path d="M562.349 47.4255H531.315V58.8129H549.737V112.176H580.896V100.792H562.349V47.4255Z" fill="white"/>
<path d="M562.974 22.3127H549.108V35.5816H562.974V22.3127Z" fill="white"/>
<path d="M606.014 32.3579H593.402V47.4256H581.497V58.809H593.402V96.1199C593.402 100.851 594.616 104.736 597.008 107.669C599.447 110.656 602.994 112.172 607.542 112.172H624.31V100.788H610.673C608.992 100.788 607.77 100.481 607.036 99.879C606.36 99.324 606.018 98.273 606.018 96.7497V58.809H624.31V47.4256H606.018V32.3579H606.014Z" fill="white"/>
<path d="M677.834 85.1813V67.8739C677.834 61.2887 676.208 56.1835 672.999 52.7039C669.77 49.2047 664.994 47.4294 658.808 47.4294H652.92C645.5 47.4294 640.08 49.0905 636.816 52.3654C633.552 55.6403 631.891 61.0683 631.891 68.5037V91.1052C631.891 98.4776 633.725 103.894 637.346 107.212C640.94 110.507 646.6 112.179 654.173 112.179H673.824V100.796H652.92C650.092 100.796 647.951 100.162 646.557 98.9106C645.174 97.6707 644.503 95.9427 644.503 93.6165V85.1852H677.83L677.834 85.1813ZM651.667 58.8128H658.934C660.85 58.8128 662.386 59.419 663.627 60.6589C664.868 61.9027 665.469 63.4418 665.469 65.3626V73.7939H644.503V65.9885C644.503 63.5677 645.033 61.7374 646.074 60.5487C647.083 59.3954 648.965 58.8128 651.663 58.8128H651.667Z" fill="white"/>
</svg>
