<svg width="27" height="27" viewBox="0 0 27 27" fill="none" xmlns="http://www.w3.org/2000/svg">
<path fill-rule="evenodd" clip-rule="evenodd" d="M3.94385 6.66664C3.94385 4.9791 5.31187 3.61108 6.9994 3.61108H20.3327C22.0203 3.61108 23.3883 4.9791 23.3883 6.66664V20C23.3883 21.6875 22.0203 23.0555 20.3327 23.0555H6.9994C5.31187 23.0555 3.94385 21.6875 3.94385 20V6.66664ZM6.9994 5.27775C6.23234 5.27775 5.61051 5.89958 5.61051 6.66664V9.16664H21.7216V6.66664C21.7216 5.89958 21.0998 5.27775 20.3327 5.27775H6.9994ZM5.61051 20V10.8333H8.94385V21.3889H6.9994C6.23234 21.3889 5.61051 20.767 5.61051 20ZM10.6105 21.3889H20.3327C21.0998 21.3889 21.7216 20.767 21.7216 20V10.8333H10.6105V21.3889Z" fill="#ABABAB"/>
</svg>
