<svg width="28" height="27" viewBox="0 0 28 27" fill="none" xmlns="http://www.w3.org/2000/svg">
<path d="M10.6664 11.5476C10.2062 11.5476 9.83307 11.9207 9.83307 12.3809C9.83307 12.8412 10.2062 13.2142 10.6664 13.2142H17.3331C17.7933 13.2142 18.1664 12.8412 18.1664 12.3809C18.1664 11.9207 17.7933 11.5476 17.3331 11.5476H10.6664Z" fill="#ABABAB"/>
<path d="M9.83307 15.7142C9.83307 15.254 10.2062 14.8809 10.6664 14.8809H17.3331C17.7933 14.8809 18.1664 15.254 18.1664 15.7142C18.1664 16.1745 17.7933 16.5476 17.3331 16.5476H10.6664C10.2062 16.5476 9.83307 16.1745 9.83307 15.7142Z" fill="#ABABAB"/>
<path d="M10.6664 18.2142C10.2062 18.2142 9.83307 18.5873 9.83307 19.0476C9.83307 19.5078 10.2062 19.8809 10.6664 19.8809H17.3331C17.7933 19.8809 18.1664 19.5078 18.1664 19.0476C18.1664 18.5873 17.7933 18.2142 17.3331 18.2142H10.6664Z" fill="#ABABAB"/>
<path fill-rule="evenodd" clip-rule="evenodd" d="M7.33308 2.97607C6.34686 2.97607 5.54736 3.77556 5.54736 4.76179V21.9046C5.54736 22.8909 6.34685 23.6904 7.33308 23.6904H20.6664C21.6526 23.6904 22.4521 22.8909 22.4521 21.9046V8.57131C22.4521 8.38209 22.3877 8.19849 22.2695 8.05073L18.46 3.28883C18.3018 3.09115 18.0624 2.97607 17.8093 2.97607H7.33308ZM7.21403 4.76179C7.21403 4.69604 7.26733 4.64274 7.33308 4.64274H16.9759V7.61893C16.9759 8.60515 17.7754 9.40464 18.7617 9.40464H20.7855V21.9046C20.7855 21.9704 20.7322 22.0237 20.6664 22.0237H7.33308C7.26733 22.0237 7.21403 21.9704 7.21403 21.9046V4.76179ZM19.8849 7.73798L18.6426 6.18506V7.61893C18.6426 7.68468 18.6959 7.73798 18.7617 7.73798H19.8849Z" fill="#ABABAB"/>
</svg>
