<svg width="358" height="338" viewBox="0 0 358 338" fill="none" xmlns="http://www.w3.org/2000/svg">
<path d="M261.482 87.4353L261.003 78.2923L270.146 77.8131L270.625 86.9562L261.482 87.4353Z" />
<path d="M276.678 106.335L278.11 97.2917L287.153 98.7239L285.72 107.767L276.678 106.335Z" />
<path d="M287.612 127.98L290.893 119.433L299.44 122.714L296.159 131.261L287.612 127.98Z" />
<path d="M293.807 151.426L298.793 143.747L306.472 148.734L301.485 156.413L293.807 151.426Z" />
<path d="M294.992 175.647L301.466 169.173L307.94 175.647L301.466 182.121L294.992 175.647Z" />
<path d="M291.115 199.586L298.793 194.6L303.78 202.278L296.101 207.265L291.115 199.586Z" />
<path d="M282.345 222.195L290.893 218.914L294.174 227.462L285.626 230.743L282.345 222.195Z" />
<path d="M269.067 242.488L278.11 241.055L279.542 250.098L270.499 251.531L269.067 242.488Z" />
<path d="M251.86 259.575L261.003 260.055L260.523 269.198L251.38 268.719L251.86 259.575Z" />
<path d="M231.476 272.712L240.319 275.082L237.95 283.926L229.106 281.556L231.476 272.712Z" />
<path d="M208.806 281.324L216.963 285.481L212.807 293.638L204.649 289.482L208.806 281.324Z" />
<path d="M184.841 285.034L191.956 290.796L186.194 297.912L179.079 292.15L184.841 285.034Z" />
<path d="M160.628 283.681L166.39 290.796L159.275 296.558L153.513 289.443L160.628 283.681Z" />
<path d="M137.226 277.323L141.383 285.481L133.225 289.637L129.068 281.48L137.226 277.323Z" />
<path d="M115.657 266.238L118.027 275.082L109.183 277.452L106.813 268.608L115.657 266.238Z" />
<path d="M96.8642 250.912L97.3434 260.055L88.2003 260.534L87.7211 251.391L96.8642 250.912Z" />
<path d="M81.6684 232.012L80.2361 241.055L71.1932 239.623L72.6255 230.58L81.6684 232.012Z" />
<path d="M70.7343 210.367L67.4532 218.914L58.9057 215.633L62.1868 207.086L70.7343 210.367Z" />
<path d="M64.5392 186.921L59.5527 194.6L51.8741 189.613L56.8606 181.935L64.5392 186.921Z" />
<path d="M63.3543 162.699L56.8803 169.173L50.4063 162.699L56.8803 156.225L63.3543 162.699Z" />
<path d="M67.2313 138.761L59.5527 143.747L54.5662 136.069L62.2448 131.082L67.2313 138.761Z" />
<path d="M76.0006 116.151L67.4531 119.433L64.172 110.885L72.7195 107.604L76.0006 116.151Z" />
<path d="M89.2792 95.8595L80.2363 97.2917L78.8041 88.2488L87.847 86.8166L89.2792 95.8595Z" />
<path d="M106.486 78.7716L97.3434 78.2924L97.8226 69.1493L106.966 69.6285L106.486 78.7716Z" />
<path d="M126.87 65.6345L118.027 63.2649L120.396 54.4212L129.24 56.7909L126.87 65.6345Z" />
<path d="M149.54 57.0228L141.382 52.8662L145.539 44.7085L153.697 48.8651L149.54 57.0228Z" />
<path d="M173.505 53.3125L166.39 47.5507L172.152 40.4354L179.267 46.1973L173.505 53.3125Z" />
<path d="M197.718 54.6659L191.956 47.5507L199.071 41.7889L204.833 48.9041L197.718 54.6659Z" />
<path d="M221.12 61.0239L216.963 52.8662L225.121 48.7096L229.278 56.8673L221.12 61.0239Z" />
<path d="M242.689 72.1085L240.319 63.2649L249.163 60.8952L251.533 69.7389L242.689 72.1085Z" />
</svg>
