<svg width="28" height="27" viewBox="0 0 28 27" fill="none" xmlns="http://www.w3.org/2000/svg">
<path fill-rule="evenodd" clip-rule="evenodd" d="M6.22206 3.61108C4.53452 3.61108 3.1665 4.9791 3.1665 6.66664V20C3.1665 21.6875 4.53452 23.0555 6.22206 23.0555H21.7776C23.4652 23.0555 24.8332 21.6875 24.8332 20V6.66664C24.8332 4.9791 23.4652 3.61108 21.7776 3.61108H6.22206ZM4.83317 6.66664C4.83317 5.89958 5.455 5.27775 6.22206 5.27775H8.72206V9.16691H4.83317V6.66664ZM8.72206 10.8336H4.83317V14.7222H8.72206L8.72206 10.8336ZM10.3887 14.7222L10.3887 10.8336H23.1665V14.7222H10.3887ZM8.72206 16.3889H4.83317V20C4.83317 20.767 5.455 21.3889 6.22206 21.3889H8.72206V16.3889ZM10.3887 21.3889V16.3889H23.1665V20C23.1665 20.767 22.5447 21.3889 21.7776 21.3889H10.3887ZM10.3887 9.16691V5.27775H21.7776C22.5447 5.27775 23.1665 5.89958 23.1665 6.66664V9.16691H10.3887Z" fill="#ABABAB"/>
</svg>
