<svg width="27" height="27" viewBox="0 0 27 27" fill="none" xmlns="http://www.w3.org/2000/svg">
<path fill-rule="evenodd" clip-rule="evenodd" d="M11.002 5.98259C11.0219 6.06826 11.0493 6.15202 11.0839 6.2329L11.0871 6.24037L11.0871 6.24039C11.3946 6.97965 10.9192 7.94444 9.97201 7.94444H7.27751C6.74707 7.94444 6.23837 8.15516 5.86329 8.53023C5.48822 8.9053 5.27751 9.41401 5.27751 9.94444V11.1938C5.29049 11.1925 5.30355 11.1912 5.31667 11.1901L5.31932 11.1899L5.31932 11.1899C5.73494 11.1552 6.15324 11.2071 6.54777 11.3424C6.94229 11.4776 7.30447 11.6933 7.61139 11.9756C7.91832 12.258 8.16332 12.601 8.33091 12.9829C8.4985 13.3648 8.58503 13.7774 8.58503 14.1944C8.58503 14.6115 8.4985 15.024 8.33091 15.406C8.16332 15.7879 7.91832 16.1309 7.61139 16.4132C7.30447 16.6956 6.9423 16.9113 6.54777 17.0465C6.15324 17.1818 5.73494 17.2337 5.31932 17.199L5.31667 17.1988C5.30354 17.1976 5.29049 17.1964 5.27751 17.1951V19.3889C5.27751 19.9193 5.48822 20.428 5.86329 20.8031C6.23837 21.1782 6.74707 21.3889 7.27751 21.3889H9.47131C9.46999 21.3759 9.46876 21.3628 9.46762 21.3497L9.46739 21.3471C9.43271 20.9314 9.48464 20.5132 9.61989 20.1186C9.75514 19.7241 9.97077 19.3619 10.2532 19.055C10.5355 18.7481 10.8785 18.5031 11.2604 18.3355C11.6424 18.1679 12.0549 18.0814 12.472 18.0814C12.889 18.0814 13.3015 18.1679 13.6835 18.3355C14.0654 18.5031 14.4084 18.7481 14.6907 19.055C14.9731 19.3619 15.1888 19.7241 15.324 20.1186C15.4593 20.5132 15.5112 20.9314 15.4765 21.3471L15.4763 21.3497C15.4751 21.3629 15.4739 21.3759 15.4726 21.3889H16.722C17.2524 21.3889 17.7611 21.1782 18.1362 20.8031C18.5112 20.428 18.722 19.9193 18.722 19.3889V16.6944C18.722 15.7505 19.6844 15.2681 20.4284 15.5803L20.4335 15.5825L20.4335 15.5825C20.5144 15.6171 20.5982 15.6445 20.6839 15.6644C21.5857 15.8631 22.4997 15.1765 22.4997 14.1944C22.4997 13.2112 21.5836 12.5242 20.6808 12.7251L20.6805 12.7252C20.6061 12.7418 20.5237 12.769 20.4252 12.8099L20.425 12.81C19.6852 13.1167 18.722 12.6415 18.722 11.6945V9.94444C18.722 9.41401 18.5112 8.9053 18.1362 8.53023C17.7611 8.15516 17.2524 7.94444 16.722 7.94444H14.9719C14.028 7.94444 13.5456 6.98198 13.8578 6.238L13.8599 6.23306C13.8945 6.15209 13.922 6.06825 13.9419 5.9825C14.1406 5.0807 13.454 4.16667 12.472 4.16667C11.4905 4.16667 10.8033 5.081 11.002 5.98259ZM9.36107 6.27778C8.98665 4.39432 10.4105 2.5 12.472 2.5C14.5345 2.5 15.9572 4.39455 15.5828 6.27778H16.722C17.6944 6.27778 18.627 6.66409 19.3147 7.35172C20.0023 8.03935 20.3886 8.97198 20.3886 9.94444V11.0836C22.2718 10.7092 24.1664 12.1319 24.1664 14.1944C24.1664 16.257 22.2718 17.6797 20.3886 17.3053V19.3889C20.3886 20.3613 20.0023 21.294 19.3147 21.9816C18.627 22.6692 17.6944 23.0556 16.722 23.0556H14.9341C14.0177 23.0556 13.5564 22.1585 13.7666 21.4514C13.7935 21.3594 13.8093 21.28 13.8157 21.207C13.831 21.0216 13.8077 20.8351 13.7474 20.6591C13.6869 20.4827 13.5905 20.3207 13.4642 20.1834C13.3379 20.0462 13.1845 19.9366 13.0137 19.8617C12.843 19.7867 12.6585 19.748 12.472 19.748C12.2854 19.748 12.1009 19.7867 11.9302 19.8617C11.7594 19.9366 11.606 20.0462 11.4797 20.1834C11.3534 20.3207 11.257 20.4827 11.1965 20.6591C11.1361 20.8351 11.1129 21.0217 11.1282 21.2071C11.1346 21.2803 11.1505 21.359 11.1773 21.4482L11.1776 21.4495C11.3876 22.1538 10.9298 23.0556 10.0107 23.0556H7.27751C6.30505 23.0556 5.37242 22.6692 4.68478 21.9816C3.99715 21.294 3.61084 20.3613 3.61084 19.3889V16.6566C3.61084 15.7402 4.50778 15.2789 5.21485 15.4891C5.30691 15.516 5.38642 15.5318 5.45937 15.5382C5.64476 15.5535 5.83131 15.5302 6.00728 15.4699C6.18372 15.4094 6.34568 15.313 6.48295 15.1867C6.62021 15.0604 6.72977 14.907 6.80472 14.7362C6.87967 14.5654 6.91836 14.381 6.91836 14.1944C6.91836 14.0079 6.87967 13.8234 6.80472 13.6526C6.72977 13.4819 6.62021 13.3285 6.48295 13.2022C6.34569 13.0759 6.18372 12.9795 6.00728 12.919C5.83131 12.8587 5.64476 12.8354 5.45937 12.8507C5.38618 12.8571 5.30745 12.873 5.21819 12.8997L5.21685 12.9001C4.51261 13.1101 3.61084 12.6523 3.61084 11.7332V9.94444C3.61084 8.97198 3.99715 8.03935 4.68478 7.35172C5.37242 6.66409 6.30505 6.27778 7.27751 6.27778H9.36107Z" fill="#ABABAB"/>
</svg>
