<svg width="27" height="27" viewBox="0 0 27 27" fill="none" xmlns="http://www.w3.org/2000/svg">
<path fill-rule="evenodd" clip-rule="evenodd" d="M3.92871 7.93642C3.92871 6.24888 5.29673 4.88086 6.98427 4.88086H19.6827C21.3702 4.88086 22.7382 6.24888 22.7382 7.93642V14.9205C22.7382 16.6081 21.3702 17.9761 19.6827 17.9761H15.9446L17.9278 23.5291C18.0826 23.9625 17.8567 24.4393 17.4233 24.5941C16.9899 24.7489 16.513 24.5231 16.3582 24.0896L14.1748 17.9761H12.4921L10.3087 24.0896C10.1539 24.5231 9.67709 24.7489 9.24367 24.5941C8.81024 24.4393 8.58437 23.9625 8.73916 23.5291L10.7224 17.9761H6.98427C5.29673 17.9761 3.92871 16.6081 3.92871 14.9205V7.93642ZM14.7845 16.3094C14.7695 16.309 14.7546 16.309 14.7396 16.3094H11.9274C11.9124 16.309 11.8974 16.309 11.8825 16.3094H6.98427C6.21721 16.3094 5.59538 15.6876 5.59538 14.9205V7.93642C5.59538 7.16935 6.21721 6.54753 6.98427 6.54753H19.6827C20.4497 6.54753 21.0716 7.16935 21.0716 7.93642V14.9205C21.0716 15.6876 20.4497 16.3094 19.6827 16.3094H14.7845Z" fill="#ABABAB"/>
</svg>
