<svg width="358" height="338" viewBox="0 0 358 338" fill="none" xmlns="http://www.w3.org/2000/svg">
<path d="M314.832 133.742L319.877 123.841L329.778 128.886L324.733 138.787L314.832 133.742Z" />
<path d="M319.335 162.83L326.329 154.194L334.965 161.187L327.972 169.823L319.335 162.83Z" />
<path d="M317.693 192.218L326.329 185.224L333.322 193.86L324.686 200.854L317.693 192.218Z" />
<path d="M309.976 220.622L319.877 215.577L324.922 225.479L315.021 230.524L309.976 220.622Z" />
<path d="M296.522 246.801L307.256 243.925L310.132 254.659L299.398 257.535L296.522 246.801Z" />
<path d="M277.919 269.611L289.016 269.03L289.598 280.127L278.501 280.708L277.919 269.611Z" />
<path d="M254.98 288.055L265.956 289.793L264.218 300.769L253.242 299.03L254.98 288.055Z" />
<path d="M228.708 301.326L239.083 305.309L235.1 315.683L224.726 311.701L228.708 301.326Z" />
<path d="M200.251 308.845L209.571 314.897L203.518 324.217L194.199 318.165L200.251 308.845Z" />
<path d="M170.852 310.283L178.71 318.141L170.852 325.999L162.995 318.141L170.852 310.283Z" />
<path d="M141.797 305.577L147.849 314.897L138.529 320.95L132.477 311.63L141.797 305.577Z" />
<path d="M114.355 294.934L118.337 305.308L107.963 309.291L103.981 298.916L114.355 294.934Z" />
<path d="M89.7255 278.817L91.4639 289.793L80.4881 291.531L78.7498 280.556L89.7255 278.817Z" />
<path d="M68.9854 257.932L68.4038 269.03L57.3064 268.448L57.888 257.351L68.9854 257.932Z" />
<path d="M53.0403 233.191L50.1642 243.925L39.4302 241.049L42.3064 230.315L53.0403 233.191Z" />
<path d="M42.588 205.676L37.543 215.577L27.6417 210.532L32.6867 200.631L42.588 205.676Z" />
<path d="M38.0846 176.588L31.0913 185.224L22.4552 178.231L29.4485 169.595L38.0846 176.588Z" />
<path d="M39.7275 147.2L31.0914 154.194L24.098 145.558L32.7341 138.564L39.7275 147.2Z" />
<path d="M47.4442 118.796L37.5428 123.841L32.4978 113.94L42.3992 108.895L47.4442 118.796Z" />
<path d="M60.8981 92.6169L50.1642 95.493L47.2881 84.7591L58.022 81.8829L60.8981 92.6169Z" />
<path d="M79.501 69.807L68.4036 70.3886L67.822 59.2913L78.9194 58.7097L79.501 69.807Z" />
<path d="M102.44 51.3634L91.4639 49.6251L93.2023 38.6493L104.178 40.3877L102.44 51.3634Z" />
<path d="M128.712 38.0923L118.337 34.1099L122.32 23.7354L132.694 27.7178L128.712 38.0923Z" />
<path d="M157.169 30.5732L147.849 24.5209L153.902 15.2011L163.222 21.2534L157.169 30.5732Z" />
<path d="M186.568 29.1348L178.71 21.2771L186.568 13.4193L194.426 21.2771L186.568 29.1348Z" />
<path d="M215.623 33.8404L209.571 24.5207L218.891 18.4683L224.943 27.7881L215.623 33.8404Z" />
<path d="M243.065 44.4842L239.083 34.1097L249.457 30.1273L253.44 40.5018L243.065 44.4842Z" />
<path d="M267.694 60.6008L265.956 49.625L276.932 47.8867L278.67 58.8624L267.694 60.6008Z" />
<path d="M288.435 81.486L289.016 70.3886L300.114 70.9702L299.532 82.0676L288.435 81.486Z" />
<path d="M304.38 106.227L307.256 95.493L317.99 98.3692L315.114 109.103L304.38 106.227Z" />
</svg>
