<svg width="358" height="338" viewBox="0 0 358 338" fill="none" xmlns="http://www.w3.org/2000/svg">
<path d="M257.443 109.293L205.506 68L100.556 88.9466V184.689L152.512 226L257.443 205.053V109.293ZM195.12 83.1255V110.799L211.001 107.629V90.2678L233.947 108.507L157.366 123.79L124.053 97.3085L195.12 83.1255ZM116.438 109.145L146.989 133.427V162.412L162.871 159.243V135.746L241.553 120.038V184.865L211.001 160.582V131.597L195.12 134.767V158.263L116.438 173.971V109.145ZM162.88 210.875V183.201L146.998 186.371V203.732L124.053 185.493L200.634 170.21L233.947 196.691L162.88 210.875Z" fill="url(#paint0_linear_629_99726)"/>
<path d="M110.239 257.267C111.303 256.351 111.841 255.059 111.841 253.425V251.521C111.841 249.566 111.339 248.139 110.352 247.279C109.375 246.432 107.846 246 105.801 246H99.2295V269.993H106.202C108.293 269.993 109.827 269.561 110.757 268.71C111.696 267.851 112.173 266.404 112.173 264.408V261.403C112.173 259.536 111.524 258.144 110.239 257.265V257.267ZM102.746 259.01H106.536C107.19 259.01 107.699 259.194 108.086 259.573C108.47 259.949 108.659 260.45 108.659 261.105V264.745C108.659 265.5 108.489 266.049 108.152 266.377C107.814 266.707 107.259 266.873 106.501 266.873H102.746V259.01ZM108.325 253.759C108.325 254.412 108.127 254.918 107.722 255.306C107.312 255.698 106.815 255.887 106.202 255.887H102.746V249.125H106.202C106.96 249.125 107.508 249.286 107.837 249.605C108.162 249.921 108.327 250.466 108.327 251.221V253.759H108.325Z" fill="#A3C0FF"/>
<path d="M123.562 266.716C123.456 266.624 123.401 266.444 123.401 266.181V246.002H115.054V249.125H119.952V266.347C119.952 267.588 120.269 268.516 120.898 269.109C121.52 269.695 122.259 269.996 123.092 269.996H128.999V266.873H124.26C123.809 266.873 123.631 266.774 123.562 266.716Z" fill="#A3C0FF"/>
<path d="M138.887 252.681H137.788C135.785 252.681 134.274 253.136 133.298 254.032C132.315 254.934 131.815 256.383 131.815 258.333V264.343C131.815 266.296 132.315 267.743 133.298 268.645C134.274 269.541 135.785 269.995 137.788 269.995H138.887C140.89 269.995 142.4 269.541 143.377 268.645C144.36 267.743 144.86 266.296 144.86 264.343V258.333C144.86 256.383 144.36 254.936 143.377 254.032C142.4 253.136 140.89 252.681 138.887 252.681ZM135.264 257.666C135.264 257.064 135.437 256.614 135.794 256.293C136.156 255.968 136.715 255.804 137.454 255.804H139.22C139.96 255.804 140.519 255.968 140.881 256.293C141.238 256.614 141.41 257.064 141.41 257.666V265.013C141.41 265.615 141.238 266.065 140.881 266.386C140.519 266.711 139.962 266.875 139.22 266.875H137.454C136.713 266.875 136.156 266.711 135.794 266.386C135.437 266.065 135.264 265.617 135.264 265.013V257.666Z" fill="#A3C0FF"/>
<path d="M150.854 254.031C149.871 254.934 149.371 256.383 149.371 258.333V264.343C149.371 266.316 149.864 267.77 150.838 268.661C151.803 269.545 153.318 269.995 155.344 269.995H159.95V266.873H155.01C154.269 266.873 153.712 266.709 153.35 266.383C152.993 266.063 152.821 265.615 152.821 265.01V257.664C152.821 257.059 152.993 256.612 153.35 256.291C153.712 255.965 154.271 255.802 155.01 255.802H159.95V252.679H155.344C153.341 252.679 151.83 253.134 150.854 254.029V254.031Z" fill="#A3C0FF"/>
<path d="M177.519 252.682H173.13L168.347 258.117V246.002H164.898V269.996H168.347V262.656L168.859 262.063L173.628 269.996H177.855L171.419 259.601L177.519 252.682Z" fill="#A3C0FF"/>
<path d="M187.962 255.986H186.963C186.332 255.986 185.839 255.793 185.45 255.396C185.061 254.996 184.872 254.505 184.872 253.893V251.354C184.872 250.748 185.091 250.24 185.542 249.808C185.998 249.372 186.583 249.16 187.329 249.16H192.736V246.002H187.663C185.659 246.002 184.094 246.508 183.007 247.503C181.913 248.507 181.358 250.016 181.358 251.989V253.259C181.358 255.181 181.869 256.677 182.88 257.701C183.891 258.726 185.275 259.245 186.997 259.245H187.997C188.595 259.245 189.024 259.411 189.309 259.753C189.609 260.111 189.754 260.577 189.754 261.175V264.648C189.754 265.255 189.535 265.763 189.084 266.194C188.628 266.631 188.043 266.843 187.297 266.843H181.924V270H186.965C188.968 270 190.534 269.495 191.621 268.5C192.715 267.498 193.27 265.989 193.27 264.013V261.809C193.27 259.889 192.798 258.424 191.867 257.454C190.933 256.483 189.62 255.991 187.964 255.991L187.962 255.986Z" fill="#A3C0FF"/>
<path d="M206.411 265.43C206.37 265.802 206.209 266.13 205.916 266.434C205.633 266.727 205.175 266.875 204.555 266.875H202.757C202.17 266.875 201.723 266.714 201.391 266.381C201.06 266.049 200.899 265.601 200.899 265.013V252.681H197.449V264.343C197.449 266.293 197.924 267.738 198.861 268.641C199.793 269.541 201.216 269.995 203.089 269.995H204.221C205.106 269.995 205.898 269.818 206.579 269.465V269.995H209.861V252.681H206.411V265.43Z" fill="#A3C0FF"/>
<path d="M221.853 246.002H218.072V249.626H221.853V246.002Z" fill="#A3C0FF"/>
<path d="M221.688 252.681H213.34V255.804H218.238V269.995H226.618V266.873H221.688V252.681Z" fill="#A3C0FF"/>
<path d="M237.18 248.675H233.731V252.681H230.564V255.804H233.731V265.68C233.731 266.949 234.058 267.992 234.7 268.781C235.359 269.589 236.312 269.998 237.537 269.998H242.043V266.875H238.371C237.935 266.875 237.62 266.797 237.433 266.644C237.265 266.506 237.18 266.238 237.18 265.848V255.806H242.043V252.684H237.18V248.677V248.675Z" fill="#A3C0FF"/>
<path d="M258.77 262.815V258.165C258.77 256.402 258.333 255.033 257.471 254.098C256.603 253.157 255.323 252.679 253.663 252.679H252.097C250.11 252.679 248.659 253.124 247.782 254.006C246.904 254.885 246.458 256.342 246.458 258.331V264.341C246.458 266.314 246.95 267.768 247.924 268.659C248.889 269.543 250.404 269.993 252.431 269.993H257.704V266.87H252.097C251.355 266.87 250.798 266.706 250.437 266.381C250.08 266.06 249.907 265.613 249.907 265.008V262.813H258.77V262.815ZM251.765 255.804H253.697C254.195 255.804 254.591 255.961 254.911 256.282C255.231 256.602 255.387 257.002 255.387 257.5V259.695H249.907V257.666C249.907 257.034 250.043 256.559 250.312 256.252C250.572 255.956 251.058 255.806 251.763 255.806L251.765 255.804Z" fill="#A3C0FF"/>
<defs>
<linearGradient id="paint0_linear_629_99726" x1="179" y1="68" x2="179" y2="226" gradientUnits="userSpaceOnUse">
<stop stop-color="#28B2FF"/>
<stop offset="1" stop-color="#7000FF"/>
</linearGradient>
<linearGradient id="paint1_linear_629_99726" x1="179" y1="0" x2="179" y2="338" gradientUnits="userSpaceOnUse">
<stop stop-color="#5F5F5F"/>
<stop offset="1" stop-color="#313131"/>
</linearGradient>
</defs>
</svg>
