<svg width="358" height="338" viewBox="0 0 358 338" fill="none" xmlns="http://www.w3.org/2000/svg">
<path d="M257.444 109.293L205.506 68L100.557 88.9466V184.689L152.513 226L257.444 205.053V109.293ZM195.12 83.1255V110.799L211.002 107.629V90.2678L233.948 108.507L157.366 123.79L124.053 97.3085L195.12 83.1255ZM116.438 109.145L146.99 133.427V162.412L162.871 159.243V135.746L241.553 120.038V184.865L211.002 160.582V131.597L195.12 134.767V158.263L116.438 173.971V109.145ZM162.88 210.875V183.201L146.999 186.371V203.732L124.053 185.493L200.634 170.21L233.948 196.691L162.88 210.875Z" fill="url(#paint0_linear_917_141447)"/>
<path d="M110.24 257.267C111.304 256.351 111.842 255.059 111.842 253.425V251.521C111.842 249.566 111.34 248.139 110.353 247.279C109.376 246.432 107.847 246 105.802 246H99.2305V269.993H106.203C108.294 269.993 109.828 269.561 110.758 268.71C111.697 267.851 112.174 266.404 112.174 264.408V261.403C112.174 259.536 111.525 258.144 110.24 257.265V257.267ZM102.747 259.01H106.537C107.191 259.01 107.7 259.194 108.087 259.573C108.471 259.949 108.66 260.45 108.66 261.105V264.745C108.66 265.5 108.49 266.049 108.153 266.377C107.815 266.707 107.26 266.873 106.502 266.873H102.747V259.01ZM108.326 253.759C108.326 254.412 108.128 254.918 107.723 255.306C107.313 255.698 106.816 255.887 106.203 255.887H102.747V249.125H106.203C106.961 249.125 107.509 249.286 107.838 249.605C108.163 249.921 108.328 250.466 108.328 251.221V253.759H108.326Z" fill="#A3C0FF"/>
<path d="M123.563 266.716C123.457 266.624 123.402 266.444 123.402 266.181V246.002H115.055V249.125H119.953V266.347C119.953 267.588 120.27 268.516 120.899 269.109C121.521 269.695 122.26 269.996 123.093 269.996H129V266.873H124.261C123.81 266.873 123.632 266.774 123.563 266.716Z" fill="#A3C0FF"/>
<path d="M138.888 252.681H137.79C135.786 252.681 134.276 253.136 133.299 254.032C132.316 254.934 131.816 256.383 131.816 258.333V264.343C131.816 266.296 132.316 267.743 133.299 268.645C134.276 269.541 135.786 269.995 137.79 269.995H138.888C140.891 269.995 142.402 269.541 143.378 268.645C144.362 267.743 144.861 266.296 144.861 264.343V258.333C144.861 256.383 144.362 254.936 143.378 254.032C142.402 253.136 140.891 252.681 138.888 252.681ZM135.266 257.666C135.266 257.064 135.439 256.614 135.795 256.293C136.157 255.968 136.717 255.804 137.456 255.804H139.222C139.961 255.804 140.521 255.968 140.882 256.293C141.239 256.614 141.412 257.064 141.412 257.666V265.013C141.412 265.615 141.239 266.065 140.882 266.386C140.521 266.711 139.963 266.875 139.222 266.875H137.456C136.714 266.875 136.157 266.711 135.795 266.386C135.439 266.065 135.266 265.617 135.266 265.013V257.666Z" fill="#A3C0FF"/>
<path d="M150.854 254.031C149.871 254.934 149.371 256.383 149.371 258.333V264.343C149.371 266.316 149.864 267.77 150.838 268.661C151.803 269.545 153.318 269.995 155.344 269.995H159.95V266.873H155.01C154.269 266.873 153.712 266.709 153.35 266.383C152.993 266.063 152.821 265.615 152.821 265.01V257.664C152.821 257.059 152.993 256.612 153.35 256.291C153.712 255.965 154.271 255.802 155.01 255.802H159.95V252.679H155.344C153.341 252.679 151.83 253.134 150.854 254.029V254.031Z" fill="#A3C0FF"/>
<path d="M177.52 252.682H173.131L168.348 258.117V246.002H164.898V269.996H168.348V262.656L168.859 262.063L173.628 269.996H177.856L171.42 259.601L177.52 252.682Z" fill="#A3C0FF"/>
<path d="M187.964 255.986H186.964C186.333 255.986 185.84 255.793 185.451 255.396C185.062 254.996 184.873 254.505 184.873 253.893V251.354C184.873 250.748 185.092 250.24 185.543 249.808C185.999 249.372 186.584 249.16 187.33 249.16H192.737V246.002H187.664C185.661 246.002 184.095 246.508 183.008 247.503C181.914 248.507 181.359 250.016 181.359 251.989V253.259C181.359 255.181 181.871 256.677 182.881 257.701C183.892 258.726 185.276 259.245 186.999 259.245H187.998C188.597 259.245 189.025 259.411 189.311 259.753C189.61 260.111 189.755 260.577 189.755 261.175V264.648C189.755 265.255 189.536 265.763 189.085 266.194C188.629 266.631 188.044 266.843 187.298 266.843H181.926V270H186.966C188.97 270 190.536 269.495 191.623 268.5C192.716 267.498 193.271 265.989 193.271 264.013V261.809C193.271 259.889 192.799 258.424 191.869 257.454C190.934 256.483 189.621 255.991 187.966 255.991L187.964 255.986Z" fill="#A3C0FF"/>
<path d="M206.411 265.43C206.37 265.802 206.209 266.13 205.916 266.434C205.633 266.727 205.175 266.875 204.555 266.875H202.757C202.17 266.875 201.723 266.714 201.391 266.381C201.06 266.049 200.899 265.601 200.899 265.013V252.681H197.449V264.343C197.449 266.293 197.924 267.738 198.861 268.641C199.793 269.541 201.216 269.995 203.089 269.995H204.221C205.106 269.995 205.898 269.818 206.579 269.465V269.995H209.861V252.681H206.411V265.43Z" fill="#A3C0FF"/>
<path d="M221.853 246.002H218.072V249.626H221.853V246.002Z" fill="#A3C0FF"/>
<path d="M221.689 252.681H213.342V255.804H218.24V269.995H226.619V266.873H221.689V252.681Z" fill="#A3C0FF"/>
<path d="M237.18 248.675H233.731V252.681H230.564V255.804H233.731V265.68C233.731 266.949 234.058 267.992 234.7 268.781C235.359 269.589 236.312 269.998 237.537 269.998H242.043V266.875H238.371C237.935 266.875 237.62 266.797 237.433 266.644C237.265 266.506 237.18 266.238 237.18 265.848V255.806H242.043V252.684H237.18V248.677V248.675Z" fill="#A3C0FF"/>
<path d="M258.772 262.815V258.165C258.772 256.402 258.334 255.033 257.473 254.098C256.605 253.157 255.324 252.679 253.664 252.679H252.098C250.111 252.679 248.66 253.124 247.783 254.006C246.906 254.885 246.459 256.342 246.459 258.331V264.341C246.459 266.314 246.952 267.768 247.926 268.659C248.891 269.543 250.406 269.993 252.432 269.993H257.705V266.87H252.098C251.357 266.87 250.8 266.706 250.438 266.381C250.081 266.06 249.908 265.613 249.908 265.008V262.813H258.772V262.815ZM251.767 255.804H253.699C254.196 255.804 254.592 255.961 254.912 256.282C255.232 256.602 255.389 257.002 255.389 257.5V259.695H249.908V257.666C249.908 257.034 250.044 256.559 250.314 256.252C250.574 255.956 251.06 255.806 251.764 255.806L251.767 255.804Z" fill="#A3C0FF"/>
<defs>
<linearGradient id="paint0_linear_917_141447" x1="179" y1="68" x2="179" y2="226" gradientUnits="userSpaceOnUse">
<stop stop-color="#28B2FF"/>
<stop offset="1" stop-color="#7000FF"/>
</linearGradient>
</defs>
</svg>
