<svg width="435" height="395" viewBox="0 0 435 395" fill="none" xmlns="http://www.w3.org/2000/svg">
<path d="M374.989 268.959L387.213 263.355L392.817 275.579L380.593 281.183L374.989 268.959Z" />
<path d="M357.412 299.938L370.534 296.998L373.474 310.119L360.352 313.06L357.412 299.938Z" />
<path d="M333.778 326.585L347.225 326.437L347.372 339.883L333.926 340.031L333.778 326.585Z" />
<path d="M305.121 347.736L318.304 350.387L315.653 363.571L302.469 360.919L305.121 347.736Z" />
<path d="M272.692 362.466L285.036 367.8L279.701 380.144L267.357 374.81L272.692 362.466Z" />
<path d="M237.909 370.133L248.874 377.917L241.09 388.882L230.124 381.098L237.909 370.133Z" />
<path d="M202.292 370.399L211.399 380.293L201.505 389.4L192.398 379.507L202.292 370.399Z" />
<path d="M167.398 363.256L174.249 374.827L162.678 381.678L155.827 370.107L167.398 363.256Z" />
<path d="M134.752 349.013L139.047 361.755L126.305 366.051L122.009 353.308L134.752 349.013Z" />
<path d="M105.78 328.294L107.332 341.651L93.9751 343.204L92.4228 329.846L105.78 328.294Z" />
<path d="M81.7495 302.004L80.4908 315.392L67.1025 314.133L68.3613 300.745L81.7495 302.004Z" />
<path d="M63.7099 271.293L59.6951 284.127L46.8611 280.112L50.8759 267.278L63.7099 271.293Z" />
<path d="M52.4497 237.501L45.8543 249.22L34.1355 242.625L40.7309 230.906L52.4497 237.501Z" />
<path d="M48.4612 202.108L39.5735 212.199L29.482 203.312L38.3698 193.22L48.4612 202.108Z" />
<path d="M51.9186 166.658L41.1269 174.681L33.1038 163.889L43.8955 155.866L51.9186 166.658Z" />
<path d="M62.6709 132.702L50.447 138.306L44.843 126.082L57.0669 120.478L62.6709 132.702Z" />
<path d="M80.2481 101.723L67.1262 104.663L64.1861 91.5414L77.3081 88.6014L80.2481 101.723Z" />
<path d="M103.882 75.0765L90.4354 75.2241L90.2879 61.7776L103.734 61.6301L103.882 75.0765Z" />
<path d="M132.54 53.9252L119.356 51.2739L122.008 38.0905L135.191 40.7418L132.54 53.9252Z" />
<path d="M164.969 39.1946L152.625 33.8603L157.959 21.5163L170.303 26.8506L164.969 39.1946Z" />
<path d="M199.752 31.5283L188.786 23.7441L196.571 12.7789L207.536 20.5631L199.752 31.5283Z" />
<path d="M235.368 31.2613L226.261 21.3674L236.155 12.2602L245.262 22.1541L235.368 31.2613Z" />
<path d="M270.262 38.4056L263.411 26.8344L274.983 19.9833L281.834 31.5545L270.262 38.4056Z" />
<path d="M302.909 52.6483L298.613 39.9056L311.356 35.61L315.651 48.3528L302.909 52.6483Z" />
<path d="M331.88 73.367L330.328 60.0097L343.685 58.4573L345.238 71.8147L331.88 73.367Z" />
<path d="M355.911 99.6568L357.17 86.2686L370.558 87.5273L369.299 100.916L355.911 99.6568Z" />
<path d="M373.951 130.368L377.965 117.534L390.799 121.549L386.785 134.383L373.951 130.368Z" />
<path d="M385.211 164.159L391.806 152.441L403.525 159.036L396.929 170.755L385.211 164.159Z" />
<path d="M389.199 199.553L398.087 189.462L408.178 198.35L399.291 208.441L389.199 199.553Z" />
<path d="M385.742 235.003L396.533 226.98L404.557 237.771L393.765 245.794L385.742 235.003Z" />
</svg>
