<svg width="28" height="27" viewBox="0 0 28 27" fill="none" xmlns="http://www.w3.org/2000/svg">
<path fill-rule="evenodd" clip-rule="evenodd" d="M7.33333 3.88892C5.49238 3.88892 4 5.3813 4 7.22225V9.64649C4 11.4874 5.49238 12.9798 7.33333 12.9798H9.75758C11.5985 12.9798 13.0909 11.4874 13.0909 9.64649V7.22225C13.0909 5.3813 11.5985 3.88892 9.75758 3.88892H7.33333ZM5.81818 7.22225C5.81818 6.38545 6.49654 5.7071 7.33333 5.7071H9.75758C10.5944 5.7071 11.2727 6.38545 11.2727 7.22225V9.64649C11.2727 10.4833 10.5944 11.1616 9.75758 11.1616H7.33333C6.49654 11.1616 5.81818 10.4833 5.81818 9.64649V7.22225Z" fill="#ABABAB"/>
<path fill-rule="evenodd" clip-rule="evenodd" d="M7.33333 14.798C5.49238 14.798 4 16.2904 4 18.1313V20.5556C4 22.3965 5.49238 23.8889 7.33333 23.8889H9.75758C11.5985 23.8889 13.0909 22.3965 13.0909 20.5556V18.1313C13.0909 16.2904 11.5985 14.798 9.75758 14.798H7.33333ZM5.81818 18.1313C5.81818 17.2945 6.49654 16.6162 7.33333 16.6162H9.75758C10.5944 16.6162 11.2727 17.2945 11.2727 18.1313V20.5556C11.2727 21.3924 10.5944 22.0707 9.75758 22.0707H7.33333C6.49654 22.0707 5.81818 21.3924 5.81818 20.5556V18.1313Z" fill="#ABABAB"/>
<path fill-rule="evenodd" clip-rule="evenodd" d="M14.9091 7.22225C14.9091 5.3813 16.4015 3.88892 18.2424 3.88892H20.6667C22.5076 3.88892 24 5.3813 24 7.22225V9.64649C24 11.4874 22.5076 12.9798 20.6667 12.9798H18.2424C16.4015 12.9798 14.9091 11.4874 14.9091 9.64649V7.22225ZM18.2424 5.7071C17.4056 5.7071 16.7273 6.38545 16.7273 7.22225V9.64649C16.7273 10.4833 17.4056 11.1616 18.2424 11.1616H20.6667C21.5035 11.1616 22.1818 10.4833 22.1818 9.64649V7.22225C22.1818 6.38545 21.5035 5.7071 20.6667 5.7071H18.2424Z" fill="#ABABAB"/>
<path d="M20.3636 15.7071C20.3636 15.205 19.9566 14.798 19.4545 14.798C18.9525 14.798 18.5455 15.205 18.5455 15.7071V18.4344H15.8182C15.3161 18.4344 14.9091 18.8414 14.9091 19.3435C14.9091 19.8455 15.3161 20.2526 15.8182 20.2526H18.5455V22.9798C18.5455 23.4819 18.9525 23.8889 19.4545 23.8889C19.9566 23.8889 20.3636 23.4819 20.3636 22.9798V20.2526H23.0909C23.593 20.2526 24 19.8455 24 19.3435C24 18.8414 23.593 18.4344 23.0909 18.4344H20.3636V15.7071Z" fill="#ABABAB"/>
</svg>
