<svg width="27" height="27" viewBox="0 0 27 27" fill="none" xmlns="http://www.w3.org/2000/svg">
<path d="M19.0407 10.0889C19.3529 9.75068 19.3318 9.22346 18.9936 8.91129C18.6554 8.59912 18.1282 8.62021 17.8161 8.95839L12.6901 14.5116L10.4462 12.2677C10.1208 11.9423 9.59315 11.9423 9.26771 12.2677C8.94227 12.5931 8.94227 13.1208 9.26771 13.4462L12.1249 16.3034C12.2852 16.4637 12.504 16.5518 12.7308 16.5473C12.9575 16.5427 13.1726 16.446 13.3264 16.2793L19.0407 10.0889Z" fill="#ABABAB"/>
<path fill-rule="evenodd" clip-rule="evenodd" d="M7.31727 3.92847C5.62974 3.92847 4.26172 5.29649 4.26172 6.98402V19.6824C4.26172 21.37 5.62974 22.738 7.31728 22.738H20.0157C21.7032 22.738 23.0712 21.37 23.0712 19.6824V6.98402C23.0712 5.29649 21.7032 3.92847 20.0157 3.92847H7.31727ZM5.92839 6.98402C5.92839 6.21696 6.55021 5.59513 7.31727 5.59513H20.0157C20.7827 5.59513 21.4046 6.21696 21.4046 6.98402V19.6824C21.4046 20.4495 20.7827 21.0713 20.0157 21.0713H7.31728C6.55021 21.0713 5.92839 20.4495 5.92839 19.6824V6.98402Z" fill="#ABABAB"/>
</svg>
