<svg width="65" height="65" viewBox="0 0 65 65" fill="none" xmlns="http://www.w3.org/2000/svg">
  <path d="M0 10.8333C0 4.85025 4.85025 0 10.8333 0H54.1667C60.1498 0 65 4.85025 65 10.8333V54.1667C65 60.1498 60.1497 65 54.1667 65H10.8333C4.85025 65 0 60.1497 0 54.1667V10.8333ZM50.3468 22.771C51.5006 21.6172 51.5006 19.7465 50.3468 18.5926C49.1929 17.4388 47.3222 17.4388 46.1684 18.5926L26.5909 38.1701L20.8013 32.3805C19.6475 31.2267 17.7768 31.2267 16.6229 32.3805C15.4691 33.5343 15.4691 35.4051 16.6229 36.5589L24.5017 44.4377C25.6556 45.5915 27.5263 45.5915 28.6801 44.4377L50.3468 22.771Z" fill="#1E96EB"/>
</svg>
