<svg width="24" height="25" viewBox="0 0 24 25" fill="none" xmlns="http://www.w3.org/2000/svg">
<g clip-path="url(#clip0_415_98899)">
<path fill-rule="evenodd" clip-rule="evenodd" d="M7 4.5C5.34315 4.5 4 5.84315 4 7.5V17.5C4 19.1569 5.34315 20.5 7 20.5H17C18.6569 20.5 20 19.1569 20 17.5V7.5C20 5.84315 18.6569 4.5 17 4.5H7ZM17.5665 10.0647C17.8785 9.75181 17.8776 9.24528 17.5647 8.93336C17.2518 8.62144 16.7453 8.62225 16.4334 8.93517L10.3547 15.0333L7.56666 12.2352C7.2548 11.9222 6.74827 11.9213 6.43529 12.2331C6.1223 12.545 6.12139 13.0515 6.43325 13.3645L9.64626 16.5891C10.037 16.9813 10.672 16.9814 11.0629 16.5893L17.5665 10.0647Z" fill="white"/>
</g>
<defs>
<clipPath id="clip0_415_98899">
<rect width="24" height="24" fill="white" transform="translate(0 0.5)"/>
</clipPath>
</defs>
</svg>
