<svg width="24" height="24" viewBox="0 0 24 24" fill="none" xmlns="http://www.w3.org/2000/svg">
<g>
<path id="Icon (Stroke)" fill-rule="evenodd" clip-rule="evenodd" d="M3.78363 11.25H7.68406C7.87297 8.61021 8.77948 6.07891 10.2955 3.92629C6.79494 4.66163 4.1111 7.61608 3.78363 11.25ZM12 4.15338C10.3754 6.18412 9.39548 8.65632 9.18835 11.25H14.8117C14.6045 8.65632 13.6246 6.18412 12 4.15338ZM14.8117 12.75C14.6045 15.3437 13.6246 17.8159 12 19.8466C10.3754 17.8159 9.39548 15.3437 9.18835 12.75H14.8117ZM7.68406 12.75H3.78363C4.1111 16.3839 6.79493 19.3384 10.2955 20.0737C8.77947 17.9211 7.87297 15.3898 7.68406 12.75ZM13.7045 20.0737C15.2205 17.9211 16.127 15.3898 16.3159 12.75H20.2164C19.8889 16.3839 17.2051 19.3384 13.7045 20.0737ZM20.2164 11.25H16.3159C16.127 8.61021 15.2205 6.0789 13.7045 3.92629C17.2051 4.66163 19.8889 7.61608 20.2164 11.25ZM2.25 12C2.25 6.61522 6.61522 2.25 12 2.25C17.3848 2.25 21.75 6.61522 21.75 12C21.75 17.3848 17.3848 21.75 12 21.75C6.61522 21.75 2.25 17.3848 2.25 12Z" fill="currentColor" />
</g>
</svg>
