<svg width="25" height="24" viewBox="0 0 25 24" fill="none" xmlns="http://www.w3.org/2000/svg">
<path d="M10.9062 4.63638C11.0406 4.39393 11.2978 4.24538 11.575 4.25011C14.9201 4.3072 17.9831 6.51051 18.9495 9.87701C20.1328 13.9992 17.7193 18.2835 13.5741 19.4528C10.1873 20.4082 6.68473 18.9925 4.87083 16.1968C4.71994 15.9642 4.70964 15.6674 4.84404 15.4249C4.97844 15.1825 5.23562 15.0339 5.5128 15.0387C6.11898 15.049 6.73763 14.9722 7.35284 14.7987C9.59661 14.1658 10.9234 13.2445 11.582 12.0723C12.2398 10.9016 12.3314 9.30187 11.6937 7.08047C11.5191 6.4725 11.2601 5.91233 10.933 5.40822C10.7821 5.17566 10.7718 4.87884 10.9062 4.63638Z" fill="white"/>
</svg>
