<svg width="272" height="272" viewBox="0 0 272 272" fill="none" xmlns="http://www.w3.org/2000/svg">
<g opacity="0.8">
<path d="M180.8 237.3H219.22C225.549 237.3 228.713 237.3 231.13 236.069C233.256 234.985 234.985 233.257 236.068 231.13C237.3 228.713 237.3 225.549 237.3 219.22V51.9803C237.3 45.6517 237.3 42.4874 236.068 40.0702C234.985 37.944 233.256 36.2153 231.13 35.132C228.713 33.9003 225.549 33.9003 219.22 33.9003H153.68C147.351 33.9003 144.187 33.9003 141.77 35.132C139.644 36.2153 137.915 37.944 136.832 40.0702C135.6 42.4874 135.6 45.6517 135.6 51.9803V67.8003M113 203.4V237.3M79.0999 237.3H146.9M70.0599 203.4H155.94C168.597 203.4 174.926 203.4 179.76 200.937C184.013 198.77 187.47 195.313 189.637 191.061C192.1 186.226 192.1 179.898 192.1 167.24V103.96C192.1 91.3031 192.1 84.9745 189.637 80.1401C187.47 75.8877 184.013 72.4303 179.76 70.2636C174.926 67.8003 168.597 67.8003 155.94 67.8003H70.0599C57.4027 67.8003 51.0742 67.8003 46.2397 70.2636C41.9873 72.4303 38.5299 75.8877 36.3632 80.1401C33.8999 84.9745 33.8999 91.3031 33.8999 103.96V167.24C33.8999 179.898 33.8999 186.226 36.3632 191.061C38.5299 195.313 41.9873 198.77 46.2397 200.937C51.0742 203.4 57.4027 203.4 70.0599 203.4Z" stroke="url(#paint0_linear_745_105832)" stroke-opacity="0.5" stroke-width="24.3478" stroke-linecap="round"/>
</g>
<defs>
<linearGradient id="paint0_linear_745_105832" x1="135.6" y1="33.9003" x2="135.6" y2="237.3" gradientUnits="userSpaceOnUse">
<stop stop-color="var(--primary)"/>
<stop offset="1" stop-color="var(--primary)" stop-opacity="0.36"/>
</linearGradient>
</defs>
</svg>
