<svg width="24" height="24" viewBox="0 0 24 24" fill="none" xmlns="http://www.w3.org/2000/svg">
<path fill-rule="evenodd" clip-rule="evenodd" d="M19.2648 5.32456C17.9287 4.71148 16.4959 4.25979 14.9978 4.00109C14.9705 3.99609 14.9432 4.00857 14.9292 4.03353C14.7449 4.36127 14.5408 4.78884 14.3979 5.1249C12.7866 4.88367 11.1835 4.88367 9.60528 5.1249C9.46231 4.78137 9.25079 4.36127 9.06569 4.03353C9.05163 4.0094 9.02438 3.99692 8.9971 4.00109C7.49983 4.25896 6.06701 4.71065 4.73004 5.32456C4.71847 5.32955 4.70855 5.33787 4.70196 5.34868C1.98422 9.40893 1.23971 13.3694 1.60494 17.2807C1.6066 17.2999 1.61734 17.3182 1.63221 17.3298C3.4253 18.6466 5.16222 19.446 6.86688 19.9759C6.89416 19.9842 6.92306 19.9743 6.94043 19.9518C7.34366 19.4011 7.70311 18.8205 8.01131 18.2099C8.0295 18.1741 8.01214 18.1317 7.97496 18.1176C7.40481 17.9013 6.86192 17.6376 6.33969 17.3381C6.29838 17.314 6.29507 17.2549 6.33307 17.2266C6.44297 17.1443 6.5529 17.0586 6.65783 16.9721C6.67682 16.9563 6.70327 16.953 6.72559 16.963C10.1564 18.5293 13.8707 18.5293 17.261 16.963C17.2833 16.9521 17.3098 16.9555 17.3296 16.9713C17.4346 17.0578 17.5445 17.1443 17.6552 17.2266C17.6932 17.2549 17.6907 17.314 17.6494 17.3381C17.1272 17.6434 16.5843 17.9013 16.0133 18.1167C15.9761 18.1309 15.9596 18.1741 15.9778 18.2099C16.2926 18.8196 16.652 19.4003 17.0478 19.951C17.0644 19.9743 17.0941 19.9842 17.1214 19.9759C18.8343 19.446 20.5712 18.6466 22.3643 17.3298C22.38 17.3182 22.3899 17.3007 22.3916 17.2816C22.8287 12.7596 21.6595 8.83164 19.2921 5.34951C19.2863 5.33787 19.2764 5.32955 19.2648 5.32456ZM8.52365 14.8991C7.49073 14.8991 6.63964 13.9508 6.63964 12.7862C6.63964 11.6216 7.47423 10.6734 8.52365 10.6734C9.5813 10.6734 10.4242 11.63 10.4076 12.7862C10.4076 13.9508 9.57303 14.8991 8.52365 14.8991ZM15.4894 14.8991C14.4565 14.8991 13.6054 13.9508 13.6054 12.7862C13.6054 11.6216 14.44 10.6734 15.4894 10.6734C16.5471 10.6734 17.3899 11.63 17.3734 12.7862C17.3734 13.9508 16.5471 14.8991 15.4894 14.8991Z" fill="#77757D" />
</svg>
