<svg width="62" height="50" viewBox="0 0 62 50" fill="none" xmlns="http://www.w3.org/2000/svg">
<path d="M50.8141 6.81998C50.7983 6.78905 50.772 6.76482 50.7401 6.75162C47.0469 5.04348 43.1495 3.82544 39.1455 3.12799C39.1091 3.12117 39.0715 3.12609 39.0381 3.14204C39.0047 3.158 38.977 3.18418 38.9592 3.21685C38.4285 4.18784 37.9468 5.1852 37.5158 6.20514C33.1997 5.54467 28.8094 5.54467 24.4933 6.20514C24.0594 5.18261 23.5699 4.185 23.0271 3.21685C23.0084 3.18489 22.9807 3.15931 22.9474 3.14346C22.9142 3.12761 22.877 3.12222 22.8407 3.12799C18.8362 3.82398 14.9386 5.04211 11.2459 6.75172C11.2143 6.76523 11.1876 6.78829 11.1696 6.81773C3.78487 17.9347 1.76193 28.7784 2.75431 39.4878C2.75711 39.514 2.7651 39.5394 2.77784 39.5625C2.79057 39.5855 2.80777 39.6058 2.82842 39.622C7.12846 42.8316 11.9381 45.2814 17.0521 46.8671C17.0881 46.8779 17.1266 46.8774 17.1623 46.8656C17.198 46.8538 17.2293 46.8313 17.2519 46.801C18.3503 45.2945 19.3236 43.6992 20.1618 42.0313C20.1733 42.0084 20.1799 41.9833 20.1811 41.9577C20.1823 41.9321 20.1781 41.9065 20.1687 41.8826C20.1594 41.8587 20.1452 41.8371 20.127 41.8192C20.1087 41.8012 20.087 41.7874 20.0631 41.7786C18.5283 41.1866 17.0425 40.473 15.6196 39.6445C15.5938 39.6292 15.572 39.6077 15.5564 39.5819C15.5407 39.5561 15.5316 39.5268 15.5299 39.4967C15.5281 39.4665 15.5337 39.4364 15.5462 39.4089C15.5588 39.3814 15.5778 39.3575 15.6017 39.3392C15.9003 39.1137 16.199 38.8792 16.4841 38.6422C16.5094 38.6212 16.5401 38.6077 16.5726 38.6033C16.6051 38.5989 16.6382 38.6037 16.6682 38.6172C25.9904 42.906 36.0829 42.906 45.2947 38.6172C45.3248 38.6029 45.3582 38.5974 45.3912 38.6014C45.4242 38.6054 45.4554 38.6188 45.4811 38.64C45.7663 38.8769 46.065 39.1137 46.3658 39.3392C46.3898 39.3573 46.409 39.3811 46.4217 39.4084C46.4345 39.4358 46.4403 39.4659 46.4387 39.4961C46.4372 39.5262 46.4283 39.5556 46.4128 39.5815C46.3974 39.6073 46.3758 39.629 46.3501 39.6445C44.9304 40.48 43.4433 41.1931 41.9045 41.7763C41.8806 41.7855 41.8589 41.7996 41.8408 41.8178C41.8227 41.8361 41.8086 41.8579 41.7995 41.882C41.7903 41.906 41.7863 41.9318 41.7877 41.9575C41.7891 41.9832 41.7959 42.0084 41.8076 42.0313C42.6599 43.6899 43.6317 45.2832 44.7152 46.7984C44.7372 46.8295 44.7684 46.8528 44.8042 46.8651C44.8401 46.8773 44.8789 46.8779 44.9151 46.8668C50.0382 45.2865 54.8563 42.8364 59.1617 39.622C59.1827 39.6066 59.2001 39.5869 59.2129 39.5641C59.2257 39.5413 59.2335 39.5161 59.2358 39.49C60.4239 27.1088 57.2468 16.3541 50.8141 6.81998ZM21.554 32.9669C18.7473 32.9669 16.4347 30.3705 16.4347 27.1818C16.4347 23.9931 18.7025 21.3965 21.554 21.3965C24.4278 21.3965 26.718 24.0157 26.6731 27.1816C26.6731 30.3705 24.4053 32.9669 21.554 32.9669ZM40.4814 32.9669C37.6748 32.9669 35.3622 30.3705 35.3622 27.1818C35.3622 23.9931 37.63 21.3965 40.4814 21.3965C43.3554 21.3965 45.6455 24.0157 45.6007 27.1816C45.6007 30.3705 43.3554 32.9669 40.4814 32.9669Z" fill="white"/>
</svg>
