<svg width="28" height="28" viewBox="0 0 28 28" fill="none" xmlns="http://www.w3.org/2000/svg">
<path fill-rule="evenodd" clip-rule="evenodd" d="M2.6676 4.77771C2.6676 4.01131 3.2889 3.39001 4.0553 3.39001H23.8232C24.5896 3.39001 25.2109 4.01131 25.2109 4.77771V18.2429C25.2109 19.0093 24.5896 19.6306 23.8232 19.6306H17.1964L18.1195 22.5846H18.9531C19.403 22.5846 19.7678 22.9493 19.7678 23.3993C19.7678 23.8492 19.403 24.214 18.9531 24.214H9.06913C8.61918 24.214 8.25442 23.8492 8.25442 23.3993C8.25442 22.9493 8.61918 22.5846 9.06913 22.5846H9.75934L10.6825 19.6306H4.0553C3.2889 19.6306 2.6676 19.0093 2.6676 18.2429V4.77771ZM11.4665 22.5846H16.4124L15.4893 19.6306H12.3896L11.4665 22.5846ZM23.5815 18.0011H16.6872L16.6871 18.0008H16.0881H11.7908H11.1918L11.1917 18.0011H4.29702V5.01944H23.5815V18.0011Z" fill="#8E8D91"/>
</svg>
