<svg width="28" height="28" viewBox="0 0 28 28" fill="none" xmlns="http://www.w3.org/2000/svg">
<path fill-rule="evenodd" clip-rule="evenodd" d="M17.0216 3.40249C17.5171 2.78176 18.422 2.68028 19.0428 3.17582L23.9155 7.06588C24.5363 7.56142 24.6377 8.46634 24.1422 9.08707L12.9877 23.0595C12.7617 23.3426 12.4371 23.53 12.0789 23.5842L7.54185 24.2705C6.71347 24.3958 5.95376 23.7893 5.89246 22.9537L5.5567 18.3774C5.53019 18.0161 5.64103 17.658 5.86707 17.3749L17.0216 3.40249ZM18.185 4.65183L16.1821 7.16073L20.6633 10.7382L22.6662 8.22929L18.185 4.65183ZM19.6097 12.0579L15.1285 8.48045L7.24803 18.3517L7.55681 22.5603L11.7292 21.9292L19.6097 12.0579Z" fill="#8E8D91"/>
</svg>
