<svg width="153" height="10" viewBox="0 0 153 10" fill="none" xmlns="http://www.w3.org/2000/svg">
<path d="M1 3.34438C5.06953 2.80848 9.18761 2.71734 13.4396 2.57377C21.0451 2.31697 28.6619 2.05955 36.2804 1.87914C55.7919 1.41711 57.3274 1.38211 76.8458 1C81.5 1.00004 93 1.09663 100.5 1.6235C102.153 1.74715 106.873 1.8944 108.079 2.57862C109.668 3.48037 85 4.78488 85 4.78488L62.5 5.31176C52.0651 5.78936 42.1569 8.87299 31.6291 8.53666C26.6948 8.37902 81.0511 9.0047 86 8.99997C107.912 8.97905 130.078 7.33922 152 7.25168" stroke="white" stroke-width="2" stroke-linecap="round"  pathLength="1" />
</svg>
