<svg width="28" height="28" viewBox="0 0 28 28" fill="none" xmlns="http://www.w3.org/2000/svg">
<path fill-rule="evenodd" clip-rule="evenodd" d="M2.92883 7.3607C2.92883 5.62275 4.33772 4.21387 6.07567 4.21387H21.5678C23.3057 4.21387 24.7146 5.62275 24.7146 7.3607V11.787C24.7146 12.6499 24.3673 13.4317 23.8048 14.0002C24.3673 14.5687 24.7146 15.3504 24.7146 16.2133V20.6396C24.7146 22.3776 23.3057 23.7865 21.5678 23.7865H6.07567C4.33772 23.7865 2.92883 22.3776 2.92883 20.6396V16.2133C2.92883 15.3504 3.27614 14.5687 3.83859 14.0002C3.27614 13.4317 2.92883 12.6499 2.92883 11.787V7.3607ZM6.07567 14.9338C5.36903 14.9338 4.79619 15.5067 4.79619 16.2133V20.6396C4.79619 21.3463 5.36903 21.9191 6.07567 21.9191H21.5678C22.2744 21.9191 22.8472 21.3463 22.8472 20.6396V16.2133C22.8472 15.5067 22.2744 14.9338 21.5678 14.9338H6.07567ZM21.5678 13.0665C22.2744 13.0665 22.8472 12.4937 22.8472 11.787V7.3607C22.8472 6.65406 22.2744 6.08122 21.5678 6.08122H6.07567C5.36903 6.08122 4.79619 6.65406 4.79619 7.3607V11.787C4.79619 12.4937 5.36903 13.0665 6.07567 13.0665H21.5678ZM18.4209 9.57386C18.4209 9.0582 18.839 8.64018 19.3546 8.64018H19.3657C19.8813 8.64018 20.2993 9.0582 20.2993 9.57386C20.2993 10.0895 19.8813 10.5075 19.3657 10.5075H19.3546C18.839 10.5075 18.4209 10.0895 18.4209 9.57386ZM18.4209 18.4265C18.4209 17.9108 18.839 17.4928 19.3546 17.4928H19.3657C19.8813 17.4928 20.2993 17.9108 20.2993 18.4265C20.2993 18.9421 19.8813 19.3602 19.3657 19.3602H19.3546C18.839 19.3602 18.4209 18.9421 18.4209 18.4265Z" fill="#8E8D91"/>
</svg>
