<svg width="28" height="28" viewBox="0 0 28 28" fill="none" xmlns="http://www.w3.org/2000/svg">
<path fill-rule="evenodd" clip-rule="evenodd" d="M6.25671 8.80907C6.25671 7.88573 6.90544 6.90641 8.2647 6.1152C9.60474 5.33517 11.5069 4.828 13.6496 4.828C15.7923 4.828 17.6945 5.33517 19.0345 6.1152C20.3839 6.90065 21.033 7.8715 21.0424 8.78891V8.82922C21.033 9.74663 20.3839 10.7175 19.0345 11.5029C17.6945 12.283 15.7923 12.7901 13.6496 12.7901C11.5069 12.7901 9.60474 12.283 8.2647 11.5029C6.90544 10.7117 6.25671 9.7324 6.25671 8.80907ZM21.0424 11.9433C20.6761 12.2755 20.2598 12.5742 19.8104 12.8358C18.1956 13.7757 16.0157 14.3324 13.6496 14.3324C11.2835 14.3324 9.1036 13.7757 7.48885 12.8358C7.03935 12.5742 6.62292 12.2754 6.2566 11.9431V13.6833C6.2566 14.6067 6.90533 15.586 8.2646 16.3772C9.60464 17.1572 11.5068 17.6644 13.6495 17.6644C15.7922 17.6644 17.6944 17.1572 19.0344 16.3772C20.3937 15.586 21.0424 14.6067 21.0424 13.6833V11.9433ZM4.72258 8.56563C4.82888 6.97451 5.97009 5.66638 7.48885 4.78233C9.1036 3.8424 11.2835 3.28577 13.6496 3.28577C16.0157 3.28577 18.1956 3.8424 19.8104 4.78233C21.3291 5.66638 22.4703 6.97451 22.5766 8.56563H22.5846V8.78153C22.5847 8.7907 22.5847 8.79988 22.5847 8.80907C22.5847 8.81825 22.5847 8.82743 22.5846 8.8366V13.6833V18.5574C22.5846 20.2586 21.4058 21.6554 19.8102 22.5841C18.1955 23.5241 16.0156 24.0807 13.6495 24.0807C11.2834 24.0807 9.1035 23.5241 7.48875 22.5841C5.89322 21.6554 4.71438 20.2586 4.71438 18.5574V13.6833V8.56563H4.72258ZM6.2566 18.5574V16.8174C6.6229 17.1497 7.03929 17.4484 7.48875 17.7101C9.1035 18.65 11.2834 19.2066 13.6495 19.2066C16.0156 19.2066 18.1955 18.65 19.8102 17.7101C20.2597 17.4484 20.6761 17.1497 21.0424 16.8174V18.5574C21.0424 19.4807 20.3937 20.4601 19.0344 21.2513C17.6944 22.0313 15.7922 22.5385 13.6495 22.5385C11.5068 22.5385 9.60464 22.0313 8.2646 21.2513C6.90533 20.4601 6.2566 19.4807 6.2566 18.5574Z" fill="#8E8D91"/>
</svg>
