<svg width="102" height="16" viewBox="0 0 102 16" fill="none" xmlns="http://www.w3.org/2000/svg">
<path d="M2.11499 10.903C2.67067 10.4214 3.28407 9.88724 3.90462 9.49558C5.36483 8.57397 7.06302 7.88618 8.61325 7.15864C10.2101 6.40923 12.0001 5.36435 13.7736 5.03019C16.4969 4.51711 18.4874 6.46308 20.3675 8.12295C23.1931 10.6176 27.0879 14.189 31.2095 13.3876C32.8881 13.0612 34.4418 12.2963 36.0311 11.6935C40.5599 9.97569 45.1935 8.68752 49.8616 7.41057C53.1036 6.52373 56.4265 5.56302 59.7653 5.11707C61.2482 4.91902 63.2905 4.43259 64.7172 5.13445C66.3372 5.93139 67.5405 7.36255 68.8699 8.53995C70.9424 10.3756 73.3246 12.0224 76.0892 12.5275C78.1678 12.9073 80.0516 12.4831 81.9967 11.7022C85.0328 10.4833 87.9591 8.88957 90.8927 7.44532C93.7473 6.03999 96.6736 4.67521 99.2414 2.77144C99.3309 2.70507 100.345 1.63659 100.006 2.14594" stroke="url(#paint0_linear_1798_459907)" stroke-width="3" stroke-linecap="round" pathLength="1" />
<defs>
<linearGradient id="paint0_linear_1798_459907" x1="43.6319" y1="7.75557" x2="43.6698" y2="10.0667" gradientUnits="userSpaceOnUse">
<stop stop-color="#7ADFFF"/>
<stop offset="1" stop-color="#14AEC4"/>
</linearGradient>
</defs>
</svg>
