<svg width="217" height="73" viewBox="0 0 217 73" fill="none" xmlns="http://www.w3.org/2000/svg">
<path d="M105.107 59.7227C94.0374 60.0302 83.5763 60.6158 72.4693 59.139C62.1015 57.7605 51.608 55.1324 41.5343 52.3781C31.2448 49.5647 20.8194 46.3115 11.7181 40.6072C9.15742 39.0023 2.74752 35.7622 2.18467 32.1439C1.62609 28.553 6.70553 25.8436 9.09153 24.3615C17.4784 19.152 26.1497 15.7425 35.6489 13.0284C58.6574 6.45455 81.6166 3.14379 105.544 2.54653C130.324 1.92801 155.106 3.01253 179.526 7.53212C187.188 8.95037 194.753 10.9047 202.192 13.223C205.08 14.1231 208.012 15.0315 210.485 16.8223C216.346 21.0663 216.014 27.8275 212.187 33.5058C208.114 39.5502 201.17 43.307 194.385 45.5685C188.776 47.4382 182.762 48.5378 177.045 49.9461C165.914 52.688 154.792 55.4593 143.727 58.4581C113.755 66.5806 122.164 64.594 91.3569 69.0039C83.8005 70.0855 76.2553 70.9025 68.6421 71.3872" stroke="url(#paint0_linear_1798_459909)" stroke-width="3" stroke-linecap="round" pathLength="1"/>
<defs>
<linearGradient id="paint0_linear_1798_459909" x1="92.3488" y1="36.8872" x2="92.976" y2="50.7369" gradientUnits="userSpaceOnUse">
<stop stop-color="#7ADFFF"/>
<stop offset="1" stop-color="#14AEC4"/>
</linearGradient>
</defs>
</svg>
