<svg width="102" height="58" viewBox="0 0 102 58" fill="none" xmlns="http://www.w3.org/2000/svg">
<path d="M100.142 51.3161C97.5678 51.5038 95.0823 52.1282 92.5218 52.4139C87.5774 52.9655 82.4952 52.7275 77.527 52.7275C59.766 52.7275 41.7166 52.6167 24.3078 49.1728C17.9199 47.9091 7.83218 46.3728 3.59778 41.4884C0.884268 38.3583 2.50739 33.8725 4.08941 30.7197C10.4464 18.0507 25.2677 10.7758 39.9171 6.2549C56.6871 1.07963 73.498 0.126997 88.558 9.49596C95.6345 13.8983 101.937 21.7572 98.3292 29.5696C96.3545 33.8454 89.995 37.298 85.7311 39.6326C77.2718 44.2644 67.9489 48.2095 58.5684 51.29C51.6301 53.5684 44.1346 55.5255 36.7215 56.2822C32.0277 56.7614 33.3716 55.5776 34.8779 53.198" stroke="url(#paint0_linear_1798_459908)" stroke-width="3" stroke-linecap="round" pathLength="1" />
<defs>
<linearGradient id="paint0_linear_1798_459908" x1="43.6758" y1="29.3872" x2="44.5069" y2="40.1844" gradientUnits="userSpaceOnUse">
<stop stop-color="#7ADFFF"/>
<stop offset="1" stop-color="#14AEC4"/>
</linearGradient>
</defs>
</svg>
