<svg width="86" height="40" viewBox="0 0 86 40" fill="none" xmlns="http://www.w3.org/2000/svg">
<path d="M1 31.3333C4.97207 24.1654 10.9822 17.9347 17.6786 13.365C27.0963 6.93834 37.992 2.00383 49.4362 1.25308C54.8207 0.899859 60.4457 0.931798 65.8264 1.25308C69.6503 1.48141 73.7373 2.61091 77.2077 4.27442C81.0113 6.09763 84.3169 8.59157 84.9045 13.0057C85.6881 18.8917 81.5088 22.8321 77.4437 26.5152C73.6695 29.9347 69.5479 32.7495 64.7774 34.5011C61.735 35.6181 58.6792 36.4862 55.494 37.0832C50.5218 38.0151 45.3441 39.0166 40.2708 38.9998C33.0941 38.976 25.6444 38.5801 18.5834 37.2163C16.3581 36.7865 14.3262 35.7974 12.3682 34.6741C9.62734 33.1015 6.6637 30.8968 5.58925 27.7397C4.32929 24.0374 5.15005 19.9383 6.66444 16.4795" stroke="#1E96EB" stroke-width="2" stroke-linecap="round" pathLength="1"/>
</svg>
