<svg width="110" height="59" viewBox="0 0 110 59" fill="none" xmlns="http://www.w3.org/2000/svg">
<path d="M45.2301 57.3637C44.0607 55.6827 43.1276 53.7387 42.2074 51.9133C38.7135 44.9824 36.3418 37.4585 34.5318 29.9336C33.7933 26.8634 32.9099 23.5502 32.9014 20.3539C32.892 16.7765 33.9822 13.0178 35.4481 9.78646C37.0972 6.15102 40.2521 3.51819 44.1472 2.61061C45.9112 2.19958 46.602 2.22718 47.4197 3.81253C48.4647 5.8384 49.6982 7.90996 50.3353 10.1078C51.1036 12.7584 50.9578 15.3191 51.2397 17.9976C51.2927 18.5007 51.7227 18.3145 52.0132 18.1285C54.2069 16.7246 56.0526 14.8618 58.3204 13.5469C62.4722 11.1396 67.4018 8.93488 72.2556 8.65593C74.465 8.52895 76.8111 8.80471 78.9792 9.21524C80.7248 9.54578 82.3008 10.0845 83.1681 11.7381C83.6628 12.6813 83.7876 13.7927 83.8821 14.8322C84.2019 18.3505 83.8572 21.846 83.1681 25.3044C81.9464 31.4352 78.9242 36.741 73.8383 40.5367C70.6762 42.8966 66.911 44.2963 63.259 45.6776C59.9225 46.9395 56.544 48.093 53.12 49.093C52.2625 49.3434 50.6668 49.8665 49.9426 49.8665" stroke="#F16262" stroke-width="3" stroke-linecap="round" pathLength="1"/>
<path d="M95.8418 17.9395C96.4192 17.4198 97.224 17.2807 97.9305 16.9981C100.474 15.9808 102.968 14.9688 105.638 14.4976" stroke="#F16262" stroke-width="3" stroke-linecap="round" pathLength="1" style="--delay: 1.2s"/>
<path d="M97.4307 26.1471C100.233 25.8442 102.988 25.221 105.8 24.9557C106.079 24.9294 108.569 24.5214 108.286 25.0881" stroke="#F16262" stroke-width="3" stroke-linecap="round" pathLength="1" style="--delay: 1.2s"/>
<path d="M93.459 39.3855C98.0138 38.7349 102.555 38.9032 106.697 40.9741" stroke="#F16262" stroke-width="3" stroke-linecap="round" pathLength="1" style="--delay: 1.2s"/>
<path d="M5.29199 5.49561C7.85579 6.64931 10.7685 6.77302 13.235 8.14326" stroke="#F16262" stroke-width="3" stroke-linecap="round" pathLength="1" style="--delay: 0.6s"/>
<path d="M3.43872 19.2632C7.40798 19.4879 11.4159 20.1189 15.2796 21.0577C16.158 21.2712 16.8187 21.4 17.2065 22.1756" stroke="#F16262" stroke-width="3" stroke-linecap="round" pathLength="1" style="--delay: 0.6s"/>
<path d="M2.11499 34.62C7.79639 33.2342 13.2924 33.2894 19.06 34.0904" stroke="#F16262" stroke-width="3" stroke-linecap="round" pathLength="1" style="--delay: 0.6s"/>
</svg>
