<svg width="24" height="24" viewBox="0 0 24 24" fill="none" xmlns="http://www.w3.org/2000/svg">
<path fill-rule="evenodd" clip-rule="evenodd" d="M7.76602 4.20001H16.234C17.0452 4.2 17.7026 4.2 18.2356 4.24354C18.7853 4.28846 19.2727 4.38366 19.7252 4.61419C20.4402 4.97851 21.0215 5.55983 21.3858 6.27485C21.6164 6.72729 21.7116 7.21474 21.7565 7.76447C21.7621 7.83336 21.767 7.90433 21.7713 7.97744C21.7721 7.98843 21.7728 7.99942 21.7732 8.01041C21.8 8.49618 21.8 9.0753 21.8 9.76594V14.2341C21.8 15.0453 21.8 15.7026 21.7565 16.2356C21.7116 16.7853 21.6164 17.2727 21.3858 17.7252C21.0215 18.4402 20.4402 19.0215 19.7252 19.3858C19.2727 19.6164 18.7853 19.7116 18.2356 19.7565C17.7026 19.8 17.0452 19.8 16.234 19.8H7.76603C6.9548 19.8 6.29744 19.8 5.76447 19.7565C5.21474 19.7116 4.72729 19.6164 4.27485 19.3858C3.55983 19.0215 2.97851 18.4402 2.61419 17.7252C2.38366 17.2727 2.28846 16.7853 2.24354 16.2356C2.2 15.7026 2.2 15.0452 2.20001 14.234V9.76602C2.20001 9.05458 2.2 8.46148 2.22937 7.96684C2.22981 7.95601 2.23047 7.94517 2.23135 7.93433C2.23498 7.87635 2.23903 7.81974 2.24354 7.76447C2.28846 7.21474 2.38366 6.72729 2.61419 6.27485C2.97851 5.55983 3.55983 4.97851 4.27485 4.61419C4.72729 4.38366 5.21474 4.28846 5.76447 4.24354C6.29744 4.2 6.95479 4.2 7.76602 4.20001ZM3.80013 9.4776C3.80002 9.58077 3.80001 9.68815 3.80001 9.80001V14.2C3.80001 15.0533 3.80063 15.6451 3.83823 16.1053C3.87506 16.556 3.94335 16.8095 4.0398 16.9988C4.25072 17.4127 4.58728 17.7493 5.00123 17.9602C5.19053 18.0567 5.44398 18.125 5.89476 18.1618C6.35489 18.1994 6.94673 18.2 7.80001 18.2H16.2C17.0533 18.2 17.6451 18.1994 18.1053 18.1618C18.556 18.125 18.8095 18.0567 18.9988 17.9602C19.4127 17.7493 19.7493 17.4127 19.9602 16.9988C20.0567 16.8095 20.125 16.556 20.1618 16.1053C20.1994 15.6451 20.2 15.0533 20.2 14.2V9.80001C20.2 9.7026 20.2 9.60859 20.1999 9.51779L16.0122 12.3113C15.9677 12.3408 15.9238 12.37 15.8805 12.3988C14.7273 13.1659 13.9747 13.6664 13.1425 13.8654C12.4088 14.0408 11.6441 14.0408 10.9104 13.8654C10.0782 13.6664 9.32563 13.1659 8.17242 12.3988C8.12909 12.37 8.0852 12.3408 8.04071 12.3113L8.0391 12.3102L3.80013 9.4776ZM20.1348 7.63795C20.0953 7.34135 20.0366 7.15116 19.9602 7.00123C19.7493 6.58728 19.4127 6.25072 18.9988 6.0398C18.8095 5.94335 18.556 5.87506 18.1053 5.83823C17.6451 5.80063 17.0533 5.80001 16.2 5.80001H7.80001C6.94673 5.80001 6.35489 5.80063 5.89476 5.83823C5.44398 5.87506 5.19053 5.94335 5.00123 6.0398C4.58728 6.25072 4.25072 6.58728 4.0398 7.00123C3.96669 7.14471 3.90976 7.32506 3.87045 7.60025L8.92643 10.9788C8.92675 10.979 8.92706 10.9792 8.92737 10.9794C10.2595 11.8649 10.7623 12.1849 11.2824 12.3092C11.7715 12.4262 12.2814 12.4262 12.7705 12.3092C13.2906 12.1849 13.7935 11.8648 15.1259 10.9791C15.1258 10.9792 15.1261 10.979 15.1259 10.9791L20.1348 7.63795Z" fill="white"/>
</svg>
