<svg width="16" height="16" viewBox="0 0 16 16" fill="none" xmlns="http://www.w3.org/2000/svg">
<g clip-path="url(#clip0_268_55268)">
<path d="M5.35112 12.4187C5.35112 12.4812 5.27693 12.5312 5.18338 12.5312C5.07693 12.5406 5.00274 12.4906 5.00274 12.4187C5.00274 12.3562 5.07693 12.3062 5.17048 12.3062C5.26725 12.2969 5.35112 12.3469 5.35112 12.4187ZM4.3479 12.2781C4.32532 12.3406 4.38983 12.4125 4.48661 12.4312C4.57048 12.4625 4.66725 12.4312 4.68661 12.3687C4.70596 12.3062 4.64467 12.2344 4.5479 12.2062C4.46403 12.1844 4.37048 12.2156 4.3479 12.2781ZM5.77371 12.225C5.68016 12.2469 5.61564 12.3062 5.62532 12.3781C5.635 12.4406 5.71887 12.4812 5.81564 12.4594C5.90919 12.4375 5.9737 12.3781 5.96403 12.3156C5.95435 12.2562 5.86725 12.2156 5.77371 12.225ZM7.89629 0.25C3.42209 0.25 -0.000488281 3.54062 -0.000488281 7.875C-0.000488281 11.3406 2.25112 14.3062 5.46725 15.35C5.88016 15.4219 6.02532 15.175 6.02532 14.9719C6.02532 14.7781 6.01564 13.7094 6.01564 13.0531C6.01564 13.0531 3.75758 13.5219 3.28338 12.1219C3.28338 12.1219 2.91564 11.2125 2.38661 10.9781C2.38661 10.9781 1.6479 10.4875 2.43822 10.4969C2.43822 10.4969 3.24145 10.5594 3.68338 11.3031C4.38983 12.5094 5.57371 12.1625 6.035 11.9562C6.10919 11.4562 6.31887 11.1094 6.55112 10.9031C4.7479 10.7094 2.92854 10.4562 2.92854 7.45C2.92854 6.59062 3.17371 6.15937 3.68983 5.60937C3.60596 5.40625 3.33177 4.56875 3.77371 3.4875C4.4479 3.28437 5.99951 4.33125 5.99951 4.33125C6.64467 4.15625 7.33822 4.06562 8.02532 4.06562C8.71241 4.06562 9.40596 4.15625 10.0511 4.33125C10.0511 4.33125 11.6027 3.28125 12.2769 3.4875C12.7189 4.57187 12.4447 5.40625 12.3608 5.60937C12.8769 6.1625 13.1931 6.59375 13.1931 7.45C13.1931 10.4656 11.2931 10.7062 9.48983 10.9031C9.78661 11.15 10.0382 11.6187 10.0382 12.3531C10.0382 13.4062 10.0285 14.7094 10.0285 14.9656C10.0285 15.1687 10.1769 15.4156 10.5866 15.3437C13.8124 14.3062 15.9995 11.3406 15.9995 7.875C15.9995 3.54062 12.3705 0.25 7.89629 0.25ZM3.135 11.0281C3.09306 11.0594 3.10274 11.1312 3.15758 11.1906C3.20919 11.2406 3.28338 11.2625 3.32532 11.2219C3.36725 11.1906 3.35758 11.1187 3.30274 11.0594C3.25112 11.0094 3.17693 10.9875 3.135 11.0281ZM2.78661 10.775C2.76403 10.8156 2.79629 10.8656 2.8608 10.8969C2.91241 10.9281 2.97693 10.9187 2.99951 10.875C3.02209 10.8344 2.98983 10.7844 2.92532 10.7531C2.8608 10.7344 2.80919 10.7437 2.78661 10.775ZM3.83177 11.8875C3.78016 11.9281 3.79951 12.0219 3.87371 12.0812C3.9479 12.1531 4.04145 12.1625 4.08338 12.1125C4.12532 12.0719 4.10596 11.9781 4.04145 11.9187C3.97048 11.8469 3.87371 11.8375 3.83177 11.8875ZM3.46403 11.4281C3.41241 11.4594 3.41241 11.5406 3.46403 11.6125C3.51564 11.6844 3.60274 11.7156 3.64467 11.6844C3.69629 11.6437 3.69629 11.5625 3.64467 11.4906C3.59951 11.4187 3.51564 11.3875 3.46403 11.4281Z" fill="white"/>
</g>
<defs>
<clipPath id="clip0_268_55268">
<rect width="16" height="16" fill="white"/>
</clipPath>
</defs>
</svg>
