<svg width="24" height="24" viewBox="0 0 24 24" fill="none" xmlns="http://www.w3.org/2000/svg">
<path fill-rule="evenodd" clip-rule="evenodd" d="M15 6.25C13.4812 6.25 12.25 7.48122 12.25 9C12.25 10.5188 13.4812 11.75 15 11.75C16.5188 11.75 17.75 10.5188 17.75 9C17.75 7.48122 16.5188 6.25 15 6.25ZM13.75 9C13.75 8.30964 14.3096 7.75 15 7.75C15.6904 7.75 16.25 8.30964 16.25 9C16.25 9.69036 15.6904 10.25 15 10.25C14.3096 10.25 13.75 9.69036 13.75 9Z" />
<path fill-rule="evenodd" clip-rule="evenodd" d="M5 4.25C3.48122 4.25 2.25 5.48122 2.25 7V17C2.25 18.5188 3.48122 19.75 5 19.75H16.9863C16.9956 19.7502 17.0049 19.7502 17.0142 19.75H19C20.5188 19.75 21.75 18.5188 21.75 17V7C21.75 5.48122 20.5188 4.25 19 4.25H5ZM17.3356 18.25H19C19.4585 18.25 19.8593 18.0031 20.0769 17.6351L18.6231 16.1718C18.2208 15.7541 17.9502 15.4738 17.7245 15.275C17.5054 15.0819 17.3784 15.0117 17.2815 14.9786C17.0293 14.8926 16.7562 14.8895 16.5021 14.9697C16.4045 15.0005 16.276 15.0678 16.0524 15.2558C15.8542 15.4224 15.6213 15.6486 15.2976 15.9689L17.3356 18.25ZM20.25 15.681V7C20.25 6.30964 19.6904 5.75 19 5.75H5C4.30964 5.75 3.75 6.30964 3.75 7V17C3.75 17.1543 3.77795 17.302 3.82907 17.4385L7.50733 13.8054L7.52247 13.7897C7.89807 13.4008 8.21139 13.0763 8.48886 12.8325C8.7781 12.5783 9.07737 12.3666 9.43913 12.2436C9.99371 12.0551 10.594 12.0486 11.1525 12.2251C11.5168 12.3402 11.8206 12.5454 12.1153 12.7932C12.398 13.031 12.7182 13.3486 13.1022 13.7293L14.2639 14.8814C14.5765 14.5722 14.8455 14.3108 15.087 14.1077C15.382 13.8597 15.6861 13.6542 16.0508 13.5392C16.6099 13.3628 17.2107 13.3697 17.7656 13.5589C18.1276 13.6823 18.4269 13.8947 18.7161 14.1495C18.9936 14.3939 19.3068 14.7192 19.6824 15.1091L19.6996 15.127L20.25 15.681ZM5.142 18.25H15.3241L13.7197 16.4542L12.0677 14.816C11.6564 14.4081 11.3797 14.1346 11.1498 13.9412C10.9266 13.7535 10.7982 13.6862 10.7006 13.6554C10.4468 13.5752 10.1739 13.5781 9.92184 13.6638C9.825 13.6967 9.6981 13.7667 9.47895 13.9593C9.25327 14.1576 8.98257 14.4371 8.58019 14.8537L8.56773 14.8663L5.142 18.25Z"/>
</svg>
