<svg width="56" height="56" viewBox="0 0 56 56" fill="none" xmlns="http://www.w3.org/2000/svg">
<path d="M32.8755 38.7345L21.875 31.0625H18.8125V37.1875H6.5625V43.3125H18.8125V49.4375H21.875L32.8755 41.7655C34.125 40.9885 34.125 39.5115 32.8755 38.7345ZM48.741 18.1125L34.9265 4.2035C34.482 3.752 33.8765 3.5 33.2465 3.5H12.6875C10.7205 3.5 9.625 4.578 9.625 6.5625V28H15.75V9.625H31.0625V18.8125C31.0625 20.1355 32.8125 21.875 34.125 21.875H43.3125L43.3545 46.375H34.125V52.5H46.375C48.342 52.5 49.4375 51.422 49.4375 49.4375V19.8065C49.4375 19.1695 49.1855 18.5605 48.741 18.1125Z" fill="black"/>
</svg>
