<svg width="175" height="126" viewBox="0 0 175 126" fill="none" xmlns="http://www.w3.org/2000/svg">
<path d="M4.31338 17.5758C51.1179 48.0358 97.9224 78.1244 144.727 108.585C154.756 115.271 164.043 98.9264 154.014 92.6115C107.209 62.1515 60.4045 32.0629 13.6 1.60282C3.57045 -5.08354 -5.71616 10.8894 4.31338 17.5758Z" fill="#5F5F5F"/>
<path d="M34.4024 124.929C78.2352 125.3 121.697 125.3 165.529 125.672C171.473 125.672 176.302 119.728 174.444 113.785C165.529 84.0678 153.642 55.0936 139.898 27.2338C134.698 16.4614 118.353 26.1194 123.925 36.5204C137.298 62.8944 148.07 90.3827 156.614 118.985C159.586 114.899 162.558 111.185 165.529 107.099C121.697 106.727 78.2352 106.727 34.4024 106.356C22.5156 106.356 22.5156 124.929 34.4024 124.929Z" fill="#5F5F5F"/>
</svg>
