<svg width="39" height="40" viewBox="0 0 39 40" fill="none" xmlns="http://www.w3.org/2000/svg">
<path fill-rule="evenodd" clip-rule="evenodd" d="M31.5 20C31.5 26.6274 26.1274 32 19.5 32C12.8726 32 7.5 26.6274 7.5 20C7.5 13.3726 12.8726 8 19.5 8C26.1274 8 31.5 13.3726 31.5 20ZM33.5 20C33.5 27.732 27.232 34 19.5 34C11.768 34 5.5 27.732 5.5 20C5.5 12.268 11.768 6 19.5 6C27.232 6 33.5 12.268 33.5 20ZM19.5001 23.2309C21.2844 23.2309 22.7309 21.7844 22.7309 20.0001C22.7309 18.2158 21.2844 16.7693 19.5001 16.7693C17.7158 16.7693 16.2693 18.2158 16.2693 20.0001C16.2693 21.7844 17.7158 23.2309 19.5001 23.2309Z" fill="var(--color)"/>
</svg>
