<svg width="25" height="24" viewBox="0 0 25 24" fill="none" xmlns="http://www.w3.org/2000/svg">
<path fill-rule="evenodd" clip-rule="evenodd" d="M12.5 3.25C12.9142 3.25 13.25 3.58579 13.25 4V4.88889C13.25 5.3031 12.9142 5.63889 12.5 5.63889C12.0858 5.63889 11.75 5.3031 11.75 4.88889V4C11.75 3.58579 12.0858 3.25 12.5 3.25ZM6.19189 5.69189C6.48479 5.399 6.95966 5.399 7.25255 5.69189L7.97621 6.41555C8.2691 6.70844 8.2691 7.18332 7.97621 7.47621C7.68332 7.7691 7.20844 7.7691 6.91555 7.47621L6.19189 6.75255C5.899 6.45966 5.899 5.98479 6.19189 5.69189ZM18.8081 5.69188C19.101 5.98477 19.101 6.45964 18.8081 6.75254L18.0845 7.4762C17.7916 7.7691 17.3167 7.76911 17.0238 7.47622C16.7309 7.18333 16.7309 6.70846 17.0238 6.41556L17.7474 5.6919C18.0403 5.399 18.5152 5.39899 18.8081 5.69188ZM3.75 12C3.75 11.5858 4.08579 11.25 4.5 11.25H5.38889C5.8031 11.25 6.13889 11.5858 6.13889 12C6.13889 12.4142 5.8031 12.75 5.38889 12.75H4.5C4.08579 12.75 3.75 12.4142 3.75 12ZM18.8611 12C18.8611 11.5858 19.1969 11.25 19.6111 11.25H20.5C20.9142 11.25 21.25 11.5858 21.25 12C21.25 12.4142 20.9142 12.75 20.5 12.75H19.6111C19.1969 12.75 18.8611 12.4142 18.8611 12ZM7.97753 16.5288C8.26969 16.8224 8.26851 17.2973 7.97488 17.5894L7.25123 18.3095C6.9576 18.6016 6.48273 18.6005 6.19057 18.3068C5.89841 18.0132 5.89959 17.5383 6.19322 17.2462L6.91688 16.5261C7.2105 16.234 7.68537 16.2352 7.97753 16.5288ZM17.0225 16.5288C17.3146 16.2351 17.7895 16.234 18.0831 16.5261L18.8068 17.2462C19.1004 17.5384 19.1016 18.0132 18.8094 18.3068C18.5172 18.6005 18.0424 18.6016 17.7487 18.3095L17.0251 17.5894C16.7315 17.2973 16.7303 16.8224 17.0225 16.5288ZM12.5 18.3611C12.9142 18.3611 13.25 18.6969 13.25 19.1111V20C13.25 20.4142 12.9142 20.75 12.5 20.75C12.0858 20.75 11.75 20.4142 11.75 20V19.1111C11.75 18.6969 12.0858 18.3611 12.5 18.3611Z" fill="white"/>
<path fill-rule="evenodd" clip-rule="evenodd" d="M12.5 7.5C10.0147 7.5 8 9.51472 8 12C8 14.4853 10.0147 16.5 12.5 16.5C14.9853 16.5 17 14.4853 17 12C17 9.51472 14.9853 7.5 12.5 7.5Z" fill="white"/>
</svg>
