<svg width="24" height="25" viewBox="0 0 24 25" fill="none" xmlns="http://www.w3.org/2000/svg">
<path fill-rule="evenodd" clip-rule="evenodd" d="M18.4283 6.32173C17.3326 5.22609 15.5563 5.22609 14.4606 6.32173L13.4832 7.29916C13.1903 7.59205 12.7154 7.59205 12.4225 7.29916C12.1296 7.00627 12.1296 6.53139 12.4225 6.2385L13.4 5.26107C15.0814 3.57964 17.8075 3.57964 19.4889 5.26107C21.1704 6.94249 21.1704 9.66862 19.4889 11.35L15.9334 14.9056C14.252 16.587 11.5258 16.587 9.8444 14.9056C9.55151 14.6127 9.55151 14.1378 9.8444 13.8449C10.1373 13.552 10.6122 13.552 10.9051 13.8449C12.0007 14.9406 13.7771 14.9406 14.8727 13.8449L18.4283 10.2894C19.5239 9.19375 19.5239 7.41737 18.4283 6.32173ZM13.0949 11.6551C11.9993 10.5594 10.2229 10.5594 9.12728 11.6551L5.57173 15.2106C4.47609 16.3063 4.47609 18.0826 5.57173 19.1783C6.66737 20.2739 8.44375 20.2739 9.53938 19.1783L10.5185 18.1991C10.8114 17.9062 11.2863 17.9062 11.5792 18.1991C11.8721 18.492 11.8721 18.9669 11.5792 19.2598L10.6 20.2389C8.91862 21.9204 6.19249 21.9204 4.51107 20.2389C2.82964 18.5575 2.82964 15.8314 4.51107 14.15L8.06662 10.5944C9.74805 8.91298 12.4742 8.91298 14.1556 10.5944C14.4485 10.8873 14.4485 11.3622 14.1556 11.6551C13.8627 11.948 13.3878 11.948 13.0949 11.6551Z" fill="#1D67AF"/>
</svg>
