<svg width="25" height="24" viewBox="0 0 25 24" fill="none" xmlns="http://www.w3.org/2000/svg">
<path fill-rule="evenodd" clip-rule="evenodd" d="M8.73499 4.25H16.265C16.9849 4.24999 17.5705 4.24999 18.0459 4.28882C18.5369 4.32894 18.9759 4.41422 19.3845 4.62239C20.0274 4.94996 20.55 5.47265 20.8776 6.11553C21.0858 6.5241 21.1711 6.96308 21.2112 7.45413C21.25 7.92947 21.25 8.51514 21.25 9.23498V13.0984C21.25 13.8182 21.25 14.4039 21.2112 14.8792C21.1711 15.3703 21.0858 15.8092 20.8776 16.2178C20.55 16.8607 20.0274 17.3834 19.3845 17.7109C18.9759 17.9191 18.5369 18.0044 18.0459 18.0445C17.5705 18.0833 16.9849 18.0833 16.265 18.0833H15.9167V19.25H16.9444C17.3587 19.25 17.6944 19.5858 17.6944 20C17.6944 20.4142 17.3587 20.75 16.9444 20.75H8.05556C7.64134 20.75 7.30556 20.4142 7.30556 20C7.30556 19.5858 7.64134 19.25 8.05556 19.25H9.08333V18.0833H8.73498C8.01514 18.0833 7.42947 18.0833 6.95413 18.0445C6.46308 18.0044 6.0241 17.9191 5.61553 17.7109C4.97265 17.3834 4.44996 16.8607 4.12239 16.2178C3.91422 15.8092 3.82894 15.3703 3.78882 14.8792C3.74999 14.4039 3.74999 13.8182 3.75 13.0983V9.23499C3.74999 8.51515 3.74999 7.92948 3.78882 7.45413C3.82894 6.96308 3.91422 6.5241 4.12239 6.11553C4.44996 5.47265 4.97265 4.94996 5.61553 4.62239C6.0241 4.41422 6.46308 4.32894 6.95413 4.28882C7.42948 4.24999 8.01515 4.24999 8.73499 4.25ZM5.25137 13.75C5.254 14.1613 5.26164 14.4853 5.28384 14.7571C5.31638 15.1553 5.37643 15.375 5.4589 15.5368C5.64266 15.8975 5.93587 16.1907 6.29652 16.3744C6.45838 16.4569 6.67799 16.517 7.07628 16.5495C7.48333 16.5828 8.00756 16.5833 8.76667 16.5833H16.2333C16.9924 16.5833 17.5167 16.5828 17.9237 16.5495C18.322 16.517 18.5416 16.4569 18.7035 16.3744C19.0641 16.1907 19.3573 15.8975 19.5411 15.5368C19.6236 15.375 19.6836 15.1553 19.7162 14.7571C19.7384 14.4853 19.746 14.1613 19.7486 13.75H5.25137ZM19.75 12.25H5.25V9.26667C5.25 8.50755 5.25058 7.98333 5.28384 7.57628C5.31638 7.17799 5.37643 6.95838 5.4589 6.79652C5.64266 6.43587 5.93587 6.14266 6.29652 5.9589C6.45838 5.87643 6.67799 5.81638 7.07628 5.78384C7.48333 5.75058 8.00756 5.75 8.76667 5.75H16.2333C16.9924 5.75 17.5167 5.75058 17.9237 5.78384C18.322 5.81638 18.5416 5.87643 18.7035 5.9589C19.0641 6.14266 19.3573 6.43588 19.5411 6.79652C19.6236 6.95838 19.6836 7.17799 19.7162 7.57628C19.7494 7.98333 19.75 8.50756 19.75 9.26667V12.25ZM14.4167 18.0833H10.5833V19.25H14.4167V18.0833ZM12.5 14.35C12.9142 14.35 13.25 14.6858 13.25 15.1V15.11C13.25 15.5242 12.9142 15.86 12.5 15.86C12.0858 15.86 11.75 15.5242 11.75 15.11V15.1C11.75 14.6858 12.0858 14.35 12.5 14.35Z" fill="#424242"/>
</svg>
