<svg width="317" height="317" viewBox="0 0 317 317" fill="none" xmlns="http://www.w3.org/2000/svg">
<path d="M158.6 191.317V217.65M92.7666 132.446C98.9736 132.067 106.626 132.067 116.467 132.067H200.733C210.574 132.067 218.226 132.067 224.433 132.446M92.7666 132.446C85.0204 132.919 79.5248 133.982 74.834 136.372C67.4016 140.159 61.3588 146.202 57.5718 153.634C53.2666 162.084 53.2666 173.145 53.2666 195.267V213.7C53.2666 235.822 53.2666 246.883 57.5718 255.333C61.3588 262.765 67.4016 268.808 74.834 272.595C83.2835 276.9 94.3445 276.9 116.467 276.9H200.733C222.855 276.9 233.916 276.9 242.366 272.595C249.798 268.808 255.841 262.765 259.628 255.333C263.933 246.883 263.933 235.822 263.933 213.7V195.267C263.933 173.145 263.933 162.084 259.628 153.634C255.841 146.202 249.798 140.159 242.366 136.372C237.675 133.982 232.179 132.919 224.433 132.446M92.7666 132.446V105.733C92.7666 69.3746 122.241 39.9 158.6 39.9C194.959 39.9 224.433 69.3746 224.433 105.733V132.446" stroke="url(#paint0_linear_745_105826)" stroke-opacity="0.5" stroke-width="26.3333" stroke-linecap="round" stroke-linejoin="round"/>
<defs>
<linearGradient id="paint0_linear_745_105826" x1="158.6" y1="39.9" x2="158.6" y2="276.9" gradientUnits="userSpaceOnUse">
<stop stop-color="var(--primary)" stop-opacity="0.63"/>
<stop offset="1" stop-color="var(--primary)" stop-opacity="0"/>
</linearGradient>
</defs>
</svg>
