<svg width="43" height="43" viewBox="0 0 43 43" fill="none" xmlns="http://www.w3.org/2000/svg">
<path d="M6.89962 32.1708L15.9687 21.2919M35.6872 32.1674L26.6147 21.2919M5.37383 14.1945L18.1955 22.7512C19.3316 23.5065 19.8997 23.8841 20.5135 24.0308C21.0559 24.1605 21.6213 24.1605 22.1637 24.0308C22.7775 23.8841 23.3456 23.5065 24.4817 22.7512L37.2096 14.1945M13.8395 33.7122H28.7439C31.725 33.7122 33.2156 33.7122 34.3543 33.132C35.3558 32.6217 36.1702 31.8074 36.6805 30.8058C37.2607 29.6671 37.2607 28.1765 37.2607 25.1954V17.3884C37.2607 14.4072 37.2607 12.9166 36.6805 11.778C36.1702 10.7764 35.3558 9.96208 34.3543 9.45175C33.2156 8.87158 31.725 8.87158 28.7439 8.87158H13.8395C10.8584 8.87158 9.3678 8.87158 8.22915 9.45175C7.22757 9.96208 6.41326 10.7764 5.90292 11.778C5.32275 12.9166 5.32275 14.4072 5.32275 17.3884V25.1954C5.32275 28.1765 5.32275 29.6671 5.90292 30.8058C6.41326 31.8074 7.22757 32.6217 8.22915 33.132C9.3678 33.7122 10.8584 33.7122 13.8395 33.7122Z" stroke="url(#paint0_linear_2118_294687)" stroke-width="3.54866" stroke-linecap="round" stroke-linejoin="round"/>
<defs>
<linearGradient id="paint0_linear_2118_294687" x1="21.2917" y1="8.87158" x2="21.2917" y2="33.7122" gradientUnits="userSpaceOnUse">
<stop stop-color="black"/>
<stop offset="1" stop-color="#B3B3B3"/>
</linearGradient>
</defs>
</svg>
