<svg width="33" height="32" viewBox="0 0 33 32" fill="none" xmlns="http://www.w3.org/2000/svg">
<path fill-rule="evenodd" clip-rule="evenodd" d="M3.69826 14.5427C2.84372 15.5773 3.63631 17.1328 4.97558 17.0496L9.7987 16.7498L12.3911 20.828C13.111 21.9604 14.8353 21.6873 15.17 20.3879L16.0855 16.8332L25.9594 26.7071C26.3499 27.0976 26.9831 27.0976 27.3736 26.7071C27.7641 26.3166 27.7641 25.6834 27.3736 25.2929L17.4994 15.4186L21.055 14.5029C22.3545 14.1682 22.6276 12.4438 21.4952 11.724L17.417 9.13154L17.7167 4.30842C17.8 2.96916 16.2444 2.17656 15.2099 3.0311L11.4841 6.1086L6.98968 4.33305C5.74169 3.84003 4.50719 5.07453 5.00021 6.32252L6.77576 10.8169L3.69826 14.5427ZM9.9496 14.7366L5.9256 14.9867L8.4932 11.8782C8.84886 11.4476 8.94229 10.8577 8.7371 10.3383L7.25573 6.58857L11.0055 8.06994C11.5249 8.27513 12.1148 8.1817 12.5454 7.82605L15.6538 5.25845L15.4037 9.28245C15.3691 9.83984 15.6402 10.372 16.1115 10.6716L19.514 12.8345L15.6097 13.8401C15.0689 13.9794 14.6465 14.4017 14.5072 14.9425L13.5016 18.8469L11.3387 15.4444C11.0391 14.9731 10.507 14.7019 9.9496 14.7366Z" fill="#424149"/>
</svg>
