<svg width="46" height="45" viewBox="0 0 46 45" fill="none" xmlns="http://www.w3.org/2000/svg">
<path opacity="0.14" d="M11.75 11.625C11.75 9.5248 11.75 8.4747 12.1587 7.67254C12.5183 6.96693 13.0919 6.39325 13.7975 6.03373C14.5997 5.625 15.6498 5.625 17.75 5.625H28.25C30.3502 5.625 31.4003 5.625 32.2025 6.03373C32.9081 6.39325 33.4817 6.96693 33.8413 7.67254C34.25 8.4747 34.25 9.5248 34.25 11.625V33.375C34.25 35.4752 34.25 36.5253 33.8413 37.3275C33.4817 38.0331 32.9081 38.6067 32.2025 38.9663C31.4003 39.375 30.3502 39.375 28.25 39.375H17.75C15.6498 39.375 14.5997 39.375 13.7975 38.9663C13.0919 38.6067 12.5183 38.0331 12.1587 37.3275C11.75 36.5253 11.75 35.4752 11.75 33.375V11.625Z" fill="black"/>
<path d="M23 33.75H23.0187M17.75 39.375H28.25C30.3502 39.375 31.4003 39.375 32.2025 38.9663C32.9081 38.6067 33.4817 38.0331 33.8413 37.3275C34.25 36.5253 34.25 35.4752 34.25 33.375V11.625C34.25 9.5248 34.25 8.4747 33.8413 7.67254C33.4817 6.96693 32.9081 6.39325 32.2025 6.03373C31.4003 5.625 30.3502 5.625 28.25 5.625H17.75C15.6498 5.625 14.5997 5.625 13.7975 6.03373C13.0919 6.39325 12.5183 6.96693 12.1587 7.67254C11.75 8.4747 11.75 9.5248 11.75 11.625V33.375C11.75 35.4752 11.75 36.5253 12.1587 37.3275C12.5183 38.0331 13.0919 38.6067 13.7975 38.9663C14.5997 39.375 15.6498 39.375 17.75 39.375Z" stroke="black" stroke-width="3.75" stroke-linecap="round" stroke-linejoin="round"/>
</svg>
