<svg width="28" height="29" viewBox="0 0 28 29" fill="none" xmlns="http://www.w3.org/2000/svg">
<path fill-rule="evenodd" clip-rule="evenodd" d="M21 7.16675H14.75V13.9167H21.5V7.66675C21.5 7.39061 21.2761 7.16675 21 7.16675ZM21.5 15.4167H14.75V22.1667H21C21.2761 22.1667 21.5 21.9429 21.5 21.6667V15.4167ZM13.25 14.6667V7.16675H7C6.72386 7.16675 6.5 7.39061 6.5 7.66675V21.6667C6.5 21.9429 6.72386 22.1667 7 22.1667H13.25V14.6667ZM7 5.66675C5.89543 5.66675 5 6.56218 5 7.66675V21.6667C5 22.7713 5.89543 23.6667 7 23.6667H21C22.1046 23.6667 23 22.7713 23 21.6667V7.66675C23 6.56218 22.1046 5.66675 21 5.66675H7Z" fill="#8E8D91"/>
</svg>
