<svg width="157" height="37" viewBox="0 0 157 37" fill="none" xmlns="http://www.w3.org/2000/svg">
<g clip-path="url(#clip0_702_13765)">
<path d="M43.0755 30.3553C41.3302 30.3553 39.9623 29.9179 39.0095 29.0616C38.0472 28.1961 37.5566 26.8931 37.5566 25.1945V15.0497C37.5566 13.3512 38.0425 12.0482 39.0095 11.1826C39.9623 10.3217 41.3302 9.88892 43.0755 9.88892H44.217C45.9623 9.88892 47.3302 10.3264 48.2831 11.1826C49.2453 12.0528 49.7359 13.3512 49.7359 15.0497V25.1945C49.7359 26.8931 49.25 28.1961 48.2831 29.0616C47.3302 29.9225 45.9623 30.3553 44.217 30.3553H43.0755ZM42.7878 12.7695C42.1793 12.7695 41.7029 12.937 41.3349 13.286C40.9717 13.6304 40.7925 14.0306 40.7925 14.5099V25.725C40.7925 26.2043 40.9717 26.6045 41.3349 26.9489C41.7029 27.2979 42.1793 27.4654 42.7878 27.4654H44.5C45.1085 27.4654 45.5849 27.2979 45.9529 26.9489C46.3161 26.6045 46.4953 26.2043 46.4953 25.725V14.5099C46.4953 14.0306 46.3161 13.6304 45.9529 13.286C45.5849 12.937 45.1085 12.7695 44.5 12.7695H42.7878Z" fill="white"/>
<path d="M48.0283 28.7871C47.1415 29.5875 45.8726 29.983 44.217 29.983H43.0755C41.4198 29.983 40.1462 29.5828 39.2641 28.7871C38.3774 27.9913 37.934 26.7907 37.934 25.1945V15.0498C37.934 13.4536 38.3774 12.2576 39.2641 11.4572C40.1509 10.6568 41.4198 10.2612 43.0755 10.2612H44.217C45.8726 10.2612 47.1462 10.6614 48.0283 11.4572C48.9151 12.2576 49.3585 13.4536 49.3585 15.0498V25.1945C49.3585 26.7907 48.9151 27.9913 48.0283 28.7871ZM46.2123 13.0208C45.7736 12.6066 45.2028 12.4019 44.5 12.4019H42.7877C42.0849 12.4019 41.5094 12.6113 41.0755 13.0208C40.6368 13.435 40.4198 13.9329 40.4198 14.5146V25.7297C40.4198 26.3114 40.6368 26.8093 41.0755 27.2235C41.5142 27.6377 42.0849 27.8424 42.7877 27.8424H44.5C45.2028 27.8424 45.7736 27.6377 46.2123 27.2235C46.6509 26.8093 46.8679 26.3114 46.8679 25.7297V14.5146C46.8679 13.9329 46.6509 13.435 46.2123 13.0208Z" fill="white"/>
<path d="M59.6415 30.3553C57.8774 30.3553 56.5519 29.9691 55.7029 29.2013C54.8444 28.4288 54.4104 27.1723 54.4104 25.4738V20.4014C54.4104 18.7214 54.8491 17.4743 55.717 16.6878C56.5755 15.9107 57.8963 15.5198 59.6415 15.5198H63.7029V18.3771H59.3538C58.75 18.3771 58.2925 18.5074 58.0047 18.7633C57.7264 19.01 57.5896 19.3636 57.5896 19.8383V26.0368C57.5896 26.5115 57.7264 26.8652 58.0047 27.1118C58.2925 27.3678 58.7453 27.4981 59.3538 27.4981H63.7029V30.3553H59.6415Z" fill="white"/>
<path d="M55.9575 28.9267C55.1745 28.224 54.7877 27.07 54.7877 25.4738V20.4014C54.7877 18.8238 55.1839 17.6791 55.9717 16.9624C56.7641 16.2504 57.9858 15.8921 59.6415 15.8921H63.3255V18.0048H59.3538C58.6509 18.0048 58.1179 18.163 57.7547 18.4841C57.3915 18.8052 57.2122 19.2566 57.2122 19.8383V26.0369C57.2122 26.6186 57.3915 27.07 57.7547 27.3911C58.1179 27.7122 58.6509 27.8704 59.3538 27.8704H63.3255V29.9831H59.6415C57.967 29.9831 56.7358 29.6294 55.9575 28.9267Z" fill="white"/>
<path d="M75.5519 30.3554C74.467 30.3554 73.6179 29.9971 73.033 29.2898C72.467 28.6057 72.1745 27.6982 72.1745 26.6V18.3772H69.4623V15.5199H72.1745V12.1367H75.3585V15.5199H79.5283V18.3772H75.3585V26.7396C75.3585 26.9444 75.3868 27.2096 75.533 27.326C75.6698 27.4376 75.9245 27.4935 76.2642 27.4935H79.5283V30.3508H75.5519V30.3554Z" fill="white"/>
<path d="M73.3255 29.0569C72.8113 28.4379 72.5566 27.6189 72.5566 26.6044V18.0093H69.8444V15.8966H72.5566V12.5134H74.9859V15.8966H79.1557V18.0093H74.9859V26.744C74.9859 27.1582 75.0896 27.4467 75.3019 27.6189C75.5095 27.7864 75.8349 27.8702 76.2736 27.8702H79.1604V29.9829H75.5613C74.5896 29.9829 73.8491 29.6711 73.3349 29.0522L73.3255 29.0569Z" fill="white"/>
<path d="M89.434 30.3553C87.6887 30.3553 86.368 29.9644 85.5095 29.1873C84.6416 28.4055 84.2029 27.1537 84.2029 25.4738V20.4014C84.2029 18.7214 84.6416 17.4743 85.5095 16.6878C86.368 15.9107 87.6887 15.5198 89.434 15.5198H90.3774C92.1227 15.5198 93.4434 15.9107 94.3019 16.6878C95.1699 17.4743 95.6085 18.7214 95.6085 20.4014V25.4738C95.6085 27.1537 95.1699 28.4009 94.3019 29.1873C93.4434 29.9644 92.1227 30.3553 90.3774 30.3553H89.434ZM89.1463 18.3771C88.5425 18.3771 88.085 18.5074 87.7972 18.7633C87.5189 19.01 87.3821 19.3636 87.3821 19.8383V26.0368C87.3821 26.5115 87.5189 26.8652 87.7972 27.1118C88.085 27.3678 88.5378 27.4981 89.1463 27.4981H90.6604C91.2642 27.4981 91.7218 27.3678 92.0095 27.1118C92.2878 26.8652 92.4246 26.5115 92.4246 26.0368V19.8383C92.4246 19.3636 92.2878 19.01 92.0095 18.7633C91.7218 18.5074 91.2689 18.3771 90.6604 18.3771H89.1463Z" fill="white"/>
<path d="M94.0472 28.9128C93.2547 29.6294 92.033 29.9831 90.3774 29.9831H89.434C87.7783 29.9831 86.5519 29.6248 85.7642 28.9128C84.9717 28.2008 84.5802 27.0513 84.5802 25.4738V20.4014C84.5802 18.8238 84.9764 17.6791 85.7642 16.9624C86.5566 16.2504 87.7783 15.8921 89.434 15.8921H90.3774C92.033 15.8921 93.2594 16.2504 94.0472 16.9624C94.8349 17.6744 95.2311 18.8238 95.2311 20.4014V25.4738C95.2311 27.0513 94.8349 28.1961 94.0472 28.9128ZM92.2594 18.4841C91.8962 18.163 91.3632 18.0048 90.6604 18.0048H89.1462C88.4434 18.0048 87.9104 18.163 87.5472 18.4841C87.184 18.8052 87.0047 19.2566 87.0047 19.8383V26.0369C87.0047 26.6186 87.184 27.07 87.5472 27.3911C87.9104 27.7122 88.4434 27.8704 89.1462 27.8704H90.6604C91.3632 27.8704 91.8962 27.7122 92.2594 27.3911C92.6227 27.07 92.8019 26.6186 92.8019 26.0369V19.8383C92.8019 19.2566 92.6227 18.8052 92.2594 18.4841Z" fill="white"/>
<path d="M99.684 30.3553V9.88428H105.434C107.212 9.88428 108.552 10.2566 109.41 10.9918C110.283 11.7411 110.726 12.9696 110.726 14.6542V16.2597C110.726 17.6185 110.288 18.7074 109.42 19.4939C110.476 20.2617 111.009 21.4344 111.009 22.998V25.5342C111.009 27.2514 110.59 28.4985 109.759 29.2478C108.939 29.983 107.599 30.36 105.778 30.36H99.6887L99.684 30.3553ZM106.033 27.498C106.651 27.498 107.104 27.3677 107.368 27.1118C107.632 26.8558 107.769 26.4231 107.769 25.8134V22.7421C107.769 22.2209 107.618 21.8253 107.311 21.5275C107 21.2297 106.59 21.0854 106.061 21.0854H102.925V27.498H106.033ZM105.778 18.2281C106.274 18.2281 106.675 18.0792 107.005 17.7674C107.33 17.4603 107.486 17.0601 107.486 16.5435V14.4029C107.486 13.7979 107.354 13.3651 107.099 13.1185C106.84 12.8719 106.396 12.7462 105.778 12.7462H102.929V18.2281H105.778Z" fill="white"/>
<path d="M109.505 28.9686C108.75 29.6434 107.509 29.9831 105.778 29.9831H100.066V10.2566H105.439C107.132 10.2566 108.377 10.5963 109.165 11.2711C109.953 11.9458 110.349 13.0767 110.349 14.6542V16.2597C110.349 17.707 109.825 18.7959 108.778 19.5312C110.014 20.2059 110.637 21.3647 110.637 22.9981V25.5343C110.637 27.149 110.259 28.2938 109.509 28.9732L109.505 28.9686ZM107.363 12.8486C107.028 12.5275 106.5 12.3693 105.778 12.3693H102.552V18.5958H105.778C106.368 18.5958 106.863 18.4096 107.264 18.0327C107.665 17.6558 107.863 17.1578 107.863 16.5389V14.3983C107.863 13.6863 107.698 13.1697 107.363 12.8486ZM107.575 21.2623C107.193 20.8946 106.689 20.7132 106.061 20.7132H102.547V27.8703H106.033C106.755 27.8703 107.292 27.7075 107.632 27.3771C107.976 27.0467 108.146 26.5255 108.146 25.8135V22.7421C108.146 22.1232 107.958 21.6299 107.575 21.2623Z" fill="white"/>
<path d="M124.972 30.3554C124.665 30.3554 124.33 30.2669 123.986 30.0901C123.774 29.9831 123.58 29.8481 123.406 29.6899C122.934 30.132 122.349 30.3554 121.66 30.3554H119.118C117.585 30.3554 116.439 30.0343 115.712 29.4014C114.972 28.7592 114.599 27.6703 114.599 26.1765V25.6134C114.599 22.5141 116.17 20.8714 119.146 20.8714H122.311V19.8336C122.311 19.359 122.175 19.0053 121.892 18.7587C121.604 18.5027 121.151 18.3724 120.543 18.3724H115.736V15.5151H120.255C122 15.5151 123.321 15.906 124.179 16.6832C125.047 17.4696 125.486 18.7168 125.486 20.3967V27.163C125.486 27.3585 125.561 27.4329 125.642 27.4841C125.731 27.54 125.962 27.633 126.538 27.633H126.915V30.3507H124.967L124.972 30.3554ZM119.113 23.7333C118.717 23.7333 118.406 23.8543 118.151 24.101C117.896 24.3476 117.778 24.6594 117.778 25.0503V26.4603C117.778 26.8466 117.859 27.1165 118.009 27.2701C118.165 27.4236 118.439 27.4981 118.83 27.4981H121.373C121.778 27.4981 122.057 27.4236 122.132 27.2887C122.25 27.0839 122.311 26.8047 122.311 26.4603V23.7333H119.118H119.113Z" fill="white"/>
<path d="M124.156 29.7597C123.859 29.6108 123.609 29.4014 123.401 29.1408C122.962 29.7039 122.382 29.9877 121.66 29.9877H119.118C117.67 29.9877 116.618 29.6992 115.962 29.1268C115.307 28.5544 114.976 27.5725 114.976 26.1811V25.618C114.976 22.7049 116.368 21.2483 119.146 21.2483H122.689V19.8383C122.689 19.2566 122.509 18.8052 122.146 18.4841C121.783 18.163 121.25 18.0048 120.547 18.0048H116.118V15.8921H120.259C121.915 15.8921 123.142 16.2504 123.929 16.9624C124.717 17.6744 125.113 18.8238 125.113 20.4014V27.1677C125.113 27.4516 125.222 27.661 125.443 27.8006C125.66 27.9402 126.028 28.01 126.542 28.01V29.9831H124.972C124.722 29.9831 124.453 29.9086 124.156 29.7597ZM122.458 27.4748C122.609 27.2096 122.684 26.8745 122.684 26.4603V23.3611H119.113C118.618 23.3611 118.208 23.5193 117.887 23.8404C117.566 24.1615 117.401 24.5617 117.401 25.0503V26.4603C117.401 26.949 117.514 27.3073 117.745 27.5307C117.976 27.754 118.335 27.8704 118.83 27.8704H121.373C121.943 27.8704 122.307 27.7401 122.458 27.4748Z" fill="white"/>
<path d="M131.623 30.3554V27.4981H136.543C136.967 27.4981 137.278 27.419 137.472 27.2607C137.651 27.1165 137.736 26.9024 137.736 26.6046V25.1108C137.736 24.4639 137.495 24.2127 136.887 24.2127H135.83C134.41 24.2127 133.321 23.8916 132.594 23.2587C131.854 22.6165 131.481 21.6067 131.481 20.2618V19.4427C131.481 18.0699 131.896 17.0555 132.712 16.4272C133.5 15.8223 134.656 15.5151 136.142 15.5151H140.349V18.3724H135.859C135.472 18.3724 135.16 18.4562 134.943 18.6191C134.75 18.7633 134.665 18.9681 134.665 19.2659V20.2804C134.665 20.5968 134.745 20.8156 134.91 20.9505C135.099 21.1041 135.344 21.1785 135.656 21.1785H136.627C137.995 21.1785 139.061 21.5182 139.797 22.193C140.543 22.8724 140.92 23.8823 140.92 25.1853V26.451C140.92 27.7494 140.505 28.7359 139.679 29.3921C138.882 30.025 137.731 30.3461 136.26 30.3461H131.627L131.623 30.3554Z" fill="white"/>
<path d="M139.439 29.1129C138.708 29.6946 137.642 29.9877 136.255 29.9877H132V27.875H136.542C137.057 27.875 137.448 27.768 137.712 27.5493C137.981 27.3352 138.113 27.0188 138.113 26.6046V25.1108C138.113 24.2639 137.703 23.8404 136.887 23.8404H135.83C134.495 23.8404 133.5 23.5519 132.844 22.9795C132.189 22.4071 131.859 21.4996 131.859 20.2618V19.4428C131.859 18.1863 132.222 17.2789 132.943 16.7251C133.665 16.1713 134.731 15.8921 136.142 15.8921H139.972V18.0048H135.859C135.382 18.0048 135 18.1118 134.717 18.3306C134.429 18.5446 134.288 18.8611 134.288 19.2752V20.2897C134.288 20.7225 134.415 21.0436 134.675 21.2483C134.934 21.4531 135.259 21.5601 135.66 21.5601H136.632C137.906 21.5601 138.877 21.8673 139.547 22.4769C140.212 23.0865 140.547 23.994 140.547 25.1946V26.4603C140.547 27.6423 140.179 28.5265 139.448 29.1082L139.439 29.1129Z" fill="white"/>
<path d="M151.453 30.3553C149.689 30.3553 148.363 29.9691 147.514 29.2013C146.656 28.4288 146.222 27.1723 146.222 25.4738V20.4014C146.222 18.6935 146.613 17.437 147.391 16.6739C148.17 15.9107 149.439 15.5198 151.17 15.5198H152.514C153.967 15.5198 155.094 15.9339 155.863 16.753C156.623 17.5627 157.005 18.7447 157.005 20.2618V24.2964H149.406V26.0368C149.406 26.5115 149.542 26.8652 149.821 27.1118C150.108 27.3678 150.561 27.4981 151.17 27.4981H156.09V30.3553H151.458H151.453ZM153.873 21.4391V19.6987C153.873 19.3124 153.75 19.0006 153.495 18.7494C153.241 18.5027 152.929 18.3817 152.533 18.3817H150.877C150.307 18.3817 149.92 18.4934 149.717 18.7214C149.505 18.9588 149.396 19.3404 149.396 19.8429V21.4438H153.868L153.873 21.4391Z" fill="white"/>
<path d="M147.769 28.9267C146.986 28.224 146.599 27.07 146.599 25.4738V20.4014C146.599 18.7866 146.953 17.6325 147.656 16.9345C148.359 16.2365 149.533 15.8921 151.17 15.8921H152.514C153.868 15.8921 154.892 16.2644 155.585 17.0043C156.278 17.7442 156.627 18.8331 156.627 20.2571V23.9195H149.028V26.0322C149.028 26.6139 149.208 27.0653 149.571 27.3864C149.934 27.7075 150.467 27.8657 151.17 27.8657H155.712V29.9784H151.458C149.783 29.9784 148.552 29.6248 147.774 28.9221L147.769 28.9267ZM154.255 19.6987C154.255 19.2101 154.094 18.8052 153.769 18.4888C153.443 18.1677 153.038 18.0095 152.543 18.0095H150.887C150.203 18.0095 149.722 18.163 149.443 18.4748C149.165 18.7866 149.028 19.2427 149.028 19.843V21.8161H154.255V19.7034V19.6987Z" fill="white"/>
<path d="M21.9057 18.9493C22.467 18.5258 22.5708 17.73 22.1368 17.1809L16.8302 10.396L14.8066 11.9363L20.1132 18.7212C20.5425 19.275 21.3491 19.3774 21.9057 18.9493Z" fill="white"/>
<path d="M16.8443 22.8025C17.4056 22.3791 17.5094 21.5833 17.0754 21.0342L11.7688 14.2493L9.74524 15.7896L15.0518 22.5745C15.4811 23.1283 16.2877 23.2307 16.8443 22.8025Z" fill="white"/>
<path d="M11.783 26.6556C12.3443 26.2321 12.4481 25.4363 12.0141 24.8872L6.70755 18.1023L4.68396 19.6426L9.99056 26.4275C10.4198 26.9813 11.2264 27.0837 11.783 26.6556Z" fill="white"/>
<path d="M29.8065 12.723C30.4952 12.5601 30.915 11.876 30.7499 11.2012C30.5848 10.5265 29.8914 10.1077 29.2075 10.2705C26.5471 10.9081 24.4952 9.86102 21.9009 6.53837L18.165 1.6847C16.9528 0.1211 14.6414 -0.144154 13.0141 1.0937L1.67446 9.71676C0.0518192 10.95 -0.278369 13.2023 0.929178 14.7612L4.68389 19.6428L19.8726 8.08335C22.1603 11.0058 25.1273 13.8445 29.8065 12.7276V12.723ZM5.63201 13.3233C5.09427 12.6345 5.22163 11.6433 5.91974 11.1128C6.61786 10.5823 7.62257 10.708 8.16031 11.3967C8.69805 12.0854 8.57069 13.0766 7.87257 13.6071C7.17446 14.1376 6.16974 14.012 5.63201 13.3233ZM12.9716 7.73899C12.4339 7.05026 12.5613 6.05905 13.2594 5.52855C13.9575 4.99804 14.9622 5.12368 15.4999 5.81241C16.0377 6.50114 15.9103 7.49235 15.2122 8.02286C14.5141 8.55336 13.5094 8.42772 12.9716 7.73899Z" fill="white"/>
<path d="M8.64615 19.4426L13.9528 26.2275L15.9763 24.6872L10.6697 17.9023C10.2405 17.3485 9.43388 17.2461 8.87728 17.6742C8.32068 18.1024 8.21219 18.8935 8.64615 19.4426Z" fill="white"/>
<path d="M21.0377 20.8341L15.7311 14.0492C15.3019 13.4955 14.4952 13.3931 13.9386 13.8212C13.3773 14.2447 13.2736 15.0405 13.7075 15.5896L19.0141 22.3745L21.0377 20.8341Z" fill="white"/>
<path d="M26.099 16.9809L20.7924 10.196C20.3632 9.6422 19.5566 9.53982 19 9.96795C18.4434 10.3961 18.3349 11.1872 18.7688 11.7363L24.0754 18.5212L26.099 16.9809Z" fill="white"/>
<path d="M29.8585 21.8625L26.1037 16.981L10.9151 28.5404C8.62733 25.618 5.66035 22.7793 0.981105 23.8962C0.297143 24.059 -0.127385 24.7431 0.0377089 25.4179C0.0801618 25.5947 0.16035 25.7529 0.268841 25.8925C0.566011 26.2741 1.07544 26.4696 1.58488 26.3486C4.24526 25.7111 6.29714 26.7581 8.89148 30.0807L12.6273 34.9344C13.8396 36.498 16.1509 36.7633 17.7783 35.5254L29.1132 26.9024C30.7311 25.6692 31.066 23.4168 29.8585 21.8579V21.8625ZM15.283 30.8114C14.7453 30.1226 14.8726 29.1314 15.5707 28.6009C16.2688 28.0704 17.2736 28.1961 17.8113 28.8848C18.349 29.5735 18.2217 30.5647 17.5236 31.0952C16.8254 31.6257 15.8207 31.5001 15.283 30.8114ZM22.6226 25.2271C22.0849 24.5384 22.2122 23.5471 22.9104 23.0166C23.6085 22.4861 24.6132 22.6118 25.1509 23.3005C25.6887 23.9892 25.5613 24.9804 24.8632 25.5109C24.1651 26.0415 23.1604 25.9158 22.6226 25.2271Z" fill="white"/>
</g>
<defs>
<clipPath id="clip0_702_13765">
<rect width="157" height="36" fill="white" transform="translate(0 0.311768)"/>
</clipPath>
</defs>
</svg>
