<svg width="353" height="338" viewBox="0 0 353 338" fill="none" xmlns="http://www.w3.org/2000/svg">
<path d="M311.024 167.709C311.237 171.262 308.53 174.314 304.978 174.527C301.426 174.741 298.373 172.034 298.16 168.482C297.947 164.929 300.654 161.877 304.206 161.664C307.758 161.45 310.811 164.157 311.024 167.709Z" />
<path d="M308.473 194.563C307.943 198.082 304.661 200.505 301.142 199.975C297.623 199.445 295.2 196.163 295.73 192.644C296.26 189.125 299.542 186.702 303.061 187.232C306.58 187.762 309.003 191.044 308.473 194.563Z" />
<path d="M300.394 220.3C299.144 223.632 295.43 225.32 292.098 224.07C288.766 222.82 287.078 219.105 288.328 215.773C289.578 212.441 293.293 210.754 296.625 212.004C299.957 213.254 301.644 216.968 300.394 220.3Z" />
<path d="M287.141 243.795C285.226 246.794 281.242 247.672 278.242 245.757C275.243 243.842 274.365 239.857 276.28 236.858C278.196 233.859 282.18 232.981 285.179 234.896C288.178 236.811 289.057 240.795 287.141 243.795Z" />
<path d="M269.293 264.02C266.796 266.556 262.716 266.587 260.181 264.09C257.645 261.593 257.614 257.513 260.111 254.977C262.609 252.442 266.688 252.411 269.224 254.908C271.759 257.405 271.79 261.485 269.293 264.02Z" />
<path d="M247.63 280.093C244.66 282.054 240.663 281.236 238.702 278.267C236.741 275.297 237.559 271.3 240.529 269.339C243.498 267.378 247.495 268.196 249.456 271.166C251.417 274.136 250.599 278.133 247.63 280.093Z" />
<path d="M223.098 291.311C219.785 292.611 216.046 290.98 214.745 287.668C213.445 284.355 215.076 280.616 218.388 279.315C221.701 278.015 225.44 279.646 226.741 282.958C228.041 286.271 226.41 290.01 223.098 291.311Z" />
<path d="M196.77 297.183C193.259 297.766 189.941 295.394 189.357 291.883C188.774 288.373 191.147 285.054 194.657 284.47C198.168 283.887 201.486 286.26 202.07 289.77C202.653 293.281 200.28 296.6 196.77 297.183Z" />
<path d="M169.796 297.453C166.241 297.294 163.488 294.283 163.648 290.727C163.807 287.172 166.818 284.419 170.373 284.579C173.928 284.738 176.681 287.749 176.522 291.304C176.362 294.859 173.351 297.612 169.796 297.453Z" />
<path d="M143.356 292.109C139.912 291.214 137.845 287.696 138.74 284.252C139.635 280.808 143.153 278.741 146.597 279.636C150.041 280.531 152.108 284.048 151.213 287.493C150.318 290.937 146.8 293.004 143.356 292.109Z" />
<path d="M118.605 281.384C115.422 279.793 114.132 275.922 115.723 272.739C117.315 269.556 121.185 268.266 124.368 269.858C127.551 271.449 128.841 275.319 127.25 278.502C125.658 281.685 121.788 282.975 118.605 281.384Z" />
<path d="M96.6243 265.748C93.8418 263.529 93.3845 259.475 95.6029 256.693C97.8214 253.91 101.875 253.453 104.658 255.671C107.441 257.89 107.898 261.944 105.679 264.726C103.461 267.509 99.4069 267.966 96.6243 265.748Z" />
<path d="M78.375 245.883C76.1145 243.135 76.5101 239.074 79.2586 236.814C82.0071 234.553 86.0677 234.949 88.3282 237.697C90.5887 240.446 90.1931 244.506 87.4446 246.767C84.6961 249.027 80.6355 248.632 78.375 245.883Z" />
<path d="M64.6546 222.658C63.0149 219.5 64.2461 215.61 67.4045 213.971C70.563 212.331 74.4525 213.562 76.0922 216.721C77.7318 219.879 76.5006 223.769 73.3422 225.408C70.1838 227.048 66.2942 225.817 64.6546 222.658Z" />
<path d="M56.0627 197.088C55.1156 193.658 57.1285 190.109 60.5588 189.162C63.9891 188.215 67.5377 190.228 68.4849 193.658C69.432 197.089 67.4191 200.637 63.9888 201.584C60.5585 202.532 57.0099 200.519 56.0627 197.088Z" />
<path d="M52.9749 170.291C52.7616 166.739 55.4684 163.686 59.0206 163.473C62.5729 163.26 65.6254 165.966 65.8387 169.519C66.052 173.071 63.3452 176.123 59.7929 176.337C56.2407 176.55 53.1881 173.843 52.9749 170.291Z" />
<path d="M55.526 143.437C56.056 139.918 59.3383 137.495 62.8572 138.025C66.3762 138.555 68.7993 141.837 68.2693 145.356C67.7393 148.875 64.457 151.298 60.9381 150.768C57.4191 150.238 54.996 146.956 55.526 143.437Z" />
<path d="M63.6046 117.7C64.8547 114.368 68.569 112.681 71.9009 113.931C75.2328 115.181 76.9205 118.895 75.6705 122.227C74.4204 125.559 70.7061 127.247 67.3742 125.997C64.0423 124.746 62.3546 121.032 63.6046 117.7Z" />
<path d="M76.8577 94.2056C78.7731 91.2064 82.7572 90.3279 85.7564 92.2433C88.7556 94.1588 89.6341 98.1428 87.7187 101.142C85.8033 104.141 81.8192 105.02 78.82 103.104C75.8208 101.189 74.9423 97.2048 76.8577 94.2056Z" />
<path d="M94.706 73.9799C97.2031 71.4445 101.283 71.4134 103.818 73.9106C106.354 76.4077 106.385 80.4874 103.887 83.0228C101.39 85.5582 97.3106 85.5892 94.7752 83.0921C92.2398 80.5949 92.2088 76.5153 94.706 73.9799Z" />
<path d="M116.369 57.9069C119.339 55.9461 123.336 56.764 125.297 59.7337C127.258 62.7034 126.44 66.7004 123.47 68.6612C120.5 70.622 116.503 69.8042 114.543 66.8344C112.582 63.8647 113.4 59.8677 116.369 57.9069Z" />
<path d="M140.901 46.6893C144.214 45.3888 147.953 47.0198 149.254 50.3323C150.554 53.6448 148.923 57.3844 145.611 58.6849C142.298 59.9855 138.559 58.3544 137.258 55.0419C135.958 51.7294 137.589 47.9899 140.901 46.6893Z" />
<path d="M167.229 40.8173C170.74 40.2339 174.058 42.6068 174.642 46.1173C175.225 49.6278 172.852 52.9465 169.342 53.5299C165.831 54.1133 162.512 51.7405 161.929 48.23C161.346 44.7195 163.719 41.4007 167.229 40.8173Z" />
<path d="M194.203 40.5475C197.758 40.7067 200.51 43.7177 200.351 47.2728C200.192 50.8279 197.181 53.5808 193.626 53.4216C190.071 53.2623 187.318 50.2513 187.477 46.6962C187.636 43.1411 190.647 40.3882 194.203 40.5475Z" />
<path d="M220.643 45.8916C224.087 46.7865 226.154 50.3041 225.259 53.7484C224.364 57.1927 220.846 59.2594 217.402 58.3645C213.958 57.4696 211.891 53.952 212.786 50.5077C213.681 47.0634 217.198 44.9967 220.643 45.8916Z" />
<path d="M245.394 56.6162C248.577 58.2077 249.867 62.0781 248.276 65.2611C246.684 68.444 242.814 69.7342 239.631 68.1428C236.448 66.5513 235.158 62.6809 236.749 59.4979C238.341 56.315 242.211 55.0248 245.394 56.6162Z" />
<path d="M267.375 72.2526C270.157 74.471 270.614 78.5251 268.396 81.3076C266.177 84.0901 262.123 84.5474 259.341 82.329C256.558 80.1105 256.101 76.0565 258.319 73.2739C260.538 70.4914 264.592 70.0341 267.375 72.2526Z" />
<path d="M285.624 92.1172C287.884 94.8657 287.489 98.9263 284.74 101.187C281.992 103.447 277.931 103.052 275.671 100.303C273.41 97.5547 273.806 93.4941 276.554 91.2336C279.303 88.9731 283.363 89.3687 285.624 92.1172Z" />
<path d="M299.344 115.342C300.984 118.5 299.753 122.39 296.594 124.03C293.436 125.669 289.546 124.438 287.907 121.28C286.267 118.121 287.498 114.232 290.657 112.592C293.815 110.952 297.705 112.184 299.344 115.342Z" />
<path d="M307.936 140.912C308.883 144.342 306.87 147.891 303.44 148.838C300.01 149.785 296.461 147.772 295.514 144.342C294.567 140.912 296.58 137.363 300.01 136.416C303.44 135.469 306.989 137.482 307.936 140.912Z" />
</svg>
