<svg width="288" height="288" viewBox="0 0 288 288" fill="none" xmlns="http://www.w3.org/2000/svg">
<path d="M242.675 170.186C242.09 172.94 239.382 174.698 236.628 174.113C233.874 173.527 232.116 170.82 232.702 168.066C233.287 165.312 235.994 163.554 238.748 164.139C241.502 164.725 243.26 167.432 242.675 170.186Z" />
<path d="M235.074 190.13C233.929 192.702 230.916 193.859 228.343 192.713C225.771 191.568 224.614 188.555 225.76 185.982C226.905 183.41 229.918 182.253 232.491 183.399C235.063 184.544 236.22 187.557 235.074 190.13Z" />
<path d="M223.493 208.057C221.838 210.335 218.65 210.84 216.372 209.185C214.094 207.53 213.589 204.342 215.244 202.064C216.899 199.786 220.088 199.281 222.365 200.936C224.643 202.591 225.148 205.779 223.493 208.057Z" />
<path d="M208.438 223.185C206.346 225.069 203.122 224.9 201.238 222.807C199.354 220.715 199.523 217.491 201.615 215.607C203.708 213.723 206.931 213.892 208.815 215.985C210.699 218.077 210.53 221.301 208.438 223.185Z" />
<path d="M190.566 234.852C188.128 236.26 185.01 235.424 183.602 232.986C182.194 230.547 183.03 227.429 185.468 226.021C187.907 224.614 191.025 225.449 192.432 227.888C193.84 230.326 193.005 233.444 190.566 234.852Z" />
<path d="M170.66 242.548C167.982 243.418 165.106 241.953 164.236 239.275C163.366 236.597 164.831 233.721 167.509 232.851C170.187 231.981 173.063 233.446 173.933 236.124C174.803 238.802 173.338 241.678 170.66 242.548Z" />
<path d="M149.588 245.937C146.788 246.232 144.279 244.2 143.985 241.4C143.69 238.6 145.722 236.091 148.522 235.797C151.322 235.503 153.831 237.534 154.125 240.334C154.419 243.135 152.388 245.643 149.588 245.937Z" />
<path d="M128.272 244.872C125.472 244.577 123.44 242.069 123.734 239.269C124.029 236.468 126.537 234.437 129.338 234.731C132.138 235.026 134.169 237.534 133.875 240.334C133.581 243.135 131.072 245.166 128.272 244.872Z" />
<path d="M107.643 239.397C104.965 238.527 103.5 235.651 104.37 232.973C105.24 230.295 108.116 228.83 110.794 229.7C113.472 230.57 114.937 233.446 114.067 236.124C113.197 238.802 110.321 240.267 107.643 239.397Z" />
<path d="M88.6033 229.754C86.1649 228.346 85.3294 225.228 86.7373 222.789C88.1451 220.351 91.2631 219.515 93.7015 220.923C96.1399 222.331 96.9753 225.449 95.5675 227.888C94.1597 230.326 91.0417 231.161 88.6033 229.754Z" />
<path d="M71.9847 216.362C69.8923 214.478 69.7233 211.254 71.6074 209.162C73.4914 207.07 76.7149 206.901 78.8074 208.785C80.8998 210.669 81.0687 213.892 79.1847 215.985C77.3007 218.077 74.0771 218.246 71.9847 216.362Z" />
<path d="M58.5135 199.808C56.8585 197.53 57.3635 194.342 59.6414 192.687C61.9193 191.032 65.1075 191.537 66.7625 193.815C68.4175 196.093 67.9125 199.281 65.6346 200.936C63.3567 202.591 60.1685 202.086 58.5135 199.808Z" />
<path d="M48.7785 180.815C47.6332 178.243 48.79 175.229 51.3622 174.084C53.9345 172.939 56.948 174.095 58.0933 176.668C59.2385 179.24 58.0817 182.253 55.5095 183.399C52.9373 184.544 49.9237 183.387 48.7785 180.815Z" />
<path d="M43.2051 160.213C42.6197 157.458 44.3777 154.751 47.1318 154.166C49.8859 153.58 52.5932 155.339 53.1786 158.093C53.764 160.847 52.0059 163.554 49.2518 164.139C46.4977 164.725 43.7905 162.967 43.2051 160.213Z" />
<path d="M42.0369 138.902C42.0369 136.086 44.3194 133.804 47.135 133.804C49.9507 133.804 52.2332 136.086 52.2332 138.902C52.2332 141.717 49.9507 144 47.135 144C44.3194 144 42.0369 141.717 42.0369 138.902Z" />
<path d="M45.325 117.814C45.9104 115.06 48.6176 113.302 51.3717 113.887C54.1258 114.473 55.8839 117.18 55.2985 119.934C54.7131 122.688 52.0059 124.446 49.2518 123.861C46.4977 123.275 44.7396 120.568 45.325 117.814Z" />
<path d="M52.9257 97.8705C54.0709 95.2983 57.0845 94.1415 59.6567 95.2867C62.2289 96.4319 63.3857 99.4455 62.2405 102.018C61.0952 104.59 58.0817 105.747 55.5095 104.601C52.9373 103.456 51.7804 100.443 52.9257 97.8705Z" />
<path d="M64.5067 79.9431C66.1617 77.6652 69.35 77.1602 71.6278 78.8152C73.9057 80.4702 74.4107 83.6584 72.7557 85.9363C71.1007 88.2142 67.9125 88.7192 65.6346 87.0642C63.3567 85.4092 62.8517 82.221 64.5067 79.9431Z" />
<path d="M79.562 64.8153C81.6545 62.9313 84.878 63.1002 86.762 65.1926C88.6461 67.2851 88.4771 70.5086 86.3847 72.3926C84.2923 74.2767 81.0687 74.1077 79.1847 72.0153C77.3007 69.9229 77.4696 66.6993 79.562 64.8153Z" />
<path d="M97.4336 53.1483C99.872 51.7405 102.99 52.5759 104.398 55.0143C105.806 57.4527 104.97 60.5707 102.532 61.9785C100.093 63.3864 96.9753 62.5509 95.5675 60.1125C94.1597 57.6741 94.9952 54.5561 97.4336 53.1483Z" />
<path d="M117.34 45.4519C120.018 44.5818 122.894 46.0473 123.764 48.7251C124.634 51.4029 123.169 54.2791 120.491 55.1492C117.813 56.0192 114.937 54.5538 114.067 51.8759C113.197 49.1981 114.662 46.322 117.34 45.4519Z" />
<path d="M138.412 42.0625C141.212 41.7682 143.721 43.7997 144.015 46.5999C144.31 49.4001 142.278 51.9087 139.478 52.203C136.678 52.4973 134.169 50.4659 133.875 47.6657C133.581 44.8655 135.612 42.3569 138.412 42.0625Z" />
<path d="M159.728 43.1284C162.528 43.4227 164.56 45.9313 164.266 48.7315C163.971 51.5317 161.463 53.5631 158.662 53.2688C155.862 52.9745 153.831 50.4659 154.125 47.6657C154.419 44.8655 156.928 42.834 159.728 43.1284Z" />
<path d="M180.357 48.6027C183.035 49.4728 184.5 52.349 183.63 55.0268C182.76 57.7046 179.884 59.1701 177.206 58.3C174.528 57.4299 173.063 54.5538 173.933 51.8759C174.803 49.1981 177.679 47.7327 180.357 48.6027Z" />
<path d="M199.397 58.2464C201.835 59.6543 202.671 62.7722 201.263 65.2106C199.855 67.6491 196.737 68.4845 194.299 67.0767C191.86 65.6689 191.025 62.5509 192.432 60.1125C193.84 57.6741 196.958 56.8386 199.397 58.2464Z" />
<path d="M216.015 71.638C218.108 73.522 218.277 76.7456 216.393 78.838C214.509 80.9304 211.285 81.0993 209.193 79.2153C207.1 77.3313 206.931 74.1077 208.815 72.0153C210.699 69.9229 213.923 69.754 216.015 71.638Z" />
<path d="M229.487 88.1921C231.141 90.47 230.637 93.6582 228.359 95.3132C226.081 96.9682 222.893 96.4632 221.238 94.1853C219.583 91.9074 220.088 88.7192 222.365 87.0642C224.643 85.4092 227.832 85.9142 229.487 88.1921Z" />
<path d="M239.222 107.185C240.367 109.757 239.21 112.771 236.638 113.916C234.066 115.061 231.052 113.905 229.907 111.332C228.762 108.76 229.918 105.747 232.491 104.601C235.063 103.456 238.076 104.613 239.222 107.185Z" />
<path d="M244.795 127.787C245.38 130.542 243.622 133.249 240.868 133.834C238.114 134.42 235.407 132.661 234.821 129.907C234.236 127.153 235.994 124.446 238.748 123.861C241.502 123.275 244.21 125.033 244.795 127.787Z" />
<path d="M245.963 149.098C245.963 151.914 243.681 154.196 240.865 154.196C238.049 154.196 235.767 151.914 235.767 149.098C235.767 146.283 238.049 144 240.865 144C243.681 144 245.963 146.283 245.963 149.098Z" />
</svg>
