<svg width="358" height="338" viewBox="0 0 358 338" fill="none" xmlns="http://www.w3.org/2000/svg">
<path d="M207.586 149.808C210.05 147.949 210.506 144.456 208.601 142.045L185.305 112.259L176.421 119.021L199.717 148.807C201.602 151.238 205.143 151.688 207.586 149.808Z" fill="url(#paint0_linear_629_99654)"/>
<path d="M185.367 166.724C187.831 164.865 188.287 161.372 186.381 158.961L163.085 129.175L154.202 135.937L177.498 165.723C179.382 168.154 182.923 168.604 185.367 166.724Z" fill="url(#paint1_linear_629_99654)"/>
<path d="M163.148 183.639C165.612 181.78 166.068 178.286 164.163 175.876L140.866 146.09L136.425 149.471L131.983 152.852L155.279 182.638C157.163 185.069 160.704 185.518 163.148 183.639Z" fill="url(#paint2_linear_629_99654)"/>
<path d="M242.272 122.475C245.295 121.76 247.138 118.757 246.413 115.794C245.689 112.832 242.645 110.993 239.642 111.708C227.963 114.507 218.955 109.911 207.566 95.3242L191.165 74.0165C185.844 67.1522 175.697 65.9878 168.553 71.422L118.771 109.277C111.648 114.691 110.199 124.579 115.5 131.423L131.983 152.853L198.662 102.107C208.705 114.936 221.73 127.398 242.272 122.495V122.475ZM136.145 125.11C133.785 122.087 134.344 117.735 137.408 115.406C140.473 113.077 144.884 113.629 147.244 116.652C149.605 119.676 149.046 124.027 145.981 126.356C142.917 128.685 138.506 128.134 136.145 125.11ZM168.366 100.595C166.006 97.5714 166.565 93.22 169.629 90.891C172.694 88.5621 177.105 89.1137 179.466 92.1372C181.826 95.1608 181.267 99.5122 178.202 101.841C175.138 104.17 170.727 103.618 168.366 100.595Z" fill="url(#paint3_linear_629_99654)"/>
<path d="M149.377 151.974L172.673 181.76L181.557 174.998L158.261 145.212C156.377 142.781 152.836 142.331 150.392 144.211C147.949 146.09 147.472 149.563 149.377 151.974Z" fill="url(#paint4_linear_629_99654)"/>
<path d="M225.995 141.167L202.699 111.381C200.815 108.95 197.274 108.5 194.83 110.38C192.387 112.259 191.911 115.732 193.816 118.143L217.112 147.929L225.995 141.167Z" fill="url(#paint5_linear_629_99654)"/>
<path d="M242.499 162.598L226.016 141.167L159.337 191.914C149.294 179.084 136.269 166.622 115.727 171.525C112.725 172.24 110.861 175.243 111.586 178.206C111.772 178.982 112.124 179.677 112.6 180.29C113.905 181.965 116.141 182.823 118.378 182.292C130.057 179.493 139.065 184.089 150.454 198.676L166.854 219.984C172.176 226.848 182.323 228.012 189.467 222.578L239.228 184.723C246.33 179.309 247.801 169.421 242.499 162.577V162.598ZM178.513 201.883C176.152 198.86 176.711 194.508 179.776 192.179C182.841 189.85 187.251 190.402 189.612 193.426C191.973 196.449 191.414 200.8 188.349 203.129C185.284 205.458 180.873 204.907 178.513 201.883ZM210.734 177.368C208.373 174.345 208.932 169.993 211.997 167.664C215.062 165.335 219.472 165.887 221.833 168.91C224.194 171.934 223.635 176.285 220.57 178.614C217.505 180.943 213.095 180.392 210.734 177.368Z" fill="url(#paint6_linear_629_99654)"/>
<path d="M203.776 158.083L180.48 128.297C178.596 125.866 175.055 125.417 172.611 127.296C170.147 129.155 169.691 132.649 171.596 135.059L194.892 164.845L203.776 158.083Z" fill="url(#paint7_linear_629_99654)"/>
<path d="M115.465 269.994C113.419 269.994 111.816 269.482 110.699 268.478C109.571 267.464 108.996 265.936 108.996 263.945V252.054C108.996 250.064 109.566 248.536 110.699 247.522C111.816 246.513 113.419 246.005 115.465 246.005H116.803C118.849 246.005 120.452 246.518 121.569 247.522C122.697 248.542 123.272 250.064 123.272 252.054V263.945C123.272 265.936 122.702 267.464 121.569 268.478C120.452 269.487 118.849 269.994 116.803 269.994H115.465ZM115.128 249.382C114.414 249.382 113.856 249.578 113.425 249.987C112.999 250.391 112.789 250.86 112.789 251.422V264.567C112.789 265.129 112.999 265.598 113.425 266.002C113.856 266.411 114.414 266.607 115.128 266.607H117.135C117.848 266.607 118.406 266.411 118.837 266.002C119.263 265.598 119.473 265.129 119.473 264.567V251.422C119.473 250.86 119.263 250.391 118.837 249.987C118.406 249.578 117.848 249.382 117.135 249.382H115.128Z" fill="#A3C0FF"/>
<path d="M121.27 268.156C120.231 269.095 118.744 269.558 116.803 269.558H115.465C113.524 269.558 112.032 269.089 110.998 268.156C109.958 267.224 109.438 265.816 109.438 263.946V252.055C109.438 250.184 109.958 248.782 110.998 247.844C112.037 246.906 113.524 246.442 115.465 246.442H116.803C118.744 246.442 120.236 246.911 121.27 247.844C122.31 248.782 122.829 250.184 122.829 252.055V263.946C122.829 265.816 122.31 267.224 121.27 268.156ZM119.142 249.676C118.627 249.191 117.958 248.951 117.135 248.951H115.128C114.304 248.951 113.629 249.196 113.121 249.676C112.607 250.162 112.352 250.746 112.352 251.427V264.573C112.352 265.255 112.607 265.838 113.121 266.324C113.635 266.809 114.304 267.049 115.128 267.049H117.135C117.958 267.049 118.627 266.809 119.142 266.324C119.656 265.838 119.91 265.255 119.91 264.573V251.427C119.91 250.746 119.656 250.162 119.142 249.676Z" fill="#A3C0FF"/>
<path d="M134.882 269.995C132.815 269.995 131.261 269.542 130.266 268.642C129.26 267.736 128.751 266.264 128.751 264.273V258.327C128.751 256.358 129.265 254.896 130.282 253.975C131.289 253.064 132.837 252.605 134.882 252.605H139.643V255.955H134.545C133.838 255.955 133.301 256.107 132.964 256.407C132.638 256.696 132.477 257.111 132.477 257.667V264.933C132.477 265.489 132.638 265.904 132.964 266.193C133.301 266.493 133.832 266.645 134.545 266.645H139.643V269.995H134.882Z" fill="#A3C0FF"/>
<path d="M130.564 268.32C129.646 267.497 129.193 266.144 129.193 264.273V258.327C129.193 256.478 129.657 255.137 130.581 254.297C131.509 253.462 132.941 253.042 134.882 253.042H139.2V255.518H134.545C133.721 255.518 133.096 255.704 132.671 256.08C132.245 256.457 132.035 256.986 132.035 257.667V264.933C132.035 265.615 132.245 266.144 132.671 266.52C133.096 266.897 133.721 267.082 134.545 267.082H139.2V269.558H134.882C132.919 269.558 131.476 269.144 130.564 268.32Z" fill="#A3C0FF"/>
<path d="M153.531 269.995C152.26 269.995 151.264 269.575 150.579 268.746C149.915 267.944 149.573 266.88 149.573 265.593V255.955H146.394V252.606H149.573V248.64H153.305V252.606H158.192V255.955H153.305V265.757C153.305 265.997 153.338 266.307 153.509 266.444C153.67 266.575 153.968 266.64 154.366 266.64H158.192V269.989H153.531V269.995Z" fill="#A3C0FF"/>
<path d="M150.922 268.473C150.319 267.747 150.02 266.787 150.02 265.598V255.524H146.841V253.047H150.02V249.082H152.868V253.047H157.755V255.524H152.868V265.762C152.868 266.247 152.989 266.585 153.238 266.787C153.481 266.984 153.863 267.082 154.377 267.082H157.761V269.558H153.542C152.403 269.558 151.535 269.193 150.933 268.467L150.922 268.473Z" fill="#A3C0FF"/>
<path d="M169.803 269.995C167.757 269.995 166.209 269.536 165.203 268.625C164.186 267.709 163.671 266.242 163.671 264.273V258.327C163.671 256.358 164.186 254.896 165.203 253.975C166.209 253.064 167.757 252.605 169.803 252.605H170.909C172.954 252.605 174.502 253.064 175.509 253.975C176.526 254.896 177.04 256.358 177.04 258.327V264.273C177.04 266.242 176.526 267.704 175.509 268.625C174.502 269.536 172.954 269.995 170.909 269.995H169.803ZM169.466 255.955C168.758 255.955 168.222 256.107 167.884 256.407C167.558 256.696 167.398 257.111 167.398 257.667V264.933C167.398 265.489 167.558 265.904 167.884 266.193C168.222 266.493 168.752 266.645 169.466 266.645H171.24C171.948 266.645 172.484 266.493 172.822 266.193C173.148 265.904 173.308 265.489 173.308 264.933V257.667C173.308 257.111 173.148 256.696 172.822 256.407C172.484 256.107 171.954 255.955 171.24 255.955H169.466Z" fill="#A3C0FF"/>
<path d="M175.21 268.304C174.281 269.144 172.849 269.558 170.908 269.558H169.802C167.862 269.558 166.424 269.138 165.501 268.304C164.572 267.469 164.113 266.122 164.113 264.273V258.327C164.113 256.478 164.578 255.137 165.501 254.297C166.43 253.462 167.862 253.042 169.802 253.042H170.908C172.849 253.042 174.286 253.462 175.21 254.297C176.133 255.131 176.597 256.478 176.597 258.327V264.273C176.597 266.122 176.133 267.464 175.21 268.304ZM173.114 256.08C172.689 255.704 172.064 255.518 171.24 255.518H169.465C168.641 255.518 168.017 255.704 167.591 256.08C167.165 256.457 166.955 256.986 166.955 257.667V264.933C166.955 265.615 167.165 266.144 167.591 266.52C168.017 266.897 168.641 267.082 169.465 267.082H171.24C172.064 267.082 172.689 266.897 173.114 266.52C173.54 266.144 173.75 265.615 173.75 264.933V257.667C173.75 256.986 173.54 256.457 173.114 256.08Z" fill="#A3C0FF"/>
<path d="M181.817 269.995V246H188.557C190.641 246 192.211 246.436 193.217 247.298C194.24 248.176 194.76 249.616 194.76 251.591V253.473C194.76 255.065 194.246 256.342 193.228 257.264C194.467 258.164 195.092 259.538 195.092 261.371V264.344C195.092 266.356 194.6 267.818 193.627 268.696C192.665 269.558 191.094 270 188.96 270H181.822L181.817 269.995ZM189.259 266.645C189.983 266.645 190.514 266.493 190.823 266.193C191.133 265.893 191.293 265.385 191.293 264.671V261.071C191.293 260.46 191.116 259.996 190.757 259.647C190.392 259.298 189.911 259.129 189.292 259.129H185.615V266.645H189.259ZM188.96 255.78C189.541 255.78 190.011 255.605 190.398 255.24C190.779 254.88 190.962 254.411 190.962 253.805V251.296C190.962 250.587 190.807 250.08 190.508 249.791C190.204 249.502 189.684 249.355 188.96 249.355H185.621V255.78H188.96Z" fill="#A3C0FF"/>
<path d="M193.328 268.369C192.443 269.16 190.989 269.558 188.96 269.558H182.265V246.436H188.562C190.547 246.436 192.007 246.834 192.93 247.625C193.853 248.416 194.318 249.742 194.318 251.591V253.473C194.318 255.169 193.704 256.445 192.476 257.307C193.925 258.098 194.655 259.456 194.655 261.371V264.344C194.655 266.236 194.213 267.578 193.333 268.374L193.328 268.369ZM190.818 249.474C190.425 249.098 189.806 248.913 188.96 248.913H185.178V256.211H188.96C189.651 256.211 190.232 255.993 190.702 255.551C191.172 255.109 191.404 254.525 191.404 253.8V251.291C191.404 250.456 191.21 249.851 190.818 249.474ZM191.067 259.336C190.619 258.905 190.027 258.693 189.292 258.693H185.173V267.082H189.259C190.105 267.082 190.735 266.891 191.133 266.504C191.537 266.116 191.736 265.505 191.736 264.671V261.071C191.736 260.345 191.514 259.767 191.067 259.336Z" fill="#A3C0FF"/>
<path d="M211.457 269.995C211.098 269.995 210.705 269.891 210.302 269.684C210.053 269.558 209.826 269.4 209.622 269.215C209.069 269.733 208.383 269.995 207.576 269.995H204.596C202.799 269.995 201.456 269.618 200.604 268.876C199.736 268.124 199.299 266.847 199.299 265.096V264.436C199.299 260.804 201.14 258.878 204.629 258.878H208.339V257.662C208.339 257.106 208.179 256.691 207.847 256.402C207.51 256.102 206.979 255.949 206.266 255.949H200.632V252.6H205.928C207.974 252.6 209.522 253.058 210.528 253.969C211.546 254.891 212.06 256.353 212.06 258.322V266.253C212.06 266.482 212.148 266.569 212.242 266.629C212.347 266.695 212.618 266.804 213.293 266.804H213.735V269.989H211.452L211.457 269.995ZM204.59 262.233C204.126 262.233 203.761 262.375 203.463 262.664C203.164 262.953 203.026 263.318 203.026 263.776V265.429C203.026 265.882 203.12 266.198 203.297 266.378C203.479 266.558 203.8 266.646 204.259 266.646H207.239C207.714 266.646 208.04 266.558 208.129 266.4C208.267 266.16 208.339 265.833 208.339 265.429V262.233H204.596H204.59Z" fill="#A3C0FF"/>
<path d="M210.501 269.297C210.153 269.122 209.86 268.877 209.616 268.571C209.102 269.231 208.422 269.564 207.576 269.564H204.596C202.899 269.564 201.666 269.226 200.897 268.555C200.129 267.884 199.742 266.733 199.742 265.102V264.442C199.742 261.027 201.373 259.32 204.629 259.32H208.781V257.667C208.781 256.986 208.571 256.457 208.146 256.08C207.72 255.704 207.095 255.518 206.271 255.518H201.08V253.042H205.934C207.875 253.042 209.312 253.462 210.236 254.297C211.159 255.131 211.623 256.478 211.623 258.327V266.258C211.623 266.591 211.75 266.837 212.01 267C212.265 267.164 212.696 267.246 213.298 267.246V269.558H211.457C211.164 269.558 210.849 269.471 210.501 269.297ZM208.51 266.618C208.687 266.307 208.776 265.915 208.776 265.429V261.797H204.591C204.01 261.797 203.529 261.982 203.153 262.358C202.777 262.735 202.584 263.204 202.584 263.777V265.429C202.584 266.002 202.716 266.422 202.987 266.684C203.258 266.946 203.678 267.082 204.259 267.082H207.239C207.908 267.082 208.334 266.929 208.51 266.618Z" fill="#A3C0FF"/>
<path d="M219.253 269.995V266.646H225.019C225.517 266.646 225.882 266.553 226.109 266.367C226.319 266.198 226.418 265.947 226.418 265.598V263.847C226.418 263.089 226.136 262.795 225.423 262.795H224.185C222.52 262.795 221.243 262.418 220.392 261.676C219.524 260.924 219.087 259.74 219.087 258.164V257.204C219.087 255.595 219.573 254.406 220.53 253.669C221.453 252.96 222.808 252.6 224.549 252.6H229.481V255.949H224.218C223.764 255.949 223.399 256.047 223.145 256.238C222.918 256.407 222.819 256.647 222.819 256.996V258.186C222.819 258.556 222.913 258.813 223.106 258.971C223.328 259.151 223.615 259.238 223.98 259.238H225.119C226.722 259.238 227.972 259.636 228.834 260.427C229.708 261.224 230.15 262.407 230.15 263.935V265.418C230.15 266.94 229.664 268.096 228.696 268.866C227.762 269.607 226.413 269.984 224.688 269.984H219.258L219.253 269.995Z" fill="#A3C0FF"/>
<path d="M228.414 268.538C227.557 269.22 226.308 269.564 224.682 269.564H219.695V267.087H225.019C225.622 267.087 226.081 266.962 226.391 266.706C226.706 266.455 226.861 266.084 226.861 265.598V263.847C226.861 262.855 226.38 262.358 225.423 262.358H224.185C222.62 262.358 221.453 262.02 220.685 261.349C219.916 260.678 219.529 259.615 219.529 258.164V257.204C219.529 255.731 219.955 254.667 220.801 254.018C221.647 253.369 222.896 253.042 224.55 253.042H229.039V255.518H224.218C223.659 255.518 223.212 255.644 222.88 255.9C222.543 256.151 222.377 256.522 222.377 257.007V258.197C222.377 258.704 222.526 259.08 222.83 259.32C223.134 259.56 223.516 259.686 223.986 259.686H225.125C226.617 259.686 227.756 260.046 228.541 260.76C229.321 261.475 229.713 262.538 229.713 263.946V265.429C229.713 266.815 229.282 267.851 228.425 268.533L228.414 268.538Z" fill="#A3C0FF"/>
<path d="M242.496 269.995C240.428 269.995 238.875 269.542 237.88 268.642C236.873 267.736 236.365 266.264 236.365 264.273V258.327C236.365 256.325 236.824 254.853 237.736 253.958C238.648 253.064 240.135 252.605 242.165 252.605H243.74C245.443 252.605 246.765 253.091 247.666 254.051C248.556 255 249.004 256.385 249.004 258.164V262.893H240.097V264.933C240.097 265.489 240.257 265.904 240.583 266.193C240.921 266.493 241.451 266.645 242.165 266.645H247.931V269.995H242.502H242.496ZM245.333 259.544V257.504C245.333 257.051 245.189 256.685 244.89 256.391C244.592 256.102 244.227 255.96 243.762 255.96H241.822C241.153 255.96 240.699 256.091 240.462 256.358C240.213 256.636 240.086 257.084 240.086 257.673V259.549H245.327L245.333 259.544Z" fill="#A3C0FF"/>
<path d="M238.178 268.32C237.26 267.497 236.807 266.144 236.807 264.273V258.327C236.807 256.435 237.222 255.082 238.046 254.264C238.869 253.446 240.246 253.042 242.165 253.042H243.74C245.327 253.042 246.527 253.478 247.34 254.346C248.152 255.213 248.562 256.489 248.562 258.158V262.451H239.654V264.927C239.654 265.609 239.865 266.138 240.29 266.515C240.716 266.891 241.341 267.077 242.165 267.077H247.489V269.553H242.502C240.539 269.553 239.096 269.138 238.184 268.315L238.178 268.32ZM245.78 257.504C245.78 256.931 245.592 256.457 245.211 256.086C244.83 255.709 244.354 255.524 243.774 255.524H241.833C241.031 255.524 240.467 255.704 240.141 256.069C239.815 256.435 239.654 256.969 239.654 257.673V259.986H245.78V257.509V257.504Z" fill="#A3C0FF"/>
<defs>
<linearGradient id="paint0_linear_629_99654" x1="179" y1="68" x2="179" y2="226" gradientUnits="userSpaceOnUse">
<stop stop-color="white"/>
<stop offset="0.416667" stop-color="#00F4C8"/>
<stop offset="1" stop-color="#0E82EE"/>
</linearGradient>
<linearGradient id="paint1_linear_629_99654" x1="179" y1="68" x2="179" y2="226" gradientUnits="userSpaceOnUse">
<stop stop-color="white"/>
<stop offset="0.416667" stop-color="#00F4C8"/>
<stop offset="1" stop-color="#0E82EE"/>
</linearGradient>
<linearGradient id="paint2_linear_629_99654" x1="179" y1="68" x2="179" y2="226" gradientUnits="userSpaceOnUse">
<stop stop-color="white"/>
<stop offset="0.416667" stop-color="#00F4C8"/>
<stop offset="1" stop-color="#0E82EE"/>
</linearGradient>
<linearGradient id="paint3_linear_629_99654" x1="179" y1="68" x2="179" y2="226" gradientUnits="userSpaceOnUse">
<stop stop-color="white"/>
<stop offset="0.416667" stop-color="#00F4C8"/>
<stop offset="1" stop-color="#0E82EE"/>
</linearGradient>
<linearGradient id="paint4_linear_629_99654" x1="179" y1="68" x2="179" y2="226" gradientUnits="userSpaceOnUse">
<stop stop-color="white"/>
<stop offset="0.416667" stop-color="#00F4C8"/>
<stop offset="1" stop-color="#0E82EE"/>
</linearGradient>
<linearGradient id="paint5_linear_629_99654" x1="179" y1="68" x2="179" y2="226" gradientUnits="userSpaceOnUse">
<stop stop-color="white"/>
<stop offset="0.416667" stop-color="#00F4C8"/>
<stop offset="1" stop-color="#0E82EE"/>
</linearGradient>
<linearGradient id="paint6_linear_629_99654" x1="179" y1="68" x2="179" y2="226" gradientUnits="userSpaceOnUse">
<stop stop-color="white"/>
<stop offset="0.416667" stop-color="#00F4C8"/>
<stop offset="1" stop-color="#0E82EE"/>
</linearGradient>
<linearGradient id="paint7_linear_629_99654" x1="179" y1="68" x2="179" y2="226" gradientUnits="userSpaceOnUse">
<stop stop-color="white"/>
<stop offset="0.416667" stop-color="#00F4C8"/>
<stop offset="1" stop-color="#0E82EE"/>
</linearGradient>
<linearGradient id="paint8_linear_629_99654" x1="179" y1="0" x2="179" y2="338" gradientUnits="userSpaceOnUse">
<stop stop-color="#5F5F5F"/>
<stop offset="1" stop-color="#313131"/>
</linearGradient>
</defs>
</svg>
