<svg width="358" height="338" viewBox="0 0 358 338" fill="none" xmlns="http://www.w3.org/2000/svg">
<g clip-path="url(#clip0_917_141493)">
<path d="M256.137 91.1979C253.905 89.0273 250.287 89.0273 248.06 91.1979C238.032 100.949 221.692 98.163 207.399 84.2651C185.096 62.5783 148.933 62.5783 126.625 84.2651C104.331 105.943 104.322 141.078 126.587 162.77L126.62 162.807L154.554 189.969C156.786 192.139 160.399 192.139 162.631 189.969C164.863 187.798 164.863 184.286 162.631 182.115L134.697 154.953L150.851 139.246L178.785 166.408C181.017 168.578 184.63 168.578 186.862 166.408C189.094 164.237 189.094 160.724 186.862 158.554L158.928 131.392L175.082 115.685L203.016 142.846C205.248 145.017 208.86 145.017 211.093 142.846C213.325 140.676 213.325 137.163 211.093 134.993L183.159 107.831L199.313 92.1235C208.646 101.199 219.041 106.628 229.365 107.817C230.783 107.979 232.192 108.062 233.577 108.062C242.191 108.062 250.078 104.938 256.127 99.0608C258.36 96.8903 258.36 93.3777 256.127 91.2071L256.137 91.1979ZM140.632 125.695C137.196 129.036 131.618 129.036 128.181 125.695C124.745 122.354 124.745 116.93 128.181 113.588C131.618 110.247 137.196 110.247 140.632 113.588C144.069 116.93 144.069 122.354 140.632 125.695ZM169.237 97.8807C165.801 101.222 160.223 101.222 156.786 97.8807C153.35 94.5393 153.35 89.1153 156.786 85.7738C160.223 82.4324 165.801 82.4324 169.237 85.7738C172.674 89.1153 172.674 94.5393 169.237 97.8807Z" fill="url(#paint0_linear_917_141493)"/>
<path d="M231.478 131.299L203.445 104.04C201.213 101.87 197.6 101.87 195.368 104.04C193.136 106.211 193.136 109.723 195.368 111.894L223.302 139.056L207.148 154.763L179.214 127.601C176.982 125.431 173.369 125.431 171.137 127.601C168.905 129.772 168.905 133.285 171.137 135.455L199.071 162.617L182.917 178.324L154.983 151.163C152.751 148.992 149.138 148.992 146.906 151.163C144.674 153.333 144.674 156.846 146.906 159.016L174.84 186.178L158.686 201.885C149.353 192.81 138.958 187.381 128.634 186.192C118.397 185.012 108.892 188.122 101.871 194.948C99.6392 197.119 99.6392 200.631 101.871 202.802C104.104 204.972 107.716 204.972 109.948 202.802C119.977 193.051 136.316 195.837 150.609 209.735C172.912 231.421 209.075 231.421 231.379 209.735C253.648 188.08 253.682 152.991 231.478 131.295V131.299ZM201.222 208.235C197.786 211.577 192.208 211.577 188.771 208.235C185.335 204.889 185.335 199.47 188.771 196.128C192.208 192.787 197.786 192.787 201.222 196.128C204.658 199.47 204.658 204.894 201.222 208.235ZM229.827 180.421C226.391 183.762 220.812 183.762 217.376 180.421C213.94 177.075 213.94 171.655 217.376 168.314C220.812 164.973 226.391 164.973 229.827 168.314C233.263 171.655 233.263 177.079 229.827 180.421Z" fill="url(#paint1_linear_917_141493)"/>
<path d="M115.465 269.995C113.419 269.995 111.816 269.482 110.699 268.478C109.571 267.464 108.996 265.936 108.996 263.945V252.055C108.996 250.064 109.566 248.536 110.699 247.522C111.816 246.513 113.419 246.005 115.465 246.005H116.803C118.849 246.005 120.452 246.518 121.569 247.522C122.697 248.542 123.272 250.064 123.272 252.055V263.945C123.272 265.936 122.702 267.464 121.569 268.478C120.452 269.487 118.849 269.995 116.803 269.995H115.465ZM115.128 249.382C114.414 249.382 113.856 249.578 113.425 249.987C112.999 250.391 112.789 250.86 112.789 251.422V264.567C112.789 265.129 112.999 265.598 113.425 266.002C113.856 266.411 114.414 266.607 115.128 266.607H117.135C117.848 266.607 118.406 266.411 118.837 266.002C119.263 265.598 119.473 265.129 119.473 264.567V251.422C119.473 250.86 119.263 250.391 118.837 249.987C118.406 249.578 117.848 249.382 117.135 249.382H115.128Z" fill="#A3C0FF"/>
<path d="M121.269 268.156C120.23 269.095 118.743 269.558 116.802 269.558H115.464C113.523 269.558 112.031 269.089 110.997 268.156C109.957 267.224 109.438 265.816 109.438 263.946V252.055C109.438 250.184 109.957 248.782 110.997 247.844C112.036 246.906 113.523 246.442 115.464 246.442H116.802C118.743 246.442 120.235 246.911 121.269 247.844C122.309 248.782 122.828 250.184 122.828 252.055V263.946C122.828 265.816 122.309 267.224 121.269 268.156ZM119.141 249.676C118.626 249.191 117.957 248.951 117.134 248.951H115.127C114.303 248.951 113.628 249.196 113.12 249.676C112.606 250.162 112.351 250.746 112.351 251.427V264.573C112.351 265.255 112.606 265.838 113.12 266.324C113.634 266.809 114.303 267.049 115.127 267.049H117.134C117.957 267.049 118.626 266.809 119.141 266.324C119.655 265.838 119.909 265.255 119.909 264.573V251.427C119.909 250.746 119.655 250.162 119.141 249.676Z" fill="#A3C0FF"/>
<path d="M134.882 269.995C132.814 269.995 131.26 269.542 130.265 268.642C129.259 267.736 128.75 266.264 128.75 264.273V258.327C128.75 256.358 129.264 254.896 130.282 253.975C131.288 253.064 132.836 252.605 134.882 252.605H139.642V255.955H134.544C133.837 255.955 133.3 256.107 132.963 256.407C132.637 256.696 132.476 257.111 132.476 257.667V264.933C132.476 265.489 132.637 265.904 132.963 266.193C133.3 266.493 133.831 266.645 134.544 266.645H139.642V269.995H134.882Z" fill="#A3C0FF"/>
<path d="M130.565 268.32C129.647 267.496 129.193 266.144 129.193 264.273V258.327C129.193 256.478 129.658 255.136 130.581 254.296C131.51 253.462 132.942 253.042 134.883 253.042H139.201V255.518H134.545C133.722 255.518 133.097 255.704 132.671 256.08C132.245 256.456 132.035 256.986 132.035 257.667V264.933C132.035 265.615 132.245 266.144 132.671 266.52C133.097 266.896 133.722 267.082 134.545 267.082H139.201V269.558H134.883C132.92 269.558 131.477 269.144 130.565 268.32Z" fill="#A3C0FF"/>
<path d="M153.53 269.995C152.259 269.995 151.264 269.575 150.578 268.746C149.914 267.944 149.572 266.88 149.572 265.593V255.955H146.393V252.606H149.572V248.64H153.304V252.606H158.191V255.955H153.304V265.757C153.304 265.997 153.337 266.307 153.508 266.444C153.669 266.575 153.967 266.64 154.365 266.64H158.191V269.989H153.53V269.995Z" fill="#A3C0FF"/>
<path d="M150.922 268.473C150.319 267.747 150.021 266.787 150.021 265.598V255.523H146.842V253.047H150.021V249.082H152.868V253.047H157.756V255.523H152.868V265.762C152.868 266.247 152.99 266.585 153.239 266.787C153.482 266.983 153.863 267.082 154.378 267.082H157.761V269.558H153.543C152.404 269.558 151.536 269.193 150.933 268.467L150.922 268.473Z" fill="#A3C0FF"/>
<path d="M169.803 269.995C167.758 269.995 166.21 269.536 165.203 268.625C164.186 267.709 163.672 266.242 163.672 264.273V258.327C163.672 256.358 164.186 254.896 165.203 253.975C166.21 253.064 167.758 252.605 169.803 252.605H170.909C172.955 252.605 174.503 253.064 175.509 253.975C176.527 254.896 177.041 256.358 177.041 258.327V264.273C177.041 266.242 176.527 267.704 175.509 268.625C174.503 269.536 172.955 269.995 170.909 269.995H169.803ZM169.466 255.955C168.758 255.955 168.222 256.107 167.885 256.407C167.559 256.696 167.398 257.111 167.398 257.667V264.933C167.398 265.489 167.559 265.904 167.885 266.193C168.222 266.493 168.753 266.645 169.466 266.645H171.241C171.949 266.645 172.485 266.493 172.822 266.193C173.148 265.904 173.309 265.489 173.309 264.933V257.667C173.309 257.111 173.148 256.696 172.822 256.407C172.485 256.107 171.954 255.955 171.241 255.955H169.466Z" fill="#A3C0FF"/>
<path d="M175.21 268.304C174.281 269.144 172.849 269.558 170.908 269.558H169.802C167.862 269.558 166.424 269.138 165.501 268.304C164.572 267.469 164.113 266.122 164.113 264.273V258.327C164.113 256.478 164.578 255.136 165.501 254.296C166.43 253.462 167.862 253.042 169.802 253.042H170.908C172.849 253.042 174.286 253.462 175.21 254.296C176.133 255.131 176.597 256.478 176.597 258.327V264.273C176.597 266.122 176.133 267.464 175.21 268.304ZM173.114 256.08C172.689 255.704 172.064 255.518 171.24 255.518H169.465C168.641 255.518 168.017 255.704 167.591 256.08C167.165 256.456 166.955 256.986 166.955 257.667V264.933C166.955 265.615 167.165 266.144 167.591 266.52C168.017 266.896 168.641 267.082 169.465 267.082H171.24C172.064 267.082 172.689 266.896 173.114 266.52C173.54 266.144 173.75 265.615 173.75 264.933V257.667C173.75 256.986 173.54 256.456 173.114 256.08Z" fill="#A3C0FF"/>
<path d="M181.816 269.995V246H188.556C190.64 246 192.211 246.436 193.217 247.298C194.24 248.176 194.76 249.616 194.76 251.591V253.473C194.76 255.065 194.245 256.342 193.228 257.264C194.466 258.164 195.091 259.538 195.091 261.371V264.344C195.091 266.356 194.599 267.818 193.626 268.696C192.664 269.558 191.094 270 188.96 270H181.822L181.816 269.995ZM189.258 266.645C189.983 266.645 190.513 266.493 190.823 266.193C191.133 265.893 191.293 265.385 191.293 264.671V261.071C191.293 260.46 191.116 259.996 190.757 259.647C190.392 259.298 189.911 259.129 189.291 259.129H185.615V266.645H189.258ZM188.96 255.78C189.54 255.78 190.01 255.605 190.397 255.24C190.779 254.88 190.961 254.411 190.961 253.805V251.296C190.961 250.587 190.806 250.08 190.508 249.791C190.204 249.502 189.684 249.355 188.96 249.355H185.62V255.78H188.96Z" fill="#A3C0FF"/>
<path d="M193.329 268.369C192.444 269.16 190.99 269.558 188.961 269.558H182.266V246.436H188.563C190.548 246.436 192.007 246.835 192.931 247.625C193.854 248.416 194.319 249.742 194.319 251.591V253.473C194.319 255.169 193.705 256.445 192.477 257.307C193.926 258.098 194.656 259.456 194.656 261.371V264.344C194.656 266.236 194.214 267.578 193.334 268.375L193.329 268.369ZM190.819 249.475C190.426 249.098 189.807 248.913 188.961 248.913H185.179V256.211H188.961C189.652 256.211 190.233 255.993 190.703 255.551C191.173 255.109 191.405 254.525 191.405 253.8V251.291C191.405 250.456 191.211 249.851 190.819 249.475ZM191.068 259.336C190.62 258.905 190.028 258.693 189.293 258.693H185.174V267.082H189.26C190.106 267.082 190.736 266.891 191.134 266.504C191.538 266.116 191.737 265.505 191.737 264.671V261.071C191.737 260.345 191.515 259.767 191.068 259.336Z" fill="#A3C0FF"/>
<path d="M211.457 269.995C211.097 269.995 210.705 269.891 210.301 269.684C210.052 269.558 209.826 269.4 209.621 269.215C209.068 269.733 208.383 269.995 207.576 269.995H204.595C202.799 269.995 201.455 269.618 200.604 268.876C199.736 268.124 199.299 266.847 199.299 265.096V264.436C199.299 260.804 201.14 258.878 204.629 258.878H208.339V257.662C208.339 257.106 208.178 256.691 207.846 256.402C207.509 256.102 206.978 255.949 206.265 255.949H200.631V252.6H205.928C207.974 252.6 209.522 253.058 210.528 253.969C211.545 254.891 212.059 256.353 212.059 258.322V266.253C212.059 266.482 212.148 266.569 212.242 266.629C212.347 266.695 212.618 266.804 213.292 266.804H213.735V269.989H211.451L211.457 269.995ZM204.59 262.233C204.126 262.233 203.761 262.375 203.462 262.664C203.164 262.953 203.025 263.318 203.025 263.776V265.429C203.025 265.882 203.119 266.198 203.296 266.378C203.479 266.558 203.799 266.646 204.258 266.646H207.238C207.714 266.646 208.04 266.558 208.128 266.4C208.267 266.16 208.339 265.833 208.339 265.429V262.233H204.595H204.59Z" fill="#A3C0FF"/>
<path d="M210.501 269.296C210.153 269.122 209.86 268.876 209.617 268.571C209.103 269.231 208.423 269.564 207.577 269.564H204.597C202.899 269.564 201.666 269.226 200.898 268.555C200.129 267.884 199.742 266.733 199.742 265.102V264.442C199.742 261.027 201.373 259.32 204.63 259.32H208.782V257.667C208.782 256.986 208.572 256.456 208.146 256.08C207.72 255.704 207.096 255.518 206.272 255.518H201.08V253.042H205.935C207.875 253.042 209.313 253.462 210.236 254.296C211.159 255.131 211.624 256.478 211.624 258.327V266.258C211.624 266.591 211.751 266.836 212.011 267C212.265 267.164 212.696 267.246 213.299 267.246V269.558H211.458C211.165 269.558 210.85 269.471 210.501 269.296ZM208.511 266.618C208.688 266.307 208.776 265.915 208.776 265.429V261.796H204.591C204.01 261.796 203.529 261.982 203.154 262.358C202.778 262.735 202.584 263.204 202.584 263.776V265.429C202.584 266.002 202.717 266.422 202.988 266.684C203.259 266.946 203.679 267.082 204.259 267.082H207.239C207.908 267.082 208.334 266.929 208.511 266.618Z" fill="#A3C0FF"/>
<path d="M219.254 269.995V266.646H225.02C225.518 266.646 225.883 266.553 226.11 266.367C226.32 266.198 226.419 265.947 226.419 265.598V263.847C226.419 263.089 226.137 262.795 225.424 262.795H224.186C222.521 262.795 221.244 262.418 220.393 261.676C219.525 260.924 219.088 259.74 219.088 258.164V257.204C219.088 255.595 219.574 254.406 220.531 253.669C221.454 252.96 222.809 252.6 224.55 252.6H229.482V255.949H224.219C223.765 255.949 223.4 256.047 223.146 256.238C222.919 256.407 222.82 256.647 222.82 256.996V258.186C222.82 258.556 222.914 258.813 223.107 258.971C223.329 259.151 223.616 259.238 223.981 259.238H225.12C226.723 259.238 227.973 259.636 228.835 260.427C229.709 261.224 230.151 262.407 230.151 263.935V265.418C230.151 266.94 229.665 268.096 228.697 268.866C227.763 269.607 226.414 269.984 224.689 269.984H219.259L219.254 269.995Z" fill="#A3C0FF"/>
<path d="M228.414 268.538C227.557 269.22 226.308 269.564 224.682 269.564H219.695V267.087H225.019C225.622 267.087 226.081 266.962 226.391 266.706C226.706 266.455 226.861 266.084 226.861 265.598V263.847C226.861 262.855 226.38 262.358 225.423 262.358H224.185C222.62 262.358 221.453 262.02 220.685 261.349C219.916 260.678 219.529 259.615 219.529 258.164V257.204C219.529 255.731 219.955 254.667 220.801 254.018C221.647 253.369 222.896 253.042 224.55 253.042H229.039V255.518H224.218C223.659 255.518 223.212 255.644 222.88 255.9C222.543 256.151 222.377 256.522 222.377 257.007V258.196C222.377 258.704 222.526 259.08 222.83 259.32C223.134 259.56 223.516 259.686 223.986 259.686H225.125C226.617 259.686 227.756 260.046 228.541 260.76C229.321 261.475 229.713 262.538 229.713 263.946V265.429C229.713 266.815 229.282 267.851 228.425 268.533L228.414 268.538Z" fill="#A3C0FF"/>
<path d="M242.497 269.995C240.429 269.995 238.875 269.542 237.88 268.642C236.874 267.736 236.365 266.264 236.365 264.273V258.327C236.365 256.325 236.824 254.853 237.736 253.958C238.649 253.064 240.136 252.605 242.165 252.605H243.741C245.444 252.605 246.765 253.091 247.666 254.051C248.556 255 249.004 256.385 249.004 258.164V262.893H240.097V264.933C240.097 265.489 240.258 265.904 240.584 266.193C240.921 266.493 241.452 266.645 242.165 266.645H247.932V269.995H242.502H242.497ZM245.333 259.544V257.504C245.333 257.051 245.189 256.685 244.891 256.391C244.592 256.102 244.227 255.96 243.763 255.96H241.822C241.153 255.96 240.7 256.091 240.462 256.358C240.213 256.636 240.086 257.084 240.086 257.673V259.549H245.328L245.333 259.544Z" fill="#A3C0FF"/>
<path d="M238.178 268.32C237.26 267.496 236.807 266.144 236.807 264.273V258.327C236.807 256.435 237.221 255.082 238.045 254.264C238.869 253.446 240.246 253.042 242.164 253.042H243.74C245.327 253.042 246.526 253.478 247.339 254.346C248.152 255.213 248.561 256.489 248.561 258.158V262.451H239.654V264.927C239.654 265.609 239.864 266.138 240.29 266.515C240.716 266.891 241.34 267.076 242.164 267.076H247.488V269.553H242.501C240.539 269.553 239.096 269.138 238.183 268.315L238.178 268.32ZM245.78 257.504C245.78 256.931 245.592 256.456 245.211 256.086C244.829 255.709 244.354 255.524 243.773 255.524H241.832C241.031 255.524 240.467 255.704 240.141 256.069C239.814 256.435 239.654 256.969 239.654 257.673V259.986H245.78V257.509V257.504Z" fill="#A3C0FF"/>
</g>
<defs>
<linearGradient id="paint0_linear_917_141493" x1="183.849" y1="68" x2="183.849" y2="191.597" gradientUnits="userSpaceOnUse">
<stop stop-color="white"/>
<stop offset="0.416667" stop-color="#00F4C8"/>
<stop offset="1" stop-color="#0E82EE"/>
</linearGradient>
<linearGradient id="paint1_linear_917_141493" x1="174.152" y1="102.412" x2="174.152" y2="226" gradientUnits="userSpaceOnUse">
<stop stop-color="white"/>
<stop offset="0.416667" stop-color="#00F4C8"/>
<stop offset="1" stop-color="#0E82EE"/>
</linearGradient>
<clipPath id="clip0_917_141493">
<rect width="358" height="338" rx="18" fill="white"/>
</clipPath>
</defs>
</svg>
