<svg width="261" height="53" viewBox="0 0 261 53" fill="none" xmlns="http://www.w3.org/2000/svg">
<path d="M80.1655 11.1928C78.2541 9.72595 76.0214 8.9812 73.5291 8.9812C71.0369 8.9812 68.8026 9.72595 66.8927 11.1928C64.9903 12.6536 63.4998 14.7307 62.4619 17.3652C61.43 19.9847 60.9065 23.0498 60.9065 26.4774C60.9065 29.9051 61.43 32.9717 62.4619 35.5896C63.4998 38.2257 64.9903 40.2967 66.8927 41.7485C68.8041 43.2062 71.0369 43.9449 73.5291 43.9449C76.0214 43.9449 78.2541 43.2062 80.1655 41.7485C82.0679 40.2982 83.5584 38.2257 84.5979 35.5896C85.6298 32.9701 86.1533 29.9035 86.1533 26.4774C86.1533 23.0513 85.6298 19.9847 84.5979 17.3652C83.5599 14.7307 82.0694 12.6536 80.1671 11.1928H80.1655ZM77.8709 37.6879C76.6278 38.6985 75.1675 39.2106 73.5291 39.2106C71.8908 39.2106 70.4289 38.6985 69.1873 37.6879C67.9321 36.6667 66.947 35.1847 66.2591 33.2828C65.5636 31.3628 65.2106 29.0727 65.2106 26.4774C65.2106 23.8821 65.5636 21.5875 66.2591 19.6569C66.947 17.7459 67.9321 16.2595 69.1873 15.2398C70.4304 14.2292 71.8908 13.7171 73.5291 13.7171C75.1675 13.7171 76.6293 14.2292 77.8709 15.2398C79.1246 16.2595 80.1097 17.7459 80.7992 19.6569C81.4946 21.5875 81.8477 23.8821 81.8477 26.4774C81.8477 29.0727 81.4946 31.3613 80.8007 33.2828C80.1127 35.1847 79.1261 36.6667 77.8724 37.6879H77.8709Z" fill="white"/>
<path d="M106.794 36.1892C105.717 37.1651 104.507 37.9204 103.198 38.4355C101.888 38.9491 100.518 39.2105 99.126 39.2105C97.7336 39.2105 96.418 38.8253 95.3273 38.0639C94.2305 37.2995 93.3676 36.2194 92.7596 34.8538C92.1471 33.4761 91.8364 31.8869 91.8364 30.1331C91.8364 28.3792 92.1652 26.8187 92.8155 25.4319C93.4596 24.0558 94.3633 22.9696 95.4978 22.2052C96.6293 21.4424 97.9267 21.0571 99.3584 21.0571C100.695 21.0571 101.852 21.2913 102.798 21.752C103.729 22.2067 104.438 22.8518 104.906 23.6675C105.376 24.4923 105.616 25.4561 105.616 26.5317C105.616 27.2704 105.773 27.7961 106.097 28.136C106.42 28.4759 106.951 28.6481 107.674 28.6481C108.396 28.6481 108.928 28.4759 109.25 28.136C109.575 27.7946 109.732 27.2704 109.732 26.5317V18.4377C109.732 17.699 109.575 17.1748 109.25 16.8334C108.921 16.489 108.407 16.3213 107.674 16.3213C106.941 16.3213 106.425 16.489 106.097 16.8334C105.773 17.1733 105.616 17.699 105.616 18.4377V19.2519C104.89 18.4241 104.044 17.7579 103.094 17.2624C101.891 16.6385 100.556 16.3213 99.1245 16.3213C96.8706 16.3213 94.8385 16.9301 93.0855 18.1325C91.3385 19.3305 89.9596 20.9967 88.9881 23.0829C88.0211 25.16 87.5308 27.5317 87.5308 30.1331C87.5308 32.7344 88.0135 35.1046 88.964 37.1817C89.9189 39.2694 91.2902 40.9356 93.0387 42.1336C94.7918 43.336 96.839 43.9448 99.1245 43.9448C100.932 43.9448 102.724 43.6185 104.453 42.9765C106.182 42.3345 107.704 41.4326 108.971 40.2997C109.539 39.8132 109.827 39.1924 109.827 38.4506C109.827 37.9778 109.697 37.4808 109.442 36.9732C108.721 35.5638 107.793 35.2828 106.793 36.1892H106.794Z" fill="white"/>
<path d="M133.904 36.2241C133.566 36.2241 133.257 36.3419 132.993 36.567C131.94 37.3858 130.836 38.049 129.709 38.5384C128.597 39.0218 127.526 39.2665 126.526 39.2665C125.092 39.2665 124.124 38.8284 123.56 37.9296C122.976 36.9975 122.68 35.4824 122.68 33.4279V23.5695H132.006C132.632 23.5695 133.094 23.3852 133.379 23.0211C133.651 22.6752 133.784 22.1344 133.784 21.3685C133.784 20.6026 133.651 20.0633 133.379 19.7158C133.094 19.3518 132.631 19.1675 132.006 19.1675H122.68V11.0961C122.68 10.3574 122.523 9.83325 122.199 9.49184C121.87 9.14742 121.356 8.97974 120.622 8.97974C119.889 8.97974 119.373 9.14742 119.046 9.49184C118.721 9.83174 118.565 10.3574 118.565 11.0961V19.1675H114.111C113.485 19.1675 113.023 19.3518 112.738 19.7158C112.467 20.0618 112.334 20.6026 112.334 21.3685C112.334 22.1344 112.467 22.6737 112.738 23.0211C113.023 23.3852 113.485 23.5695 114.111 23.5695H118.565V33.7905C118.565 37.1169 119.203 39.6623 120.462 41.3542C121.743 43.0733 123.783 43.9465 126.526 43.9465C127.853 43.9465 129.301 43.6444 130.828 43.0461C132.346 42.4525 133.741 41.6835 134.971 40.7621C135.567 40.3315 135.868 39.7605 135.868 39.0656C135.868 38.6683 135.761 38.2197 135.538 37.6879C135.113 36.7166 134.562 36.2226 133.903 36.2226L133.904 36.2241Z" fill="white"/>
<path d="M158.963 23.0391C157.967 20.9423 156.573 19.2821 154.817 18.1023C153.056 16.9195 151.053 16.3213 148.862 16.3213C146.672 16.3213 144.668 16.921 142.908 18.1023C141.152 19.2821 139.758 20.9423 138.762 23.0391C137.771 25.1268 137.269 27.5136 137.269 30.1331C137.269 32.7525 137.771 35.1393 138.762 37.227C139.756 39.3238 141.152 40.984 142.908 42.1638C144.668 43.3466 146.672 43.9448 148.862 43.9448C151.053 43.9448 153.055 43.3451 154.817 42.1638C156.573 40.9855 157.967 39.3238 158.963 37.227C159.954 35.1393 160.456 32.7525 160.456 30.1331C160.456 27.5136 159.954 25.1268 158.963 23.0391ZM152.687 38.076C151.596 38.8283 150.309 39.209 148.864 39.209C147.419 39.209 146.132 38.8283 145.041 38.076C143.946 37.3207 143.086 36.2466 142.487 34.881C141.882 33.5033 141.576 31.905 141.576 30.1315C141.576 28.3581 141.882 26.7598 142.487 25.3821C143.084 24.018 143.944 22.9439 145.041 22.1886C146.133 21.4363 147.419 21.0556 148.864 21.0556C150.309 21.0556 151.596 21.4363 152.687 22.1886C153.782 22.9439 154.642 24.018 155.241 25.3821C155.846 26.7613 156.152 28.3596 156.152 30.1315C156.152 31.9035 155.846 33.5018 155.241 34.881C154.642 36.2466 153.782 37.3207 152.687 38.076Z" fill="white"/>
<path d="M179.807 25.2296C180.638 24.5634 181.299 23.7401 181.777 22.7733C182.334 21.6479 182.617 20.3397 182.617 18.8849C182.617 17.0434 182.281 15.4074 181.616 14.0222C180.944 12.6248 179.931 11.5236 178.603 10.7516C177.282 9.98423 175.661 9.59448 173.791 9.59448H162.055C161.429 9.59448 160.967 9.77878 160.682 10.1428C160.411 10.4888 160.278 11.0296 160.278 11.7955C160.278 12.5614 160.411 13.1022 160.682 13.4481C160.967 13.8122 161.429 13.9965 162.055 13.9965H164.611V38.9326H162.055C161.429 38.9326 160.967 39.1169 160.682 39.4809C160.411 39.8269 160.278 40.3677 160.278 41.1336C160.278 41.8995 160.411 42.4403 160.682 42.7847C160.967 43.1488 161.429 43.3331 162.055 43.3331H175.337C177.286 43.3331 178.976 42.9343 180.358 42.1487C181.747 41.3587 182.821 40.2181 183.548 38.7543C184.269 37.3041 184.635 35.5593 184.635 33.5683C184.635 31.4549 184.174 29.6497 183.265 28.201C182.441 26.8913 181.281 25.8928 179.81 25.2311L179.807 25.2296ZM180.327 33.5668C180.327 35.2768 179.836 36.6123 178.864 37.5337C177.888 38.4598 176.465 38.9296 174.632 38.9296H168.726V28.1179H174.749C178.502 28.1179 180.326 29.9005 180.326 33.5653L180.327 33.5668ZM168.726 23.719V13.995H173.273C175.011 13.995 176.319 14.4074 177.162 15.2216C178.003 16.0343 178.428 17.2655 178.428 18.8834C178.428 20.5013 177.994 21.6328 177.138 22.4621C176.278 23.2945 174.978 23.7174 173.272 23.7174H168.725L168.726 23.719Z" fill="white"/>
<path d="M209.267 38.931H208.448C207.914 38.931 207.204 38.7331 207.204 37.0276V25.9184C207.204 22.7838 206.436 20.3758 204.92 18.761C203.399 17.1416 201.103 16.3213 198.095 16.3213C196.559 16.3213 195.006 16.5464 193.478 16.989C191.951 17.4316 190.503 18.0767 189.177 18.906C188.506 19.3169 188.166 19.9106 188.166 20.6704C188.166 21.0103 188.257 21.4106 188.444 21.8955C188.835 22.9137 189.363 23.4288 190.014 23.4288C190.289 23.4288 190.588 23.3291 190.897 23.1343C192.01 22.462 193.202 21.9273 194.438 21.5451C195.667 21.1644 196.867 20.9725 198.003 20.9725C199.801 20.9725 201.112 21.3698 201.901 22.1554C202.688 22.9394 203.088 24.2053 203.088 25.9184V27.8429C200.92 26.9955 198.627 26.5649 196.269 26.5649C193.416 26.5649 191.052 27.2961 189.242 28.7387C187.411 30.198 186.481 32.47 186.481 35.4928C186.481 37.2315 186.84 38.7558 187.551 40.0232C188.263 41.2967 189.262 42.2816 190.518 42.9478C191.766 43.6095 193.222 43.9463 194.84 43.9463C196.55 43.9463 198.19 43.5702 199.716 42.8269C201.083 42.1623 202.378 41.2317 203.571 40.061C203.839 41.0368 204.307 41.8073 204.966 42.3556C205.745 43.0037 206.689 43.333 207.771 43.333H209.27C209.896 43.333 210.358 43.1487 210.643 42.7846C210.915 42.4387 211.048 41.8979 211.048 41.132C211.048 40.3661 210.915 39.8268 210.643 39.4794C210.358 39.1153 209.895 38.931 209.27 38.931H209.267ZM203.087 32.2691V34.9943C200.676 37.9219 197.948 39.4054 194.979 39.4054C193.644 39.4054 192.6 39.0534 191.873 38.3585C191.15 37.6681 190.784 36.6756 190.784 35.4097C190.784 33.8991 191.251 32.8341 192.214 32.1528C193.196 31.4579 194.567 31.1059 196.292 31.1059C197.5 31.1059 198.721 31.2132 199.917 31.4216C201.036 31.618 202.101 31.9035 203.088 32.2676L203.087 32.2691Z" fill="white"/>
<path d="M230.009 28.6269C229.166 28.2674 228.258 27.9924 227.312 27.8127C226.384 27.6359 225.145 27.4426 223.626 27.2371C222.563 27.1087 221.68 26.9879 221.004 26.8761C220.348 26.7688 219.766 26.6147 219.272 26.4183C218.698 26.1963 218.26 25.9138 217.975 25.5815C217.7 25.2627 217.568 24.8533 217.568 24.3276C217.568 23.2641 217.946 22.462 218.725 21.8759C219.518 21.2776 220.651 20.974 222.092 20.974C224.003 20.974 225.6 21.2776 226.832 21.8789C228.041 22.468 228.977 23.5013 229.617 24.956C229.884 25.5467 230.368 25.8594 231.017 25.8594C231.74 25.8594 232.271 25.6872 232.594 25.3473C232.918 25.0059 233.075 24.4817 233.075 23.743V18.4392C233.075 17.7005 232.918 17.1763 232.594 16.8349C232.265 16.4904 231.75 16.3228 231.017 16.3228C230.284 16.3228 229.768 16.4904 229.441 16.8349C229.116 17.1748 228.959 17.7005 228.959 18.4392V18.9724C228.14 18.2201 227.193 17.6113 226.135 17.1566C224.845 16.6037 223.408 16.3228 221.858 16.3228C220.229 16.3228 218.746 16.6324 217.455 17.2458C216.15 17.8636 215.113 18.7911 214.374 19.9981C213.638 21.2036 213.264 22.6614 213.264 24.3291C213.264 25.9969 213.6 27.2462 214.262 28.2508C214.923 29.2508 215.858 30.0439 217.044 30.6043C217.891 31.0031 218.827 31.3113 219.829 31.5198C220.816 31.7252 222.06 31.9231 223.533 32.1104C224.616 32.2403 225.518 32.3748 226.217 32.5123C226.906 32.6482 227.525 32.8174 228.047 33.0123C228.638 33.2525 229.095 33.5622 229.404 33.9308C229.703 34.2873 229.849 34.7359 229.849 35.2994C229.849 36.517 229.41 37.4626 228.51 38.1908C227.6 38.9249 226.262 39.2965 224.53 39.2965C222.41 39.2965 220.7 38.8992 219.443 38.1137C218.2 37.3388 217.298 36.0789 216.758 34.3643C216.599 33.9036 216.414 33.5773 216.187 33.3628C215.943 33.1316 215.613 33.0153 215.207 33.0153C214.473 33.0153 213.958 33.183 213.63 33.5274C213.306 33.8673 213.149 34.393 213.149 35.1317V41.8314C213.149 42.5701 213.306 43.0958 213.63 43.4357C213.958 43.7801 214.473 43.9478 215.208 43.9478C215.943 43.9478 216.457 43.7801 216.785 43.4357C217.109 43.0943 217.266 42.5701 217.266 41.8314V41.0504C218.124 41.9281 219.106 42.6109 220.194 43.0852C221.507 43.6578 223.044 43.9478 224.765 43.9478C226.708 43.9478 228.406 43.5898 229.809 42.8828C231.222 42.1713 232.313 41.1486 233.051 39.8449C233.784 38.5488 234.155 37.02 234.155 35.2994C234.155 33.5788 233.787 32.1527 233.06 31.0817C232.336 30.0152 231.31 29.1904 230.012 28.6284L230.009 28.6269Z" fill="white"/>
<path d="M258.275 22.6554C257.397 20.6855 256.119 19.122 254.479 18.0072C252.835 16.8893 250.827 16.3213 248.513 16.3213C246.198 16.3213 244.289 16.9059 242.56 18.0615C240.834 19.2142 239.465 20.8562 238.495 22.9439C237.528 25.0211 237.038 27.4411 237.038 30.1331C237.038 32.825 237.488 35.4263 238.375 37.4823C239.269 39.5579 240.592 41.1713 242.306 42.2786C244.018 43.3844 246.108 43.9463 248.513 43.9463C250.187 43.9463 251.877 43.7167 253.535 43.2665C255.194 42.8149 256.653 42.2121 257.874 41.4764C258.655 41.0112 259.052 40.3419 259.052 39.4869C259.052 39.1365 258.975 38.7452 258.824 38.3268C258.435 37.2104 257.89 36.6454 257.204 36.6454C256.928 36.6454 256.631 36.7451 256.308 36.9491C255.274 37.6545 254.057 38.2286 252.687 38.6546C251.317 39.0806 249.913 39.2966 248.513 39.2966C246.286 39.2966 244.545 38.6123 243.338 37.2618C242.167 35.952 241.501 34.0048 241.357 31.4715H258C258.62 31.4715 259.079 31.3053 259.364 30.9775C259.643 30.6572 259.778 30.1542 259.778 29.4246C259.651 26.8867 259.145 24.6102 258.276 22.6584L258.275 22.6554ZM243.951 22.6373C245.144 21.533 246.68 20.9725 248.513 20.9725C250.453 20.9725 252.002 21.5134 253.118 22.5784C254.179 23.5905 254.888 25.0634 255.231 26.9562H241.644C242.045 25.1344 242.821 23.6826 243.951 22.6373Z" fill="white"/>
<path d="M49.9011 8.28474C49.1936 7.57625 48.047 7.57625 47.341 8.28474C44.1623 11.4677 38.9832 10.5582 34.4528 6.02178C27.3834 -1.05707 15.9209 -1.05707 8.85003 6.02178C1.78365 13.0976 1.78064 24.5664 8.83796 31.6468L8.84853 31.6588L17.7026 40.5248C18.4102 41.2333 19.5552 41.2333 20.2627 40.5248C20.9703 39.8163 20.9703 38.6697 20.2627 37.9612L11.4087 29.0953L16.5289 23.9682L25.383 32.8341C26.0905 33.5426 27.2356 33.5426 27.9431 32.8341C28.6507 32.1256 28.6507 30.9791 27.9431 30.2706L19.089 21.4046L24.2093 16.2775L33.0634 25.1435C33.7709 25.8519 34.916 25.8519 35.6235 25.1435C36.3311 24.435 36.3311 23.2884 35.6235 22.5799L26.7694 13.714L31.8897 8.58686C34.8481 11.5492 38.1429 13.3212 41.4151 13.7094C41.8647 13.7623 42.3112 13.7895 42.7502 13.7895C45.4809 13.7895 47.9806 12.7698 49.8981 10.8513C50.6056 10.1428 50.6056 8.99625 49.8981 8.28776L49.9011 8.28474ZM13.2899 19.545C12.2007 20.6357 10.4326 20.6357 9.34335 19.545C8.25413 18.4544 8.25413 16.6839 9.34335 15.5932C10.4326 14.5025 12.2007 14.5025 13.2899 15.5932C14.3791 16.6839 14.3791 18.4544 13.2899 19.545ZM22.3567 10.4661C21.2675 11.5568 19.4994 11.5568 18.4102 10.4661C17.3209 9.37542 17.3209 7.60495 18.4102 6.51427C19.4994 5.42357 21.2675 5.42357 22.3567 6.51427C23.4459 7.60495 23.4459 9.37542 22.3567 10.4661Z" fill="white"/>
<path d="M42.085 21.3743L33.1993 12.4767C32.4917 11.7682 31.3467 11.7682 30.6391 12.4767C29.9316 13.1852 29.9316 14.3317 30.6391 15.0402L39.4932 23.9062L34.373 29.0333L25.5189 20.1673C24.8113 19.4589 23.6663 19.4589 22.9587 20.1673C22.2512 20.8758 22.2512 22.0224 22.9587 22.7309L31.8128 31.5968L26.6926 36.7239L17.8385 27.858C17.1309 27.1495 15.9859 27.1495 15.2784 27.858C14.5708 28.5665 14.5708 29.7131 15.2784 30.4216L24.1324 39.2875L19.0122 44.4146C16.0538 41.4522 12.759 39.6803 9.48676 39.292C6.24172 38.9068 3.22902 39.922 1.0038 42.1501C0.296259 42.8586 0.296259 44.0052 1.0038 44.7137C1.71134 45.4222 2.85639 45.4222 3.56393 44.7137C6.74258 41.5308 11.9217 42.4402 16.4521 46.9766C23.5215 54.0555 34.984 54.0555 42.0534 46.9766C49.1122 39.9084 49.1228 28.4547 42.085 21.3728V21.3743ZM32.4947 46.4872C31.4055 47.5779 29.6374 47.5779 28.5482 46.4872C27.459 45.395 27.459 43.626 28.5482 42.5354C29.6374 41.4447 31.4055 41.4447 32.4947 42.5354C33.584 43.626 33.584 45.3965 32.4947 46.4872ZM41.5615 37.4083C40.4723 38.4989 38.7042 38.4989 37.615 37.4083C36.5258 36.3161 36.5258 34.5471 37.615 33.4564C38.7042 32.3657 40.4723 32.3657 41.5615 33.4564C42.6508 34.5471 42.6508 36.3176 41.5615 37.4083Z" fill="white"/>
</svg>
