<svg width="484" height="456" viewBox="0 0 484 456" fill="none" xmlns="http://www.w3.org/2000/svg">
<path d="M430.557 174.054C432.343 179.081 429.716 184.604 424.69 186.39C419.663 188.177 414.14 185.55 412.353 180.523C410.567 175.497 413.194 169.973 418.22 168.187C423.247 166.4 428.77 169.027 430.557 174.054Z" />
<path d="M438.067 213.788C438.769 219.077 435.051 223.933 429.763 224.635C424.475 225.338 419.618 221.62 418.916 216.332C418.214 211.043 421.931 206.187 427.22 205.485C432.508 204.782 437.364 208.5 438.067 213.788Z" />
<path d="M437.151 254.216C436.739 259.534 432.093 263.512 426.774 263.099C421.455 262.687 417.478 258.041 417.89 252.722C418.303 247.403 422.949 243.426 428.268 243.838C433.586 244.251 437.564 248.897 437.151 254.216Z" />
<path d="M427.85 293.569C426.341 298.686 420.97 301.61 415.853 300.101C410.736 298.592 407.812 293.22 409.321 288.104C410.83 282.987 416.202 280.062 421.319 281.572C426.435 283.081 429.36 288.453 427.85 293.569Z" />
<path d="M410.571 330.129C408.031 334.82 402.168 336.564 397.477 334.024C392.786 331.484 391.042 325.622 393.583 320.93C396.123 316.239 401.985 314.496 406.676 317.036C411.367 319.576 413.111 325.438 410.571 330.129Z" />
<path d="M386.068 362.298C382.608 366.358 376.511 366.845 372.45 363.385C368.39 359.925 367.903 353.828 371.363 349.768C374.823 345.707 380.92 345.22 384.98 348.681C389.041 352.141 389.528 358.237 386.068 362.298Z" />
<path d="M355.412 388.669C351.183 391.921 345.118 391.13 341.866 386.901C338.614 382.672 339.405 376.608 343.634 373.355C347.862 370.103 353.927 370.894 357.179 375.123C360.432 379.352 359.64 385.416 355.412 388.669Z" />
<path d="M319.943 408.09C315.13 410.392 309.363 408.357 307.061 403.544C304.758 398.732 306.793 392.964 311.606 390.662C316.418 388.36 322.186 390.395 324.488 395.207C326.79 400.02 324.755 405.787 319.943 408.09Z" />
<path d="M281.211 419.712C276.025 420.963 270.807 417.773 269.555 412.587C268.304 407.401 271.494 402.183 276.68 400.932C281.866 399.68 287.084 402.87 288.335 408.056C289.587 413.242 286.397 418.46 281.211 419.712Z" />
<path d="M240.909 423.027C235.577 423.173 231.135 418.968 230.99 413.635C230.844 408.302 235.049 403.861 240.382 403.715C245.714 403.57 250.156 407.775 250.301 413.107C250.447 418.44 246.242 422.881 240.909 423.027Z" />
<path d="M200.799 417.891C195.553 416.925 192.083 411.888 193.049 406.642C194.015 401.395 199.052 397.925 204.298 398.891C209.545 399.858 213.014 404.894 212.048 410.141C211.082 415.387 206.046 418.857 200.799 417.891Z" />
<path d="M162.633 404.527C157.702 402.491 155.355 396.844 157.391 391.913C159.427 386.982 165.075 384.635 170.006 386.671C174.937 388.707 177.284 394.354 175.248 399.285C173.212 404.216 167.564 406.563 162.633 404.527Z" />
<path d="M128.08 383.521C123.68 380.504 122.558 374.492 125.575 370.092C128.592 365.692 134.604 364.571 139.004 367.587C143.404 370.604 144.525 376.616 141.509 381.016C138.492 385.416 132.48 386.538 128.08 383.521Z" />
<path d="M98.6489 355.789C94.9723 351.924 95.1254 345.81 98.9909 342.133C102.856 338.457 108.971 338.61 112.647 342.475C116.324 346.341 116.171 352.455 112.305 356.131C108.44 359.808 102.325 359.655 98.6489 355.789Z" />
<path d="M75.6268 322.545C72.8343 317.999 74.2552 312.051 78.8007 309.258C83.3461 306.466 89.2948 307.887 92.0873 312.432C94.8799 316.977 93.4589 322.926 88.9135 325.719C84.368 328.511 78.4194 327.09 75.6268 322.545Z" />
<path d="M60.0198 285.24C58.2333 280.213 60.86 274.69 65.8867 272.904C70.9135 271.117 76.4367 273.744 78.2232 278.771C80.0097 283.797 77.383 289.321 72.3562 291.107C67.3295 292.894 61.8063 290.267 60.0198 285.24Z" />
<path d="M52.5099 245.506C51.8076 240.218 55.5252 235.361 60.8135 234.659C66.1018 233.956 70.9582 237.674 71.6606 242.962C72.3629 248.251 68.6453 253.107 63.3569 253.809C58.0686 254.512 53.2122 250.794 52.5099 245.506Z" />
<path d="M53.4253 205.078C53.8378 199.76 58.484 195.782 63.8027 196.195C69.1215 196.607 73.0988 201.253 72.6863 206.572C72.2738 211.891 67.6277 215.868 62.3089 215.456C56.9902 215.043 53.0128 210.397 53.4253 205.078Z" />
<path d="M62.7261 165.725C64.2354 160.608 69.607 157.684 74.7237 159.193C79.8405 160.702 82.7649 166.074 81.2556 171.191C79.7463 176.307 74.3748 179.232 69.258 177.722C64.1412 176.213 61.2168 170.842 62.7261 165.725Z" />
<path d="M80.0057 129.165C82.5459 124.474 88.4081 122.73 93.0992 125.27C97.7904 127.81 99.5341 133.672 96.9939 138.364C94.4537 143.055 88.5916 144.798 83.9004 142.258C79.2092 139.718 77.4655 133.856 80.0057 129.165Z" />
<path d="M104.509 96.9964C107.969 92.9359 114.066 92.4491 118.126 95.9091C122.187 99.3691 122.673 105.466 119.213 109.526C115.753 113.587 109.657 114.074 105.596 110.614C101.536 107.154 101.049 101.057 104.509 96.9964Z" />
<path d="M135.165 70.6255C139.394 67.3731 145.458 68.1645 148.711 72.3931C151.963 76.6217 151.172 82.6863 146.943 85.9387C142.714 89.1911 136.65 88.3997 133.397 84.1711C130.145 79.9424 130.936 73.8779 135.165 70.6255Z" />
<path d="M170.634 51.2046C175.446 48.9024 181.214 50.9374 183.516 55.7498C185.818 60.5623 183.783 66.3298 178.971 68.632C174.158 70.9341 168.391 68.8991 166.089 64.0867C163.786 59.2742 165.821 53.5067 170.634 51.2046Z" />
<path d="M209.366 39.5824C214.551 38.3311 219.77 41.5208 221.021 46.7067C222.272 51.8927 219.083 57.111 213.897 58.3623C208.711 59.6136 203.492 56.4239 202.241 51.238C200.99 46.0521 204.18 40.8337 209.366 39.5824Z" />
<path d="M249.667 36.267C255 36.1213 259.441 40.3262 259.587 45.659C259.733 50.9918 255.528 55.4329 250.195 55.5786C244.862 55.7244 240.421 51.5194 240.275 46.1867C240.129 40.8539 244.334 36.4127 249.667 36.267Z" />
<path d="M289.777 41.4033C295.024 42.3695 298.494 47.4059 297.528 52.6524C296.561 57.8989 291.525 61.3688 286.278 60.4026C281.032 59.4364 277.562 54.4 278.528 49.1535C279.494 43.9069 284.531 40.4371 289.777 41.4033Z" />
<path d="M327.943 54.7667C332.874 56.8026 335.221 62.4503 333.185 67.3813C331.149 72.3123 325.502 74.6592 320.571 72.6233C315.64 70.5874 313.293 64.9396 315.329 60.0087C317.365 55.0777 323.012 52.7308 327.943 54.7667Z" />
<path d="M362.497 75.7732C366.897 78.7898 368.018 84.8021 365.001 89.202C361.985 93.602 355.973 94.7234 351.573 91.7068C347.173 88.6901 346.051 82.6778 349.068 78.2779C352.084 73.8779 358.097 72.7565 362.497 75.7732Z" />
<path d="M391.928 103.505C395.604 107.37 395.451 113.484 391.586 117.161C387.72 120.837 381.606 120.684 377.929 116.819C374.253 112.953 374.406 106.839 378.271 103.163C382.137 99.486 388.251 99.6392 391.928 103.505Z" />
<path d="M414.95 136.749C417.742 141.295 416.321 147.243 411.776 150.036C407.23 152.828 401.282 151.408 398.489 146.862C395.697 142.317 397.118 136.368 401.663 133.575C406.208 130.783 412.157 132.204 414.95 136.749Z" />
</svg>
