<svg width="358" height="338" viewBox="0 0 358 338" fill="none" xmlns="http://www.w3.org/2000/svg">
<path d="M342.882 147.382C343.706 151.776 340.811 156.006 336.417 156.83C332.023 157.654 327.793 154.76 326.969 150.365C326.145 145.971 329.039 141.741 333.434 140.917C337.828 140.093 342.058 142.988 342.882 147.382Z" />
<path d="M343.921 181.255C343.813 185.725 340.102 189.261 335.633 189.153C331.163 189.045 327.627 185.334 327.735 180.865C327.843 176.395 331.553 172.859 336.023 172.967C340.493 173.075 344.028 176.786 343.921 181.255Z" />
<path d="M337.894 214.604C336.859 218.954 332.495 221.641 328.145 220.606C323.796 219.571 321.109 215.207 322.143 210.857C323.178 206.508 327.543 203.821 331.892 204.855C336.242 205.89 338.929 210.255 337.894 214.604Z" />
<path d="M325.066 245.971C323.149 250.011 318.321 251.732 314.282 249.815C310.243 247.899 308.522 243.071 310.438 239.032C312.354 234.992 317.182 233.271 321.222 235.188C325.261 237.104 326.982 241.932 325.066 245.971Z" />
<path d="M305.996 273.986C303.281 277.539 298.201 278.218 294.649 275.504C291.096 272.79 290.416 267.709 293.131 264.157C295.845 260.604 300.925 259.924 304.478 262.639C308.031 265.353 308.71 270.433 305.996 273.986Z" />
<path d="M281.518 297.424C278.125 300.334 273.014 299.943 270.103 296.549C267.193 293.155 267.584 288.045 270.978 285.134C274.371 282.224 279.482 282.615 282.393 286.009C285.303 289.402 284.912 294.513 281.518 297.424Z" />
<path d="M252.702 315.26C248.778 317.401 243.86 315.956 241.719 312.031C239.577 308.106 241.023 303.189 244.948 301.048C248.872 298.906 253.79 300.352 255.931 304.276C258.073 308.201 256.627 313.118 252.702 315.26Z" />
<path d="M220.808 326.715C216.524 327.994 212.015 325.557 210.736 321.273C209.457 316.989 211.894 312.48 216.178 311.201C220.462 309.922 224.971 312.359 226.25 316.643C227.528 320.927 225.092 325.436 220.808 326.715Z" />
<path d="M187.229 331.289C182.773 331.649 178.868 328.328 178.508 323.872C178.148 319.416 181.469 315.511 185.925 315.151C190.382 314.791 194.286 318.112 194.646 322.568C195.006 327.024 191.685 330.929 187.229 331.289Z" />
<path d="M153.433 328.781C148.999 328.207 145.87 324.147 146.445 319.713C147.019 315.279 151.079 312.151 155.513 312.725C159.946 313.299 163.075 317.359 162.501 321.793C161.926 326.227 157.866 329.356 153.433 328.781Z" />
<path d="M120.896 319.302C116.679 317.818 114.463 313.196 115.946 308.979C117.43 304.762 122.052 302.545 126.269 304.029C130.487 305.513 132.703 310.134 131.219 314.352C129.735 318.569 125.114 320.785 120.896 319.302Z" />
<path d="M91.0419 303.265C87.2251 300.937 86.0182 295.955 88.3463 292.138C90.6743 288.322 95.6558 287.115 99.4726 289.443C103.289 291.771 104.496 296.752 102.168 300.569C99.8402 304.386 94.8587 305.593 91.0419 303.265Z" />
<path d="M65.1741 281.371C61.9247 278.3 61.7799 273.177 64.8507 269.927C67.9215 266.678 73.045 266.533 76.2944 269.604C79.5438 272.675 79.6886 277.798 76.6178 281.048C73.547 284.297 68.4235 284.442 65.1741 281.371Z" />
<path d="M44.4235 254.578C41.8836 250.898 42.8072 245.857 46.4865 243.317C50.1657 240.777 55.2074 241.7 57.7473 245.38C60.2872 249.059 59.3637 254.101 55.6844 256.641C52.0051 259.18 46.9635 258.257 44.4235 254.578Z" />
<path d="M29.6971 224.055C27.9776 219.928 29.9293 215.189 34.0562 213.47C38.1831 211.75 42.9226 213.702 44.6421 217.829C46.3615 221.956 44.4099 226.695 40.283 228.414C36.156 230.134 31.4166 228.182 29.6971 224.055Z" />
<path d="M21.6384 191.138C20.8145 186.744 23.7089 182.514 28.1031 181.69C32.4974 180.866 36.7275 183.761 37.5514 188.155C38.3753 192.549 35.4809 196.779 31.0866 197.603C26.6924 198.427 22.4622 195.533 21.6384 191.138Z" />
<path d="M20.5996 157.265C20.7074 152.796 24.418 149.26 28.8875 149.367C33.357 149.475 36.8929 153.186 36.7852 157.655C36.6774 162.125 32.9668 165.661 28.4973 165.553C24.0278 165.445 20.4919 161.735 20.5996 157.265Z" />
<path d="M26.6262 123.916C27.6609 119.567 32.0255 116.88 36.375 117.914C40.7244 118.949 43.4116 123.314 42.3769 127.663C41.3423 132.012 36.9776 134.7 32.6281 133.665C28.2787 132.63 25.5915 128.266 26.6262 123.916Z" />
<path d="M39.4547 92.5489C41.3711 88.5096 46.1991 86.7886 50.2384 88.705C54.2776 90.6214 55.9986 95.4493 54.0822 99.4886C52.1659 103.528 47.3379 105.249 43.2986 103.333C39.2593 101.416 37.5384 96.5882 39.4547 92.5489Z" />
<path d="M58.5245 64.5343C61.2388 60.9817 66.3191 60.3021 69.8717 63.0164C73.4243 65.7307 74.1038 70.811 71.3896 74.3636C68.6753 77.9162 63.595 78.5958 60.0424 75.8815C56.4898 73.1672 55.8102 68.0869 58.5245 64.5343Z" />
<path d="M83.0022 41.0967C86.3958 38.1861 91.5064 38.5776 94.417 41.9712C97.3276 45.3648 96.936 50.4754 93.5424 53.386C90.1488 56.2966 85.0383 55.9051 82.1276 52.5115C79.217 49.1179 79.6086 44.0073 83.0022 41.0967Z" />
<path d="M111.818 23.2605C115.742 21.119 120.66 22.5646 122.801 26.4892C124.943 30.4138 123.497 35.3313 119.573 37.4727C115.648 39.6142 110.731 38.1686 108.589 34.244C106.448 30.3194 107.893 25.4019 111.818 23.2605Z" />
<path d="M143.712 11.8052C147.996 10.5265 152.506 12.9628 153.784 17.2469C155.063 21.531 152.627 26.0405 148.343 27.3191C144.059 28.5978 139.549 26.1614 138.27 21.8774C136.992 17.5933 139.428 13.0838 143.712 11.8052Z" />
<path d="M177.291 7.23136C181.748 6.87133 185.652 10.192 186.012 14.6483C186.372 19.1046 183.051 23.009 178.595 23.369C174.139 23.7291 170.234 20.4084 169.874 15.9521C169.514 11.4958 172.835 7.59139 177.291 7.23136Z" />
<path d="M211.088 9.739C215.521 10.3134 218.65 14.3733 218.076 18.807C217.501 23.2408 213.441 26.3695 209.008 25.7951C204.574 25.2208 201.445 21.1609 202.02 16.7271C202.594 12.2933 206.654 9.16464 211.088 9.739Z" />
<path d="M243.624 19.2185C247.841 20.7021 250.058 25.3238 248.574 29.5413C247.09 33.7587 242.469 35.9749 238.251 34.4913C234.034 33.0076 231.818 28.386 233.301 24.1685C234.785 19.9511 239.406 17.7348 243.624 19.2185Z" />
<path d="M273.478 35.2555C277.295 37.5836 278.502 42.565 276.174 46.3819C273.846 50.1987 268.865 51.4056 265.048 49.0775C261.231 46.7494 260.024 41.768 262.352 37.9511C264.68 34.1343 269.662 32.9274 273.478 35.2555Z" />
<path d="M299.346 57.1492C302.596 60.2199 302.74 65.3434 299.67 68.5928C296.599 71.8422 291.475 71.987 288.226 68.9163C284.977 65.8455 284.832 60.722 287.903 57.4726C290.973 54.2232 296.097 54.0784 299.346 57.1492Z" />
<path d="M320.097 83.9426C322.637 87.6219 321.713 92.6635 318.034 95.2035C314.355 97.7434 309.313 96.8198 306.773 93.1406C304.233 89.4613 305.157 84.4196 308.836 81.8797C312.515 79.3398 317.557 80.2634 320.097 83.9426Z" />
<path d="M334.823 114.465C336.543 118.592 334.591 123.331 330.464 125.051C326.337 126.77 321.598 124.819 319.878 120.692C318.159 116.565 320.11 111.825 324.237 110.106C328.364 108.386 333.104 110.338 334.823 114.465Z" />
</svg>
