<svg width="224" height="179" viewBox="0 0 224 179" fill="none" xmlns="http://www.w3.org/2000/svg">
<path d="M184.678 59.0934C182.61 53.9782 180.658 48.6532 176.608 44.7172C168.633 36.9657 156.735 31.242 146.186 28.1149C129.938 23.2982 110.687 23.5628 93.9682 24.7759C77.9504 25.9382 61.2178 27.825 46.0166 33.3089C26.0827 40.5003 6.85111 58.1903 4.55744 80.3331C3.19366 93.4987 4.02949 105.981 10.4934 117.804C17.203 130.076 30.6802 138.791 42.5 145C54.6577 151.386 68.2431 156.569 81.2615 161.025C91.3283 164.472 99.5964 167.936 110 170C121.271 172.236 135.311 173.931 146.882 174.01C163.15 174.123 178.483 174.25 193.5 168.26C205.467 163.486 211.856 153.227 215.749 141.548C218.766 132.497 220.061 123.451 219.18 113.908C217.145 91.8546 206.842 72.4543 196.642 53.1574C187.832 36.4896 177.743 20.5759 168.817 4" stroke-width="8" stroke-linecap="round" pathLength="1"/>
</svg>
