<svg width="211" height="145" viewBox="0 0 211 145" fill="none" xmlns="http://www.w3.org/2000/svg">
<path d="M15 10C15 10 11 60.5 11 76C11 91.5 12 96 12 96" stroke-width="6" stroke-linecap="round" pathLength="1" style="--delay: 0.4s"/>
<path d="M14.8101 9L2.99991 28.5678" stroke-width="6" stroke-linecap="round" pathLength="1"/>
<path d="M15 10L28 39" stroke-width="6" stroke-linecap="round" pathLength="1" style="--delay: 0.2s"/>
<path d="M129 32C129 32 133 50.5 133 66C133 81.5 129.5 106.5 129.5 106.5" stroke-width="6" stroke-linecap="round" pathLength="1" style="--delay: 0.4s"/>
<path d="M128.81 31L118 58" stroke-width="6" stroke-linecap="round" pathLength="1"/>
<path d="M129 31.6318L145.003 51.5996" stroke-width="6" stroke-linecap="round" pathLength="1"/>
<path d="M178.922 27.8636C178.922 27.8636 186.231 55.4287 189.675 70.5411C193.12 85.6535 195.109 112.38 195.109 112.38" stroke-width="6" stroke-linecap="round" pathLength="1" style="--delay: 0.4s"/>
<path d="M174.596 20.1328L171.349 48.6345" stroke-width="6" stroke-linecap="round" pathLength="1"/>
<path d="M176.177 20.0002C176.177 20.0002 182.881 29.6343 186.769 33.4918C190.658 37.3492 199.369 44.9913 199.369 44.9913" stroke-width="6" stroke-linecap="round" pathLength="1"/>
<path d="M74.6865 5C74.6865 5 78.1865 41.5 78.1865 57C78.1865 72.5 78.6865 142 78.6865 142" stroke-width="6" stroke-linecap="round" pathLength="1" style="--delay: 0.4s"/>
<path d="M75.6866 3.0002C75.6866 3.0002 82.3908 12.6343 86.2792 16.4918C90.1677 20.3492 98.8792 27.9913 98.8792 27.9913" stroke-width="6" stroke-linecap="round" pathLength="1"/>
<path d="M74.5767 3C74.5767 3 70.1202 13.115 65.036 26.2607C59.9519 39.4064 56.6865 42.5 56.6865 42.5" stroke-width="6" stroke-linecap="round" pathLength="1"/>
</svg>
