<svg width="20" height="20" viewBox="0 0 20 20" fill="none" xmlns="http://www.w3.org/2000/svg">
<path fill-rule="evenodd" clip-rule="evenodd" d="M5.83366 2.7085C4.56801 2.7085 3.54199 3.73451 3.54199 5.00016V15.0002C3.54199 16.2658 4.56801 17.2918 5.83366 17.2918H14.167C15.4326 17.2918 16.4587 16.2658 16.4587 15.0002V5.00016C16.4587 3.73451 15.4326 2.7085 14.167 2.7085H5.83366ZM4.79199 5.00016C4.79199 4.42487 5.25836 3.9585 5.83366 3.9585H14.167C14.7423 3.9585 15.2087 4.42487 15.2087 5.00016V15.0002C15.2087 15.5755 14.7423 16.0418 14.167 16.0418H5.83366C5.25836 16.0418 4.79199 15.5755 4.79199 15.0002V5.00016ZM7.50033 6.04183C7.15515 6.04183 6.87533 6.32165 6.87533 6.66683C6.87533 7.01201 7.15515 7.29183 7.50033 7.29183H10.417C10.7622 7.29183 11.042 7.01201 11.042 6.66683C11.042 6.32165 10.7622 6.04183 10.417 6.04183H7.50033ZM6.87533 9.5835C6.87533 9.23832 7.15515 8.9585 7.50033 8.9585H12.5003C12.8455 8.9585 13.1253 9.23832 13.1253 9.5835C13.1253 9.92867 12.8455 10.2085 12.5003 10.2085H7.50033C7.15515 10.2085 6.87533 9.92867 6.87533 9.5835ZM7.50033 11.8752C7.15515 11.8752 6.87533 12.155 6.87533 12.5002C6.87533 12.8453 7.15515 13.1252 7.50033 13.1252H11.667C12.0122 13.1252 12.292 12.8453 12.292 12.5002C12.292 12.155 12.0122 11.8752 11.667 11.8752H7.50033Z" fill="#77757D"/>
</svg>
