<svg width="33" height="32" viewBox="0 0 33 32" fill="none" xmlns="http://www.w3.org/2000/svg">
<path fill-rule="evenodd" clip-rule="evenodd" d="M26.0382 6.29473C25.1991 5.45732 23.8379 5.45732 22.9988 6.29473L21.8191 7.47211L24.8557 10.5027L26.0382 9.32254C26.8762 8.48621 26.8762 7.13107 26.0382 6.29473ZM23.4401 11.9155L20.4035 8.88494L6 23.2601V26.3334H8.99378L23.4401 11.9155ZM21.586 4.87913C23.2058 3.26252 25.8312 3.26252 27.451 4.87913C29.0719 6.49683 29.0719 9.12045 27.451 10.7381L10.1138 28.0412C9.92635 28.2283 9.6723 28.3334 9.40742 28.3334H5C4.44772 28.3334 4 27.8857 4 27.3334V22.8453C4 22.5798 4.10563 22.3251 4.29359 22.1375L21.586 4.87913Z" fill="#424149"/>
</svg>
