<svg width="20" height="20" viewBox="0 0 20 20" fill="none" xmlns="http://www.w3.org/2000/svg">
<g clip-path="url(#clip0_17237_15302)">
<path fill-rule="evenodd" clip-rule="evenodd" d="M10.0001 4.1665C10.4603 4.1665 10.8334 4.5396 10.8334 4.99984V9.1665H15.0001C15.4603 9.1665 15.8334 9.5396 15.8334 9.99984C15.8334 10.4601 15.4603 10.8332 15.0001 10.8332H10.8334V14.9998C10.8334 15.4601 10.4603 15.8332 10.0001 15.8332C9.53984 15.8332 9.16675 15.4601 9.16675 14.9998V10.8332H5.00008C4.53984 10.8332 4.16675 10.4601 4.16675 9.99984C4.16675 9.5396 4.53984 9.1665 5.00008 9.1665H9.16675V4.99984C9.16675 4.5396 9.53984 4.1665 10.0001 4.1665Z" fill="#1E96EB"/>
</g>
<defs>
<clipPath id="clip0_17237_15302">
<rect width="20" height="20" fill="white"/>
</clipPath>
</defs>
</svg>
