<svg width="245" height="168" viewBox="0 0 245 168" fill="none" xmlns="http://www.w3.org/2000/svg">
<path d="M231.446 -21.8193C234.525 -27.1527 242.223 -27.1527 245.303 -21.8193L287.355 51.0176C290.434 56.351 286.585 63.0176 280.427 63.0176H196.322C190.164 63.0176 186.315 56.351 189.394 51.0176L231.446 -21.8193Z" fill="white" fill-opacity="0.02"/>
<path d="M201.957 -29.1914C205.036 -34.5248 212.734 -34.5247 215.813 -29.1914L281.679 84.8909C284.758 90.2242 280.909 96.8909 274.75 96.8909H143.019C136.861 96.8909 133.012 90.2242 136.091 84.8909L201.957 -29.1914Z" fill="white" fill-opacity="0.02"/>
<path d="M179.933 -125.045C183.012 -130.378 190.71 -130.378 193.789 -125.045L341.034 129.99C344.113 135.323 340.264 141.99 334.106 141.99H39.6167C33.4583 141.99 29.6093 135.323 32.6885 129.99L179.933 -125.045Z" fill="white" fill-opacity="0.02"/>
</svg>
