<svg width="478" height="58" viewBox="0 0 478 58" fill="none" xmlns="http://www.w3.org/2000/svg">
<path d="M3.43335 48.4122C13.0785 48.4122 22.754 46.4523 32.3419 45.4078C75.0681 40.7536 117.681 34.8349 160.392 30.0168C179.706 27.8381 199.067 25.775 218.441 24.4297C225.915 23.9107 234.616 22.692 242.022 24.7986C248.211 26.559 241.52 33.9939 239.845 37.1853C238.189 40.3393 232.48 49.5734 235.907 53.4723C237.549 55.3414 242.597 54.5239 244.246 54.4211C256.278 53.6702 268.036 50.6079 279.825 47.9906C324.64 38.0419 369.91 30.4552 414.547 19.5278C445.4 11.9746 443.933 12.4728 474.577 3.99228" stroke="white" stroke-width="6" stroke-linecap="round"/>
</svg>
