<svg width="86" height="86" viewBox="0 0 86 86" fill="none" xmlns="http://www.w3.org/2000/svg">
<g opacity="0.14">
<path d="M24.7767 10.4263L35.7042 28.6433C31.5873 31.1216 28.8335 35.6339 28.8335 40.7893C20.5368 40.8052 15.8841 40.8005 7.5835 40.7893C7.5835 27.8969 14.4793 16.6209 24.7767 10.4263Z" fill="white"/>
<path d="M61.2227 71.1645C55.8989 74.3652 49.6646 76.2058 43.0003 76.2058C36.3369 76.2058 30.1033 74.3657 24.7799 71.1658L35.7063 52.9536C37.8356 54.2334 40.3319 54.9558 42.9971 54.9558C45.6665 54.9558 48.1635 54.2175 50.295 52.9339L61.2227 71.1645Z" fill="white"/>
<path d="M57.1668 40.7901H78.4168C78.4168 27.8952 71.5191 16.6201 61.2183 10.4263L50.2772 28.6564C54.3975 31.1339 57.1668 35.6322 57.1668 40.7901Z" fill="white"/>
</g>
<path d="M61.2183 10.427C71.5191 16.6208 78.4168 27.8959 78.4168 40.7908H57.1668C57.1668 35.6328 54.3975 31.1346 50.2772 28.657L61.2183 10.4218M7.5835 40.7908C15.8841 40.802 20.5368 40.8067 28.8335 40.7908C28.8335 35.6354 31.5873 31.1232 35.7042 28.6449L24.7767 10.4279C14.4793 16.6225 7.5835 27.8984 7.5835 40.7908ZM46.5418 40.7908C46.5418 42.7468 44.9562 44.3325 43.0002 44.3325C41.0442 44.3325 39.4585 42.7468 39.4585 40.7908C39.4585 38.8348 41.0442 37.2491 43.0002 37.2491C44.9562 37.2491 46.5418 38.8348 46.5418 40.7908ZM61.2227 71.1661C55.8989 74.3667 49.6646 76.2074 43.0003 76.2074C36.3369 76.2074 30.1033 74.3672 24.7799 71.1673L35.7063 52.9551C37.8356 54.235 40.3319 54.9574 42.9971 54.9574C45.6665 54.9574 48.1635 54.2191 50.295 52.9355L61.2227 71.1661Z" stroke="white" stroke-width="7.08333" stroke-linecap="round" stroke-linejoin="round"/>
</svg>
