<svg width="21" height="20" viewBox="0 0 21 20" fill="none" xmlns="http://www.w3.org/2000/svg">
<path d="M10.5001 18.3333C15.1025 18.3333 18.8334 14.6023 18.8334 9.99996C18.8334 5.39759 15.1025 1.66663 10.5001 1.66663C5.89771 1.66663 2.16675 5.39759 2.16675 9.99996C2.16675 14.6023 5.89771 18.3333 10.5001 18.3333Z" fill="#7A7A7A"/>
<path d="M16.0435 10.0794C16.0435 9.40387 15.4972 8.86734 14.8315 8.86734C14.517 8.86691 14.2145 8.98794 13.9871 9.20517C13.1526 8.60901 12.01 8.22164 10.7384 8.17196L11.2946 5.56903L13.1028 5.9564C13.1228 6.41344 13.5002 6.78108 13.9672 6.78108C14.4441 6.78108 14.8315 6.39371 14.8315 5.91663C14.8315 5.4398 14.4441 5.05237 13.9672 5.05237C13.6295 5.05237 13.3313 5.25107 13.1922 5.53922L11.1756 5.112C11.1159 5.10198 11.0563 5.112 11.0165 5.14182C10.9668 5.17164 10.9371 5.22125 10.9273 5.28088L10.3111 8.18179C9.01965 8.22164 7.85721 8.60901 7.01281 9.21513C6.78538 8.99791 6.48284 8.8769 6.16834 8.87737C5.49276 8.87737 4.9563 9.42366 4.9563 10.0894C4.9563 10.5861 5.25428 11.0033 5.67166 11.1922C5.65139 11.3137 5.64142 11.4366 5.64185 11.5598C5.64185 13.4274 7.81763 14.9475 10.5 14.9475C13.1824 14.9475 15.3582 13.4374 15.3582 11.5598C15.3581 11.4367 15.3481 11.3137 15.3284 11.1922C15.7456 11.0033 16.0435 10.5761 16.0435 10.0794ZM7.71815 10.9436C7.71815 10.4668 8.10552 10.0794 8.5826 10.0794C9.05942 10.0794 9.44686 10.4668 9.44686 10.9436C9.44686 11.4205 9.05949 11.8081 8.5826 11.8081C8.10558 11.8179 7.71815 11.4205 7.71815 10.9436ZM12.5565 13.2386C11.9604 13.8348 10.8278 13.8746 10.5 13.8746C10.1622 13.8746 9.02967 13.8248 8.44334 13.2386C8.35409 13.1492 8.35409 13.0101 8.44334 12.9207C8.5328 12.8315 8.67186 12.8315 8.76131 12.9207C9.13892 13.2983 9.93371 13.4274 10.5 13.4274C11.0663 13.4274 11.8709 13.2983 12.2385 12.9207C12.328 12.8315 12.467 12.8315 12.5565 12.9207C12.6359 13.0101 12.6359 13.1492 12.5565 13.2386ZM12.3974 11.8179C11.9206 11.8179 11.5332 11.4306 11.5332 10.9537C11.5332 10.4768 11.9206 10.0894 12.3974 10.0894C12.8745 10.0894 13.2618 10.4768 13.2618 10.9537C13.2618 11.4205 12.8745 11.8179 12.3974 11.8179Z" fill="white"/>
</svg>
