<svg width="50" height="50" viewBox="0 0 50 50" fill="none" xmlns="http://www.w3.org/2000/svg">
<g clip-path="url(#clip0_280_26837)">
<path d="M19.6768 29.8342C18.3292 29.8342 17.2452 28.7502 17.2452 27.4319C17.2452 26.0842 18.3292 25.0002 19.6768 25.0002C21.0049 25.0002 22.0792 26.0842 22.0792 27.4319C22.0792 28.76 20.9952 29.8342 19.6768 29.8342ZM49.2178 25.0002C49.2178 38.3792 38.378 49.219 24.9991 49.219C11.6202 49.219 0.780334 38.3792 0.780334 25.0002C0.780334 11.6213 11.6202 0.781494 24.9991 0.781494C38.378 0.781494 49.2178 11.6213 49.2178 25.0002ZM36.2979 20.9768C35.3799 20.9768 34.5694 21.3577 33.9737 21.9534C31.7862 20.4397 28.837 19.4631 25.5655 19.3557L27.2647 11.7092L32.6749 12.9299C32.6749 14.2581 33.7589 15.3323 35.0772 15.3323C36.4249 15.3323 37.5089 14.2288 37.5089 12.9006C37.5089 11.5725 36.4249 10.469 35.0772 10.469C34.1299 10.469 33.3194 11.0354 32.919 11.8167L26.9424 10.4885C26.6495 10.4104 26.3467 10.6252 26.2686 10.9182L24.4034 19.3557C21.1612 19.4924 18.2413 20.4592 16.0538 21.9729C15.4581 21.3479 14.6182 20.9768 13.7003 20.9768C10.2921 20.9768 9.17877 25.5569 12.294 27.1096C12.1866 27.5979 12.128 28.1057 12.128 28.6233C12.128 33.76 17.9092 37.9202 25.0186 37.9202C32.1573 37.9202 37.9385 33.76 37.9385 28.6233C37.9385 28.1057 37.8799 27.5686 37.753 27.0803C40.8096 25.5178 39.6866 20.9768 36.2979 20.9768ZM29.5694 32.3245C27.7921 34.1018 22.1378 34.0725 20.4288 32.3245C20.2139 32.1096 19.8331 32.1096 19.6182 32.3245C19.3741 32.5686 19.3741 32.9495 19.6182 33.1643C21.8448 35.3909 28.1436 35.3909 30.3799 33.1643C30.6241 32.9495 30.6241 32.5686 30.3799 32.3245C30.1651 32.1096 29.7842 32.1096 29.5694 32.3245ZM30.3214 25.0002C28.9932 25.0002 27.919 26.0842 27.919 27.4319C27.919 28.76 29.003 29.8342 30.3214 29.8342C31.669 29.8342 32.753 28.7502 32.753 27.4319C32.753 26.0842 31.6788 25.0002 30.3214 25.0002Z" fill="white"/>
</g>
<defs>
<clipPath id="clip0_280_26837">
<rect width="50" height="50" fill="white"/>
</clipPath>
</defs>
</svg>
