<svg xmlns="http://www.w3.org/2000/svg" viewBox="0 0 24 24" width="1em" height="1em" fill="none" style="user-select: none; flex-shrink: 0;"><path fill="currentColor" fill-rule="evenodd" d="M18.303 4.498a.85.85 0 0 1 1.2 0c.33.33.33.863 0 1.192l-.43.428-1.196-1.195.426-.425Zm-1.488 1.485 1.197 1.195-7.086 7.072H9.75v-1.216l7.065-7.051Zm3.747-2.547a2.35 2.35 0 0 0-3.318 0L8.47 12.192a.75.75 0 0 0-.22.531V15c0 .414.336.75.75.75h2.236a.75.75 0 0 0 .53-.22l8.796-8.778c.917-.915.917-2.4 0-3.316ZM4.75 6c0-.69.56-1.25 1.25-1.25h6a.75.75 0 0 0 0-1.5H6A2.75 2.75 0 0 0 3.25 6v12A2.75 2.75 0 0 0 6 20.75h12A2.75 2.75 0 0 0 20.75 18v-6a.75.75 0 0 0-1.5 0v6c0 .69-.56 1.25-1.25 1.25H6c-.69 0-1.25-.56-1.25-1.25V6Z" clip-rule="evenodd"></path></svg>
