<svg width="31" height="30" viewBox="0 0 31 30" fill="none" xmlns="http://www.w3.org/2000/svg">
<g id="reply">
<path id="Icon" fill-rule="evenodd" clip-rule="evenodd" d="M11.172 7.86612C11.6601 8.35427 11.6601 9.14573 11.172 9.63388L8.30585 12.5L19.3397 12.5C20.3459 12.5 21.1764 12.5 21.8529 12.5552C22.5555 12.6126 23.2014 12.7359 23.808 13.045C24.7488 13.5243 25.5138 14.2892 25.9931 15.23C26.3022 15.8367 26.4254 16.4826 26.4828 17.1852C26.5381 17.8617 26.5381 18.6921 26.5381 19.6983V21.25C26.5381 21.9404 25.9784 22.5 25.2881 22.5C24.5977 22.5 24.0381 21.9404 24.0381 21.25V19.75C24.0381 18.6793 24.0371 17.9514 23.9911 17.3888C23.9464 16.8408 23.8652 16.5605 23.7656 16.365C23.5259 15.8946 23.1435 15.5122 22.6731 15.2725C22.4776 15.1729 22.1973 15.0917 21.6493 15.0469C21.0867 15.001 20.3588 15 19.2881 15H8.30585L11.172 17.8661C11.6601 18.3543 11.6601 19.1457 11.172 19.6339C10.6838 20.122 9.89236 20.122 9.4042 19.6339L4.4042 14.6339C3.91605 14.1457 3.91605 13.3543 4.4042 12.8661L9.4042 7.86612C9.89236 7.37796 10.6838 7.37796 11.172 7.86612Z" fill="white"/>
</g>
</svg>
