<svg width="546" height="45" viewBox="0 0 546 45" fill="none" xmlns="http://www.w3.org/2000/svg">
<path fill-rule="evenodd" clip-rule="evenodd" d="M258.977 0.114076C225.117 1.05538 160.104 9.70846 98.9488 21.4132C94.0173 22.3571 87.5205 23.6014 84.5114 24.1784C43.9355 31.9582 22.1133 36.8643 6.83853 41.6415C0.877232 43.5061 0.365083 43.7321 0.522831 44.4288C0.753222 45.4453 1.72312 45.2883 12.7846 42.4437C24.2309 39.5002 34.4903 37.3629 62.6273 32.0603C156.667 14.3376 200.59 7.84049 249.858 4.36534C259.513 3.68426 274.934 3.80287 274.934 4.55808C274.934 5.56687 265.262 9.00724 242.867 15.964C215.317 24.5226 198.546 30.1999 197.061 31.4702C194.523 33.6408 197.314 35.2071 203.354 35.0019C206.806 34.8846 207.59 34.7958 223.415 32.7303C268.85 26.8 297.888 23.7902 337.243 20.9319C397.174 16.5789 435.359 14.9731 507.149 13.7862C532.945 13.3598 534.279 13.3003 539.04 12.3668C540.875 12.007 543.067 11.6553 543.911 11.5852C545.89 11.4211 545.865 11.2113 543.85 11.0565C542.972 10.9891 540.955 10.6671 539.367 10.3409C535.451 9.53663 532.855 9.49462 510.492 9.87327C435.522 11.1425 396.075 12.7656 338.914 16.9331C308.852 19.1247 295.456 20.3156 273.566 22.7426C258.601 24.4017 219.101 29.2318 213.567 30.079C210.548 30.5413 223.653 26.1803 246.672 19.063C275.79 10.0597 281.587 7.61448 281.614 4.32505C281.644 0.615715 276.352 -0.368742 258.977 0.114076Z" fill="#E6E6E6"/>
</svg>
