<svg width="475" height="40" viewBox="0 0 475 40" fill="none" xmlns="http://www.w3.org/2000/svg">
<path fill-rule="evenodd" clip-rule="evenodd" d="M369.643 1.26877C308.642 -0.728856 268.141 -0.256139 187.024 3.40008C179.89 3.72145 168.736 4.22067 162.238 4.5095C108.708 6.88706 33.7877 15.2128 13.0232 21.0913C8.71687 22.3104 0.986382 25.8731 0.953595 26.654C0.948174 26.7831 1.31009 26.5954 2.73908 25.7279C9.32709 21.7285 26.6823 18.6332 69.2988 13.857C94.4723 11.0355 121.95 8.6879 144.555 7.42743C161.81 6.46516 243.626 3.33669 246.366 3.53466C246.928 3.57517 243.805 3.78133 239.425 3.99271C192.373 6.26414 176.341 7.31278 147.908 9.97954C125.878 12.0456 112.936 13.6957 79.833 18.6598C67.3787 20.5272 67.7392 20.4536 67.5122 21.1825C66.9374 23.0289 68.5179 23.1369 78.7323 21.9488C148.003 13.893 189.237 11.6372 253.685 12.3774C271.026 12.5767 331.04 14.6123 329.973 14.965C329.363 15.1665 311.261 15.7983 280.936 16.6761C213.087 18.6405 169.563 22.5298 121.473 30.9258C108.138 33.2537 105.729 34.0614 106.81 35.8406C107.951 37.7195 115.504 37.5158 152.514 34.6072C207.942 30.251 228.496 29.3239 272.72 29.1849C283 29.1527 300.645 29.4197 300.133 29.5999C299.99 29.6501 288.825 30.4256 275.322 31.3231C241.535 33.5684 219.841 35.3438 219.062 35.9272C217.86 36.8266 218.138 38.2082 219.615 38.6791C221.417 39.2534 226.581 39.1974 238.49 38.4743C264.317 36.906 290.077 36.5335 328.118 37.1781C333.811 37.2745 340.442 37.3285 342.854 37.2982C348.464 37.2277 357.337 37.6011 361.432 38.08C363.186 38.285 365.367 38.5387 366.279 38.6438C369.738 39.0419 357.775 36.911 352.666 36.2188C339.859 34.4841 323.11 33.5129 303.207 33.3508C298.642 33.3136 294.868 33.2426 294.822 33.1933C294.724 33.0894 299.364 32.8186 321.839 31.6172C339.071 30.6958 339.504 30.6414 340.216 29.3128C340.667 28.4698 340.295 27.4289 339.343 26.8703C338.622 26.4478 313.552 25.5189 299.924 25.4099C267.254 25.1486 249.927 25.3679 228.105 26.3184C206.025 27.2802 191.339 28.3519 154.58 31.6837C132.201 33.7122 120.423 34.6455 116.491 34.7026L114.055 34.7379L117.029 34.1123C126.204 32.183 156.702 27.8172 174.028 25.9529C210.018 22.08 234.562 20.6403 289.547 19.1767C335.748 17.947 345.223 17.3949 345.999 15.888C346.836 14.2644 345.508 13.2232 341.739 12.5471C336.598 11.6251 272.766 9.12517 250.112 8.95848C227.899 8.79519 201.493 9.17608 187.521 9.8615C186.038 9.93433 184.422 9.96251 183.93 9.92421C180.313 9.6428 230.348 6.97881 258.955 5.92979C290.295 4.7807 315.066 4.39798 349.382 4.53272C371.569 4.62009 428.101 7.34692 450.952 9.4325C472.119 11.3645 472.88 11.4105 473.549 10.8054C474.248 10.1742 474.287 9.68601 473.69 9.04813C472.931 8.23627 468.486 7.63646 458.361 6.97939C454.635 6.73747 446.415 6.04672 440.096 5.44407C433.776 4.84166 425.961 4.12356 422.73 3.84821C416.633 3.32877 383.727 1.73006 369.643 1.26877ZM256.569 3.34042C256.393 3.4021 256.047 3.39187 255.801 3.31749C255.555 3.24312 255.699 3.19271 256.121 3.2054C256.544 3.2181 256.745 3.27875 256.569 3.34042ZM253.23 3.4644C252.913 3.51083 252.337 3.48817 251.95 3.41421C251.564 3.34 251.823 3.30199 252.527 3.32952C253.231 3.35731 253.547 3.41798 253.23 3.4644ZM249.761 3.57387C249.371 3.61524 248.738 3.58866 248.353 3.51477C247.969 3.44088 248.287 3.40712 249.062 3.43963C249.836 3.47213 250.151 3.5325 249.761 3.57387ZM182.449 10.0726C182.13 10.1192 181.612 10.0974 181.298 10.0242C180.984 9.95077 181.245 9.91257 181.878 9.93916C182.512 9.96576 182.768 10.0257 182.449 10.0726ZM179.624 10.1949C179.445 10.2575 179.158 10.2454 178.984 10.1681C178.812 10.091 178.958 10.0399 179.31 10.0547C179.662 10.0695 179.803 10.1326 179.624 10.1949ZM368.505 39.0496C368.678 39.127 368.966 39.1391 369.145 39.0765C369.324 39.0142 369.182 38.951 368.831 38.9362C368.479 38.9215 368.332 38.9725 368.505 39.0496Z" fill="#77757D"/>
</svg>
