<svg width="32" height="32" viewBox="0 0 32 32" fill="none" xmlns="http://www.w3.org/2000/svg">
<path fill-rule="evenodd" clip-rule="evenodd" d="M15.9999 4C15.5167 4 15.1249 4.39312 15.1249 4.87805C15.1249 5.36298 15.5167 5.7561 15.9999 5.7561H19.4999V26.2439H15.9999C15.5167 26.2439 15.1249 26.637 15.1249 27.122C15.1249 27.6069 15.5167 28 15.9999 28H24.7499C25.2332 28 25.6249 27.6069 25.6249 27.122C25.6249 26.637 25.2332 26.2439 24.7499 26.2439H21.2499V5.7561H24.7499C25.2332 5.7561 25.6249 5.36298 25.6249 4.87805C25.6249 4.39312 25.2332 4 24.7499 4H15.9999ZM6.66659 9.85366C6.34442 9.85366 6.08325 10.1157 6.08325 10.439V22.1463C6.08325 22.4696 6.34442 22.7317 6.66659 22.7317H16.8749C17.3582 22.7317 17.7499 23.1248 17.7499 23.6098C17.7499 24.0947 17.3582 24.4878 16.8749 24.4878H6.66659C5.37792 24.4878 4.33325 23.4395 4.33325 22.1463V10.439C4.33325 9.14587 5.37792 8.09756 6.66659 8.09756H16.8749C17.3582 8.09756 17.7499 8.49068 17.7499 8.97561C17.7499 9.46054 17.3582 9.85366 16.8749 9.85366H6.66659ZM25.3333 22.7317C25.6554 22.7317 25.9166 22.4696 25.9166 22.1463V10.439C25.9166 10.1157 25.6554 9.85366 25.3333 9.85366H23.8749C23.3917 9.85366 22.9999 9.46054 22.9999 8.97561C22.9999 8.49068 23.3917 8.09756 23.8749 8.09756H25.3333C26.6219 8.09756 27.6666 9.14587 27.6666 10.439V22.1463C27.6666 23.4395 26.6219 24.4878 25.3333 24.4878H23.8749C23.3917 24.4878 22.9999 24.0947 22.9999 23.6098C22.9999 23.1248 23.3917 22.7317 23.8749 22.7317H25.3333Z" fill="white"/>
</svg>
