<svg width="20" height="20" viewBox="0 0 20 20" fill="none" xmlns="http://www.w3.org/2000/svg">
<path fill-rule="evenodd" clip-rule="evenodd" d="M1.87507 5.83329C1.87507 4.56764 2.90108 3.54163 4.16673 3.54163H15.8334C17.0991 3.54163 18.1251 4.56764 18.1251 5.83329V6.65696C18.1252 6.66302 18.1252 6.66909 18.1251 6.67515V14.1666C18.1251 15.4323 17.0991 16.4583 15.8334 16.4583H4.16673C2.90108 16.4583 1.87507 15.4323 1.87507 14.1666V6.67517C1.87498 6.6691 1.87498 6.66301 1.87507 6.65693V5.83329ZM3.12507 7.83445V14.1666C3.12507 14.7419 3.59144 15.2083 4.16673 15.2083H15.8334C16.4087 15.2083 16.8751 14.7419 16.8751 14.1666V7.83445L11.2713 11.5703C10.5015 12.0835 9.49865 12.0835 8.72888 11.5703L3.12507 7.83445ZM16.8751 6.33214L10.5779 10.5303C10.228 10.7635 9.77215 10.7635 9.42225 10.5303L3.12507 6.33214V5.83329C3.12507 5.258 3.59144 4.79163 4.16673 4.79163H15.8334C16.4087 4.79163 16.8751 5.258 16.8751 5.83329V6.33214Z" fill="#7A7A7A"/>
</svg>
