<svg width="16" height="17" viewBox="0 0 16 17" fill="none" xmlns="http://www.w3.org/2000/svg">
<g clip-path="url(#clip0_16905_136394)">
<path d="M7.41813 3.39847C7.3881 3.13333 7.16393 2.93291 6.89709 2.93264C6.63026 2.93237 6.40568 3.13233 6.37511 3.39741C6.1763 5.12109 5.66094 6.33314 4.82955 7.16454C3.99816 7.99593 2.78611 8.51128 1.06242 8.71009C0.797344 8.74067 0.597384 8.96524 0.597657 9.23208C0.597929 9.49891 0.798347 9.72308 1.06349 9.75312C2.75869 9.94513 3.9965 10.4603 4.84763 11.296C5.69556 12.1286 6.22167 13.3404 6.37371 15.052C6.39779 15.323 6.62502 15.5307 6.89715 15.5304C7.16927 15.5301 7.39604 15.3219 7.41951 15.0508C7.56523 13.3674 8.09085 12.1301 8.94299 11.278C9.79512 10.4258 11.0324 9.90022 12.7158 9.7545C12.9869 9.73103 13.1952 9.50426 13.1955 9.23213C13.1958 8.96001 12.9881 8.73277 12.717 8.70869C11.0054 8.55665 9.79363 8.03054 8.96103 7.18261C8.12529 6.33148 7.61015 5.09367 7.41813 3.39847Z" fill="white"/>
<path d="M13.0484 1.01416C13.0367 0.911054 12.9495 0.833114 12.8457 0.833008C12.742 0.832902 12.6546 0.910664 12.6427 1.01375C12.5654 1.68407 12.365 2.15542 12.0417 2.47874C11.7184 2.80206 11.247 3.00248 10.5767 3.07979C10.4736 3.09168 10.3958 3.17902 10.3959 3.28279C10.3961 3.38656 10.474 3.47374 10.5771 3.48541C11.2363 3.56009 11.7177 3.76042 12.0487 4.08543C12.3785 4.40922 12.5831 4.88047 12.6422 5.54608C12.6516 5.6515 12.7399 5.73227 12.8457 5.73215C12.9516 5.73203 13.0398 5.65106 13.0489 5.54563C13.1056 4.89096 13.31 4.4098 13.6414 4.07841C13.9727 3.74703 14.4539 3.54262 15.1086 3.48595C15.214 3.47682 15.295 3.38864 15.2951 3.28281C15.2952 3.17698 15.2144 3.08861 15.109 3.07925C14.4434 3.02012 13.9722 2.81553 13.6484 2.48577C13.3234 2.15478 13.123 1.67341 13.0484 1.01416Z" fill="white"/>
</g>
<defs>
<clipPath id="clip0_16905_136394">
<rect width="16" height="16" fill="white" transform="translate(0 0.166504)"/>
</clipPath>
</defs>
</svg>
