<svg width="28" height="29" viewBox="0 0 28 29" fill="none" xmlns="http://www.w3.org/2000/svg">
<path fill-rule="evenodd" clip-rule="evenodd" d="M4.25 8.00008C4.25 6.2972 5.63046 4.91675 7.33333 4.91675H20.6667C22.3695 4.91675 23.75 6.2972 23.75 8.00008V21.3334C23.75 23.0363 22.3695 24.4167 20.6667 24.4167H7.33333C5.63046 24.4167 4.25 23.0363 4.25 21.3334V8.00008ZM7.33333 6.41675C6.45888 6.41675 5.75 7.12563 5.75 8.00008V21.3334C5.75 22.2079 6.45888 22.9167 7.33333 22.9167H20.6667C21.5411 22.9167 22.25 22.2079 22.25 21.3334V8.00008C22.25 7.12563 21.5411 6.41675 20.6667 6.41675H7.33333ZM7.25 10.4967C7.25 9.348 8.18125 8.41675 9.33 8.41675H10.67C11.8188 8.41675 12.75 9.348 12.75 10.4967V11.8367C12.75 12.9855 11.8188 13.9167 10.67 13.9167H9.33C8.18125 13.9167 7.25 12.9855 7.25 11.8367V10.4967ZM9.33 9.91675C9.00968 9.91675 8.75 10.1764 8.75 10.4967V11.8367C8.75 12.1571 9.00968 12.4167 9.33 12.4167H10.67C10.9903 12.4167 11.25 12.1571 11.25 11.8367V10.4967C11.25 10.1764 10.9903 9.91675 10.67 9.91675H9.33ZM14.5 8.91675C14.0858 8.91675 13.75 9.25253 13.75 9.66675C13.75 10.081 14.0858 10.4167 14.5 10.4167H19.5C19.9142 10.4167 20.25 10.081 20.25 9.66675C20.25 9.25253 19.9142 8.91675 19.5 8.91675H14.5ZM13.75 12.6667C13.75 12.2525 14.0858 11.9167 14.5 11.9167H17.5C17.9142 11.9167 18.25 12.2525 18.25 12.6667C18.25 13.081 17.9142 13.4167 17.5 13.4167H14.5C14.0858 13.4167 13.75 13.081 13.75 12.6667ZM9.33 15.4167C8.18125 15.4167 7.25 16.348 7.25 17.4967V18.8367C7.25 19.9855 8.18125 20.9167 9.33 20.9167H10.67C11.8188 20.9167 12.75 19.9855 12.75 18.8367V17.4967C12.75 16.348 11.8188 15.4167 10.67 15.4167H9.33ZM8.75 17.4967C8.75 17.1764 9.00968 16.9167 9.33 16.9167H10.67C10.9903 16.9167 11.25 17.1764 11.25 17.4967V18.8367C11.25 19.1571 10.9903 19.4167 10.67 19.4167H9.33C9.00968 19.4167 8.75 19.1571 8.75 18.8367V17.4967ZM13.75 16.6667C13.75 16.2525 14.0858 15.9167 14.5 15.9167H19.5C19.9142 15.9167 20.25 16.2525 20.25 16.6667C20.25 17.081 19.9142 17.4167 19.5 17.4167H14.5C14.0858 17.4167 13.75 17.081 13.75 16.6667ZM14.5 18.9167C14.0858 18.9167 13.75 19.2525 13.75 19.6667C13.75 20.081 14.0858 20.4167 14.5 20.4167H17.5C17.9142 20.4167 18.25 20.081 18.25 19.6667C18.25 19.2525 17.9142 18.9167 17.5 18.9167H14.5Z" fill="#8E8D91"/>
</svg>
