<svg width="48" height="50" viewBox="0 0 48 50" fill="none" xmlns="http://www.w3.org/2000/svg">
<g clip-path="url(#clip0_280_26840)">
<path d="M24.0001 0.781494C10.7453 0.781494 0.00012207 11.6246 0.00012207 25.0002C0.00012207 38.3759 10.7453 49.219 24.0001 49.219C37.255 49.219 48.0001 38.3759 48.0001 25.0002C48.0001 11.6246 37.255 0.781494 24.0001 0.781494ZM35.1245 17.2522C34.7633 21.0818 33.2005 30.375 32.4052 34.6643C32.0688 36.4791 31.4062 37.0877 30.765 37.1472C29.3715 37.2767 28.313 36.2178 26.9631 35.3249C24.8508 33.9276 23.6574 33.0578 21.607 31.6943C19.2375 30.1186 20.7736 29.2529 22.124 27.8369C22.4774 27.4665 28.6182 21.83 28.737 21.3187C28.7518 21.2547 28.7661 21.016 28.6253 20.8906C28.4846 20.7652 28.2779 20.8077 28.1284 20.8417C27.9166 20.8903 24.5422 23.141 18.0051 27.5939C17.0473 28.2576 16.1798 28.5809 15.4024 28.564C14.5455 28.5454 12.8971 28.0751 11.6717 27.6731C10.1687 27.1801 8.97409 26.9195 9.07812 26.0822C9.13232 25.646 9.72748 25.2 10.8636 24.7443C17.8601 21.6682 22.5255 19.6402 24.8599 18.6603C31.5249 15.8627 32.9098 15.3768 33.8125 15.3606C34.0111 15.3573 34.455 15.4069 34.7425 15.6423C34.9338 15.8101 35.0557 16.0441 35.0842 16.2982C35.1329 16.6137 35.1464 16.9337 35.1245 17.2522Z" fill="white"/>
</g>
<defs>
<clipPath id="clip0_280_26840">
<rect width="48" height="50" fill="white"/>
</clipPath>
</defs>
</svg>
