<svg width="22" height="22" viewBox="0 0 22 22" fill="none" xmlns="http://www.w3.org/2000/svg">
<path d="M11 21.4994C16.799 21.4994 21.5 16.7984 21.5 10.9994C21.5 5.20038 16.799 0.499374 11 0.499374C5.20101 0.499374 0.5 5.20038 0.5 10.9994C0.5 16.7984 5.20101 21.4994 11 21.4994ZM9.25374 13.135L14.1224 8.74144C14.3361 8.55179 14.0757 8.45931 13.7921 8.63133L7.78319 12.4223L5.18767 11.6122C4.62716 11.4405 4.62313 11.0554 5.31351 10.7785L15.4276 6.8785C15.8896 6.66878 16.3354 6.98945 16.1591 7.69647L14.4366 15.8132C14.3164 16.39 13.9679 16.528 13.485 16.2615L10.8612 14.323L9.6 15.5494C9.45348 15.6918 9.3375 15.8119 9.075 15.8119L9.25374 13.135Z" fill="white" />
</svg>
