<svg width="16" height="16" viewBox="0 0 16 16" fill="none" xmlns="http://www.w3.org/2000/svg">
<path d="M12.8609 1.97058H2.5C2.22386 1.97058 2 2.19444 2 2.47058V8.35293C2 8.62908 2.22386 8.85293 2.5 8.85293H5.05882L6.5 10.9999L8.0357 13.5665C8.35878 14.1064 9.08454 14.2363 9.57483 13.8419C9.84096 13.6278 9.98454 13.2964 9.95867 12.9558L9.6783 9.26424C9.66144 9.0423 9.83698 8.85293 10.0596 8.85293H13.5701C14.3039 8.85293 14.849 8.1734 14.6898 7.45704L13.6028 2.56571C13.5256 2.21799 13.2171 1.97058 12.8609 1.97058Z" stroke="#AAAAAA"/>
<path d="M5.05884 8.85281V1.97046" stroke="#AAAAAA"/>
</svg>
