<svg width="50" height="50" viewBox="0 0 50 50" fill="none" xmlns="http://www.w3.org/2000/svg">
<path d="M44.8605 14.8161C44.8922 15.2602 44.8922 15.7044 44.8922 16.1486C44.8922 29.6955 34.5814 45.3046 15.7362 45.3046C9.93033 45.3046 4.53697 43.6231 0.000152588 40.7044C0.825055 40.7996 1.61812 40.8313 2.47476 40.8313C7.26529 40.8313 11.6753 39.2133 15.1968 36.4532C10.6918 36.358 6.91636 33.4075 5.61558 29.3465C6.25015 29.4417 6.88463 29.5051 7.55093 29.5051C8.47095 29.5051 9.39107 29.3782 10.2476 29.1562C5.5522 28.2043 2.03052 24.08 2.03052 19.0991V18.9722C3.39468 19.7336 4.98111 20.2095 6.66246 20.2729C3.9023 18.4328 2.094 15.2919 2.094 11.7386C2.094 9.83511 2.60152 8.09019 3.4899 6.56733C8.53433 12.7856 16.1169 16.8464 24.6193 17.2907C24.4607 16.5292 24.3655 15.7362 24.3655 14.943C24.3655 9.29575 28.934 4.69556 34.6129 4.69556C37.5634 4.69556 40.2284 5.93286 42.1003 7.93159C44.4162 7.48745 46.637 6.63081 48.6041 5.45698C47.8425 7.83647 46.2246 9.83521 44.099 11.1042C46.1612 10.8822 48.1599 10.311 50 9.51792C48.6043 11.5483 46.8592 13.3566 44.8605 14.8161Z" fill="white"/>
</svg>
