<svg width="29" height="29" viewBox="0 0 29 29" fill="none" xmlns="http://www.w3.org/2000/svg">
<path fill-rule="evenodd" clip-rule="evenodd" d="M8.83333 3.91675C7.13046 3.91675 5.75 5.2972 5.75 7.00008V22.3334C5.75 22.3909 5.75158 22.4481 5.75469 22.5049C5.75158 22.5584 5.75 22.6124 5.75 22.6667C5.75 24.1855 6.98122 25.4167 8.5 25.4167H8.83333H22.0556H22.5V25.2709C22.6853 25.1344 22.8056 24.9146 22.8056 24.6667C22.8056 24.4189 22.6853 24.1991 22.5 24.0626V23.9167H22.0556H8.83333C8.01857 23.9167 7.34754 23.3013 7.25973 22.51C7.33685 21.8936 7.86274 21.4167 8.5 21.4167H20.1667C21.8695 21.4167 23.25 20.0363 23.25 18.3334V15.6667V7.00008C23.25 5.2972 21.8695 3.91675 20.1667 3.91675H8.83333ZM7.25 20.2166C7.62503 20.0249 8.04989 19.9167 8.5 19.9167H20.1667C21.0411 19.9167 21.75 19.2079 21.75 18.3334V15.6667V7.00008C21.75 6.12563 21.0411 5.41675 20.1667 5.41675H8.83333C7.95888 5.41675 7.25 6.12563 7.25 7.00008V20.2166Z" fill="#8E8D91"/>
</svg>
