<svg width="57" height="51" viewBox="0 0 57 51" fill="none" xmlns="http://www.w3.org/2000/svg">
<path d="M54.0263 12.5236C53.4135 10.2164 51.6081 8.39929 49.3158 7.78264C45.1609 6.66211 28.5002 6.66211 28.5002 6.66211C28.5002 6.66211 11.8396 6.66211 7.68455 7.78264C5.39227 8.39939 3.5869 10.2164 2.97415 12.5236C1.86084 16.7055 1.86084 25.4307 1.86084 25.4307C1.86084 25.4307 1.86084 34.156 2.97415 38.3379C3.5869 40.6451 5.39227 42.3865 7.68455 43.0031C11.8396 44.1237 28.5002 44.1237 28.5002 44.1237C28.5002 44.1237 45.1608 44.1237 49.3158 43.0031C51.6081 42.3865 53.4135 40.6451 54.0263 38.3379C55.1396 34.156 55.1396 25.4307 55.1396 25.4307C55.1396 25.4307 55.1396 16.7055 54.0263 12.5236ZM23.0512 33.3526V17.5089L36.9763 25.4309L23.0512 33.3526Z" fill="white"/>
</svg>
