<svg width="24" height="24" viewBox="0 0 24 24" fill="none" xmlns="http://www.w3.org/2000/svg">
<path d="M22.9024 6.50285C22.6407 5.51743 21.8696 4.74135 20.8906 4.47797C19.116 3.99939 12.0001 3.99939 12.0001 3.99939C12.0001 3.99939 4.88427 3.99939 3.10965 4.47797C2.13061 4.74139 1.35952 5.51743 1.09781 6.50285C0.622314 8.28897 0.622314 12.0156 0.622314 12.0156C0.622314 12.0156 0.622314 15.7421 1.09781 17.5283C1.35952 18.5137 2.13061 19.2574 3.10965 19.5208C4.88427 19.9994 12.0001 19.9994 12.0001 19.9994C12.0001 19.9994 19.1159 19.9994 20.8906 19.5208C21.8696 19.2574 22.6407 18.5137 22.9024 17.5283C23.3779 15.7421 23.3779 12.0156 23.3779 12.0156C23.3779 12.0156 23.3779 8.28897 22.9024 6.50285ZM9.67282 15.399V8.6321L15.6203 12.0156L9.67282 15.399Z" fill="#77757D"/>
</svg>
